<?xml version="1.0" encoding="utf-8"?>
<svg xmlns="http://www.w3.org/2000/svg" xmlns:xlink="http://www.w3.org/1999/xlink" width="600" height="400" viewBox="0 0 2400 1600">
<defs>
  <clipPath id="clip860">
    <rect x="0" y="0" width="2400" height="1600"/>
  </clipPath>
</defs>
<path clip-path="url(#clip860)" d="M0 1600 L2400 1600 L2400 0 L0 0  Z" fill="#ffffff" fill-rule="evenodd" fill-opacity="1"/>
<defs>
  <clipPath id="clip861">
    <rect x="480" y="0" width="1681" height="1600"/>
  </clipPath>
</defs>
<path clip-path="url(#clip860)" d="M86.9921 1505.26 L2352.76 1505.26 L2352.76 47.2441 L86.9921 47.2441  Z" fill="#ffffff" fill-rule="evenodd" fill-opacity="1"/>
<defs>
  <clipPath id="clip862">
    <rect x="86" y="47" width="2267" height="1459"/>
  </clipPath>
</defs>
<polyline clip-path="url(#clip862)" style="stroke:#000000; stroke-linecap:round; stroke-linejoin:round; stroke-width:2; stroke-opacity:0.1; fill:none" points="86.9921,1505.26 86.9921,47.2441 "/>
<polyline clip-path="url(#clip862)" style="stroke:#000000; stroke-linecap:round; stroke-linejoin:round; stroke-width:2; stroke-opacity:0.1; fill:none" points="540.145,1505.26 540.145,47.2441 "/>
<polyline clip-path="url(#clip862)" style="stroke:#000000; stroke-linecap:round; stroke-linejoin:round; stroke-width:2; stroke-opacity:0.1; fill:none" points="993.298,1505.26 993.298,47.2441 "/>
<polyline clip-path="url(#clip862)" style="stroke:#000000; stroke-linecap:round; stroke-linejoin:round; stroke-width:2; stroke-opacity:0.1; fill:none" points="1446.45,1505.26 1446.45,47.2441 "/>
<polyline clip-path="url(#clip862)" style="stroke:#000000; stroke-linecap:round; stroke-linejoin:round; stroke-width:2; stroke-opacity:0.1; fill:none" points="1899.6,1505.26 1899.6,47.2441 "/>
<polyline clip-path="url(#clip862)" style="stroke:#000000; stroke-linecap:round; stroke-linejoin:round; stroke-width:2; stroke-opacity:0.1; fill:none" points="2352.76,1505.26 2352.76,47.2441 "/>
<polyline clip-path="url(#clip860)" style="stroke:#000000; stroke-linecap:round; stroke-linejoin:round; stroke-width:4; stroke-opacity:1; fill:none" points="86.9921,1505.26 2352.76,1505.26 "/>
<polyline clip-path="url(#clip860)" style="stroke:#000000; stroke-linecap:round; stroke-linejoin:round; stroke-width:4; stroke-opacity:1; fill:none" points="86.9921,1505.26 86.9921,1486.36 "/>
<polyline clip-path="url(#clip860)" style="stroke:#000000; stroke-linecap:round; stroke-linejoin:round; stroke-width:4; stroke-opacity:1; fill:none" points="540.145,1505.26 540.145,1486.36 "/>
<polyline clip-path="url(#clip860)" style="stroke:#000000; stroke-linecap:round; stroke-linejoin:round; stroke-width:4; stroke-opacity:1; fill:none" points="993.298,1505.26 993.298,1486.36 "/>
<polyline clip-path="url(#clip860)" style="stroke:#000000; stroke-linecap:round; stroke-linejoin:round; stroke-width:4; stroke-opacity:1; fill:none" points="1446.45,1505.26 1446.45,1486.36 "/>
<polyline clip-path="url(#clip860)" style="stroke:#000000; stroke-linecap:round; stroke-linejoin:round; stroke-width:4; stroke-opacity:1; fill:none" points="1899.6,1505.26 1899.6,1486.36 "/>
<polyline clip-path="url(#clip860)" style="stroke:#000000; stroke-linecap:round; stroke-linejoin:round; stroke-width:4; stroke-opacity:1; fill:none" points="2352.76,1505.26 2352.76,1486.36 "/>
<path clip-path="url(#clip860)" d="M86.9921 1536.18 Q83.381 1536.18 81.5523 1539.74 Q79.7468 1543.28 79.7468 1550.41 Q79.7468 1557.52 81.5523 1561.09 Q83.381 1564.63 86.9921 1564.63 Q90.6264 1564.63 92.4319 1561.09 Q94.2606 1557.52 94.2606 1550.41 Q94.2606 1543.28 92.4319 1539.74 Q90.6264 1536.18 86.9921 1536.18 M86.9921 1532.47 Q92.8023 1532.47 95.8578 1537.08 Q98.9365 1541.66 98.9365 1550.41 Q98.9365 1559.14 95.8578 1563.75 Q92.8023 1568.33 86.9921 1568.33 Q81.182 1568.33 78.1033 1563.75 Q75.0477 1559.14 75.0477 1550.41 Q75.0477 1541.66 78.1033 1537.08 Q81.182 1532.47 86.9921 1532.47 Z" fill="#000000" fill-rule="nonzero" fill-opacity="1" /><path clip-path="url(#clip860)" d="M534.798 1563.72 L551.117 1563.72 L551.117 1567.66 L529.173 1567.66 L529.173 1563.72 Q531.835 1560.97 536.418 1556.34 Q541.025 1551.69 542.205 1550.35 Q544.45 1547.82 545.33 1546.09 Q546.233 1544.33 546.233 1542.64 Q546.233 1539.88 544.288 1538.15 Q542.367 1536.41 539.265 1536.41 Q537.066 1536.41 534.613 1537.17 Q532.182 1537.94 529.404 1539.49 L529.404 1534.77 Q532.228 1533.63 534.682 1533.05 Q537.136 1532.47 539.173 1532.47 Q544.543 1532.47 547.737 1535.16 Q550.932 1537.85 550.932 1542.34 Q550.932 1544.47 550.122 1546.39 Q549.335 1548.28 547.228 1550.88 Q546.649 1551.55 543.548 1554.77 Q540.446 1557.96 534.798 1563.72 Z" fill="#000000" fill-rule="nonzero" fill-opacity="1" /><path clip-path="url(#clip860)" d="M996.307 1537.17 L984.501 1555.62 L996.307 1555.62 L996.307 1537.17 M995.08 1533.1 L1000.96 1533.1 L1000.96 1555.62 L1005.89 1555.62 L1005.89 1559.51 L1000.96 1559.51 L1000.96 1567.66 L996.307 1567.66 L996.307 1559.51 L980.705 1559.51 L980.705 1555 L995.08 1533.1 Z" fill="#000000" fill-rule="nonzero" fill-opacity="1" /><path clip-path="url(#clip860)" d="M1446.86 1548.52 Q1443.71 1548.52 1441.86 1550.67 Q1440.03 1552.82 1440.03 1556.57 Q1440.03 1560.3 1441.86 1562.47 Q1443.71 1564.63 1446.86 1564.63 Q1450 1564.63 1451.83 1562.47 Q1453.68 1560.3 1453.68 1556.57 Q1453.68 1552.82 1451.83 1550.67 Q1450 1548.52 1446.86 1548.52 M1456.14 1533.86 L1456.14 1538.12 Q1454.38 1537.29 1452.57 1536.85 Q1450.79 1536.41 1449.03 1536.41 Q1444.4 1536.41 1441.95 1539.53 Q1439.52 1542.66 1439.17 1548.98 Q1440.54 1546.97 1442.6 1545.9 Q1444.66 1544.81 1447.13 1544.81 Q1452.34 1544.81 1455.35 1547.98 Q1458.38 1551.13 1458.38 1556.57 Q1458.38 1561.9 1455.24 1565.11 Q1452.09 1568.33 1446.86 1568.33 Q1440.86 1568.33 1437.69 1563.75 Q1434.52 1559.14 1434.52 1550.41 Q1434.52 1542.22 1438.41 1537.36 Q1442.3 1532.47 1448.85 1532.47 Q1450.61 1532.47 1452.39 1532.82 Q1454.19 1533.17 1456.14 1533.86 Z" fill="#000000" fill-rule="nonzero" fill-opacity="1" /><path clip-path="url(#clip860)" d="M1899.6 1551.25 Q1896.27 1551.25 1894.35 1553.03 Q1892.45 1554.81 1892.45 1557.94 Q1892.45 1561.06 1894.35 1562.85 Q1896.27 1564.63 1899.6 1564.63 Q1902.94 1564.63 1904.86 1562.85 Q1906.78 1561.04 1906.78 1557.94 Q1906.78 1554.81 1904.86 1553.03 Q1902.96 1551.25 1899.6 1551.25 M1894.93 1549.26 Q1891.92 1548.52 1890.23 1546.46 Q1888.56 1544.4 1888.56 1541.43 Q1888.56 1537.29 1891.5 1534.88 Q1894.46 1532.47 1899.6 1532.47 Q1904.77 1532.47 1907.7 1534.88 Q1910.64 1537.29 1910.64 1541.43 Q1910.64 1544.4 1908.95 1546.46 Q1907.29 1548.52 1904.3 1549.26 Q1907.68 1550.04 1909.56 1552.34 Q1911.45 1554.63 1911.45 1557.94 Q1911.45 1562.96 1908.38 1565.65 Q1905.32 1568.33 1899.6 1568.33 Q1893.89 1568.33 1890.81 1565.65 Q1887.75 1562.96 1887.75 1557.94 Q1887.75 1554.63 1889.65 1552.34 Q1891.55 1550.04 1894.93 1549.26 M1893.21 1541.87 Q1893.21 1544.56 1894.88 1546.06 Q1896.57 1547.57 1899.6 1547.57 Q1902.61 1547.57 1904.3 1546.06 Q1906.02 1544.56 1906.02 1541.87 Q1906.02 1539.19 1904.3 1537.68 Q1902.61 1536.18 1899.6 1536.18 Q1896.57 1536.18 1894.88 1537.68 Q1893.21 1539.19 1893.21 1541.87 Z" fill="#000000" fill-rule="nonzero" fill-opacity="1" /><path clip-path="url(#clip860)" d="M2327.44 1563.72 L2335.08 1563.72 L2335.08 1537.36 L2326.77 1539.03 L2326.77 1534.77 L2335.04 1533.1 L2339.71 1533.1 L2339.71 1563.72 L2347.35 1563.72 L2347.35 1567.66 L2327.44 1567.66 L2327.44 1563.72 Z" fill="#000000" fill-rule="nonzero" fill-opacity="1" /><path clip-path="url(#clip860)" d="M2366.8 1536.18 Q2363.18 1536.18 2361.36 1539.74 Q2359.55 1543.28 2359.55 1550.41 Q2359.55 1557.52 2361.36 1561.09 Q2363.18 1564.63 2366.8 1564.63 Q2370.43 1564.63 2372.23 1561.09 Q2374.06 1557.52 2374.06 1550.41 Q2374.06 1543.28 2372.23 1539.74 Q2370.43 1536.18 2366.8 1536.18 M2366.8 1532.47 Q2372.61 1532.47 2375.66 1537.08 Q2378.74 1541.66 2378.74 1550.41 Q2378.74 1559.14 2375.66 1563.75 Q2372.61 1568.33 2366.8 1568.33 Q2360.99 1568.33 2357.91 1563.75 Q2354.85 1559.14 2354.85 1550.41 Q2354.85 1541.66 2357.91 1537.08 Q2360.99 1532.47 2366.8 1532.47 Z" fill="#000000" fill-rule="nonzero" fill-opacity="1" /><path clip-path="url(#clip860)" d="M1218.94 1604.35 L1218.94 1614.48 L1231 1614.48 L1231 1619.03 L1218.94 1619.03 L1218.94 1638.38 Q1218.94 1642.74 1220.11 1643.98 Q1221.32 1645.22 1224.98 1645.22 L1231 1645.22 L1231 1650.12 L1224.98 1650.12 Q1218.2 1650.12 1215.62 1647.61 Q1213.05 1645.06 1213.05 1638.38 L1213.05 1619.03 L1208.75 1619.03 L1208.75 1614.48 L1213.05 1614.48 L1213.05 1604.35 L1218.94 1604.35 Z" fill="#000000" fill-rule="nonzero" fill-opacity="1" /><polyline clip-path="url(#clip862)" style="stroke:#000000; stroke-linecap:round; stroke-linejoin:round; stroke-width:2; stroke-opacity:0.1; fill:none" points="86.9921,1310.16 2352.76,1310.16 "/>
<polyline clip-path="url(#clip862)" style="stroke:#000000; stroke-linecap:round; stroke-linejoin:round; stroke-width:2; stroke-opacity:0.1; fill:none" points="86.9921,1103.16 2352.76,1103.16 "/>
<polyline clip-path="url(#clip862)" style="stroke:#000000; stroke-linecap:round; stroke-linejoin:round; stroke-width:2; stroke-opacity:0.1; fill:none" points="86.9921,896.153 2352.76,896.153 "/>
<polyline clip-path="url(#clip862)" style="stroke:#000000; stroke-linecap:round; stroke-linejoin:round; stroke-width:2; stroke-opacity:0.1; fill:none" points="86.9921,689.149 2352.76,689.149 "/>
<polyline clip-path="url(#clip862)" style="stroke:#000000; stroke-linecap:round; stroke-linejoin:round; stroke-width:2; stroke-opacity:0.1; fill:none" points="86.9921,482.144 2352.76,482.144 "/>
<polyline clip-path="url(#clip862)" style="stroke:#000000; stroke-linecap:round; stroke-linejoin:round; stroke-width:2; stroke-opacity:0.1; fill:none" points="86.9921,275.14 2352.76,275.14 "/>
<polyline clip-path="url(#clip862)" style="stroke:#000000; stroke-linecap:round; stroke-linejoin:round; stroke-width:2; stroke-opacity:0.1; fill:none" points="86.9921,68.1362 2352.76,68.1362 "/>
<polyline clip-path="url(#clip860)" style="stroke:#000000; stroke-linecap:round; stroke-linejoin:round; stroke-width:4; stroke-opacity:1; fill:none" points="86.9921,1505.26 86.9921,47.2441 "/>
<polyline clip-path="url(#clip860)" style="stroke:#000000; stroke-linecap:round; stroke-linejoin:round; stroke-width:4; stroke-opacity:1; fill:none" points="86.9921,1310.16 105.89,1310.16 "/>
<polyline clip-path="url(#clip860)" style="stroke:#000000; stroke-linecap:round; stroke-linejoin:round; stroke-width:4; stroke-opacity:1; fill:none" points="86.9921,1103.16 105.89,1103.16 "/>
<polyline clip-path="url(#clip860)" style="stroke:#000000; stroke-linecap:round; stroke-linejoin:round; stroke-width:4; stroke-opacity:1; fill:none" points="86.9921,896.153 105.89,896.153 "/>
<polyline clip-path="url(#clip860)" style="stroke:#000000; stroke-linecap:round; stroke-linejoin:round; stroke-width:4; stroke-opacity:1; fill:none" points="86.9921,689.149 105.89,689.149 "/>
<polyline clip-path="url(#clip860)" style="stroke:#000000; stroke-linecap:round; stroke-linejoin:round; stroke-width:4; stroke-opacity:1; fill:none" points="86.9921,482.144 105.89,482.144 "/>
<polyline clip-path="url(#clip860)" style="stroke:#000000; stroke-linecap:round; stroke-linejoin:round; stroke-width:4; stroke-opacity:1; fill:none" points="86.9921,275.14 105.89,275.14 "/>
<polyline clip-path="url(#clip860)" style="stroke:#000000; stroke-linecap:round; stroke-linejoin:round; stroke-width:4; stroke-opacity:1; fill:none" points="86.9921,68.1362 105.89,68.1362 "/>
<path clip-path="url(#clip860)" d="M31.0848 1323.51 L38.7237 1323.51 L38.7237 1297.14 L30.4135 1298.81 L30.4135 1294.55 L38.6774 1292.88 L43.3533 1292.88 L43.3533 1323.51 L50.9921 1323.51 L50.9921 1327.44 L31.0848 1327.44 L31.0848 1323.51 Z" fill="#000000" fill-rule="nonzero" fill-opacity="1" /><path clip-path="url(#clip860)" d="M34.6728 1116.5 L50.9921 1116.5 L50.9921 1120.44 L29.0478 1120.44 L29.0478 1116.5 Q31.7098 1113.75 36.2931 1109.12 Q40.8996 1104.46 42.0801 1103.12 Q44.3255 1100.6 45.2051 1098.86 Q46.1079 1097.1 46.1079 1095.41 Q46.1079 1092.66 44.1635 1090.92 Q42.2422 1089.19 39.1403 1089.19 Q36.9413 1089.19 34.4876 1089.95 Q32.057 1090.71 29.2793 1092.27 L29.2793 1087.54 Q32.1033 1086.41 34.557 1085.83 Q37.0107 1085.25 39.0477 1085.25 Q44.4181 1085.25 47.6125 1087.94 Q50.8069 1090.62 50.8069 1095.11 Q50.8069 1097.24 49.9968 1099.16 Q49.2097 1101.06 47.1033 1103.65 Q46.5246 1104.33 43.4227 1107.54 Q40.3209 1110.74 34.6728 1116.5 Z" fill="#000000" fill-rule="nonzero" fill-opacity="1" /><path clip-path="url(#clip860)" d="M43.8625 894.799 Q47.219 895.516 49.094 897.785 Q50.9921 900.053 50.9921 903.387 Q50.9921 908.502 47.4736 911.303 Q43.9551 914.104 37.4737 914.104 Q35.2978 914.104 32.983 913.664 Q30.6913 913.248 28.2376 912.391 L28.2376 907.877 Q30.1821 909.012 32.4969 909.59 Q34.8117 910.169 37.3348 910.169 Q41.7329 910.169 44.0246 908.433 Q46.3394 906.697 46.3394 903.387 Q46.3394 900.331 44.1866 898.618 Q42.057 896.882 38.2376 896.882 L34.2098 896.882 L34.2098 893.039 L38.4227 893.039 Q41.8718 893.039 43.7005 891.674 Q45.5292 890.285 45.5292 887.692 Q45.5292 885.03 43.6311 883.618 Q41.7561 882.183 38.2376 882.183 Q36.3163 882.183 34.1172 882.6 Q31.9182 883.016 29.2793 883.896 L29.2793 879.729 Q31.9413 878.989 34.2561 878.618 Q36.5941 878.248 38.6542 878.248 Q43.9783 878.248 47.0801 880.678 Q50.1819 883.086 50.1819 887.206 Q50.1819 890.076 48.5384 892.067 Q46.8949 894.035 43.8625 894.799 Z" fill="#000000" fill-rule="nonzero" fill-opacity="1" /><path clip-path="url(#clip860)" d="M41.4088 675.943 L29.6034 694.392 L41.4088 694.392 L41.4088 675.943 M40.182 671.869 L46.0616 671.869 L46.0616 694.392 L50.9921 694.392 L50.9921 698.281 L46.0616 698.281 L46.0616 706.429 L41.4088 706.429 L41.4088 698.281 L25.8071 698.281 L25.8071 693.767 L40.182 671.869 Z" fill="#000000" fill-rule="nonzero" fill-opacity="1" /><path clip-path="url(#clip860)" d="M30.0895 464.864 L48.4458 464.864 L48.4458 468.8 L34.3718 468.8 L34.3718 477.272 Q35.3904 476.925 36.4089 476.763 Q37.4274 476.577 38.4459 476.577 Q44.2329 476.577 47.6125 479.749 Q50.9921 482.92 50.9921 488.337 Q50.9921 493.915 47.5199 497.017 Q44.0477 500.096 37.7283 500.096 Q35.5524 500.096 33.2839 499.725 Q31.0385 499.355 28.6311 498.614 L28.6311 493.915 Q30.7145 495.05 32.9367 495.605 Q35.1589 496.161 37.6357 496.161 Q41.6403 496.161 43.9783 494.054 Q46.3162 491.948 46.3162 488.337 Q46.3162 484.725 43.9783 482.619 Q41.6403 480.513 37.6357 480.513 Q35.7607 480.513 33.8857 480.929 Q32.0339 481.346 30.0895 482.225 L30.0895 464.864 Z" fill="#000000" fill-rule="nonzero" fill-opacity="1" /><path clip-path="url(#clip860)" d="M39.4644 273.277 Q36.3163 273.277 34.4644 275.43 Q32.6357 277.582 32.6357 281.332 Q32.6357 285.059 34.4644 287.235 Q36.3163 289.388 39.4644 289.388 Q42.6125 289.388 44.4412 287.235 Q46.2931 285.059 46.2931 281.332 Q46.2931 277.582 44.4412 275.43 Q42.6125 273.277 39.4644 273.277 M48.7468 258.624 L48.7468 262.883 Q46.9875 262.05 45.182 261.61 Q43.3996 261.17 41.6403 261.17 Q37.0107 261.17 34.557 264.295 Q32.1265 267.42 31.7793 273.74 Q33.145 271.726 35.2052 270.661 Q37.2653 269.573 39.7422 269.573 Q44.9505 269.573 47.9597 272.745 Q50.9921 275.893 50.9921 281.332 Q50.9921 286.656 47.844 289.874 Q44.6959 293.092 39.4644 293.092 Q33.4691 293.092 30.2978 288.508 Q27.1265 283.902 27.1265 275.175 Q27.1265 266.981 31.0154 262.12 Q34.9042 257.235 41.4551 257.235 Q43.2144 257.235 44.9968 257.583 Q46.8023 257.93 48.7468 258.624 Z" fill="#000000" fill-rule="nonzero" fill-opacity="1" /><path clip-path="url(#clip860)" d="M28.77 50.8562 L50.9921 50.8562 L50.9921 52.8469 L38.4459 85.4162 L33.5617 85.4162 L45.3672 54.7913 L28.77 54.7913 L28.77 50.8562 Z" fill="#000000" fill-rule="nonzero" fill-opacity="1" /><polyline clip-path="url(#clip862)" style="stroke:#009af9; stroke-linecap:round; stroke-linejoin:round; stroke-width:12; stroke-opacity:1; fill:none" points="86.9921,1310.16 89.2602,1309.1 91.5282,1308 93.7962,1306.84 96.0643,1305.65 98.3323,1304.4 100.6,1303.11 102.868,1301.78 105.136,1300.4 107.404,1298.97 109.672,1297.5 111.94,1295.99 114.209,1294.43 116.477,1292.82 118.745,1291.17 121.013,1289.47 123.281,1287.73 125.549,1285.94 127.817,1284.11 130.085,1282.23 132.353,1280.31 134.621,1278.34 136.889,1276.32 139.157,1274.26 141.425,1272.15 143.693,1270 145.961,1267.79 148.229,1265.54 150.497,1263.25 152.765,1260.9 155.033,1258.51 157.301,1256.07 159.569,1253.58 161.837,1251.04 164.105,1248.45 166.373,1245.82 168.641,1243.13 170.909,1240.39 173.177,1237.6 175.445,1234.76 177.713,1231.87 179.981,1228.93 182.249,1225.93 184.517,1222.88 186.786,1219.78 189.054,1216.63 191.322,1213.41 193.59,1210.15 195.858,1206.83 198.126,1203.45 200.394,1200.02 202.662,1196.53 204.93,1192.99 207.198,1189.38 209.466,1185.72 211.734,1181.99 214.002,1178.21 216.27,1174.37 218.538,1170.47 220.806,1166.5 223.074,1162.47 225.342,1158.39 227.61,1154.23 229.878,1150.02 232.146,1145.73 234.414,1141.39 236.682,1136.97 238.95,1132.49 241.218,1127.95 243.486,1123.33 245.754,1118.65 248.022,1113.89 250.29,1109.07 252.558,1104.17 254.826,1099.21 257.095,1094.17 259.363,1089.06 261.631,1083.87 263.899,1078.61 266.167,1073.28 268.435,1067.86 270.703,1062.37 272.971,1056.81 275.239,1051.16 277.507,1045.44 279.775,1039.64 282.043,1033.75 284.311,1027.79 286.579,1021.74 288.847,1015.61 291.115,1009.39 293.383,1003.09 295.651,996.706 297.919,990.234 300.187,983.676 302.455,977.031 304.723,970.297 306.991,963.475 309.259,956.563 311.527,949.56 313.795,942.466 316.063,935.28 318.331,928 320.599,920.627 322.867,913.16 325.135,905.597 327.403,897.939 329.672,890.185 331.94,882.333 334.208,874.384 336.476,866.338 338.744,858.192 341.012,849.948 343.28,841.605 345.548,833.163 347.816,824.62 350.084,815.978 352.352,807.235 354.62,798.391 356.888,789.447 359.156,780.402 361.424,771.256 363.692,762.009 365.96,752.661 368.228,743.211 370.496,733.661 372.764,724.01 375.032,714.258 377.3,704.411 379.568,694.467 381.836,684.428 384.104,674.292 386.372,664.059 388.64,653.729 390.908,643.303 393.176,632.782 395.444,622.166 397.712,611.457 399.981,600.657 402.249,589.768 404.517,578.792 406.785,567.732 409.053,556.591 411.321,545.372 413.589,534.078 415.857,522.714 418.125,511.284 420.393,499.791 422.661,488.242 424.929,476.641 427.197,464.994 429.465,453.306 431.733,441.584 434.001,429.833 436.269,418.061 438.537,406.274 440.805,394.48 443.073,382.686 445.341,370.901 447.609,359.132 449.877,347.388 452.145,335.678 454.413,324.011 456.681,312.382 458.949,300.802 461.217,289.29 463.485,277.866 465.753,266.551 468.021,255.364 470.29,244.328 472.558,233.464 474.826,222.794 477.094,212.341 479.362,202.128 481.63,192.18 483.898,182.52 486.166,173.173 488.434,164.165 490.702,155.521 492.97,147.269 495.238,139.434 497.506,132.045 499.774,125.128 502.042,118.714 504.31,112.83 506.578,107.506 508.846,102.773 511.114,98.6598 513.382,95.1985 515.65,92.4204 517.918,90.3576 520.186,89.0427 522.454,88.5087 524.722,88.7892 526.99,89.9185 529.258,91.931 531.526,94.862 533.794,98.7471 536.062,103.623 538.33,109.528 540.598,116.505 542.867,124.558 545.135,133.684 547.403,143.876 549.671,155.122 551.939,167.409 554.207,180.719 556.475,195.031 558.743,210.321 561.011,226.559 563.279,243.714 565.547,261.751 567.815,280.632 570.083,300.312 572.351,320.748 574.619,341.889 576.887,363.682 579.155,386.071 581.423,408.996 583.691,432.393 585.959,456.195 588.227,480.331 590.495,504.729 592.763,529.308 595.031,553.989 597.299,578.687 599.567,603.314 601.835,627.805 604.103,652.138 606.371,676.253 608.639,700.094 610.907,723.609 613.176,746.75 615.444,769.473 617.712,791.739 619.98,813.512 622.248,834.761 624.516,855.459 626.784,875.583 629.052,895.115 631.32,914.04 633.588,932.348 635.856,950.033 638.124,967.092 640.392,983.53 642.66,999.351 644.928,1014.57 647.196,1029.19 649.464,1043.25 651.732,1056.75 654,1069.74 656.268,1082.24 658.536,1094.24 660.804,1105.74 663.072,1116.76 665.34,1127.3 667.608,1137.39 669.876,1147.05 672.144,1156.29 674.412,1165.12 676.68,1173.56 678.948,1181.63 681.216,1189.34 683.484,1196.7 685.753,1203.72 688.021,1210.43 690.289,1216.83 692.557,1222.94 694.825,1228.76 697.093,1234.3 699.361,1239.59 701.629,1244.62 703.897,1249.41 706.165,1253.97 708.433,1258.3 710.701,1262.42 712.969,1266.34 715.237,1270.07 717.505,1273.61 719.773,1276.97 722.041,1280.16 724.309,1283.19 726.577,1286.06 728.845,1288.77 731.113,1291.34 733.381,1293.77 735.649,1296.06 737.917,1298.23 740.185,1300.26 742.453,1302.18 744.721,1303.98 746.989,1305.68 749.257,1307.26 751.525,1308.74 753.793,1310.12 756.062,1311.4 758.33,1312.59 760.598,1313.69 762.866,1314.71 765.134,1315.63 767.402,1316.48 769.67,1317.24 771.938,1317.92 774.206,1318.53 776.474,1319.06 778.742,1319.51 781.01,1319.9 783.278,1320.22 785.546,1320.47 787.814,1320.66 790.082,1320.78 792.35,1320.84 794.618,1320.84 796.886,1320.78 799.154,1320.66 801.422,1320.48 803.69,1320.24 805.958,1319.95 808.226,1319.6 810.494,1319.2 812.762,1318.75 815.03,1318.24 817.298,1317.69 819.566,1317.08 821.834,1316.42 824.102,1315.71 826.37,1314.95 828.639,1314.15 830.907,1313.29 833.175,1312.39 835.443,1311.44 837.711,1310.45 839.979,1309.4 842.247,1308.31 844.515,1307.18 846.783,1306 849.051,1304.77 851.319,1303.5 853.587,1302.18 855.855,1300.82 858.123,1299.41 860.391,1297.96 862.659,1296.46 864.927,1294.92 867.195,1293.33 869.463,1291.69 871.731,1290.01 873.999,1288.29 876.267,1286.52 878.535,1284.7 880.803,1282.84 883.071,1280.93 885.339,1278.98 887.607,1276.97 889.875,1274.93 892.143,1272.83 894.411,1270.69 896.679,1268.51 898.948,1266.27 901.216,1263.99 903.484,1261.66 905.752,1259.29 908.02,1256.86 910.288,1254.39 912.556,1251.86 914.824,1249.29 917.092,1246.67 919.36,1244 921.628,1241.28 923.896,1238.51 926.164,1235.69 928.432,1232.82 930.7,1229.89 932.968,1226.91 935.236,1223.88 937.504,1220.8 939.772,1217.66 942.04,1214.47 944.308,1211.23 946.576,1207.93 948.844,1204.57 951.112,1201.16 953.38,1197.69 955.648,1194.16 957.916,1190.57 960.184,1186.93 962.452,1183.23 964.72,1179.47 966.988,1175.65 969.257,1171.76 971.525,1167.82 973.793,1163.82 976.061,1159.75 978.329,1155.62 980.597,1151.42 982.865,1147.17 985.133,1142.84 987.401,1138.45 989.669,1134 991.937,1129.47 994.205,1124.88 996.473,1120.22 998.741,1115.49 1001.01,1110.7 1003.28,1105.83 1005.55,1100.89 1007.81,1095.87 1010.08,1090.79 1012.35,1085.63 1014.62,1080.39 1016.89,1075.09 1019.15,1069.7 1021.42,1064.24 1023.69,1058.7 1025.96,1053.09 1028.23,1047.39 1030.49,1041.62 1032.76,1035.76 1035.03,1029.82 1037.3,1023.8 1039.57,1017.7 1041.83,1011.52 1044.1,1005.25 1046.37,998.891 1048.64,992.45 1050.91,985.921 1053.17,979.305 1055.44,972.601 1057.71,965.808 1059.98,958.925 1062.25,951.952 1064.51,944.888 1066.78,937.732 1069.05,930.484 1071.32,923.143 1073.59,915.708 1075.85,908.179 1078.12,900.555 1080.39,892.835 1082.66,885.019 1084.93,877.107 1087.19,869.097 1089.46,860.989 1091.73,852.783 1094,844.478 1096.27,836.073 1098.53,827.569 1100.8,818.963 1103.07,810.261 1105.34,801.468 1107.61,792.582 1109.87,783.6 1112.14,774.521 1114.41,765.343 1116.68,756.064 1118.95,746.682 1121.21,737.198 1123.48,727.61 1125.75,717.918 1128.02,708.122 1130.29,698.221 1132.55,688.216 1134.82,678.108 1137.09,667.897 1139.36,657.585 1141.63,647.172 1143.89,636.66 1146.16,626.051 1148.43,615.348 1150.7,604.552 1152.97,593.666 1155.24,582.694 1157.5,571.637 1159.77,560.499 1162.04,549.285 1164.31,537.998 1166.58,526.641 1168.84,515.221 1171.11,503.74 1173.38,492.204 1175.65,480.618 1177.92,468.988 1180.18,457.319 1182.45,445.617 1184.72,433.888 1186.99,422.139 1189.26,410.376 1191.52,398.607 1193.79,386.838 1196.06,375.077 1198.33,363.332 1200.6,351.61 1202.86,339.92 1205.13,328.271 1207.4,316.67 1209.67,305.128 1211.94,293.648 1214.2,282.233 1216.47,270.904 1218.74,259.683 1221.01,248.594 1223.28,237.661 1225.54,226.908 1227.81,216.359 1230.08,206.039 1232.35,195.973 1234.62,186.188 1236.88,176.708 1239.15,167.561 1241.42,158.772 1243.69,150.368 1245.96,142.378 1248.22,134.828 1250.49,127.747 1252.76,121.163 1255.03,115.105 1257.3,109.601 1259.56,104.682 1261.83,100.377 1264.1,96.7154 1266.37,93.7288 1268.64,91.4476 1270.9,89.9031 1273.17,89.1268 1275.44,89.1505 1277.71,90.0066 1279.98,91.7277 1282.24,94.3466 1284.51,97.8967 1286.78,102.412 1289.05,107.926 1291.32,114.473 1293.59,122.118 1295.85,130.898 1298.12,140.79 1300.39,151.772 1302.66,163.819 1304.93,176.903 1307.19,190.994 1309.46,206.061 1311.73,222.068 1314,238.979 1316.27,256.757 1318.53,275.359 1320.8,294.743 1323.07,314.863 1325.34,335.671 1327.61,357.119 1329.87,379.153 1332.14,401.719 1334.41,424.762 1336.68,448.221 1338.95,472.037 1341.21,496.146 1343.48,520.482 1345.75,544.979 1348.02,569.565 1350.29,594.169 1352.55,618.717 1354.82,643.133 1357.09,667.336 1359.36,691.247 1361.63,714.787 1363.89,737.946 1366.16,760.701 1368.43,783.018 1370.7,804.868 1372.97,826.222 1375.23,847.056 1377.5,867.349 1379.77,887.08 1382.04,906.235 1384.31,924.8 1386.57,942.766 1388.84,960.125 1391.11,976.873 1393.38,993.008 1395.65,1008.53 1397.91,1023.45 1400.18,1037.77 1402.45,1051.5 1404.72,1064.65 1406.99,1077.25 1409.25,1089.31 1411.52,1100.84 1413.79,1111.89 1416.06,1122.47 1418.33,1132.61 1420.59,1142.36 1422.86,1151.73 1425.13,1160.72 1427.4,1169.32 1429.67,1177.52 1431.93,1185.36 1434.2,1192.85 1436.47,1200 1438.74,1206.83 1441.01,1213.34 1443.28,1219.55 1445.54,1225.48 1447.81,1231.13 1450.08,1236.53 1452.35,1241.66 1454.62,1246.56 1456.88,1251.23 1459.15,1255.67 1461.42,1259.9 1463.69,1263.93 1465.96,1267.76 1468.22,1271.4 1470.49,1274.85 1472.76,1278.14 1475.03,1281.25 1477.3,1284.2 1479.56,1286.99 1481.83,1289.62 1484.1,1292.11 1486.37,1294.47 1488.64,1296.69 1490.9,1298.79 1493.17,1300.76 1495.44,1302.61 1497.71,1304.36 1499.98,1305.99 1502.24,1307.51 1504.51,1308.93 1506.78,1310.26 1509.05,1311.48 1511.32,1312.61 1513.58,1313.66 1515.85,1314.61 1518.12,1315.48 1520.39,1316.27 1522.66,1316.98 1524.92,1317.62 1527.19,1318.18 1529.46,1318.66 1531.73,1319.08 1534,1319.42 1536.26,1319.7 1538.53,1319.92 1540.8,1320.07 1543.07,1320.15 1545.34,1320.18 1547.6,1320.14 1549.87,1320.05 1552.14,1319.89 1554.41,1319.68 1556.68,1319.41 1558.94,1319.09 1561.21,1318.72 1563.48,1318.29 1565.75,1317.81 1568.02,1317.27 1570.28,1316.69 1572.55,1316.05 1574.82,1315.36 1577.09,1314.63 1579.36,1313.84 1581.63,1313.01 1583.89,1312.12 1586.16,1311.19 1588.43,1310.21 1590.7,1309.18 1592.97,1308.11 1595.23,1306.99 1597.5,1305.83 1599.77,1304.61 1602.04,1303.36 1604.31,1302.05 1606.57,1300.7 1608.84,1299.31 1611.11,1297.87 1613.38,1296.38 1615.65,1294.85 1617.91,1293.28 1620.18,1291.66 1622.45,1290 1624.72,1288.29 1626.99,1286.53 1629.25,1284.73 1631.52,1282.88 1633.79,1280.99 1636.06,1279.05 1638.33,1277.07 1640.59,1275.04 1642.86,1272.96 1645.13,1270.84 1647.4,1268.67 1649.67,1266.45 1651.93,1264.19 1654.2,1261.88 1656.47,1259.52 1658.74,1257.11 1661.01,1254.65 1663.27,1252.15 1665.54,1249.59 1667.81,1246.99 1670.08,1244.33 1672.35,1241.63 1674.61,1238.87 1676.88,1236.07 1679.15,1233.21 1681.42,1230.3 1683.69,1227.34 1685.95,1224.33 1688.22,1221.26 1690.49,1218.14 1692.76,1214.96 1695.03,1211.73 1697.29,1208.45 1699.56,1205.11 1701.83,1201.71 1704.1,1198.26 1706.37,1194.75 1708.63,1191.19 1710.9,1187.56 1713.17,1183.88 1715.44,1180.13 1717.71,1176.33 1719.98,1172.47 1722.24,1168.54 1724.51,1164.56 1726.78,1160.51 1729.05,1156.4 1731.32,1152.22 1733.58,1147.98 1735.85,1143.68 1738.12,1139.31 1740.39,1134.87 1742.66,1130.36 1744.92,1125.79 1747.19,1121.15 1749.46,1116.45 1751.73,1111.67 1754,1106.82 1756.26,1101.9 1758.53,1096.91 1760.8,1091.84 1763.07,1086.71 1765.34,1081.5 1767.6,1076.21 1769.87,1070.85 1772.14,1065.41 1774.41,1059.9 1776.68,1054.3 1778.94,1048.63 1781.21,1042.88 1783.48,1037.05 1785.75,1031.14 1788.02,1025.15 1790.28,1019.08 1792.55,1012.92 1794.82,1006.68 1797.09,1000.35 1799.36,993.938 1801.62,987.439 1803.89,980.853 1806.16,974.179 1808.43,967.417 1810.7,960.567 1812.96,953.628 1815.23,946.598 1817.5,939.478 1819.77,932.265 1822.04,924.959 1824.3,917.559 1826.57,910.065 1828.84,902.475 1831.11,894.788 1833.38,887.006 1835.64,879.125 1837.91,871.147 1840.18,863.071 1842.45,854.895 1844.72,846.621 1846.98,838.247 1849.25,829.773 1851.52,821.199 1853.79,812.525 1856.06,803.75 1858.32,794.875 1860.59,785.9 1862.86,776.824 1865.13,767.647 1867.4,758.371 1869.67,748.994 1871.93,739.517 1874.2,729.941 1876.47,720.265 1878.74,710.491 1881.01,700.618 1883.27,690.647 1885.54,680.578 1887.81,670.412 1890.08,660.15 1892.35,649.793 1894.61,639.34 1896.88,628.806 1899.15,618.199 1901.42,607.518 1903.69,596.759 1905.95,585.92 1908.22,575.001 1910.49,564.001 1912.76,552.919 1915.03,541.758 1917.29,530.517 1919.56,519.2 1921.83,507.809 1924.1,496.347 1926.37,484.819 1928.63,473.228 1930.9,461.582 1933.17,449.885 1935.44,438.144 1937.71,426.367 1939.97,414.561 1942.24,402.736 1944.51,390.901 1946.78,379.065 1949.05,367.239 1951.31,355.435 1953.58,343.664 1955.85,331.939 1958.12,320.274 1960.39,308.682 1962.65,297.178 1964.92,285.777 1967.19,274.496 1969.46,263.349 1971.73,252.356 1973.99,241.533 1976.26,230.9 1978.53,220.475 1980.8,210.278 1983.07,200.33 1985.33,190.652 1987.6,181.265 1989.87,172.193 1992.14,163.459 1994.41,155.085 1996.67,147.097 1998.94,139.52 2001.21,132.379 2003.48,125.701 2005.75,119.513 2008.02,113.843 2010.28,108.718 2012.55,104.17 2014.82,100.246 2017.09,96.9926 2019.36,94.4539 2021.62,92.6705 2023.89,91.6806 2026.16,91.5193 2028.43,92.2189 2030.7,93.8091 2032.96,96.3164 2035.23,99.7647 2037.5,104.175 2039.77,109.566 2042.04,115.952 2044.3,123.346 2046.57,131.758 2048.84,141.195 2051.11,151.66 2053.38,163.155 2055.64,175.678 2057.91,189.224 2060.18,203.787 2062.45,219.356 2064.72,235.93 2066.98,253.478 2069.25,271.936 2071.52,291.243 2073.79,311.335 2076.06,332.148 2078.32,353.618 2080.59,375.682 2082.86,398.276 2085.13,421.335 2087.4,444.796 2089.66,468.593 2091.93,492.661 2094.2,516.937 2096.47,541.355 2098.74,565.849 2101,590.355 2103.27,614.806 2105.54,639.137 2107.81,663.282 2110.08,687.175 2112.34,710.75 2114.61,733.94 2116.88,756.702 2119.15,779.02 2121.42,800.868 2123.68,822.22 2125.95,843.054 2128.22,863.351 2130.49,883.094 2132.76,902.269 2135.02,920.863 2137.29,938.868 2139.56,956.278 2141.83,973.089 2144.1,989.3 2146.37,1004.91 2148.63,1019.93 2150.9,1034.36 2153.17,1048.21 2155.44,1061.5 2157.71,1074.23 2159.97,1086.43 2162.24,1098.12 2164.51,1109.31 2166.78,1120.04 2169.05,1130.33 2171.31,1140.21 2173.58,1149.69 2175.85,1158.75 2178.12,1167.41 2180.39,1175.69 2182.65,1183.59 2184.92,1191.14 2187.19,1198.36 2189.46,1205.24 2191.73,1211.81 2193.99,1218.08 2196.26,1224.06 2198.53,1229.76 2200.8,1235.2 2203.07,1240.39 2205.33,1245.33 2207.6,1250.03 2209.87,1254.51 2212.14,1258.78 2214.41,1262.83 2216.67,1266.69 2218.94,1270.36 2221.21,1273.84 2223.48,1277.14 2225.75,1280.27 2228.01,1283.23 2230.28,1286.04 2232.55,1288.71 2234.82,1291.22 2237.09,1293.61 2239.35,1295.85 2241.62,1297.97 2243.89,1299.97 2246.16,1301.84 2248.43,1303.61 2250.69,1305.26 2252.96,1306.8 2255.23,1308.24 2257.5,1309.58 2259.77,1310.82 2262.03,1311.98 2264.3,1313.04 2266.57,1314.01 2268.84,1314.9 2271.11,1315.71 2273.37,1316.44 2275.64,1317.09 2277.91,1317.67 2280.18,1318.17 2282.45,1318.6 2284.71,1318.97 2286.98,1319.26 2289.25,1319.48 2291.52,1319.65 2293.79,1319.74 2296.06,1319.78 2298.32,1319.76 2300.59,1319.67 2302.86,1319.53 2305.13,1319.33 2307.4,1319.07 2309.66,1318.76 2311.93,1318.39 2314.2,1317.97 2316.47,1317.5 2318.74,1316.97 2321,1316.39 2323.27,1315.76 2325.54,1315.08 2327.81,1314.35 2330.08,1313.57 2332.34,1312.74 2334.61,1311.87 2336.88,1310.95 2339.15,1309.97 2341.42,1308.96 2343.68,1307.89 2345.95,1306.78 2348.22,1305.62 2350.49,1304.42 2352.76,1303.17 "/>
<polyline clip-path="url(#clip862)" style="stroke:#e26f46; stroke-linecap:round; stroke-linejoin:round; stroke-width:12; stroke-opacity:1; fill:none" points="86.9921,1310.16 89.2602,1314.26 91.5282,1318.27 93.7962,1322.18 96.0643,1326.01 98.3323,1329.75 100.6,1333.41 102.868,1336.99 105.136,1340.48 107.404,1343.89 109.672,1347.23 111.94,1350.49 114.209,1353.68 116.477,1356.79 118.745,1359.83 121.013,1362.8 123.281,1365.7 125.549,1368.54 127.817,1371.3 130.085,1374.01 132.353,1376.65 134.621,1379.23 136.889,1381.75 139.157,1384.21 141.425,1386.61 143.693,1388.96 145.961,1391.25 148.229,1393.48 150.497,1395.67 152.765,1397.8 155.033,1399.88 157.301,1401.91 159.569,1403.89 161.837,1405.82 164.105,1407.71 166.373,1409.55 168.641,1411.35 170.909,1413.1 173.177,1414.82 175.445,1416.49 177.713,1418.11 179.981,1419.7 182.249,1421.25 184.517,1422.76 186.786,1424.23 189.054,1425.67 191.322,1427.07 193.59,1428.43 195.858,1429.76 198.126,1431.06 200.394,1432.32 202.662,1433.55 204.93,1434.75 207.198,1435.92 209.466,1437.06 211.734,1438.16 214.002,1439.24 216.27,1440.29 218.538,1441.31 220.806,1442.3 223.074,1443.27 225.342,1444.21 227.61,1445.12 229.878,1446 232.146,1446.87 234.414,1447.7 236.682,1448.51 238.95,1449.3 241.218,1450.06 243.486,1450.8 245.754,1451.52 248.022,1452.22 250.29,1452.89 252.558,1453.54 254.826,1454.17 257.095,1454.78 259.363,1455.36 261.631,1455.93 263.899,1456.48 266.167,1457 268.435,1457.51 270.703,1457.99 272.971,1458.46 275.239,1458.9 277.507,1459.33 279.775,1459.74 282.043,1460.13 284.311,1460.5 286.579,1460.85 288.847,1461.18 291.115,1461.5 293.383,1461.79 295.651,1462.07 297.919,1462.33 300.187,1462.57 302.455,1462.79 304.723,1462.99 306.991,1463.18 309.259,1463.34 311.527,1463.49 313.795,1463.62 316.063,1463.73 318.331,1463.82 320.599,1463.89 322.867,1463.95 325.135,1463.98 327.403,1464 329.672,1463.99 331.94,1463.97 334.208,1463.92 336.476,1463.85 338.744,1463.77 341.012,1463.66 343.28,1463.53 345.548,1463.38 347.816,1463.2 350.084,1463.01 352.352,1462.78 354.62,1462.54 356.888,1462.27 359.156,1461.97 361.424,1461.65 363.692,1461.3 365.96,1460.92 368.228,1460.52 370.496,1460.09 372.764,1459.62 375.032,1459.13 377.3,1458.6 379.568,1458.03 381.836,1457.43 384.104,1456.8 386.372,1456.12 388.64,1455.41 390.908,1454.66 393.176,1453.87 395.444,1453.04 397.712,1452.17 399.981,1451.25 402.249,1450.28 404.517,1449.27 406.785,1448.2 409.053,1447.08 411.321,1445.91 413.589,1444.68 415.857,1443.38 418.125,1442.03 420.393,1440.6 422.661,1439.1 424.929,1437.53 427.197,1435.88 429.465,1434.15 431.733,1432.34 434.001,1430.43 436.269,1428.42 438.537,1426.32 440.805,1424.12 443.073,1421.8 445.341,1419.37 447.609,1416.82 449.877,1414.15 452.145,1411.35 454.413,1408.41 456.681,1405.34 458.949,1402.14 461.217,1398.79 463.485,1395.28 465.753,1391.59 468.021,1387.72 470.29,1383.64 472.558,1379.36 474.826,1374.85 477.094,1370.1 479.362,1365.11 481.63,1359.85 483.898,1354.33 486.166,1348.52 488.434,1342.42 490.702,1336.01 492.97,1329.29 495.238,1322.23 497.506,1314.84 499.774,1307.1 502.042,1299 504.31,1290.53 506.578,1281.68 508.846,1272.44 511.114,1262.8 513.382,1252.76 515.65,1242.29 517.918,1231.39 520.186,1220.05 522.454,1208.27 524.722,1196.03 526.99,1183.32 529.258,1170.14 531.526,1156.48 533.794,1142.33 536.062,1127.68 538.33,1112.51 540.598,1096.79 542.867,1080.57 545.135,1063.87 547.403,1046.76 549.671,1029.26 551.939,1011.44 554.207,993.333 556.475,974.991 558.743,956.462 561.011,937.797 563.279,919.044 565.547,900.255 567.815,881.483 570.083,862.778 572.351,844.196 574.619,825.788 576.887,807.611 579.155,789.719 581.423,772.17 583.691,755.019 585.959,738.325 588.227,722.146 590.495,706.541 592.763,691.571 595.031,677.296 597.299,663.777 599.567,651.077 601.835,639.237 604.103,628.263 606.371,618.18 608.639,609.011 610.907,600.775 613.176,593.487 615.444,587.158 617.712,581.792 619.98,577.393 622.248,573.958 624.516,571.481 626.784,569.949 629.052,569.349 631.32,569.661 633.588,570.862 635.856,572.923 638.124,575.812 640.392,579.494 642.66,583.928 644.928,589.069 647.196,594.867 649.464,601.271 651.732,608.221 654,615.657 656.268,623.512 658.536,631.776 660.804,640.461 663.072,649.532 665.34,658.956 667.608,668.7 669.876,678.734 672.144,689.026 674.412,699.549 676.68,710.276 678.948,721.179 681.216,732.233 683.484,743.416 685.753,754.704 688.021,766.077 690.289,777.513 692.557,788.995 694.825,800.504 697.093,812.024 699.361,823.54 701.629,835.038 703.897,846.506 706.165,857.931 708.433,869.304 710.701,880.613 712.969,891.842 715.237,902.983 717.505,914.029 719.773,924.975 722.041,935.815 724.309,946.543 726.577,957.155 728.845,967.646 731.113,978.011 733.381,988.246 735.649,998.348 737.917,1008.31 740.185,1018.14 742.453,1027.82 744.721,1037.36 746.989,1046.76 749.257,1056 751.525,1065.1 753.793,1074.05 756.062,1082.84 758.33,1091.49 760.598,1099.98 762.866,1108.33 765.134,1116.52 767.402,1124.57 769.67,1132.47 771.938,1140.22 774.206,1147.84 776.474,1155.31 778.742,1162.64 781.01,1169.82 783.278,1176.87 785.546,1183.78 787.814,1190.55 790.082,1197.19 792.35,1203.69 794.618,1210.06 796.886,1216.31 799.154,1222.42 801.422,1228.41 803.69,1234.27 805.958,1240.02 808.226,1245.64 810.494,1251.14 812.762,1256.53 815.03,1261.8 817.298,1266.95 819.566,1272 821.834,1276.94 824.102,1281.77 826.37,1286.49 828.639,1291.11 830.907,1295.63 833.175,1300.05 835.443,1304.37 837.711,1308.59 839.979,1312.72 842.247,1316.76 844.515,1320.71 846.783,1324.57 849.051,1328.35 851.319,1332.03 853.587,1335.64 855.855,1339.16 858.123,1342.61 860.391,1345.97 862.659,1349.26 864.927,1352.47 867.195,1355.61 869.463,1358.68 871.731,1361.67 873.999,1364.6 876.267,1367.46 878.535,1370.25 880.803,1372.98 883.071,1375.64 885.339,1378.25 887.607,1380.79 889.875,1383.27 892.143,1385.7 894.411,1388.06 896.679,1390.38 898.948,1392.63 901.216,1394.84 903.484,1396.99 905.752,1399.09 908.02,1401.14 910.288,1403.14 912.556,1405.09 914.824,1407 917.092,1408.86 919.36,1410.67 921.628,1412.44 923.896,1414.17 926.164,1415.85 928.432,1417.49 930.7,1419.1 932.968,1420.66 935.236,1422.18 937.504,1423.67 939.772,1425.12 942.04,1426.53 944.308,1427.9 946.576,1429.25 948.844,1430.55 951.112,1431.83 953.38,1433.07 955.648,1434.28 957.916,1435.46 960.184,1436.6 962.452,1437.72 964.72,1438.81 966.988,1439.87 969.257,1440.9 971.525,1441.9 973.793,1442.87 976.061,1443.82 978.329,1444.74 980.597,1445.64 982.865,1446.51 985.133,1447.36 987.401,1448.18 989.669,1448.97 991.937,1449.75 994.205,1450.5 996.473,1451.23 998.741,1451.93 1001.01,1452.61 1003.28,1453.27 1005.55,1453.91 1007.81,1454.53 1010.08,1455.12 1012.35,1455.7 1014.62,1456.25 1016.89,1456.78 1019.15,1457.29 1021.42,1457.79 1023.69,1458.26 1025.96,1458.71 1028.23,1459.14 1030.49,1459.56 1032.76,1459.95 1035.03,1460.33 1037.3,1460.69 1039.57,1461.03 1041.83,1461.35 1044.1,1461.65 1046.37,1461.93 1048.64,1462.2 1050.91,1462.44 1053.17,1462.67 1055.44,1462.88 1057.71,1463.08 1059.98,1463.25 1062.25,1463.4 1064.51,1463.54 1066.78,1463.66 1069.05,1463.76 1071.32,1463.84 1073.59,1463.9 1075.85,1463.94 1078.12,1463.96 1080.39,1463.96 1082.66,1463.94 1084.93,1463.9 1087.19,1463.84 1089.46,1463.76 1091.73,1463.66 1094,1463.54 1096.27,1463.39 1098.53,1463.23 1100.8,1463.04 1103.07,1462.82 1105.34,1462.57 1107.61,1462.3 1109.87,1461.99 1112.14,1461.66 1114.41,1461.3 1116.68,1460.91 1118.95,1460.5 1121.21,1460.05 1123.48,1459.58 1125.75,1459.08 1128.02,1458.55 1130.29,1457.98 1132.55,1457.39 1134.82,1456.77 1137.09,1456.11 1139.36,1455.42 1141.63,1454.69 1143.89,1453.93 1146.16,1453.12 1148.43,1452.28 1150.7,1451.39 1152.97,1450.45 1155.24,1449.47 1157.5,1448.44 1159.77,1447.36 1162.04,1446.22 1164.31,1445.02 1166.58,1443.76 1168.84,1442.44 1171.11,1441.05 1173.38,1439.58 1175.65,1438.05 1177.92,1436.43 1180.18,1434.73 1182.45,1432.95 1184.72,1431.07 1186.99,1429.1 1189.26,1427.04 1191.52,1424.86 1193.79,1422.58 1196.06,1420.19 1198.33,1417.67 1200.6,1415.04 1202.86,1412.27 1205.13,1409.37 1207.4,1406.33 1209.67,1403.14 1211.94,1399.81 1214.2,1396.33 1216.47,1392.7 1218.74,1388.89 1221.01,1384.9 1223.28,1380.7 1225.54,1376.29 1227.81,1371.65 1230.08,1366.77 1232.35,1361.63 1234.62,1356.22 1236.88,1350.54 1239.15,1344.56 1241.42,1338.27 1243.69,1331.67 1245.96,1324.74 1248.22,1317.47 1250.49,1309.85 1252.76,1301.87 1255.03,1293.52 1257.3,1284.79 1259.56,1275.67 1261.83,1266.15 1264.1,1256.22 1266.37,1245.88 1268.64,1235.11 1270.9,1223.9 1273.17,1212.25 1275.44,1200.16 1277.71,1187.6 1279.98,1174.59 1282.24,1161.1 1284.51,1147.14 1286.78,1132.69 1289.05,1117.75 1291.32,1102.32 1293.59,1086.35 1295.85,1069.83 1298.12,1052.81 1300.39,1035.35 1302.66,1017.53 1304.93,999.388 1307.19,980.993 1309.46,962.4 1311.73,943.668 1314,924.853 1316.27,906.011 1318.53,887.198 1320.8,868.468 1323.07,849.878 1325.34,831.479 1327.61,813.326 1329.87,795.471 1332.14,777.967 1334.41,760.864 1336.68,744.214 1338.95,728.067 1341.21,712.473 1343.48,697.48 1345.75,683.137 1348.02,669.492 1350.29,656.593 1352.55,644.486 1354.82,633.217 1357.09,622.832 1359.36,613.375 1361.63,604.888 1363.89,597.371 1366.16,590.813 1368.43,585.211 1370.7,580.557 1372.97,576.842 1375.23,574.054 1377.5,572.181 1379.77,571.205 1382.04,571.109 1384.31,571.873 1386.57,573.475 1388.84,575.889 1391.11,579.09 1393.38,583.047 1395.65,587.731 1397.91,593.108 1400.18,599.142 1402.45,605.795 1404.72,613.029 1406.99,620.801 1409.25,629.066 1411.52,637.779 1413.79,646.89 1416.06,656.35 1418.33,666.105 1420.59,676.099 1422.86,686.279 1425.13,696.659 1427.4,707.247 1429.67,718.019 1431.93,728.951 1434.2,740.021 1436.47,751.206 1438.74,762.487 1441.01,773.842 1443.28,785.255 1445.54,796.705 1447.81,808.177 1450.08,819.654 1452.35,831.122 1454.62,842.566 1456.88,853.972 1459.15,865.329 1461.42,876.625 1463.69,887.849 1465.96,898.993 1468.22,910.047 1470.49,921.005 1472.76,931.859 1475.03,942.603 1477.3,953.233 1479.56,963.746 1481.83,974.137 1484.1,984.403 1486.37,994.533 1488.64,1004.53 1490.9,1014.38 1493.17,1024.09 1495.44,1033.66 1497.71,1043.09 1499.98,1052.37 1502.24,1061.51 1504.51,1070.5 1506.78,1079.34 1509.05,1088.04 1511.32,1096.59 1513.58,1104.99 1515.85,1113.24 1518.12,1121.34 1520.39,1129.3 1522.66,1137.11 1524.92,1144.78 1527.19,1152.3 1529.46,1159.67 1531.73,1166.91 1534,1174 1536.26,1180.95 1538.53,1187.77 1540.8,1194.45 1543.07,1200.99 1545.34,1207.4 1547.6,1213.69 1549.87,1219.84 1552.14,1225.88 1554.41,1231.78 1556.68,1237.57 1558.94,1243.23 1561.21,1248.77 1563.48,1254.2 1565.75,1259.51 1568.02,1264.7 1570.28,1269.79 1572.55,1274.77 1574.82,1279.64 1577.09,1284.4 1579.36,1289.06 1581.63,1293.62 1583.89,1298.07 1586.16,1302.43 1588.43,1306.7 1590.7,1310.87 1592.97,1314.94 1595.23,1318.93 1597.5,1322.82 1599.77,1326.63 1602.04,1330.35 1604.31,1333.99 1606.57,1337.54 1608.84,1341.02 1611.11,1344.41 1613.38,1347.73 1615.65,1350.97 1617.91,1354.14 1620.18,1357.23 1622.45,1360.26 1624.72,1363.21 1626.99,1366.09 1629.25,1368.91 1631.52,1371.67 1633.79,1374.35 1636.06,1376.98 1638.33,1379.54 1640.59,1382.05 1642.86,1384.49 1645.13,1386.88 1647.4,1389.21 1649.67,1391.49 1651.93,1393.71 1654.2,1395.88 1656.47,1398 1658.74,1400.07 1661.01,1402.09 1663.27,1404.06 1665.54,1405.98 1667.81,1407.86 1670.08,1409.69 1672.35,1411.48 1674.61,1413.22 1676.88,1414.92 1679.15,1416.58 1681.42,1418.2 1683.69,1419.79 1685.95,1421.33 1688.22,1422.83 1690.49,1424.3 1692.76,1425.73 1695.03,1427.12 1697.29,1428.48 1699.56,1429.8 1701.83,1431.09 1704.1,1432.35 1706.37,1433.57 1708.63,1434.77 1710.9,1435.93 1713.17,1437.06 1715.44,1438.16 1717.71,1439.23 1719.98,1440.27 1722.24,1441.28 1724.51,1442.27 1726.78,1443.22 1729.05,1444.15 1731.32,1445.06 1733.58,1445.94 1735.85,1446.79 1738.12,1447.62 1740.39,1448.43 1742.66,1449.21 1744.92,1449.96 1747.19,1450.7 1749.46,1451.41 1751.73,1452.1 1754,1452.76 1756.26,1453.41 1758.53,1454.03 1760.8,1454.63 1763.07,1455.22 1765.34,1455.78 1767.6,1456.32 1769.87,1456.84 1772.14,1457.34 1774.41,1457.82 1776.68,1458.28 1778.94,1458.72 1781.21,1459.14 1783.48,1459.54 1785.75,1459.93 1788.02,1460.29 1790.28,1460.64 1792.55,1460.97 1794.82,1461.27 1797.09,1461.56 1799.36,1461.84 1801.62,1462.09 1803.89,1462.32 1806.16,1462.54 1808.43,1462.73 1810.7,1462.91 1812.96,1463.07 1815.23,1463.21 1817.5,1463.33 1819.77,1463.43 1822.04,1463.51 1824.3,1463.57 1826.57,1463.62 1828.84,1463.64 1831.11,1463.65 1833.38,1463.64 1835.64,1463.6 1837.91,1463.55 1840.18,1463.47 1842.45,1463.38 1844.72,1463.26 1846.98,1463.12 1849.25,1462.96 1851.52,1462.78 1853.79,1462.57 1856.06,1462.34 1858.32,1462.09 1860.59,1461.8 1862.86,1461.5 1865.13,1461.17 1867.4,1460.81 1869.67,1460.42 1871.93,1460 1874.2,1459.55 1876.47,1459.07 1878.74,1458.56 1881.01,1458.02 1883.27,1457.44 1885.54,1456.83 1887.81,1456.18 1890.08,1455.5 1892.35,1454.77 1894.61,1454.01 1896.88,1453.2 1899.15,1452.34 1901.42,1451.42 1903.69,1450.45 1905.95,1449.43 1908.22,1448.36 1910.49,1447.23 1912.76,1446.04 1915.03,1444.8 1917.29,1443.51 1919.56,1442.15 1921.83,1440.73 1924.1,1439.24 1926.37,1437.69 1928.63,1436.06 1930.9,1434.36 1933.17,1432.58 1935.44,1430.72 1937.71,1428.77 1939.97,1426.72 1942.24,1424.58 1944.51,1422.34 1946.78,1419.99 1949.05,1417.52 1951.31,1414.94 1953.58,1412.22 1955.85,1409.37 1958.12,1406.39 1960.39,1403.25 1962.65,1399.95 1964.92,1396.49 1967.19,1392.86 1969.46,1389.04 1971.73,1385.04 1973.99,1380.83 1976.26,1376.42 1978.53,1371.78 1980.8,1366.92 1983.07,1361.81 1985.33,1356.45 1987.6,1350.83 1989.87,1344.94 1992.14,1338.76 1994.41,1332.28 1996.67,1325.49 1998.94,1318.38 2001.21,1310.93 2003.48,1303.14 2005.75,1294.98 2008.02,1286.44 2010.28,1277.52 2012.55,1268.2 2014.82,1258.47 2017.09,1248.3 2019.36,1237.69 2021.62,1226.62 2023.89,1215.09 2026.16,1203.07 2028.43,1190.58 2030.7,1177.61 2032.96,1164.15 2035.23,1150.22 2037.5,1135.81 2039.77,1120.94 2042.04,1105.62 2044.3,1089.87 2046.57,1073.69 2048.84,1057.11 2051.11,1040.15 2053.38,1022.83 2055.64,1005.19 2057.91,987.249 2060.18,969.042 2062.45,950.604 2064.72,931.966 2066.98,913.18 2069.25,894.324 2071.52,875.472 2073.79,856.695 2076.06,838.063 2078.32,819.644 2080.59,801.502 2082.86,783.701 2085.13,766.302 2087.4,749.362 2089.66,732.937 2091.93,717.082 2094.2,701.848 2096.47,687.285 2098.74,673.438 2101,660.354 2103.27,648.075 2105.54,636.641 2107.81,626.09 2110.08,616.457 2112.34,607.777 2114.61,600.081 2116.88,593.377 2119.15,587.647 2121.42,582.879 2123.68,579.059 2125.95,576.17 2128.22,574.197 2130.49,573.119 2132.76,572.916 2135.02,573.566 2137.29,575.044 2139.56,577.324 2141.83,580.378 2144.1,584.179 2146.37,588.693 2148.63,593.889 2150.9,599.733 2153.17,606.187 2155.44,613.214 2157.71,620.775 2159.97,628.827 2162.24,637.329 2164.51,646.236 2166.78,655.5 2169.05,665.074 2171.31,674.908 2173.58,684.98 2175.85,695.297 2178.12,705.831 2180.39,716.557 2182.65,727.45 2184.92,738.486 2187.19,749.643 2189.46,760.898 2191.73,772.232 2193.99,783.626 2196.26,795.059 2198.53,806.516 2200.8,817.979 2203.07,829.434 2205.33,840.866 2207.6,852.261 2209.87,863.609 2212.14,874.897 2214.41,886.116 2216.67,897.256 2218.94,908.31 2221.21,919.271 2223.48,930.133 2225.75,940.891 2228.01,951.535 2230.28,962.057 2232.55,972.455 2234.82,982.725 2237.09,992.864 2239.35,1002.87 2241.62,1012.74 2243.89,1022.47 2246.16,1032.06 2248.43,1041.5 2250.69,1050.8 2252.96,1059.96 2255.23,1068.97 2257.5,1077.83 2259.77,1086.54 2262.03,1095.11 2264.3,1103.52 2266.57,1111.79 2268.84,1119.91 2271.11,1127.88 2273.37,1135.7 2275.64,1143.38 2277.91,1150.91 2280.18,1158.3 2282.45,1165.55 2284.71,1172.66 2286.98,1179.64 2289.25,1186.47 2291.52,1193.18 2293.79,1199.74 2296.06,1206.18 2298.32,1212.48 2300.59,1218.66 2302.86,1224.71 2305.13,1230.64 2307.4,1236.44 2309.66,1242.12 2311.93,1247.68 2314.2,1253.13 2316.47,1258.46 2318.74,1263.67 2321,1268.78 2323.27,1273.77 2325.54,1278.66 2327.81,1283.44 2330.08,1288.11 2332.34,1292.69 2334.61,1297.16 2336.88,1301.53 2339.15,1305.81 2341.42,1309.99 2343.68,1314.08 2345.95,1318.08 2348.22,1321.99 2350.49,1325.81 2352.76,1329.54 "/>
<polyline clip-path="url(#clip862)" style="stroke:#3da44d; stroke-linecap:round; stroke-linejoin:round; stroke-width:12; stroke-opacity:1; fill:none" stroke-dasharray="48, 30" points="86.9921,1310.16 89.2602,1309.1 91.5282,1308 93.7962,1306.84 96.0643,1305.65 98.3323,1304.4 100.6,1303.11 102.868,1301.78 105.136,1300.4 107.404,1298.97 109.672,1297.5 111.94,1295.99 114.209,1294.43 116.477,1292.82 118.745,1291.17 121.013,1289.47 123.281,1287.73 125.549,1285.94 127.817,1284.11 130.085,1282.23 132.353,1280.31 134.621,1278.34 136.889,1276.32 139.157,1274.26 141.425,1272.15 143.693,1270 145.961,1267.79 148.229,1265.54 150.497,1263.25 152.765,1260.9 155.033,1258.51 157.301,1256.07 159.569,1253.58 161.837,1251.04 164.105,1248.45 166.373,1245.82 168.641,1243.13 170.909,1240.39 173.177,1237.6 175.445,1234.76 177.713,1231.87 179.981,1228.93 182.249,1225.93 184.517,1222.88 186.786,1219.78 189.054,1216.63 191.322,1213.41 193.59,1210.15 195.858,1206.83 198.126,1203.45 200.394,1200.02 202.662,1196.53 204.93,1192.99 207.198,1189.38 209.466,1185.72 211.734,1181.99 214.002,1178.21 216.27,1174.37 218.538,1170.47 220.806,1166.5 223.074,1162.47 225.342,1158.39 227.61,1154.23 229.878,1150.02 232.146,1145.73 234.414,1141.39 236.682,1136.97 238.95,1132.49 241.218,1127.95 243.486,1123.33 245.754,1118.65 248.022,1113.89 250.29,1109.07 252.558,1104.17 254.826,1099.21 257.095,1094.17 259.363,1089.06 261.631,1083.87 263.899,1078.61 266.167,1073.28 268.435,1067.86 270.703,1062.37 272.971,1056.81 275.239,1051.16 277.507,1045.44 279.775,1039.64 282.043,1033.75 284.311,1027.79 286.579,1021.74 288.847,1015.61 291.115,1009.39 293.383,1003.09 295.651,996.706 297.919,990.234 300.187,983.676 302.455,977.031 304.723,970.297 306.991,963.475 309.259,956.563 311.527,949.56 313.795,942.466 316.063,935.28 318.331,928 320.599,920.627 322.867,913.16 325.135,905.597 327.403,897.939 329.672,890.185 331.94,882.333 334.208,874.384 336.476,866.338 338.744,858.192 341.012,849.948 343.28,841.605 345.548,833.163 347.816,824.62 350.084,815.978 352.352,807.235 354.62,798.391 356.888,789.447 359.156,780.402 361.424,771.256 363.692,762.009 365.96,752.661 368.228,743.211 370.496,733.661 372.764,724.01 375.032,714.258 377.3,704.411 379.568,694.467 381.836,684.428 384.104,674.292 386.372,664.059 388.64,653.729 390.908,643.303 393.176,632.782 395.444,622.166 397.712,611.457 399.981,600.657 402.249,589.768 404.517,578.792 406.785,567.732 409.053,556.591 411.321,545.372 413.589,534.078 415.857,522.714 418.125,511.284 420.393,499.791 422.661,488.242 424.929,476.641 427.197,464.994 429.465,453.306 431.733,441.584 434.001,429.833 436.269,418.061 438.537,406.274 440.805,394.48 443.073,382.686 445.341,370.901 447.609,359.132 449.877,347.388 452.145,335.678 454.413,324.011 456.681,312.382 458.949,300.802 461.217,289.29 463.485,277.866 465.753,266.551 468.021,255.364 470.29,244.328 472.558,233.464 474.826,222.794 477.094,212.341 479.362,202.128 481.63,192.18 483.898,182.52 486.166,173.173 488.434,164.165 490.702,155.521 492.97,147.269 495.238,139.434 497.506,132.045 499.774,125.128 502.042,118.714 504.31,112.83 506.578,107.506 508.846,102.773 511.114,98.6598 513.382,95.1985 515.65,92.4204 517.918,90.3576 520.186,89.0427 522.454,88.5087 524.722,88.7892 526.99,89.9185 529.258,91.931 531.526,94.862 533.794,98.7471 536.062,103.623 538.33,109.528 540.598,116.505 542.867,124.558 545.135,133.684 547.403,143.876 549.671,155.122 551.939,167.409 554.207,180.719 556.475,195.031 558.743,210.321 561.011,226.559 563.279,243.714 565.547,261.751 567.815,280.632 570.083,300.312 572.351,320.748 574.619,341.889 576.887,363.682 579.155,386.071 581.423,408.996 583.691,432.393 585.959,456.195 588.227,480.331 590.495,504.729 592.763,529.308 595.031,553.989 597.299,578.687 599.567,603.314 601.835,627.805 604.103,652.138 606.371,676.253 608.639,700.094 610.907,723.609 613.176,746.75 615.444,769.473 617.712,791.739 619.98,813.512 622.248,834.761 624.516,855.459 626.784,875.583 629.052,895.115 631.32,914.04 633.588,932.348 635.856,950.033 638.124,967.092 640.392,983.53 642.66,999.351 644.928,1014.57 647.196,1029.19 649.464,1043.25 651.732,1056.75 654,1069.74 656.268,1082.24 658.536,1094.24 660.804,1105.74 663.072,1116.76 665.34,1127.3 667.608,1137.39 669.876,1147.05 672.144,1156.29 674.412,1165.12 676.68,1173.56 678.948,1181.63 681.216,1189.34 683.484,1196.7 685.753,1203.72 688.021,1210.43 690.289,1216.83 692.557,1222.94 694.825,1228.76 697.093,1234.3 699.361,1239.59 701.629,1244.62 703.897,1249.41 706.165,1253.97 708.433,1258.3 710.701,1262.42 712.969,1266.34 715.237,1270.07 717.505,1273.61 719.773,1276.97 722.041,1280.16 724.309,1283.19 726.577,1286.06 728.845,1288.77 731.113,1291.34 733.381,1293.77 735.649,1296.06 737.917,1298.23 740.185,1300.26 742.453,1302.18 744.721,1303.98 746.989,1305.68 749.257,1307.26 751.525,1308.74 753.793,1310.12 756.062,1311.4 758.33,1312.59 760.598,1313.69 762.866,1314.71 765.134,1315.63 767.402,1316.48 769.67,1317.24 771.938,1317.92 774.206,1318.53 776.474,1319.06 778.742,1319.51 781.01,1319.9 783.278,1320.22 785.546,1320.47 787.814,1320.66 790.082,1320.78 792.35,1320.84 794.618,1320.84 796.886,1320.78 799.154,1320.66 801.422,1320.48 803.69,1320.24 805.958,1319.95 808.226,1319.6 810.494,1319.2 812.762,1318.75 815.03,1318.24 817.298,1317.69 819.566,1317.08 821.834,1316.42 824.102,1315.71 826.37,1314.95 828.639,1314.15 830.907,1313.29 833.175,1312.39 835.443,1311.44 837.711,1310.45 839.979,1309.4 842.247,1308.31 844.515,1307.18 846.783,1306 849.051,1304.77 851.319,1303.5 853.587,1302.18 855.855,1300.82 858.123,1299.41 860.391,1297.96 862.659,1296.46 864.927,1294.92 867.195,1293.33 869.463,1291.69 871.731,1290.01 873.999,1288.29 876.267,1286.52 878.535,1284.7 880.803,1282.84 883.071,1280.93 885.339,1278.98 887.607,1276.97 889.875,1274.93 892.143,1272.83 894.411,1270.69 896.679,1268.51 898.948,1266.27 901.216,1263.99 903.484,1261.66 905.752,1259.29 908.02,1256.86 910.288,1254.39 912.556,1251.86 914.824,1249.29 917.092,1246.67 919.36,1244 921.628,1241.28 923.896,1238.51 926.164,1235.69 928.432,1232.82 930.7,1229.89 932.968,1226.91 935.236,1223.88 937.504,1220.8 939.772,1217.66 942.04,1214.47 944.308,1211.23 946.576,1207.93 948.844,1204.57 951.112,1201.16 953.38,1197.69 955.648,1194.16 957.916,1190.57 960.184,1186.93 962.452,1183.23 964.72,1179.47 966.988,1175.65 969.257,1171.76 971.525,1167.82 973.793,1163.82 976.061,1159.75 978.329,1155.62 980.597,1151.42 982.865,1147.17 985.133,1142.84 987.401,1138.45 989.669,1134 991.937,1129.47 994.205,1124.88 996.473,1120.22 998.741,1115.49 1001.01,1110.7 1003.28,1105.83 1005.55,1100.89 1007.81,1095.87 1010.08,1090.79 1012.35,1085.63 1014.62,1080.39 1016.89,1075.09 1019.15,1069.7 1021.42,1064.24 1023.69,1058.7 1025.96,1053.09 1028.23,1047.39 1030.49,1041.62 1032.76,1035.76 1035.03,1029.82 1037.3,1023.8 1039.57,1017.7 1041.83,1011.52 1044.1,1005.25 1046.37,998.891 1048.64,992.45 1050.91,985.921 1053.17,979.305 1055.44,972.601 1057.71,965.808 1059.98,958.925 1062.25,951.952 1064.51,944.888 1066.78,937.732 1069.05,930.484 1071.32,923.143 1073.59,915.708 1075.85,908.179 1078.12,900.555 1080.39,892.835 1082.66,885.019 1084.93,877.107 1087.19,869.097 1089.46,860.989 1091.73,852.783 1094,844.478 1096.27,836.073 1098.53,827.569 1100.8,818.963 1103.07,810.261 1105.34,801.468 1107.61,792.582 1109.87,783.6 1112.14,774.521 1114.41,765.343 1116.68,756.064 1118.95,746.682 1121.21,737.198 1123.48,727.61 1125.75,717.918 1128.02,708.122 1130.29,698.221 1132.55,688.216 1134.82,678.108 1137.09,667.897 1139.36,657.585 1141.63,647.172 1143.89,636.66 1146.16,626.051 1148.43,615.348 1150.7,604.552 1152.97,593.666 1155.24,582.694 1157.5,571.637 1159.77,560.499 1162.04,549.285 1164.31,537.998 1166.58,526.641 1168.84,515.221 1171.11,503.74 1173.38,492.204 1175.65,480.618 1177.92,468.988 1180.18,457.319 1182.45,445.617 1184.72,433.888 1186.99,422.139 1189.26,410.376 1191.52,398.607 1193.79,386.838 1196.06,375.077 1198.33,363.332 1200.6,351.61 1202.86,339.92 1205.13,328.271 1207.4,316.67 1209.67,305.128 1211.94,293.648 1214.2,282.233 1216.47,270.904 1218.74,259.683 1221.01,248.594 1223.28,237.661 1225.54,226.908 1227.81,216.359 1230.08,206.039 1232.35,195.973 1234.62,186.188 1236.88,176.708 1239.15,167.561 1241.42,158.772 1243.69,150.368 1245.96,142.378 1248.22,134.828 1250.49,127.747 1252.76,121.163 1255.03,115.105 1257.3,109.601 1259.56,104.682 1261.83,100.377 1264.1,96.7154 1266.37,93.7288 1268.64,91.4476 1270.9,89.9031 1273.17,89.1268 1275.44,89.1505 1277.71,90.0066 1279.98,91.7277 1282.24,94.3466 1284.51,97.8967 1286.78,102.412 1289.05,107.926 1291.32,114.473 1293.59,122.118 1295.85,130.898 1298.12,140.79 1300.39,151.772 1302.66,163.819 1304.93,176.903 1307.19,190.994 1309.46,206.061 1311.73,222.068 1314,238.979 1316.27,256.757 1318.53,275.359 1320.8,294.743 1323.07,314.863 1325.34,335.671 1327.61,357.119 1329.87,379.153 1332.14,401.719 1334.41,424.762 1336.68,448.221 1338.95,472.037 1341.21,496.146 1343.48,520.482 1345.75,544.979 1348.02,569.565 1350.29,594.169 1352.55,618.717 1354.82,643.133 1357.09,667.336 1359.36,691.247 1361.63,714.787 1363.89,737.946 1366.16,760.701 1368.43,783.018 1370.7,804.868 1372.97,826.222 1375.23,847.056 1377.5,867.349 1379.77,887.08 1382.04,906.235 1384.31,924.8 1386.57,942.766 1388.84,960.125 1391.11,976.873 1393.38,993.008 1395.65,1008.53 1397.91,1023.45 1400.18,1037.77 1402.45,1051.5 1404.72,1064.65 1406.99,1077.25 1409.25,1089.31 1411.52,1100.84 1413.79,1111.89 1416.06,1122.47 1418.33,1132.61 1420.59,1142.36 1422.86,1151.73 1425.13,1160.72 1427.4,1169.32 1429.67,1177.52 1431.93,1185.36 1434.2,1192.85 1436.47,1200 1438.74,1206.83 1441.01,1213.34 1443.28,1219.55 1445.54,1225.48 1447.81,1231.13 1450.08,1236.53 1452.35,1241.66 1454.62,1246.56 1456.88,1251.23 1459.15,1255.67 1461.42,1259.9 1463.69,1263.93 1465.96,1267.76 1468.22,1271.4 1470.49,1274.85 1472.76,1278.14 1475.03,1281.25 1477.3,1284.2 1479.56,1286.99 1481.83,1289.62 1484.1,1292.11 1486.37,1294.47 1488.64,1296.69 1490.9,1298.79 1493.17,1300.76 1495.44,1302.61 1497.71,1304.36 1499.98,1305.99 1502.24,1307.51 1504.51,1308.93 1506.78,1310.26 1509.05,1311.48 1511.32,1312.61 1513.58,1313.66 1515.85,1314.61 1518.12,1315.48 1520.39,1316.27 1522.66,1316.98 1524.92,1317.62 1527.19,1318.18 1529.46,1318.66 1531.73,1319.08 1534,1319.42 1536.26,1319.7 1538.53,1319.92 1540.8,1320.07 1543.07,1320.15 1545.34,1320.18 1547.6,1320.14 1549.87,1320.05 1552.14,1319.89 1554.41,1319.68 1556.68,1319.41 1558.94,1319.09 1561.21,1318.72 1563.48,1318.29 1565.75,1317.81 1568.02,1317.27 1570.28,1316.69 1572.55,1316.05 1574.82,1315.36 1577.09,1314.63 1579.36,1313.84 1581.63,1313.01 1583.89,1312.12 1586.16,1311.19 1588.43,1310.21 1590.7,1309.18 1592.97,1308.11 1595.23,1306.99 1597.5,1305.83 1599.77,1304.61 1602.04,1303.36 1604.31,1302.05 1606.57,1300.7 1608.84,1299.31 1611.11,1297.87 1613.38,1296.38 1615.65,1294.85 1617.91,1293.28 1620.18,1291.66 1622.45,1290 1624.72,1288.29 1626.99,1286.53 1629.25,1284.73 1631.52,1282.88 1633.79,1280.99 1636.06,1279.05 1638.33,1277.07 1640.59,1275.04 1642.86,1272.96 1645.13,1270.84 1647.4,1268.67 1649.67,1266.45 1651.93,1264.19 1654.2,1261.88 1656.47,1259.52 1658.74,1257.11 1661.01,1254.65 1663.27,1252.15 1665.54,1249.59 1667.81,1246.99 1670.08,1244.33 1672.35,1241.63 1674.61,1238.87 1676.88,1236.07 1679.15,1233.21 1681.42,1230.3 1683.69,1227.34 1685.95,1224.33 1688.22,1221.26 1690.49,1218.14 1692.76,1214.96 1695.03,1211.73 1697.29,1208.45 1699.56,1205.11 1701.83,1201.71 1704.1,1198.26 1706.37,1194.75 1708.63,1191.19 1710.9,1187.56 1713.17,1183.88 1715.44,1180.13 1717.71,1176.33 1719.98,1172.47 1722.24,1168.54 1724.51,1164.56 1726.78,1160.51 1729.05,1156.4 1731.32,1152.22 1733.58,1147.98 1735.85,1143.68 1738.12,1139.31 1740.39,1134.87 1742.66,1130.36 1744.92,1125.79 1747.19,1121.15 1749.46,1116.45 1751.73,1111.67 1754,1106.82 1756.26,1101.9 1758.53,1096.91 1760.8,1091.84 1763.07,1086.71 1765.34,1081.5 1767.6,1076.21 1769.87,1070.85 1772.14,1065.41 1774.41,1059.9 1776.68,1054.3 1778.94,1048.63 1781.21,1042.88 1783.48,1037.05 1785.75,1031.14 1788.02,1025.15 1790.28,1019.08 1792.55,1012.92 1794.82,1006.68 1797.09,1000.35 1799.36,993.938 1801.62,987.439 1803.89,980.853 1806.16,974.179 1808.43,967.417 1810.7,960.567 1812.96,953.628 1815.23,946.598 1817.5,939.478 1819.77,932.265 1822.04,924.959 1824.3,917.559 1826.57,910.065 1828.84,902.475 1831.11,894.788 1833.38,887.006 1835.64,879.125 1837.91,871.147 1840.18,863.071 1842.45,854.895 1844.72,846.621 1846.98,838.247 1849.25,829.773 1851.52,821.199 1853.79,812.525 1856.06,803.75 1858.32,794.875 1860.59,785.9 1862.86,776.824 1865.13,767.647 1867.4,758.371 1869.67,748.994 1871.93,739.517 1874.2,729.941 1876.47,720.265 1878.74,710.491 1881.01,700.618 1883.27,690.647 1885.54,680.578 1887.81,670.412 1890.08,660.15 1892.35,649.793 1894.61,639.34 1896.88,628.806 1899.15,618.199 1901.42,607.518 1903.69,596.759 1905.95,585.92 1908.22,575.001 1910.49,564.001 1912.76,552.919 1915.03,541.758 1917.29,530.517 1919.56,519.2 1921.83,507.809 1924.1,496.347 1926.37,484.819 1928.63,473.228 1930.9,461.582 1933.17,449.885 1935.44,438.144 1937.71,426.367 1939.97,414.561 1942.24,402.736 1944.51,390.901 1946.78,379.065 1949.05,367.239 1951.31,355.435 1953.58,343.664 1955.85,331.939 1958.12,320.274 1960.39,308.682 1962.65,297.178 1964.92,285.777 1967.19,274.496 1969.46,263.349 1971.73,252.356 1973.99,241.533 1976.26,230.9 1978.53,220.475 1980.8,210.278 1983.07,200.33 1985.33,190.652 1987.6,181.265 1989.87,172.193 1992.14,163.459 1994.41,155.085 1996.67,147.097 1998.94,139.52 2001.21,132.379 2003.48,125.701 2005.75,119.513 2008.02,113.843 2010.28,108.718 2012.55,104.17 2014.82,100.246 2017.09,96.9926 2019.36,94.4539 2021.62,92.6705 2023.89,91.6806 2026.16,91.5193 2028.43,92.2189 2030.7,93.8091 2032.96,96.3164 2035.23,99.7647 2037.5,104.175 2039.77,109.566 2042.04,115.952 2044.3,123.346 2046.57,131.758 2048.84,141.195 2051.11,151.66 2053.38,163.155 2055.64,175.678 2057.91,189.224 2060.18,203.787 2062.45,219.356 2064.72,235.93 2066.98,253.478 2069.25,271.936 2071.52,291.243 2073.79,311.335 2076.06,332.148 2078.32,353.618 2080.59,375.682 2082.86,398.276 2085.13,421.335 2087.4,444.796 2089.66,468.593 2091.93,492.661 2094.2,516.937 2096.47,541.355 2098.74,565.849 2101,590.355 2103.27,614.806 2105.54,639.137 2107.81,663.282 2110.08,687.175 2112.34,710.75 2114.61,733.94 2116.88,756.702 2119.15,779.02 2121.42,800.868 2123.68,822.22 2125.95,843.054 2128.22,863.351 2130.49,883.094 2132.76,902.269 2135.02,920.863 2137.29,938.868 2139.56,956.278 2141.83,973.089 2144.1,989.3 2146.37,1004.91 2148.63,1019.93 2150.9,1034.36 2153.17,1048.21 2155.44,1061.5 2157.71,1074.23 2159.97,1086.43 2162.24,1098.12 2164.51,1109.31 2166.78,1120.04 2169.05,1130.33 2171.31,1140.21 2173.58,1149.69 2175.85,1158.75 2178.12,1167.41 2180.39,1175.69 2182.65,1183.59 2184.92,1191.14 2187.19,1198.36 2189.46,1205.24 2191.73,1211.81 2193.99,1218.08 2196.26,1224.06 2198.53,1229.76 2200.8,1235.2 2203.07,1240.39 2205.33,1245.33 2207.6,1250.03 2209.87,1254.51 2212.14,1258.78 2214.41,1262.83 2216.67,1266.69 2218.94,1270.36 2221.21,1273.84 2223.48,1277.14 2225.75,1280.27 2228.01,1283.23 2230.28,1286.04 2232.55,1288.71 2234.82,1291.22 2237.09,1293.61 2239.35,1295.85 2241.62,1297.97 2243.89,1299.97 2246.16,1301.84 2248.43,1303.61 2250.69,1305.26 2252.96,1306.8 2255.23,1308.24 2257.5,1309.58 2259.77,1310.82 2262.03,1311.98 2264.3,1313.04 2266.57,1314.01 2268.84,1314.9 2271.11,1315.71 2273.37,1316.44 2275.64,1317.09 2277.91,1317.67 2280.18,1318.17 2282.45,1318.6 2284.71,1318.97 2286.98,1319.26 2289.25,1319.48 2291.52,1319.65 2293.79,1319.74 2296.06,1319.78 2298.32,1319.76 2300.59,1319.67 2302.86,1319.53 2305.13,1319.33 2307.4,1319.07 2309.66,1318.76 2311.93,1318.39 2314.2,1317.97 2316.47,1317.5 2318.74,1316.97 2321,1316.39 2323.27,1315.76 2325.54,1315.08 2327.81,1314.35 2330.08,1313.57 2332.34,1312.74 2334.61,1311.87 2336.88,1310.95 2339.15,1309.97 2341.42,1308.96 2343.68,1307.89 2345.95,1306.78 2348.22,1305.62 2350.49,1304.42 2352.76,1303.17 "/>
<polyline clip-path="url(#clip862)" style="stroke:#c271d2; stroke-linecap:round; stroke-linejoin:round; stroke-width:12; stroke-opacity:1; fill:none" stroke-dasharray="48, 30" points="86.9921,1310.16 89.2602,1314.26 91.5282,1318.27 93.7962,1322.18 96.0643,1326.01 98.3323,1329.75 100.6,1333.41 102.868,1336.99 105.136,1340.48 107.404,1343.89 109.672,1347.23 111.94,1350.49 114.209,1353.68 116.477,1356.79 118.745,1359.83 121.013,1362.8 123.281,1365.7 125.549,1368.54 127.817,1371.3 130.085,1374.01 132.353,1376.65 134.621,1379.23 136.889,1381.75 139.157,1384.21 141.425,1386.61 143.693,1388.96 145.961,1391.25 148.229,1393.48 150.497,1395.67 152.765,1397.8 155.033,1399.88 157.301,1401.91 159.569,1403.89 161.837,1405.82 164.105,1407.71 166.373,1409.55 168.641,1411.35 170.909,1413.1 173.177,1414.82 175.445,1416.49 177.713,1418.11 179.981,1419.7 182.249,1421.25 184.517,1422.76 186.786,1424.23 189.054,1425.67 191.322,1427.07 193.59,1428.43 195.858,1429.76 198.126,1431.06 200.394,1432.32 202.662,1433.55 204.93,1434.75 207.198,1435.92 209.466,1437.06 211.734,1438.16 214.002,1439.24 216.27,1440.29 218.538,1441.31 220.806,1442.3 223.074,1443.27 225.342,1444.21 227.61,1445.12 229.878,1446 232.146,1446.87 234.414,1447.7 236.682,1448.51 238.95,1449.3 241.218,1450.06 243.486,1450.8 245.754,1451.52 248.022,1452.22 250.29,1452.89 252.558,1453.54 254.826,1454.17 257.095,1454.78 259.363,1455.36 261.631,1455.93 263.899,1456.48 266.167,1457 268.435,1457.51 270.703,1457.99 272.971,1458.46 275.239,1458.9 277.507,1459.33 279.775,1459.74 282.043,1460.13 284.311,1460.5 286.579,1460.85 288.847,1461.18 291.115,1461.5 293.383,1461.79 295.651,1462.07 297.919,1462.33 300.187,1462.57 302.455,1462.79 304.723,1462.99 306.991,1463.18 309.259,1463.34 311.527,1463.49 313.795,1463.62 316.063,1463.73 318.331,1463.82 320.599,1463.89 322.867,1463.95 325.135,1463.98 327.403,1464 329.672,1463.99 331.94,1463.97 334.208,1463.92 336.476,1463.85 338.744,1463.77 341.012,1463.66 343.28,1463.53 345.548,1463.38 347.816,1463.2 350.084,1463.01 352.352,1462.78 354.62,1462.54 356.888,1462.27 359.156,1461.97 361.424,1461.65 363.692,1461.3 365.96,1460.92 368.228,1460.52 370.496,1460.09 372.764,1459.62 375.032,1459.13 377.3,1458.6 379.568,1458.03 381.836,1457.43 384.104,1456.8 386.372,1456.12 388.64,1455.41 390.908,1454.66 393.176,1453.87 395.444,1453.04 397.712,1452.17 399.981,1451.25 402.249,1450.28 404.517,1449.27 406.785,1448.2 409.053,1447.08 411.321,1445.91 413.589,1444.68 415.857,1443.38 418.125,1442.03 420.393,1440.6 422.661,1439.1 424.929,1437.53 427.197,1435.88 429.465,1434.15 431.733,1432.34 434.001,1430.43 436.269,1428.42 438.537,1426.32 440.805,1424.12 443.073,1421.8 445.341,1419.37 447.609,1416.82 449.877,1414.15 452.145,1411.35 454.413,1408.41 456.681,1405.34 458.949,1402.14 461.217,1398.79 463.485,1395.28 465.753,1391.59 468.021,1387.72 470.29,1383.64 472.558,1379.36 474.826,1374.85 477.094,1370.1 479.362,1365.11 481.63,1359.85 483.898,1354.33 486.166,1348.52 488.434,1342.42 490.702,1336.01 492.97,1329.29 495.238,1322.23 497.506,1314.84 499.774,1307.1 502.042,1299 504.31,1290.53 506.578,1281.68 508.846,1272.44 511.114,1262.8 513.382,1252.76 515.65,1242.29 517.918,1231.39 520.186,1220.05 522.454,1208.27 524.722,1196.03 526.99,1183.32 529.258,1170.14 531.526,1156.48 533.794,1142.33 536.062,1127.68 538.33,1112.51 540.598,1096.79 542.867,1080.57 545.135,1063.87 547.403,1046.76 549.671,1029.26 551.939,1011.44 554.207,993.333 556.475,974.991 558.743,956.462 561.011,937.797 563.279,919.044 565.547,900.255 567.815,881.483 570.083,862.778 572.351,844.196 574.619,825.788 576.887,807.611 579.155,789.719 581.423,772.17 583.691,755.019 585.959,738.325 588.227,722.146 590.495,706.541 592.763,691.571 595.031,677.296 597.299,663.777 599.567,651.077 601.835,639.237 604.103,628.263 606.371,618.18 608.639,609.011 610.907,600.775 613.176,593.487 615.444,587.158 617.712,581.792 619.98,577.393 622.248,573.958 624.516,571.481 626.784,569.949 629.052,569.349 631.32,569.661 633.588,570.862 635.856,572.923 638.124,575.812 640.392,579.494 642.66,583.928 644.928,589.069 647.196,594.867 649.464,601.271 651.732,608.221 654,615.657 656.268,623.512 658.536,631.776 660.804,640.461 663.072,649.532 665.34,658.956 667.608,668.7 669.876,678.734 672.144,689.026 674.412,699.549 676.68,710.276 678.948,721.179 681.216,732.233 683.484,743.416 685.753,754.704 688.021,766.077 690.289,777.513 692.557,788.995 694.825,800.504 697.093,812.024 699.361,823.54 701.629,835.038 703.897,846.506 706.165,857.931 708.433,869.304 710.701,880.613 712.969,891.842 715.237,902.983 717.505,914.029 719.773,924.975 722.041,935.815 724.309,946.543 726.577,957.155 728.845,967.646 731.113,978.011 733.381,988.246 735.649,998.348 737.917,1008.31 740.185,1018.14 742.453,1027.82 744.721,1037.36 746.989,1046.76 749.257,1056 751.525,1065.1 753.793,1074.05 756.062,1082.84 758.33,1091.49 760.598,1099.98 762.866,1108.33 765.134,1116.52 767.402,1124.57 769.67,1132.47 771.938,1140.22 774.206,1147.84 776.474,1155.31 778.742,1162.64 781.01,1169.82 783.278,1176.87 785.546,1183.78 787.814,1190.55 790.082,1197.19 792.35,1203.69 794.618,1210.06 796.886,1216.31 799.154,1222.42 801.422,1228.41 803.69,1234.27 805.958,1240.02 808.226,1245.64 810.494,1251.14 812.762,1256.53 815.03,1261.8 817.298,1266.95 819.566,1272 821.834,1276.94 824.102,1281.77 826.37,1286.49 828.639,1291.11 830.907,1295.63 833.175,1300.05 835.443,1304.37 837.711,1308.59 839.979,1312.72 842.247,1316.76 844.515,1320.71 846.783,1324.57 849.051,1328.35 851.319,1332.03 853.587,1335.64 855.855,1339.16 858.123,1342.61 860.391,1345.97 862.659,1349.26 864.927,1352.47 867.195,1355.61 869.463,1358.68 871.731,1361.67 873.999,1364.6 876.267,1367.46 878.535,1370.25 880.803,1372.98 883.071,1375.64 885.339,1378.25 887.607,1380.79 889.875,1383.27 892.143,1385.7 894.411,1388.06 896.679,1390.38 898.948,1392.63 901.216,1394.84 903.484,1396.99 905.752,1399.09 908.02,1401.14 910.288,1403.14 912.556,1405.09 914.824,1407 917.092,1408.86 919.36,1410.67 921.628,1412.44 923.896,1414.17 926.164,1415.85 928.432,1417.49 930.7,1419.1 932.968,1420.66 935.236,1422.18 937.504,1423.67 939.772,1425.12 942.04,1426.53 944.308,1427.9 946.576,1429.25 948.844,1430.55 951.112,1431.83 953.38,1433.07 955.648,1434.28 957.916,1435.46 960.184,1436.6 962.452,1437.72 964.72,1438.81 966.988,1439.87 969.257,1440.9 971.525,1441.9 973.793,1442.87 976.061,1443.82 978.329,1444.74 980.597,1445.64 982.865,1446.51 985.133,1447.36 987.401,1448.18 989.669,1448.97 991.937,1449.75 994.205,1450.5 996.473,1451.23 998.741,1451.93 1001.01,1452.61 1003.28,1453.27 1005.55,1453.91 1007.81,1454.53 1010.08,1455.12 1012.35,1455.7 1014.62,1456.25 1016.89,1456.78 1019.15,1457.29 1021.42,1457.79 1023.69,1458.26 1025.96,1458.71 1028.23,1459.14 1030.49,1459.56 1032.76,1459.95 1035.03,1460.33 1037.3,1460.69 1039.57,1461.03 1041.83,1461.35 1044.1,1461.65 1046.37,1461.93 1048.64,1462.2 1050.91,1462.44 1053.17,1462.67 1055.44,1462.88 1057.71,1463.08 1059.98,1463.25 1062.25,1463.4 1064.51,1463.54 1066.78,1463.66 1069.05,1463.76 1071.32,1463.84 1073.59,1463.9 1075.85,1463.94 1078.12,1463.96 1080.39,1463.96 1082.66,1463.94 1084.93,1463.9 1087.19,1463.84 1089.46,1463.76 1091.73,1463.66 1094,1463.54 1096.27,1463.39 1098.53,1463.23 1100.8,1463.04 1103.07,1462.82 1105.34,1462.57 1107.61,1462.3 1109.87,1461.99 1112.14,1461.66 1114.41,1461.3 1116.68,1460.91 1118.95,1460.5 1121.21,1460.05 1123.48,1459.58 1125.75,1459.08 1128.02,1458.55 1130.29,1457.98 1132.55,1457.39 1134.82,1456.77 1137.09,1456.11 1139.36,1455.42 1141.63,1454.69 1143.89,1453.93 1146.16,1453.12 1148.43,1452.28 1150.7,1451.39 1152.97,1450.45 1155.24,1449.47 1157.5,1448.44 1159.77,1447.36 1162.04,1446.22 1164.31,1445.02 1166.58,1443.76 1168.84,1442.44 1171.11,1441.05 1173.38,1439.58 1175.65,1438.05 1177.92,1436.43 1180.18,1434.73 1182.45,1432.95 1184.72,1431.07 1186.99,1429.1 1189.26,1427.04 1191.52,1424.86 1193.79,1422.58 1196.06,1420.19 1198.33,1417.67 1200.6,1415.04 1202.86,1412.27 1205.13,1409.37 1207.4,1406.33 1209.67,1403.14 1211.94,1399.81 1214.2,1396.33 1216.47,1392.7 1218.74,1388.89 1221.01,1384.9 1223.28,1380.7 1225.54,1376.29 1227.81,1371.65 1230.08,1366.77 1232.35,1361.63 1234.62,1356.22 1236.88,1350.54 1239.15,1344.56 1241.42,1338.27 1243.69,1331.67 1245.96,1324.74 1248.22,1317.47 1250.49,1309.85 1252.76,1301.87 1255.03,1293.52 1257.3,1284.79 1259.56,1275.67 1261.83,1266.15 1264.1,1256.22 1266.37,1245.88 1268.64,1235.11 1270.9,1223.9 1273.17,1212.25 1275.44,1200.16 1277.71,1187.6 1279.98,1174.59 1282.24,1161.1 1284.51,1147.14 1286.78,1132.69 1289.05,1117.75 1291.32,1102.32 1293.59,1086.35 1295.85,1069.83 1298.12,1052.81 1300.39,1035.35 1302.66,1017.53 1304.93,999.388 1307.19,980.993 1309.46,962.4 1311.73,943.668 1314,924.853 1316.27,906.011 1318.53,887.198 1320.8,868.468 1323.07,849.878 1325.34,831.479 1327.61,813.326 1329.87,795.471 1332.14,777.967 1334.41,760.864 1336.68,744.214 1338.95,728.067 1341.21,712.473 1343.48,697.48 1345.75,683.137 1348.02,669.492 1350.29,656.593 1352.55,644.486 1354.82,633.217 1357.09,622.832 1359.36,613.375 1361.63,604.888 1363.89,597.371 1366.16,590.813 1368.43,585.211 1370.7,580.557 1372.97,576.842 1375.23,574.054 1377.5,572.181 1379.77,571.205 1382.04,571.109 1384.31,571.873 1386.57,573.475 1388.84,575.889 1391.11,579.09 1393.38,583.047 1395.65,587.731 1397.91,593.108 1400.18,599.142 1402.45,605.795 1404.72,613.029 1406.99,620.801 1409.25,629.066 1411.52,637.779 1413.79,646.89 1416.06,656.35 1418.33,666.105 1420.59,676.099 1422.86,686.279 1425.13,696.659 1427.4,707.247 1429.67,718.019 1431.93,728.951 1434.2,740.021 1436.47,751.206 1438.74,762.487 1441.01,773.842 1443.28,785.255 1445.54,796.705 1447.81,808.177 1450.08,819.654 1452.35,831.122 1454.62,842.566 1456.88,853.972 1459.15,865.329 1461.42,876.625 1463.69,887.849 1465.96,898.993 1468.22,910.047 1470.49,921.005 1472.76,931.859 1475.03,942.603 1477.3,953.233 1479.56,963.746 1481.83,974.137 1484.1,984.403 1486.37,994.533 1488.64,1004.53 1490.9,1014.38 1493.17,1024.09 1495.44,1033.66 1497.71,1043.09 1499.98,1052.37 1502.24,1061.51 1504.51,1070.5 1506.78,1079.34 1509.05,1088.04 1511.32,1096.59 1513.58,1104.99 1515.85,1113.24 1518.12,1121.34 1520.39,1129.3 1522.66,1137.11 1524.92,1144.78 1527.19,1152.3 1529.46,1159.67 1531.73,1166.91 1534,1174 1536.26,1180.95 1538.53,1187.77 1540.8,1194.45 1543.07,1200.99 1545.34,1207.4 1547.6,1213.69 1549.87,1219.84 1552.14,1225.88 1554.41,1231.78 1556.68,1237.57 1558.94,1243.23 1561.21,1248.77 1563.48,1254.2 1565.75,1259.51 1568.02,1264.7 1570.28,1269.79 1572.55,1274.77 1574.82,1279.64 1577.09,1284.4 1579.36,1289.06 1581.63,1293.62 1583.89,1298.07 1586.16,1302.43 1588.43,1306.7 1590.7,1310.87 1592.97,1314.94 1595.23,1318.93 1597.5,1322.82 1599.77,1326.63 1602.04,1330.35 1604.31,1333.99 1606.57,1337.54 1608.84,1341.02 1611.11,1344.41 1613.38,1347.73 1615.65,1350.97 1617.91,1354.14 1620.18,1357.23 1622.45,1360.26 1624.72,1363.21 1626.99,1366.09 1629.25,1368.91 1631.52,1371.67 1633.79,1374.35 1636.06,1376.98 1638.33,1379.54 1640.59,1382.05 1642.86,1384.49 1645.13,1386.88 1647.4,1389.21 1649.67,1391.49 1651.93,1393.71 1654.2,1395.88 1656.47,1398 1658.74,1400.07 1661.01,1402.09 1663.27,1404.06 1665.54,1405.98 1667.81,1407.86 1670.08,1409.69 1672.35,1411.48 1674.61,1413.22 1676.88,1414.92 1679.15,1416.58 1681.42,1418.2 1683.69,1419.79 1685.95,1421.33 1688.22,1422.83 1690.49,1424.3 1692.76,1425.73 1695.03,1427.12 1697.29,1428.48 1699.56,1429.8 1701.83,1431.09 1704.1,1432.35 1706.37,1433.57 1708.63,1434.77 1710.9,1435.93 1713.17,1437.06 1715.44,1438.16 1717.71,1439.23 1719.98,1440.27 1722.24,1441.28 1724.51,1442.27 1726.78,1443.22 1729.05,1444.15 1731.32,1445.06 1733.58,1445.94 1735.85,1446.79 1738.12,1447.62 1740.39,1448.43 1742.66,1449.21 1744.92,1449.96 1747.19,1450.7 1749.46,1451.41 1751.73,1452.1 1754,1452.76 1756.26,1453.41 1758.53,1454.03 1760.8,1454.63 1763.07,1455.22 1765.34,1455.78 1767.6,1456.32 1769.87,1456.84 1772.14,1457.34 1774.41,1457.82 1776.68,1458.28 1778.94,1458.72 1781.21,1459.14 1783.48,1459.54 1785.75,1459.93 1788.02,1460.29 1790.28,1460.64 1792.55,1460.97 1794.82,1461.27 1797.09,1461.56 1799.36,1461.84 1801.62,1462.09 1803.89,1462.32 1806.16,1462.54 1808.43,1462.73 1810.7,1462.91 1812.96,1463.07 1815.23,1463.21 1817.5,1463.33 1819.77,1463.43 1822.04,1463.51 1824.3,1463.57 1826.57,1463.62 1828.84,1463.64 1831.11,1463.65 1833.38,1463.64 1835.64,1463.6 1837.91,1463.55 1840.18,1463.47 1842.45,1463.38 1844.72,1463.26 1846.98,1463.12 1849.25,1462.96 1851.52,1462.78 1853.79,1462.57 1856.06,1462.34 1858.32,1462.09 1860.59,1461.8 1862.86,1461.5 1865.13,1461.17 1867.4,1460.81 1869.67,1460.42 1871.93,1460 1874.2,1459.55 1876.47,1459.07 1878.74,1458.56 1881.01,1458.02 1883.27,1457.44 1885.54,1456.83 1887.81,1456.18 1890.08,1455.5 1892.35,1454.77 1894.61,1454.01 1896.88,1453.2 1899.15,1452.34 1901.42,1451.42 1903.69,1450.45 1905.95,1449.43 1908.22,1448.36 1910.49,1447.23 1912.76,1446.04 1915.03,1444.8 1917.29,1443.51 1919.56,1442.15 1921.83,1440.73 1924.1,1439.24 1926.37,1437.69 1928.63,1436.06 1930.9,1434.36 1933.17,1432.58 1935.44,1430.72 1937.71,1428.77 1939.97,1426.72 1942.24,1424.58 1944.51,1422.34 1946.78,1419.99 1949.05,1417.52 1951.31,1414.94 1953.58,1412.22 1955.85,1409.37 1958.12,1406.39 1960.39,1403.25 1962.65,1399.95 1964.92,1396.49 1967.19,1392.86 1969.46,1389.04 1971.73,1385.04 1973.99,1380.83 1976.26,1376.42 1978.53,1371.78 1980.8,1366.92 1983.07,1361.81 1985.33,1356.45 1987.6,1350.83 1989.87,1344.94 1992.14,1338.76 1994.41,1332.28 1996.67,1325.49 1998.94,1318.38 2001.21,1310.93 2003.48,1303.14 2005.75,1294.98 2008.02,1286.44 2010.28,1277.52 2012.55,1268.2 2014.82,1258.47 2017.09,1248.3 2019.36,1237.69 2021.62,1226.62 2023.89,1215.09 2026.16,1203.07 2028.43,1190.58 2030.7,1177.61 2032.96,1164.15 2035.23,1150.22 2037.5,1135.81 2039.77,1120.94 2042.04,1105.62 2044.3,1089.87 2046.57,1073.69 2048.84,1057.11 2051.11,1040.15 2053.38,1022.83 2055.64,1005.19 2057.91,987.249 2060.18,969.042 2062.45,950.604 2064.72,931.966 2066.98,913.18 2069.25,894.324 2071.52,875.472 2073.79,856.695 2076.06,838.063 2078.32,819.644 2080.59,801.502 2082.86,783.701 2085.13,766.302 2087.4,749.362 2089.66,732.937 2091.93,717.082 2094.2,701.848 2096.47,687.285 2098.74,673.438 2101,660.354 2103.27,648.075 2105.54,636.641 2107.81,626.09 2110.08,616.457 2112.34,607.777 2114.61,600.081 2116.88,593.377 2119.15,587.647 2121.42,582.879 2123.68,579.059 2125.95,576.17 2128.22,574.197 2130.49,573.119 2132.76,572.916 2135.02,573.566 2137.29,575.044 2139.56,577.324 2141.83,580.378 2144.1,584.179 2146.37,588.693 2148.63,593.889 2150.9,599.733 2153.17,606.187 2155.44,613.214 2157.71,620.775 2159.97,628.827 2162.24,637.329 2164.51,646.236 2166.78,655.5 2169.05,665.074 2171.31,674.908 2173.58,684.98 2175.85,695.297 2178.12,705.831 2180.39,716.557 2182.65,727.45 2184.92,738.486 2187.19,749.643 2189.46,760.898 2191.73,772.232 2193.99,783.626 2196.26,795.059 2198.53,806.516 2200.8,817.979 2203.07,829.434 2205.33,840.866 2207.6,852.261 2209.87,863.609 2212.14,874.897 2214.41,886.116 2216.67,897.256 2218.94,908.31 2221.21,919.271 2223.48,930.133 2225.75,940.891 2228.01,951.535 2230.28,962.057 2232.55,972.455 2234.82,982.725 2237.09,992.864 2239.35,1002.87 2241.62,1012.74 2243.89,1022.47 2246.16,1032.06 2248.43,1041.5 2250.69,1050.8 2252.96,1059.96 2255.23,1068.97 2257.5,1077.83 2259.77,1086.54 2262.03,1095.11 2264.3,1103.52 2266.57,1111.79 2268.84,1119.91 2271.11,1127.88 2273.37,1135.7 2275.64,1143.38 2277.91,1150.91 2280.18,1158.3 2282.45,1165.55 2284.71,1172.66 2286.98,1179.64 2289.25,1186.47 2291.52,1193.18 2293.79,1199.74 2296.06,1206.18 2298.32,1212.48 2300.59,1218.66 2302.86,1224.71 2305.13,1230.64 2307.4,1236.44 2309.66,1242.12 2311.93,1247.68 2314.2,1253.13 2316.47,1258.46 2318.74,1263.67 2321,1268.78 2323.27,1273.77 2325.54,1278.66 2327.81,1283.44 2330.08,1288.11 2332.34,1292.69 2334.61,1297.16 2336.88,1301.53 2339.15,1305.81 2341.42,1309.99 2343.68,1314.08 2345.95,1318.08 2348.22,1321.99 2350.49,1325.81 2352.76,1329.54 "/>
<path clip-path="url(#clip860)" d="M162.518 355.045 L496.779 355.045 L496.779 95.8446 L162.518 95.8446  Z" fill="#ffffff" fill-rule="evenodd" fill-opacity="1"/>
<polyline clip-path="url(#clip860)" style="stroke:#000000; stroke-linecap:round; stroke-linejoin:round; stroke-width:4; stroke-opacity:1; fill:none" points="162.518,355.045 496.779,355.045 496.779,95.8446 162.518,95.8446 162.518,355.045 "/>
<polyline clip-path="url(#clip860)" style="stroke:#009af9; stroke-linecap:round; stroke-linejoin:round; stroke-width:12; stroke-opacity:1; fill:none" points="187.693,147.685 338.744,147.685 "/>
<path clip-path="url(#clip860)" d="M363.919 154.733 L363.919 139.039 L368.178 139.039 L368.178 154.571 Q368.178 158.252 369.613 160.104 Q371.048 161.932 373.919 161.932 Q377.368 161.932 379.359 159.733 Q381.372 157.534 381.372 153.738 L381.372 139.039 L385.632 139.039 L385.632 164.965 L381.372 164.965 L381.372 160.983 Q379.822 163.344 377.761 164.502 Q375.724 165.636 373.016 165.636 Q368.548 165.636 366.234 162.858 Q363.919 160.08 363.919 154.733 M374.636 138.414 L374.636 138.414 Z" fill="#000000" fill-rule="nonzero" fill-opacity="1" /><path clip-path="url(#clip860)" d="M395.817 161.029 L403.456 161.029 L403.456 134.664 L395.145 136.331 L395.145 132.071 L403.409 130.405 L408.085 130.405 L408.085 161.029 L415.724 161.029 L415.724 164.965 L395.817 164.965 L395.817 161.029 Z" fill="#000000" fill-rule="nonzero" fill-opacity="1" /><path clip-path="url(#clip860)" d="M434.798 128.993 Q431.696 134.317 430.192 139.525 Q428.687 144.733 428.687 150.08 Q428.687 155.428 430.192 160.682 Q431.719 165.914 434.798 171.215 L431.094 171.215 Q427.622 165.775 425.886 160.52 Q424.173 155.266 424.173 150.08 Q424.173 144.918 425.886 139.687 Q427.599 134.456 431.094 128.993 L434.798 128.993 Z" fill="#000000" fill-rule="nonzero" fill-opacity="1" /><path clip-path="url(#clip860)" d="M447.275 131.678 L447.275 139.039 L456.048 139.039 L456.048 142.349 L447.275 142.349 L447.275 156.423 Q447.275 159.594 448.131 160.497 Q449.011 161.4 451.673 161.4 L456.048 161.4 L456.048 164.965 L451.673 164.965 Q446.742 164.965 444.867 163.136 Q442.992 161.284 442.992 156.423 L442.992 142.349 L439.867 142.349 L439.867 139.039 L442.992 139.039 L442.992 131.678 L447.275 131.678 Z" fill="#000000" fill-rule="nonzero" fill-opacity="1" /><path clip-path="url(#clip860)" d="M460.978 128.993 L464.682 128.993 Q468.154 134.456 469.867 139.687 Q471.603 144.918 471.603 150.08 Q471.603 155.266 469.867 160.52 Q468.154 165.775 464.682 171.215 L460.978 171.215 Q464.057 165.914 465.562 160.682 Q467.09 155.428 467.09 150.08 Q467.09 144.733 465.562 139.525 Q464.057 134.317 460.978 128.993 Z" fill="#000000" fill-rule="nonzero" fill-opacity="1" /><polyline clip-path="url(#clip860)" style="stroke:#e26f46; stroke-linecap:round; stroke-linejoin:round; stroke-width:12; stroke-opacity:1; fill:none" points="187.693,199.525 338.744,199.525 "/>
<path clip-path="url(#clip860)" d="M363.919 206.573 L363.919 190.879 L368.178 190.879 L368.178 206.411 Q368.178 210.092 369.613 211.944 Q371.048 213.772 373.919 213.772 Q377.368 213.772 379.359 211.573 Q381.372 209.374 381.372 205.578 L381.372 190.879 L385.632 190.879 L385.632 216.805 L381.372 216.805 L381.372 212.823 Q379.822 215.184 377.761 216.342 Q375.724 217.476 373.016 217.476 Q368.548 217.476 366.234 214.698 Q363.919 211.92 363.919 206.573 M374.636 190.254 L374.636 190.254 Z" fill="#000000" fill-rule="nonzero" fill-opacity="1" /><path clip-path="url(#clip860)" d="M399.034 212.869 L415.354 212.869 L415.354 216.805 L393.409 216.805 L393.409 212.869 Q396.071 210.115 400.655 205.485 Q405.261 200.832 406.442 199.49 Q408.687 196.967 409.567 195.231 Q410.469 193.471 410.469 191.782 Q410.469 189.027 408.525 187.291 Q406.604 185.555 403.502 185.555 Q401.303 185.555 398.849 186.319 Q396.419 187.083 393.641 188.633 L393.641 183.911 Q396.465 182.777 398.919 182.198 Q401.372 181.62 403.409 181.62 Q408.78 181.62 411.974 184.305 Q415.169 186.99 415.169 191.481 Q415.169 193.61 414.358 195.532 Q413.571 197.43 411.465 200.022 Q410.886 200.694 407.784 203.911 Q404.682 207.106 399.034 212.869 Z" fill="#000000" fill-rule="nonzero" fill-opacity="1" /><path clip-path="url(#clip860)" d="M434.798 180.833 Q431.696 186.157 430.192 191.365 Q428.687 196.573 428.687 201.92 Q428.687 207.268 430.192 212.522 Q431.719 217.754 434.798 223.055 L431.094 223.055 Q427.622 217.615 425.886 212.36 Q424.173 207.106 424.173 201.92 Q424.173 196.758 425.886 191.527 Q427.599 186.296 431.094 180.833 L434.798 180.833 Z" fill="#000000" fill-rule="nonzero" fill-opacity="1" /><path clip-path="url(#clip860)" d="M447.275 183.518 L447.275 190.879 L456.048 190.879 L456.048 194.189 L447.275 194.189 L447.275 208.263 Q447.275 211.434 448.131 212.337 Q449.011 213.24 451.673 213.24 L456.048 213.24 L456.048 216.805 L451.673 216.805 Q446.742 216.805 444.867 214.976 Q442.992 213.124 442.992 208.263 L442.992 194.189 L439.867 194.189 L439.867 190.879 L442.992 190.879 L442.992 183.518 L447.275 183.518 Z" fill="#000000" fill-rule="nonzero" fill-opacity="1" /><path clip-path="url(#clip860)" d="M460.978 180.833 L464.682 180.833 Q468.154 186.296 469.867 191.527 Q471.603 196.758 471.603 201.92 Q471.603 207.106 469.867 212.36 Q468.154 217.615 464.682 223.055 L460.978 223.055 Q464.057 217.754 465.562 212.522 Q467.09 207.268 467.09 201.92 Q467.09 196.573 465.562 191.365 Q464.057 186.157 460.978 180.833 Z" fill="#000000" fill-rule="nonzero" fill-opacity="1" /><polyline clip-path="url(#clip860)" style="stroke:#3da44d; stroke-linecap:round; stroke-linejoin:round; stroke-width:12; stroke-opacity:1; fill:none" stroke-dasharray="48, 30" points="187.693,251.365 338.744,251.365 "/>
<path clip-path="url(#clip860)" d="M363.919 258.413 L363.919 242.719 L368.178 242.719 L368.178 258.251 Q368.178 261.932 369.613 263.784 Q371.048 265.612 373.919 265.612 Q377.368 265.612 379.359 263.413 Q381.372 261.214 381.372 257.418 L381.372 242.719 L385.632 242.719 L385.632 268.645 L381.372 268.645 L381.372 264.663 Q379.822 267.024 377.761 268.182 Q375.724 269.316 373.016 269.316 Q368.548 269.316 366.234 266.538 Q363.919 263.76 363.919 258.413 M374.636 242.094 L374.636 242.094 Z" fill="#000000" fill-rule="nonzero" fill-opacity="1" /><path clip-path="url(#clip860)" d="M395.817 264.709 L403.456 264.709 L403.456 238.344 L395.145 240.011 L395.145 235.751 L403.409 234.085 L408.085 234.085 L408.085 264.709 L415.724 264.709 L415.724 268.645 L395.817 268.645 L395.817 264.709 Z" fill="#000000" fill-rule="nonzero" fill-opacity="1" /><path clip-path="url(#clip860)" d="M434.798 232.673 Q431.696 237.997 430.192 243.205 Q428.687 248.413 428.687 253.76 Q428.687 259.108 430.192 264.362 Q431.719 269.594 434.798 274.895 L431.094 274.895 Q427.622 269.455 425.886 264.2 Q424.173 258.946 424.173 253.76 Q424.173 248.598 425.886 243.367 Q427.599 238.136 431.094 232.673 L434.798 232.673 Z" fill="#000000" fill-rule="nonzero" fill-opacity="1" /><path clip-path="url(#clip860)" d="M447.275 235.358 L447.275 242.719 L456.048 242.719 L456.048 246.029 L447.275 246.029 L447.275 260.103 Q447.275 263.274 448.131 264.177 Q449.011 265.08 451.673 265.08 L456.048 265.08 L456.048 268.645 L451.673 268.645 Q446.742 268.645 444.867 266.816 Q442.992 264.964 442.992 260.103 L442.992 246.029 L439.867 246.029 L439.867 242.719 L442.992 242.719 L442.992 235.358 L447.275 235.358 Z" fill="#000000" fill-rule="nonzero" fill-opacity="1" /><path clip-path="url(#clip860)" d="M460.978 232.673 L464.682 232.673 Q468.154 238.136 469.867 243.367 Q471.603 248.598 471.603 253.76 Q471.603 258.946 469.867 264.2 Q468.154 269.455 464.682 274.895 L460.978 274.895 Q464.057 269.594 465.562 264.362 Q467.09 259.108 467.09 253.76 Q467.09 248.413 465.562 243.205 Q464.057 237.997 460.978 232.673 Z" fill="#000000" fill-rule="nonzero" fill-opacity="1" /><polyline clip-path="url(#clip860)" style="stroke:#c271d2; stroke-linecap:round; stroke-linejoin:round; stroke-width:12; stroke-opacity:1; fill:none" stroke-dasharray="48, 30" points="187.693,303.205 338.744,303.205 "/>
<path clip-path="url(#clip860)" d="M363.919 310.253 L363.919 294.559 L368.178 294.559 L368.178 310.091 Q368.178 313.772 369.613 315.624 Q371.048 317.452 373.919 317.452 Q377.368 317.452 379.359 315.253 Q381.372 313.054 381.372 309.258 L381.372 294.559 L385.632 294.559 L385.632 320.485 L381.372 320.485 L381.372 316.503 Q379.822 318.864 377.761 320.022 Q375.724 321.156 373.016 321.156 Q368.548 321.156 366.234 318.378 Q363.919 315.6 363.919 310.253 M374.636 293.934 L374.636 293.934 Z" fill="#000000" fill-rule="nonzero" fill-opacity="1" /><path clip-path="url(#clip860)" d="M399.034 316.549 L415.354 316.549 L415.354 320.485 L393.409 320.485 L393.409 316.549 Q396.071 313.795 400.655 309.165 Q405.261 304.512 406.442 303.17 Q408.687 300.647 409.567 298.911 Q410.469 297.151 410.469 295.462 Q410.469 292.707 408.525 290.971 Q406.604 289.235 403.502 289.235 Q401.303 289.235 398.849 289.999 Q396.419 290.763 393.641 292.313 L393.641 287.591 Q396.465 286.457 398.919 285.878 Q401.372 285.3 403.409 285.3 Q408.78 285.3 411.974 287.985 Q415.169 290.67 415.169 295.161 Q415.169 297.29 414.358 299.212 Q413.571 301.11 411.465 303.702 Q410.886 304.374 407.784 307.591 Q404.682 310.786 399.034 316.549 Z" fill="#000000" fill-rule="nonzero" fill-opacity="1" /><path clip-path="url(#clip860)" d="M434.798 284.513 Q431.696 289.837 430.192 295.045 Q428.687 300.253 428.687 305.6 Q428.687 310.948 430.192 316.202 Q431.719 321.434 434.798 326.735 L431.094 326.735 Q427.622 321.295 425.886 316.04 Q424.173 310.786 424.173 305.6 Q424.173 300.438 425.886 295.207 Q427.599 289.976 431.094 284.513 L434.798 284.513 Z" fill="#000000" fill-rule="nonzero" fill-opacity="1" /><path clip-path="url(#clip860)" d="M447.275 287.198 L447.275 294.559 L456.048 294.559 L456.048 297.869 L447.275 297.869 L447.275 311.943 Q447.275 315.114 448.131 316.017 Q449.011 316.92 451.673 316.92 L456.048 316.92 L456.048 320.485 L451.673 320.485 Q446.742 320.485 444.867 318.656 Q442.992 316.804 442.992 311.943 L442.992 297.869 L439.867 297.869 L439.867 294.559 L442.992 294.559 L442.992 287.198 L447.275 287.198 Z" fill="#000000" fill-rule="nonzero" fill-opacity="1" /><path clip-path="url(#clip860)" d="M460.978 284.513 L464.682 284.513 Q468.154 289.976 469.867 295.207 Q471.603 300.438 471.603 305.6 Q471.603 310.786 469.867 316.04 Q468.154 321.295 464.682 326.735 L460.978 326.735 Q464.057 321.434 465.562 316.202 Q467.09 310.948 467.09 305.6 Q467.09 300.253 465.562 295.045 Q464.057 289.837 460.978 284.513 Z" fill="#000000" fill-rule="nonzero" fill-opacity="1" /></svg>
