<?xml version="1.0" encoding="utf-8"?>
<svg xmlns="http://www.w3.org/2000/svg" xmlns:xlink="http://www.w3.org/1999/xlink" width="600" height="400" viewBox="0 0 2400 1600">
<defs>
  <clipPath id="clip720">
    <rect x="0" y="0" width="2400" height="1600"/>
  </clipPath>
</defs>
<path clip-path="url(#clip720)" d="M0 1600 L2400 1600 L2400 0 L0 0  Z" fill="#ffffff" fill-rule="evenodd" fill-opacity="1"/>
<defs>
  <clipPath id="clip721">
    <rect x="480" y="0" width="1681" height="1600"/>
  </clipPath>
</defs>
<path clip-path="url(#clip720)" d="M112.177 1423.18 L2352.76 1423.18 L2352.76 47.2441 L112.177 47.2441  Z" fill="#ffffff" fill-rule="evenodd" fill-opacity="1"/>
<defs>
  <clipPath id="clip722">
    <rect x="112" y="47" width="2242" height="1377"/>
  </clipPath>
</defs>
<polyline clip-path="url(#clip722)" style="stroke:#000000; stroke-linecap:round; stroke-linejoin:round; stroke-width:2; stroke-opacity:0.1; fill:none" points="112.177,1423.18 112.177,47.2441 "/>
<polyline clip-path="url(#clip722)" style="stroke:#000000; stroke-linecap:round; stroke-linejoin:round; stroke-width:2; stroke-opacity:0.1; fill:none" points="560.293,1423.18 560.293,47.2441 "/>
<polyline clip-path="url(#clip722)" style="stroke:#000000; stroke-linecap:round; stroke-linejoin:round; stroke-width:2; stroke-opacity:0.1; fill:none" points="1008.41,1423.18 1008.41,47.2441 "/>
<polyline clip-path="url(#clip722)" style="stroke:#000000; stroke-linecap:round; stroke-linejoin:round; stroke-width:2; stroke-opacity:0.1; fill:none" points="1456.52,1423.18 1456.52,47.2441 "/>
<polyline clip-path="url(#clip722)" style="stroke:#000000; stroke-linecap:round; stroke-linejoin:round; stroke-width:2; stroke-opacity:0.1; fill:none" points="1904.64,1423.18 1904.64,47.2441 "/>
<polyline clip-path="url(#clip722)" style="stroke:#000000; stroke-linecap:round; stroke-linejoin:round; stroke-width:2; stroke-opacity:0.1; fill:none" points="2352.76,1423.18 2352.76,47.2441 "/>
<polyline clip-path="url(#clip722)" style="stroke:#000000; stroke-linecap:round; stroke-linejoin:round; stroke-width:2; stroke-opacity:0.1; fill:none" points="112.177,1239.06 2352.76,1239.06 "/>
<polyline clip-path="url(#clip722)" style="stroke:#000000; stroke-linecap:round; stroke-linejoin:round; stroke-width:2; stroke-opacity:0.1; fill:none" points="112.177,1043.71 2352.76,1043.71 "/>
<polyline clip-path="url(#clip722)" style="stroke:#000000; stroke-linecap:round; stroke-linejoin:round; stroke-width:2; stroke-opacity:0.1; fill:none" points="112.177,848.363 2352.76,848.363 "/>
<polyline clip-path="url(#clip722)" style="stroke:#000000; stroke-linecap:round; stroke-linejoin:round; stroke-width:2; stroke-opacity:0.1; fill:none" points="112.177,653.012 2352.76,653.012 "/>
<polyline clip-path="url(#clip722)" style="stroke:#000000; stroke-linecap:round; stroke-linejoin:round; stroke-width:2; stroke-opacity:0.1; fill:none" points="112.177,457.661 2352.76,457.661 "/>
<polyline clip-path="url(#clip722)" style="stroke:#000000; stroke-linecap:round; stroke-linejoin:round; stroke-width:2; stroke-opacity:0.1; fill:none" points="112.177,262.311 2352.76,262.311 "/>
<polyline clip-path="url(#clip722)" style="stroke:#000000; stroke-linecap:round; stroke-linejoin:round; stroke-width:2; stroke-opacity:0.1; fill:none" points="112.177,66.96 2352.76,66.96 "/>
<polyline clip-path="url(#clip720)" style="stroke:#000000; stroke-linecap:round; stroke-linejoin:round; stroke-width:4; stroke-opacity:1; fill:none" points="112.177,1423.18 2352.76,1423.18 "/>
<polyline clip-path="url(#clip720)" style="stroke:#000000; stroke-linecap:round; stroke-linejoin:round; stroke-width:4; stroke-opacity:1; fill:none" points="112.177,1423.18 112.177,1404.28 "/>
<polyline clip-path="url(#clip720)" style="stroke:#000000; stroke-linecap:round; stroke-linejoin:round; stroke-width:4; stroke-opacity:1; fill:none" points="560.293,1423.18 560.293,1404.28 "/>
<polyline clip-path="url(#clip720)" style="stroke:#000000; stroke-linecap:round; stroke-linejoin:round; stroke-width:4; stroke-opacity:1; fill:none" points="1008.41,1423.18 1008.41,1404.28 "/>
<polyline clip-path="url(#clip720)" style="stroke:#000000; stroke-linecap:round; stroke-linejoin:round; stroke-width:4; stroke-opacity:1; fill:none" points="1456.52,1423.18 1456.52,1404.28 "/>
<polyline clip-path="url(#clip720)" style="stroke:#000000; stroke-linecap:round; stroke-linejoin:round; stroke-width:4; stroke-opacity:1; fill:none" points="1904.64,1423.18 1904.64,1404.28 "/>
<polyline clip-path="url(#clip720)" style="stroke:#000000; stroke-linecap:round; stroke-linejoin:round; stroke-width:4; stroke-opacity:1; fill:none" points="2352.76,1423.18 2352.76,1404.28 "/>
<path clip-path="url(#clip720)" d="M112.177 1454.1 Q108.566 1454.1 106.737 1457.66 Q104.932 1461.2 104.932 1468.33 Q104.932 1475.44 106.737 1479.01 Q108.566 1482.55 112.177 1482.55 Q115.811 1482.55 117.617 1479.01 Q119.446 1475.44 119.446 1468.33 Q119.446 1461.2 117.617 1457.66 Q115.811 1454.1 112.177 1454.1 M112.177 1450.39 Q117.987 1450.39 121.043 1455 Q124.122 1459.58 124.122 1468.33 Q124.122 1477.06 121.043 1481.67 Q117.987 1486.25 112.177 1486.25 Q106.367 1486.25 103.288 1481.67 Q100.233 1477.06 100.233 1468.33 Q100.233 1459.58 103.288 1455 Q106.367 1450.39 112.177 1450.39 Z" fill="#000000" fill-rule="nonzero" fill-opacity="1" /><path clip-path="url(#clip720)" d="M554.946 1481.64 L571.265 1481.64 L571.265 1485.58 L549.321 1485.58 L549.321 1481.64 Q551.983 1478.89 556.566 1474.26 Q561.173 1469.61 562.353 1468.27 Q564.598 1465.74 565.478 1464.01 Q566.381 1462.25 566.381 1460.56 Q566.381 1457.8 564.436 1456.07 Q562.515 1454.33 559.413 1454.33 Q557.214 1454.33 554.761 1455.09 Q552.33 1455.86 549.552 1457.41 L549.552 1452.69 Q552.376 1451.55 554.83 1450.97 Q557.284 1450.39 559.321 1450.39 Q564.691 1450.39 567.885 1453.08 Q571.08 1455.77 571.08 1460.26 Q571.08 1462.39 570.27 1464.31 Q569.483 1466.2 567.376 1468.8 Q566.798 1469.47 563.696 1472.69 Q560.594 1475.88 554.946 1481.64 Z" fill="#000000" fill-rule="nonzero" fill-opacity="1" /><path clip-path="url(#clip720)" d="M1011.42 1455.09 L999.612 1473.54 L1011.42 1473.54 L1011.42 1455.09 M1010.19 1451.02 L1016.07 1451.02 L1016.07 1473.54 L1021 1473.54 L1021 1477.43 L1016.07 1477.43 L1016.07 1485.58 L1011.42 1485.58 L1011.42 1477.43 L995.816 1477.43 L995.816 1472.92 L1010.19 1451.02 Z" fill="#000000" fill-rule="nonzero" fill-opacity="1" /><path clip-path="url(#clip720)" d="M1456.93 1466.44 Q1453.78 1466.44 1451.93 1468.59 Q1450.1 1470.74 1450.1 1474.49 Q1450.1 1478.22 1451.93 1480.39 Q1453.78 1482.55 1456.93 1482.55 Q1460.08 1482.55 1461.91 1480.39 Q1463.76 1478.22 1463.76 1474.49 Q1463.76 1470.74 1461.91 1468.59 Q1460.08 1466.44 1456.93 1466.44 M1466.21 1451.78 L1466.21 1456.04 Q1464.45 1455.21 1462.65 1454.77 Q1460.86 1454.33 1459.11 1454.33 Q1454.48 1454.33 1452.02 1457.45 Q1449.59 1460.58 1449.24 1466.9 Q1450.61 1464.89 1452.67 1463.82 Q1454.73 1462.73 1457.21 1462.73 Q1462.42 1462.73 1465.42 1465.9 Q1468.46 1469.05 1468.46 1474.49 Q1468.46 1479.82 1465.31 1483.03 Q1462.16 1486.25 1456.93 1486.25 Q1450.93 1486.25 1447.76 1481.67 Q1444.59 1477.06 1444.59 1468.33 Q1444.59 1460.14 1448.48 1455.28 Q1452.37 1450.39 1458.92 1450.39 Q1460.68 1450.39 1462.46 1450.74 Q1464.27 1451.09 1466.21 1451.78 Z" fill="#000000" fill-rule="nonzero" fill-opacity="1" /><path clip-path="url(#clip720)" d="M1904.64 1469.17 Q1901.31 1469.17 1899.39 1470.95 Q1897.49 1472.73 1897.49 1475.86 Q1897.49 1478.98 1899.39 1480.77 Q1901.31 1482.55 1904.64 1482.55 Q1907.97 1482.55 1909.89 1480.77 Q1911.82 1478.96 1911.82 1475.86 Q1911.82 1472.73 1909.89 1470.95 Q1908 1469.17 1904.64 1469.17 M1899.96 1467.18 Q1896.96 1466.44 1895.27 1464.38 Q1893.6 1462.32 1893.6 1459.35 Q1893.6 1455.21 1896.54 1452.8 Q1899.5 1450.39 1904.64 1450.39 Q1909.8 1450.39 1912.74 1452.8 Q1915.68 1455.21 1915.68 1459.35 Q1915.68 1462.32 1913.99 1464.38 Q1912.33 1466.44 1909.34 1467.18 Q1912.72 1467.96 1914.59 1470.26 Q1916.49 1472.55 1916.49 1475.86 Q1916.49 1480.88 1913.41 1483.57 Q1910.36 1486.25 1904.64 1486.25 Q1898.92 1486.25 1895.84 1483.57 Q1892.79 1480.88 1892.79 1475.86 Q1892.79 1472.55 1894.69 1470.26 Q1896.58 1467.96 1899.96 1467.18 M1898.25 1459.79 Q1898.25 1462.48 1899.92 1463.98 Q1901.61 1465.49 1904.64 1465.49 Q1907.65 1465.49 1909.34 1463.98 Q1911.05 1462.48 1911.05 1459.79 Q1911.05 1457.11 1909.34 1455.6 Q1907.65 1454.1 1904.64 1454.1 Q1901.61 1454.1 1899.92 1455.6 Q1898.25 1457.11 1898.25 1459.79 Z" fill="#000000" fill-rule="nonzero" fill-opacity="1" /><path clip-path="url(#clip720)" d="M2327.44 1481.64 L2335.08 1481.64 L2335.08 1455.28 L2326.77 1456.95 L2326.77 1452.69 L2335.04 1451.02 L2339.71 1451.02 L2339.71 1481.64 L2347.35 1481.64 L2347.35 1485.58 L2327.44 1485.58 L2327.44 1481.64 Z" fill="#000000" fill-rule="nonzero" fill-opacity="1" /><path clip-path="url(#clip720)" d="M2366.8 1454.1 Q2363.18 1454.1 2361.36 1457.66 Q2359.55 1461.2 2359.55 1468.33 Q2359.55 1475.44 2361.36 1479.01 Q2363.18 1482.55 2366.8 1482.55 Q2370.43 1482.55 2372.23 1479.01 Q2374.06 1475.44 2374.06 1468.33 Q2374.06 1461.2 2372.23 1457.66 Q2370.43 1454.1 2366.8 1454.1 M2366.8 1450.39 Q2372.61 1450.39 2375.66 1455 Q2378.74 1459.58 2378.74 1468.33 Q2378.74 1477.06 2375.66 1481.67 Q2372.61 1486.25 2366.8 1486.25 Q2360.99 1486.25 2357.91 1481.67 Q2354.85 1477.06 2354.85 1468.33 Q2354.85 1459.58 2357.91 1455 Q2360.99 1450.39 2366.8 1450.39 Z" fill="#000000" fill-rule="nonzero" fill-opacity="1" /><path clip-path="url(#clip720)" d="M1231.53 1522.27 L1231.53 1532.4 L1243.59 1532.4 L1243.59 1536.95 L1231.53 1536.95 L1231.53 1556.3 Q1231.53 1560.66 1232.71 1561.9 Q1233.91 1563.14 1237.58 1563.14 L1243.59 1563.14 L1243.59 1568.04 L1237.58 1568.04 Q1230.8 1568.04 1228.22 1565.53 Q1225.64 1562.98 1225.64 1556.3 L1225.64 1536.95 L1221.34 1536.95 L1221.34 1532.4 L1225.64 1532.4 L1225.64 1522.27 L1231.53 1522.27 Z" fill="#000000" fill-rule="nonzero" fill-opacity="1" /><polyline clip-path="url(#clip720)" style="stroke:#000000; stroke-linecap:round; stroke-linejoin:round; stroke-width:4; stroke-opacity:1; fill:none" points="112.177,1423.18 112.177,47.2441 "/>
<polyline clip-path="url(#clip720)" style="stroke:#000000; stroke-linecap:round; stroke-linejoin:round; stroke-width:4; stroke-opacity:1; fill:none" points="112.177,1239.06 131.075,1239.06 "/>
<polyline clip-path="url(#clip720)" style="stroke:#000000; stroke-linecap:round; stroke-linejoin:round; stroke-width:4; stroke-opacity:1; fill:none" points="112.177,1043.71 131.075,1043.71 "/>
<polyline clip-path="url(#clip720)" style="stroke:#000000; stroke-linecap:round; stroke-linejoin:round; stroke-width:4; stroke-opacity:1; fill:none" points="112.177,848.363 131.075,848.363 "/>
<polyline clip-path="url(#clip720)" style="stroke:#000000; stroke-linecap:round; stroke-linejoin:round; stroke-width:4; stroke-opacity:1; fill:none" points="112.177,653.012 131.075,653.012 "/>
<polyline clip-path="url(#clip720)" style="stroke:#000000; stroke-linecap:round; stroke-linejoin:round; stroke-width:4; stroke-opacity:1; fill:none" points="112.177,457.661 131.075,457.661 "/>
<polyline clip-path="url(#clip720)" style="stroke:#000000; stroke-linecap:round; stroke-linejoin:round; stroke-width:4; stroke-opacity:1; fill:none" points="112.177,262.311 131.075,262.311 "/>
<polyline clip-path="url(#clip720)" style="stroke:#000000; stroke-linecap:round; stroke-linejoin:round; stroke-width:4; stroke-opacity:1; fill:none" points="112.177,66.96 131.075,66.96 "/>
<path clip-path="url(#clip720)" d="M56.2699 1252.41 L63.9087 1252.41 L63.9087 1226.04 L55.5986 1227.71 L55.5986 1223.45 L63.8624 1221.78 L68.5383 1221.78 L68.5383 1252.41 L76.1772 1252.41 L76.1772 1256.34 L56.2699 1256.34 L56.2699 1252.41 Z" fill="#000000" fill-rule="nonzero" fill-opacity="1" /><path clip-path="url(#clip720)" d="M59.8578 1057.06 L76.1772 1057.06 L76.1772 1060.99 L54.2328 1060.99 L54.2328 1057.06 Q56.8949 1054.3 61.4782 1049.67 Q66.0846 1045.02 67.2652 1043.68 Q69.5105 1041.16 70.3902 1039.42 Q71.2929 1037.66 71.2929 1035.97 Q71.2929 1033.22 69.3485 1031.48 Q67.4272 1029.74 64.3254 1029.74 Q62.1263 1029.74 59.6726 1030.51 Q57.2421 1031.27 54.4643 1032.82 L54.4643 1028.1 Q57.2884 1026.97 59.7421 1026.39 Q62.1958 1025.81 64.2328 1025.81 Q69.6031 1025.81 72.7976 1028.49 Q75.992 1031.18 75.992 1035.67 Q75.992 1037.8 75.1818 1039.72 Q74.3948 1041.62 72.2883 1044.21 Q71.7096 1044.88 68.6078 1048.1 Q65.5059 1051.29 59.8578 1057.06 Z" fill="#000000" fill-rule="nonzero" fill-opacity="1" /><path clip-path="url(#clip720)" d="M69.0476 847.009 Q72.404 847.726 74.279 849.995 Q76.1772 852.263 76.1772 855.597 Q76.1772 860.712 72.6587 863.513 Q69.1402 866.314 62.6587 866.314 Q60.4828 866.314 58.168 865.874 Q55.8764 865.458 53.4227 864.601 L53.4227 860.087 Q55.3671 861.222 57.6819 861.8 Q59.9967 862.379 62.5198 862.379 Q66.918 862.379 69.2096 860.643 Q71.5244 858.907 71.5244 855.597 Q71.5244 852.541 69.3717 850.828 Q67.242 849.092 63.4226 849.092 L59.3949 849.092 L59.3949 845.249 L63.6078 845.249 Q67.0569 845.249 68.8855 843.884 Q70.7142 842.495 70.7142 839.902 Q70.7142 837.24 68.8161 835.828 Q66.9411 834.393 63.4226 834.393 Q61.5013 834.393 59.3023 834.81 Q57.1032 835.226 54.4643 836.106 L54.4643 831.939 Q57.1264 831.199 59.4412 830.828 Q61.7791 830.458 63.8393 830.458 Q69.1633 830.458 72.2652 832.888 Q75.367 835.296 75.367 839.416 Q75.367 842.287 73.7235 844.277 Q72.08 846.245 69.0476 847.009 Z" fill="#000000" fill-rule="nonzero" fill-opacity="1" /><path clip-path="url(#clip720)" d="M66.5939 639.806 L54.7884 658.255 L66.5939 658.255 L66.5939 639.806 M65.367 635.732 L71.2466 635.732 L71.2466 658.255 L76.1772 658.255 L76.1772 662.144 L71.2466 662.144 L71.2466 670.292 L66.5939 670.292 L66.5939 662.144 L50.9921 662.144 L50.9921 657.63 L65.367 635.732 Z" fill="#000000" fill-rule="nonzero" fill-opacity="1" /><path clip-path="url(#clip720)" d="M55.2745 440.381 L73.6309 440.381 L73.6309 444.317 L59.5569 444.317 L59.5569 452.789 Q60.5754 452.442 61.5939 452.28 Q62.6124 452.094 63.6309 452.094 Q69.418 452.094 72.7976 455.266 Q76.1772 458.437 76.1772 463.854 Q76.1772 469.432 72.705 472.534 Q69.2328 475.613 62.9134 475.613 Q60.7374 475.613 58.4689 475.242 Q56.2236 474.872 53.8162 474.131 L53.8162 469.432 Q55.8995 470.566 58.1217 471.122 Q60.3439 471.678 62.8208 471.678 Q66.8254 471.678 69.1633 469.571 Q71.5013 467.465 71.5013 463.854 Q71.5013 460.242 69.1633 458.136 Q66.8254 456.03 62.8208 456.03 Q60.9458 456.03 59.0708 456.446 Q57.2189 456.863 55.2745 457.742 L55.2745 440.381 Z" fill="#000000" fill-rule="nonzero" fill-opacity="1" /><path clip-path="url(#clip720)" d="M64.6495 260.447 Q61.5013 260.447 59.6495 262.6 Q57.8208 264.753 57.8208 268.503 Q57.8208 272.23 59.6495 274.406 Q61.5013 276.558 64.6495 276.558 Q67.7976 276.558 69.6263 274.406 Q71.4781 272.23 71.4781 268.503 Q71.4781 264.753 69.6263 262.6 Q67.7976 260.447 64.6495 260.447 M73.9318 245.795 L73.9318 250.054 Q72.1726 249.221 70.367 248.781 Q68.5846 248.341 66.8254 248.341 Q62.1958 248.341 59.7421 251.466 Q57.3115 254.591 56.9643 260.91 Q58.33 258.896 60.3902 257.832 Q62.4504 256.744 64.9272 256.744 Q70.1355 256.744 73.1448 259.915 Q76.1772 263.063 76.1772 268.503 Q76.1772 273.827 73.029 277.044 Q69.8809 280.262 64.6495 280.262 Q58.6541 280.262 55.4828 275.679 Q52.3116 271.072 52.3116 262.345 Q52.3116 254.151 56.2004 249.29 Q60.0893 244.406 66.6402 244.406 Q68.3994 244.406 70.1818 244.753 Q71.9874 245.1 73.9318 245.795 Z" fill="#000000" fill-rule="nonzero" fill-opacity="1" /><path clip-path="url(#clip720)" d="M53.9551 49.68 L76.1772 49.68 L76.1772 51.6708 L63.6309 84.24 L58.7467 84.24 L70.5522 53.6152 L53.9551 53.6152 L53.9551 49.68 Z" fill="#000000" fill-rule="nonzero" fill-opacity="1" /><polyline clip-path="url(#clip722)" style="stroke:#009af9; stroke-linecap:round; stroke-linejoin:round; stroke-width:12; stroke-opacity:1; fill:none" points="112.177,1239.06 114.42,1238.06 116.663,1237.02 118.906,1235.93 121.148,1234.8 123.391,1233.63 125.634,1232.41 127.877,1231.15 130.12,1229.85 132.363,1228.51 134.605,1227.12 136.848,1225.69 139.091,1224.22 141.334,1222.7 143.577,1221.14 145.819,1219.54 148.062,1217.9 150.305,1216.21 152.548,1214.48 154.791,1212.71 157.034,1210.89 159.276,1209.03 161.519,1207.13 163.762,1205.18 166.005,1203.19 168.248,1201.16 170.491,1199.08 172.733,1196.96 174.976,1194.79 177.219,1192.58 179.462,1190.32 181.705,1188.02 183.947,1185.67 186.19,1183.27 188.433,1180.83 190.676,1178.34 192.919,1175.8 195.162,1173.22 197.404,1170.59 199.647,1167.91 201.89,1165.18 204.133,1162.4 206.376,1159.58 208.619,1156.7 210.861,1153.77 213.104,1150.79 215.347,1147.76 217.59,1144.68 219.833,1141.55 222.075,1138.36 224.318,1135.12 226.561,1131.83 228.804,1128.48 231.047,1125.08 233.29,1121.63 235.532,1118.11 237.775,1114.54 240.018,1110.92 242.261,1107.23 244.504,1103.49 246.746,1099.69 248.989,1095.83 251.232,1091.91 253.475,1087.93 255.718,1083.89 257.961,1079.79 260.203,1075.63 262.446,1071.4 264.689,1067.11 266.932,1062.75 269.175,1058.33 271.418,1053.85 273.66,1049.29 275.903,1044.67 278.146,1039.99 280.389,1035.23 282.632,1030.41 284.874,1025.51 287.117,1020.55 289.36,1015.51 291.603,1010.41 293.846,1005.23 296.089,999.974 298.331,994.647 300.574,989.245 302.817,983.768 305.06,978.215 307.303,972.585 309.545,966.877 311.788,961.091 314.031,955.226 316.274,949.281 318.517,943.255 320.76,937.148 323.002,930.959 325.245,924.688 327.488,918.333 329.731,911.895 331.974,905.372 334.217,898.764 336.459,892.069 338.702,885.287 340.945,878.418 343.188,871.46 345.431,864.413 347.673,857.276 349.916,850.049 352.159,842.731 354.402,835.321 356.645,827.82 358.888,820.226 361.13,812.539 363.373,804.76 365.616,796.886 367.859,788.919 370.102,780.857 372.344,772.701 374.587,764.451 376.83,756.105 379.073,747.664 381.316,739.129 383.559,730.497 385.801,721.771 388.044,712.949 390.287,704.032 392.53,695.019 394.773,685.911 397.016,676.708 399.258,667.415 401.501,658.032 403.744,648.557 405.987,638.992 408.23,629.335 410.472,619.587 412.715,609.748 414.958,599.818 417.201,589.8 419.444,579.695 421.687,569.503 423.929,559.227 426.172,548.869 428.415,538.431 430.658,527.917 432.901,517.329 435.143,506.671 437.386,495.947 439.629,485.16 441.872,474.315 444.115,463.416 446.358,452.468 448.6,441.476 450.843,430.447 453.086,419.384 455.329,408.295 457.572,397.185 459.815,386.062 462.057,374.932 464.3,363.802 466.543,352.68 468.786,341.574 471.029,330.491 473.271,319.441 475.514,308.43 477.757,297.456 480,286.527 482.243,275.664 484.486,264.883 486.728,254.205 488.971,243.648 491.214,233.233 493.457,222.981 495.7,212.911 497.942,203.047 500.185,193.409 502.428,184.02 504.671,174.904 506.914,166.084 509.157,157.583 511.399,149.426 513.642,141.638 515.885,134.244 518.128,127.271 520.371,120.744 522.614,114.69 524.856,109.138 527.099,104.114 529.342,99.6467 531.585,95.7653 533.828,92.4989 536.07,89.8772 538.313,87.9305 540.556,86.6896 542.799,86.1857 545.042,86.4504 547.285,87.5161 549.527,89.4153 551.77,92.1813 554.013,95.8477 556.256,100.449 558.499,106.022 560.741,112.606 562.984,120.206 565.227,128.818 567.47,138.436 569.713,149.049 571.956,160.644 574.198,173.205 576.441,186.712 578.684,201.14 580.927,216.464 583.17,232.654 585.413,249.676 587.655,267.493 589.898,286.066 592.141,305.351 594.384,325.302 596.627,345.868 598.869,366.996 601.112,388.631 603.355,410.71 605.598,433.173 607.841,455.951 610.084,478.974 612.326,502.17 614.569,525.462 616.812,548.769 619.055,572.01 621.298,595.122 623.54,618.085 625.783,640.842 628.026,663.341 630.269,685.533 632.512,707.371 634.755,728.815 636.997,749.827 639.24,770.375 641.483,790.427 643.726,809.96 645.969,828.951 648.212,847.384 650.454,865.243 652.697,882.52 654.94,899.209 657.183,915.309 659.426,930.821 661.668,945.751 663.911,960.11 666.154,973.912 668.397,987.175 670.64,999.921 672.883,1012.18 675.125,1023.97 677.368,1035.3 679.611,1046.15 681.854,1056.55 684.097,1066.5 686.339,1076.02 688.582,1085.14 690.825,1093.85 693.068,1102.19 695.311,1110.15 697.554,1117.77 699.796,1125.04 702.039,1131.99 704.282,1138.62 706.525,1144.95 708.768,1150.99 711.011,1156.75 713.253,1162.24 715.496,1167.48 717.739,1172.46 719.982,1177.21 722.225,1181.73 724.467,1186.04 726.71,1190.13 728.953,1194.01 731.196,1197.71 733.439,1201.23 735.682,1204.57 737.924,1207.74 740.167,1210.75 742.41,1213.61 744.653,1216.32 746.896,1218.88 749.138,1221.3 751.381,1223.59 753.624,1225.76 755.867,1227.8 758.11,1229.72 760.353,1231.53 762.595,1233.24 764.838,1234.83 767.081,1236.33 769.324,1237.72 771.567,1239.03 773.81,1240.24 776.052,1241.36 778.295,1242.4 780.538,1243.35 782.781,1244.23 785.024,1245.02 787.266,1245.74 789.509,1246.39 791.752,1246.96 793.995,1247.46 796.238,1247.89 798.481,1248.25 800.723,1248.56 802.966,1248.79 805.209,1248.97 807.452,1249.09 809.695,1249.14 811.938,1249.14 814.18,1249.08 816.423,1248.97 818.666,1248.8 820.909,1248.58 823.152,1248.3 825.394,1247.98 827.637,1247.6 829.88,1247.17 832.123,1246.69 834.366,1246.17 836.609,1245.59 838.851,1244.97 841.094,1244.3 843.337,1243.59 845.58,1242.82 847.823,1242.02 850.065,1241.17 852.308,1240.27 854.551,1239.33 856.794,1238.35 859.037,1237.32 861.28,1236.25 863.522,1235.14 865.765,1233.98 868.008,1232.78 870.251,1231.54 872.494,1230.25 874.737,1228.92 876.979,1227.55 879.222,1226.14 881.465,1224.68 883.708,1223.18 885.951,1221.64 888.193,1220.05 890.436,1218.42 892.679,1216.75 894.922,1215.04 897.165,1213.28 899.408,1211.48 901.65,1209.63 903.893,1207.75 906.136,1205.81 908.379,1203.84 910.622,1201.82 912.864,1199.76 915.107,1197.65 917.35,1195.49 919.593,1193.3 921.836,1191.05 924.079,1188.76 926.321,1186.43 928.564,1184.05 930.807,1181.62 933.05,1179.15 935.293,1176.63 937.536,1174.06 939.778,1171.45 942.021,1168.79 944.264,1166.07 946.507,1163.31 948.75,1160.5 950.992,1157.64 953.235,1154.73 955.478,1151.77 957.721,1148.76 959.964,1145.7 962.207,1142.58 964.449,1139.42 966.692,1136.2 968.935,1132.92 971.178,1129.59 973.421,1126.21 975.663,1122.77 977.906,1119.28 980.149,1115.73 982.392,1112.12 984.635,1108.46 986.878,1104.74 989.12,1100.96 991.363,1097.12 993.606,1093.22 995.849,1089.26 998.092,1085.24 1000.33,1081.16 1002.58,1077.02 1004.82,1072.82 1007.06,1068.55 1009.31,1064.22 1011.55,1059.82 1013.79,1055.36 1016.03,1050.83 1018.28,1046.23 1020.52,1041.57 1022.76,1036.84 1025.01,1032.04 1027.25,1027.17 1029.49,1022.23 1031.73,1017.22 1033.98,1012.14 1036.22,1006.99 1038.46,1001.76 1040.71,996.461 1042.95,991.087 1045.19,985.637 1047.43,980.111 1049.68,974.508 1051.92,968.828 1054.16,963.07 1056.41,957.232 1058.65,951.315 1060.89,945.317 1063.13,939.239 1065.38,933.078 1067.62,926.834 1069.86,920.508 1072.1,914.097 1074.35,907.602 1076.59,901.021 1078.83,894.355 1081.08,887.602 1083.32,880.762 1085.56,873.834 1087.8,866.817 1090.05,859.712 1092.29,852.517 1094.53,845.232 1096.78,837.856 1099.02,830.389 1101.26,822.83 1103.5,815.179 1105.75,807.435 1107.99,799.597 1110.23,791.666 1112.48,783.64 1114.72,775.519 1116.96,767.307 1119.2,759.009 1121.45,750.623 1123.69,742.147 1125.93,733.579 1128.18,724.917 1130.42,716.16 1132.66,707.307 1134.9,698.357 1137.15,689.309 1139.39,680.162 1141.63,670.917 1143.88,661.574 1146.12,652.132 1148.36,642.593 1150.6,632.957 1152.85,623.225 1155.09,613.398 1157.33,603.478 1159.57,593.467 1161.82,583.366 1164.06,573.178 1166.3,562.905 1168.55,552.55 1170.79,542.116 1173.03,531.605 1175.27,521.022 1177.52,510.37 1179.76,499.653 1182,488.876 1184.25,478.041 1186.49,467.155 1188.73,456.221 1190.97,445.245 1193.22,434.233 1195.46,423.19 1197.7,412.122 1199.95,401.034 1202.19,389.933 1204.43,378.827 1206.67,367.72 1208.92,356.621 1211.16,345.537 1213.4,334.476 1215.65,323.444 1217.89,312.45 1220.13,301.503 1222.37,290.61 1224.62,279.777 1226.86,269.005 1229.1,258.313 1231.35,247.724 1233.59,237.259 1235.83,226.941 1238.07,216.793 1240.32,206.838 1242.56,197.099 1244.8,187.601 1247.04,178.366 1249.29,169.42 1251.53,160.787 1253.77,152.493 1256.02,144.563 1258.26,137.023 1260.5,129.898 1262.74,123.215 1264.99,117.002 1267.23,111.285 1269.47,106.091 1271.72,101.449 1273.96,97.3855 1276.2,93.9304 1278.44,91.1119 1280.69,88.9592 1282.93,87.5016 1285.17,86.769 1287.42,86.7914 1289.66,87.5993 1291.9,89.2234 1294.14,91.6949 1296.39,95.0452 1298.63,99.306 1300.87,104.51 1303.12,110.688 1305.36,117.903 1307.6,126.188 1309.84,135.524 1312.09,145.888 1314.33,157.257 1316.57,169.604 1318.82,182.902 1321.06,197.12 1323.3,212.226 1325.54,228.186 1327.79,244.962 1330.03,262.517 1332.27,280.81 1334.51,299.797 1336.76,319.434 1339,339.674 1341.24,360.468 1343.49,381.764 1345.73,403.509 1347.97,425.648 1350.21,448.123 1352.46,470.875 1354.7,493.841 1356.94,516.958 1359.19,540.161 1361.43,563.38 1363.67,586.546 1365.91,609.587 1368.16,632.428 1370.4,654.992 1372.64,677.207 1374.89,699.062 1377.13,720.536 1379.37,741.597 1381.61,762.217 1383.86,782.369 1386.1,802.03 1388.34,821.18 1390.59,839.801 1392.83,857.878 1395.07,875.398 1397.31,892.352 1399.56,908.734 1401.8,924.538 1404.04,939.765 1406.29,954.416 1408.53,968.494 1410.77,982.007 1413.01,994.964 1415.26,1007.38 1417.5,1019.27 1419.74,1030.64 1421.98,1041.53 1424.23,1051.95 1426.47,1061.94 1428.71,1071.51 1430.96,1080.71 1433.2,1089.56 1435.44,1098.04 1437.68,1106.15 1439.93,1113.89 1442.17,1121.29 1444.41,1128.36 1446.66,1135.11 1448.9,1141.55 1451.14,1147.69 1453.38,1153.56 1455.63,1159.15 1457.87,1164.49 1460.11,1169.57 1462.36,1174.42 1464.6,1179.05 1466.84,1183.45 1469.08,1187.64 1471.33,1191.63 1473.57,1195.43 1475.81,1199.05 1478.06,1202.48 1480.3,1205.74 1482.54,1208.84 1484.78,1211.78 1487.03,1214.56 1489.27,1217.2 1491.51,1219.68 1493.76,1222.03 1496,1224.25 1498.24,1226.35 1500.48,1228.33 1502.73,1230.19 1504.97,1231.94 1507.21,1233.59 1509.46,1235.12 1511.7,1236.56 1513.94,1237.91 1516.18,1239.15 1518.43,1240.31 1520.67,1241.38 1522.91,1242.36 1525.15,1243.26 1527.4,1244.09 1529.64,1244.83 1531.88,1245.5 1534.13,1246.1 1536.37,1246.63 1538.61,1247.09 1540.85,1247.48 1543.1,1247.81 1545.34,1248.07 1547.58,1248.27 1549.83,1248.41 1552.07,1248.49 1554.31,1248.52 1556.55,1248.48 1558.8,1248.39 1561.04,1248.25 1563.28,1248.05 1565.53,1247.8 1567.77,1247.49 1570.01,1247.14 1572.25,1246.73 1574.5,1246.28 1576.74,1245.78 1578.98,1245.22 1581.23,1244.62 1583.47,1243.97 1585.71,1243.28 1587.95,1242.54 1590.2,1241.75 1592.44,1240.91 1594.68,1240.04 1596.93,1239.11 1599.17,1238.14 1601.41,1237.13 1603.65,1236.07 1605.9,1234.97 1608.14,1233.83 1610.38,1232.64 1612.62,1231.41 1614.87,1230.14 1617.11,1228.82 1619.35,1227.46 1621.6,1226.06 1623.84,1224.62 1626.08,1223.13 1628.32,1221.6 1630.57,1220.03 1632.81,1218.42 1635.05,1216.76 1637.3,1215.06 1639.54,1213.32 1641.78,1211.54 1644.02,1209.71 1646.27,1207.84 1648.51,1205.92 1650.75,1203.96 1653,1201.96 1655.24,1199.91 1657.48,1197.82 1659.72,1195.68 1661.97,1193.5 1664.21,1191.27 1666.45,1189 1668.7,1186.68 1670.94,1184.32 1673.18,1181.9 1675.42,1179.45 1677.67,1176.94 1679.91,1174.39 1682.15,1171.79 1684.4,1169.14 1686.64,1166.45 1688.88,1163.7 1691.12,1160.91 1693.37,1158.06 1695.61,1155.17 1697.85,1152.22 1700.09,1149.22 1702.34,1146.18 1704.58,1143.08 1706.82,1139.93 1709.07,1136.72 1711.31,1133.46 1713.55,1130.15 1715.79,1126.79 1718.04,1123.37 1720.28,1119.89 1722.52,1116.36 1724.77,1112.77 1727.01,1109.12 1729.25,1105.42 1731.49,1101.66 1733.74,1097.84 1735.98,1093.96 1738.22,1090.01 1740.47,1086.01 1742.71,1081.95 1744.95,1077.83 1747.19,1073.64 1749.44,1069.39 1751.68,1065.08 1753.92,1060.7 1756.17,1056.25 1758.41,1051.74 1760.65,1047.17 1762.89,1042.53 1765.14,1037.82 1767.38,1033.04 1769.62,1028.19 1771.87,1023.27 1774.11,1018.28 1776.35,1013.22 1778.59,1008.09 1780.84,1002.89 1783.08,997.612 1785.32,992.26 1787.56,986.834 1789.81,981.332 1792.05,975.755 1794.29,970.1 1796.54,964.367 1798.78,958.556 1801.02,952.665 1803.26,946.695 1805.51,940.643 1807.75,934.51 1809.99,928.295 1812.24,921.996 1814.48,915.615 1816.72,909.151 1818.96,902.602 1821.21,895.969 1823.45,889.249 1825.69,882.442 1827.94,875.547 1830.18,868.564 1832.42,861.491 1834.66,854.329 1836.91,847.075 1839.15,839.731 1841.39,832.294 1843.64,824.765 1845.88,817.143 1848.12,809.428 1850.36,801.619 1852.61,793.717 1854.85,785.72 1857.09,777.629 1859.34,769.443 1861.58,761.162 1863.82,752.787 1866.06,744.317 1868.31,735.752 1870.55,727.092 1872.79,718.337 1875.03,709.488 1877.28,700.545 1879.52,691.508 1881.76,682.377 1884.01,673.153 1886.25,663.836 1888.49,654.426 1890.73,644.924 1892.98,635.331 1895.22,625.646 1897.46,615.872 1899.71,606.008 1901.95,596.066 1904.19,586.057 1906.43,575.977 1908.68,565.823 1910.92,555.595 1913.16,545.29 1915.41,534.909 1917.65,524.452 1919.89,513.919 1922.13,503.311 1924.38,492.631 1926.62,481.881 1928.86,471.064 1931.11,460.185 1933.35,449.247 1935.59,438.256 1937.83,427.218 1940.08,416.138 1942.32,405.024 1944.56,393.883 1946.81,382.723 1949.05,371.554 1951.29,360.385 1953.53,349.225 1955.78,338.085 1958.02,326.977 1960.26,315.912 1962.5,304.904 1964.75,293.964 1966.99,283.108 1969.23,272.349 1971.48,261.702 1973.72,251.184 1975.96,240.809 1978.2,230.596 1980.45,220.561 1982.69,210.723 1984.93,201.1 1987.18,191.712 1989.42,182.579 1991.66,173.721 1993.9,165.159 1996.15,156.916 1998.39,149.014 2000.63,141.476 2002.88,134.325 2005.12,127.586 2007.36,121.284 2009.6,115.445 2011.85,110.094 2014.09,105.258 2016.33,100.965 2018.58,97.2621 2020.82,94.192 2023.06,91.7961 2025.3,90.1132 2027.55,89.179 2029.79,89.0268 2032.03,89.687 2034.28,91.1876 2036.52,93.5538 2038.76,96.808 2041,100.97 2043.25,106.057 2045.49,112.084 2047.73,119.062 2049.97,127 2052.22,135.906 2054.46,145.782 2056.7,156.63 2058.95,168.448 2061.19,181.232 2063.43,194.975 2065.67,209.667 2067.92,225.308 2070.16,241.867 2072.4,259.287 2074.65,277.507 2076.89,296.468 2079.13,316.109 2081.37,336.371 2083.62,357.193 2085.86,378.514 2088.1,400.276 2090.35,422.415 2092.59,444.873 2094.83,467.586 2097.07,490.496 2099.32,513.539 2101.56,536.654 2103.8,559.78 2106.05,582.855 2108.29,605.816 2110.53,628.602 2112.77,651.15 2115.02,673.397 2117.26,695.282 2119.5,716.762 2121.75,737.824 2123.99,758.442 2126.23,778.592 2128.47,798.254 2130.72,817.408 2132.96,836.039 2135.2,854.134 2137.45,871.682 2139.69,888.674 2141.93,905.104 2144.17,920.968 2146.42,936.266 2148.66,951 2150.9,965.172 2153.14,978.789 2155.39,991.861 2157.63,1004.4 2159.87,1016.42 2162.12,1027.93 2164.36,1038.96 2166.6,1049.52 2168.84,1059.64 2171.09,1069.35 2173.33,1078.68 2175.57,1087.62 2177.82,1096.18 2180.06,1104.35 2182.3,1112.16 2184.54,1119.62 2186.79,1126.75 2189.03,1133.55 2191.27,1140.05 2193.52,1146.25 2195.76,1152.17 2198,1157.81 2200.24,1163.19 2202.49,1168.33 2204.73,1173.22 2206.97,1177.88 2209.22,1182.32 2211.46,1186.55 2213.7,1190.57 2215.94,1194.4 2218.19,1198.04 2220.43,1201.5 2222.67,1204.78 2224.92,1207.9 2227.16,1210.85 2229.4,1213.65 2231.64,1216.3 2233.89,1218.82 2236.13,1221.19 2238.37,1223.44 2240.61,1225.56 2242.86,1227.56 2245.1,1229.45 2247.34,1231.22 2249.59,1232.88 2251.83,1234.44 2254.07,1235.89 2256.31,1237.25 2258.56,1238.52 2260.8,1239.69 2263.04,1240.78 2265.29,1241.78 2267.53,1242.7 2269.77,1243.54 2272.01,1244.3 2274.26,1244.99 2276.5,1245.6 2278.74,1246.15 2280.99,1246.62 2283.23,1247.03 2285.47,1247.37 2287.71,1247.65 2289.96,1247.86 2292.2,1248.01 2294.44,1248.11 2296.69,1248.14 2298.93,1248.12 2301.17,1248.04 2303.41,1247.91 2305.66,1247.72 2307.9,1247.47 2310.14,1247.18 2312.39,1246.83 2314.63,1246.43 2316.87,1245.99 2319.11,1245.49 2321.36,1244.94 2323.6,1244.35 2325.84,1243.71 2328.08,1243.02 2330.33,1242.28 2332.57,1241.5 2334.81,1240.68 2337.06,1239.8 2339.3,1238.89 2341.54,1237.93 2343.78,1236.92 2346.03,1235.88 2348.27,1234.78 2350.51,1233.65 2352.76,1232.47 "/>
<polyline clip-path="url(#clip722)" style="stroke:#e26f46; stroke-linecap:round; stroke-linejoin:round; stroke-width:12; stroke-opacity:1; fill:none" points="112.177,1239.06 114.42,1242.93 116.663,1246.71 118.906,1250.41 121.148,1254.02 123.391,1257.55 125.634,1261.01 127.877,1264.38 130.12,1267.68 132.363,1270.9 134.605,1274.05 136.848,1277.12 139.091,1280.13 141.334,1283.07 143.577,1285.94 145.819,1288.74 148.062,1291.48 150.305,1294.15 152.548,1296.77 154.791,1299.32 157.034,1301.81 159.276,1304.25 161.519,1306.62 163.762,1308.94 166.005,1311.21 168.248,1313.42 170.491,1315.59 172.733,1317.7 174.976,1319.76 177.219,1321.77 179.462,1323.73 181.705,1325.65 183.947,1327.52 186.19,1329.34 188.433,1331.12 190.676,1332.86 192.919,1334.56 195.162,1336.21 197.404,1337.83 199.647,1339.4 201.89,1340.94 204.133,1342.44 206.376,1343.9 208.619,1345.33 210.861,1346.72 213.104,1348.07 215.347,1349.39 217.59,1350.68 219.833,1351.93 222.075,1353.16 224.318,1354.35 226.561,1355.51 228.804,1356.64 231.047,1357.74 233.29,1358.82 235.532,1359.86 237.775,1360.88 240.018,1361.87 242.261,1362.83 244.504,1363.77 246.746,1364.68 248.989,1365.56 251.232,1366.42 253.475,1367.26 255.718,1368.07 257.961,1368.86 260.203,1369.63 262.446,1370.37 264.689,1371.09 266.932,1371.79 269.175,1372.47 271.418,1373.12 273.66,1373.76 275.903,1374.37 278.146,1374.97 280.389,1375.54 282.632,1376.09 284.874,1376.63 287.117,1377.14 289.36,1377.64 291.603,1378.12 293.846,1378.57 296.089,1379.01 298.331,1379.43 300.574,1379.84 302.817,1380.22 305.06,1380.59 307.303,1380.94 309.545,1381.27 311.788,1381.58 314.031,1381.88 316.274,1382.16 318.517,1382.42 320.76,1382.67 323.002,1382.89 325.245,1383.1 327.488,1383.29 329.731,1383.47 331.974,1383.62 334.217,1383.76 336.459,1383.88 338.702,1383.99 340.945,1384.07 343.188,1384.14 345.431,1384.19 347.673,1384.22 349.916,1384.24 352.159,1384.23 354.402,1384.21 356.645,1384.17 358.888,1384.11 361.13,1384.02 363.373,1383.92 365.616,1383.8 367.859,1383.66 370.102,1383.49 372.344,1383.3 374.587,1383.1 376.83,1382.86 379.073,1382.61 381.316,1382.33 383.559,1382.02 385.801,1381.7 388.044,1381.34 390.287,1380.96 392.53,1380.55 394.773,1380.11 397.016,1379.64 399.258,1379.14 401.501,1378.61 403.744,1378.04 405.987,1377.44 408.23,1376.81 410.472,1376.14 412.715,1375.43 414.958,1374.68 417.201,1373.9 419.444,1373.08 421.687,1372.21 423.929,1371.3 426.172,1370.34 428.415,1369.33 430.658,1368.28 432.901,1367.17 435.143,1366.01 437.386,1364.79 439.629,1363.51 441.872,1362.16 444.115,1360.75 446.358,1359.27 448.6,1357.71 450.843,1356.08 453.086,1354.36 455.329,1352.56 457.572,1350.67 459.815,1348.69 462.057,1346.6 464.3,1344.42 466.543,1342.13 468.786,1339.72 471.029,1337.2 473.271,1334.56 475.514,1331.78 477.757,1328.89 480,1325.87 482.243,1322.7 484.486,1319.39 486.728,1315.91 488.971,1312.25 491.214,1308.41 493.457,1304.37 495.7,1300.11 497.942,1295.63 500.185,1290.92 502.428,1285.96 504.671,1280.75 506.914,1275.27 509.157,1269.51 511.399,1263.46 513.642,1257.11 515.885,1250.46 518.128,1243.48 520.371,1236.18 522.614,1228.53 524.856,1220.54 527.099,1212.19 529.342,1203.47 531.585,1194.37 533.828,1184.89 536.07,1175.01 538.313,1164.73 540.556,1154.03 542.799,1142.91 545.042,1131.36 547.285,1119.37 549.527,1106.93 551.77,1094.04 554.013,1080.68 556.256,1066.85 558.499,1052.54 560.741,1037.71 562.984,1022.4 565.227,1006.64 567.47,990.488 569.713,973.98 571.956,957.16 574.198,940.072 576.441,922.763 578.684,905.277 580.927,887.662 583.17,869.965 585.413,852.235 587.655,834.519 589.898,816.867 592.141,799.331 594.384,781.959 596.627,764.806 598.869,747.921 601.112,731.36 603.355,715.175 605.598,699.42 607.841,684.152 610.084,669.426 612.326,655.298 614.569,641.827 616.812,629.069 619.055,617.084 621.298,605.911 623.54,595.554 625.783,586.038 628.026,577.386 630.269,569.614 632.512,562.736 634.755,556.763 636.997,551.7 639.24,547.548 641.483,544.307 643.726,541.968 645.969,540.523 648.212,539.957 650.454,540.251 652.697,541.384 654.94,543.329 657.183,546.056 659.426,549.531 661.668,553.715 663.911,558.566 666.154,564.038 668.397,570.081 670.64,576.64 672.883,583.657 675.125,591.07 677.368,598.869 679.611,607.065 681.854,615.626 684.097,624.519 686.339,633.715 688.582,643.184 690.825,652.897 693.068,662.827 695.311,672.95 697.554,683.239 699.796,693.671 702.039,704.225 704.282,714.877 706.525,725.609 708.768,736.402 711.011,747.237 713.253,758.098 715.496,768.97 717.739,779.838 719.982,790.689 722.225,801.511 724.467,812.293 726.71,823.025 728.953,833.698 731.196,844.295 733.439,854.808 735.682,865.233 737.924,875.563 740.167,885.792 742.41,895.917 744.653,905.931 746.896,915.831 749.138,925.612 751.381,935.272 753.624,944.805 755.867,954.21 758.11,963.483 760.353,972.622 762.595,981.625 764.838,990.49 767.081,999.216 769.324,1007.8 771.567,1016.24 773.81,1024.54 776.052,1032.7 778.295,1040.72 780.538,1048.59 782.781,1056.33 785.024,1063.92 787.266,1071.38 789.509,1078.69 791.752,1085.88 793.995,1092.93 796.238,1099.84 798.481,1106.63 800.723,1113.28 802.966,1119.8 805.209,1126.19 807.452,1132.45 809.695,1138.59 811.938,1144.6 814.18,1150.49 816.423,1156.26 818.666,1161.91 820.909,1167.45 823.152,1172.87 825.394,1178.17 827.637,1183.37 829.88,1188.45 832.123,1193.42 834.366,1198.29 836.609,1203.05 838.851,1207.71 841.094,1212.27 843.337,1216.73 845.58,1221.09 847.823,1225.35 850.065,1229.52 852.308,1233.6 854.551,1237.58 856.794,1241.48 859.037,1245.3 861.28,1249.02 863.522,1252.67 865.765,1256.23 868.008,1259.71 870.251,1263.11 872.494,1266.43 874.737,1269.68 876.979,1272.86 879.222,1275.96 881.465,1278.99 883.708,1281.95 885.951,1284.85 888.193,1287.68 890.436,1290.44 892.679,1293.14 894.922,1295.77 897.165,1298.35 899.408,1300.86 901.65,1303.32 903.893,1305.72 906.136,1308.06 908.379,1310.35 910.622,1312.58 912.864,1314.76 915.107,1316.89 917.35,1318.97 919.593,1321 921.836,1322.98 924.079,1324.92 926.321,1326.81 928.564,1328.65 930.807,1330.45 933.05,1332.2 935.293,1333.92 937.536,1335.59 939.778,1337.22 942.021,1338.8 944.264,1340.35 946.507,1341.87 948.75,1343.34 950.992,1344.78 953.235,1346.18 955.478,1347.55 957.721,1348.88 959.964,1350.18 962.207,1351.45 964.449,1352.68 966.692,1353.88 968.935,1355.05 971.178,1356.19 973.421,1357.31 975.663,1358.39 977.906,1359.44 980.149,1360.47 982.392,1361.47 984.635,1362.44 986.878,1363.38 989.12,1364.3 991.363,1365.2 993.606,1366.07 995.849,1366.92 998.092,1367.74 1000.33,1368.54 1002.58,1369.31 1004.82,1370.06 1007.06,1370.79 1009.31,1371.5 1011.55,1372.19 1013.79,1372.85 1016.03,1373.5 1018.28,1374.12 1020.52,1374.72 1022.76,1375.3 1025.01,1375.86 1027.25,1376.41 1029.49,1376.93 1031.73,1377.43 1033.98,1377.91 1036.22,1378.38 1038.46,1378.82 1040.71,1379.25 1042.95,1379.66 1045.19,1380.05 1047.43,1380.42 1049.68,1380.78 1051.92,1381.12 1054.16,1381.44 1056.41,1381.74 1058.65,1382.02 1060.89,1382.29 1063.13,1382.54 1065.38,1382.77 1067.62,1382.99 1069.86,1383.19 1072.1,1383.37 1074.35,1383.53 1076.59,1383.68 1078.83,1383.81 1081.08,1383.92 1083.32,1384.01 1085.56,1384.09 1087.8,1384.14 1090.05,1384.18 1092.29,1384.2 1094.53,1384.21 1096.78,1384.19 1099.02,1384.15 1101.26,1384.1 1103.5,1384.02 1105.75,1383.92 1107.99,1383.81 1110.23,1383.67 1112.48,1383.51 1114.72,1383.33 1116.96,1383.13 1119.2,1382.9 1121.45,1382.64 1123.69,1382.35 1125.93,1382.03 1128.18,1381.69 1130.42,1381.33 1132.66,1380.94 1134.9,1380.52 1137.15,1380.07 1139.39,1379.6 1141.63,1379.1 1143.88,1378.57 1146.12,1378.01 1148.36,1377.42 1150.6,1376.8 1152.85,1376.14 1155.09,1375.46 1157.33,1374.74 1159.57,1373.98 1161.82,1373.18 1164.06,1372.34 1166.3,1371.46 1168.55,1370.53 1170.79,1369.56 1173.03,1368.54 1175.27,1367.46 1177.52,1366.33 1179.76,1365.14 1182,1363.89 1184.25,1362.58 1186.49,1361.2 1188.73,1359.75 1190.97,1358.23 1193.22,1356.62 1195.46,1354.94 1197.7,1353.17 1199.95,1351.31 1202.19,1349.36 1204.43,1347.31 1206.67,1345.16 1208.92,1342.9 1211.16,1340.52 1213.4,1338.04 1215.65,1335.43 1217.89,1332.69 1220.13,1329.82 1222.37,1326.81 1224.62,1323.67 1226.86,1320.39 1229.1,1316.96 1231.35,1313.36 1233.59,1309.59 1235.83,1305.63 1238.07,1301.47 1240.32,1297.09 1242.56,1292.48 1244.8,1287.64 1247.04,1282.53 1249.29,1277.17 1251.53,1271.52 1253.77,1265.59 1256.02,1259.36 1258.26,1252.82 1260.5,1245.96 1262.74,1238.77 1264.99,1231.24 1267.23,1223.36 1269.47,1215.12 1271.72,1206.52 1273.96,1197.53 1276.2,1188.16 1278.44,1178.4 1280.69,1168.23 1282.93,1157.66 1285.17,1146.67 1287.42,1135.25 1289.66,1123.41 1291.9,1111.12 1294.14,1098.4 1296.39,1085.22 1298.63,1071.58 1300.87,1057.49 1303.12,1042.93 1305.36,1027.86 1307.6,1012.26 1309.84,996.198 1312.09,979.728 1314.33,962.905 1316.57,945.786 1318.82,928.427 1321.06,910.881 1323.3,893.203 1325.54,875.447 1327.79,857.666 1330.03,839.912 1332.27,822.237 1334.51,804.693 1336.76,787.33 1339,770.199 1341.24,753.349 1343.49,736.83 1345.73,720.691 1347.97,704.978 1350.21,689.74 1352.46,675.023 1354.7,660.874 1356.94,647.339 1359.19,634.462 1361.43,622.289 1363.67,610.864 1365.91,600.229 1368.16,590.428 1370.4,581.504 1372.64,573.495 1374.89,566.401 1377.13,560.212 1379.37,554.926 1381.61,550.534 1383.86,547.028 1386.1,544.397 1388.34,542.629 1390.59,541.708 1392.83,541.618 1395.07,542.339 1397.31,543.85 1399.56,546.129 1401.8,549.149 1404.04,552.884 1406.29,557.304 1408.53,562.378 1410.77,568.072 1413.01,574.351 1415.26,581.178 1417.5,588.512 1419.74,596.312 1421.98,604.534 1424.23,613.133 1426.47,622.06 1428.71,631.265 1430.96,640.698 1433.2,650.304 1435.44,660.099 1437.68,670.091 1439.93,680.257 1442.17,690.574 1444.41,701.02 1446.66,711.576 1448.9,722.222 1451.14,732.938 1453.38,743.708 1455.63,754.514 1457.87,765.34 1460.11,776.171 1462.36,786.993 1464.6,797.792 1466.84,808.557 1469.08,819.274 1471.33,829.934 1473.57,840.527 1475.81,851.043 1478.06,861.475 1480.3,871.816 1482.54,882.059 1484.78,892.198 1487.03,902.23 1489.27,912.151 1491.51,921.957 1493.76,931.645 1496,941.205 1498.24,950.636 1500.48,959.935 1502.73,969.101 1504.97,978.132 1507.21,987.029 1509.46,995.788 1511.7,1004.41 1513.94,1012.89 1516.18,1021.24 1518.43,1029.45 1520.67,1037.51 1522.91,1045.44 1525.15,1053.23 1527.4,1060.88 1529.64,1068.39 1531.88,1075.76 1534.13,1082.99 1536.37,1090.09 1538.61,1097.05 1540.85,1103.87 1543.1,1110.57 1545.34,1117.13 1547.58,1123.56 1549.83,1129.86 1552.07,1136.04 1554.31,1142.09 1556.55,1148.02 1558.8,1153.83 1561.04,1159.52 1563.28,1165.1 1565.53,1170.56 1567.77,1175.9 1570.01,1181.13 1572.25,1186.25 1574.5,1191.26 1576.74,1196.17 1578.98,1200.97 1581.23,1205.66 1583.47,1210.26 1585.71,1214.75 1587.95,1219.15 1590.2,1223.45 1592.44,1227.66 1594.68,1231.77 1596.93,1235.8 1599.17,1239.73 1601.41,1243.58 1603.65,1247.34 1605.9,1251.01 1608.14,1254.6 1610.38,1258.12 1612.62,1261.55 1614.87,1264.9 1617.11,1268.18 1619.35,1271.39 1621.6,1274.52 1623.84,1277.58 1626.08,1280.57 1628.32,1283.49 1630.57,1286.34 1632.81,1289.13 1635.05,1291.85 1637.3,1294.51 1639.54,1297.11 1641.78,1299.64 1644.02,1302.12 1646.27,1304.54 1648.51,1306.9 1650.75,1309.21 1653,1311.46 1655.24,1313.67 1657.48,1315.81 1659.72,1317.91 1661.97,1319.96 1664.21,1321.96 1666.45,1323.91 1668.7,1325.81 1670.94,1327.67 1673.18,1329.49 1675.42,1331.26 1677.67,1332.99 1679.91,1334.68 1682.15,1336.32 1684.4,1337.93 1686.64,1339.5 1688.88,1341.03 1691.12,1342.52 1693.37,1343.97 1695.61,1345.39 1697.85,1346.77 1700.09,1348.12 1702.34,1349.44 1704.58,1350.72 1706.82,1351.97 1709.07,1353.19 1711.31,1354.37 1713.55,1355.53 1715.79,1356.65 1718.04,1357.75 1720.28,1358.82 1722.52,1359.85 1724.77,1360.86 1727.01,1361.85 1729.25,1362.8 1731.49,1363.73 1733.74,1364.64 1735.98,1365.51 1738.22,1366.37 1740.47,1367.2 1742.71,1368 1744.95,1368.79 1747.19,1369.55 1749.44,1370.28 1751.68,1371 1753.92,1371.69 1756.17,1372.36 1758.41,1373.01 1760.65,1373.64 1762.89,1374.25 1765.14,1374.84 1767.38,1375.4 1769.62,1375.95 1771.87,1376.48 1774.11,1376.99 1776.35,1377.48 1778.59,1377.95 1780.84,1378.41 1783.08,1378.84 1785.32,1379.26 1787.56,1379.66 1789.81,1380.04 1792.05,1380.4 1794.29,1380.74 1796.54,1381.07 1798.78,1381.38 1801.02,1381.67 1803.26,1381.94 1805.51,1382.2 1807.75,1382.44 1809.99,1382.66 1812.24,1382.86 1814.48,1383.05 1816.72,1383.22 1818.96,1383.36 1821.21,1383.5 1823.45,1383.61 1825.69,1383.7 1827.94,1383.78 1830.18,1383.84 1832.42,1383.88 1834.66,1383.91 1836.91,1383.91 1839.15,1383.9 1841.39,1383.87 1843.64,1383.82 1845.88,1383.74 1848.12,1383.65 1850.36,1383.54 1852.61,1383.41 1854.85,1383.26 1857.09,1383.09 1859.34,1382.89 1861.58,1382.68 1863.82,1382.44 1866.06,1382.17 1868.31,1381.88 1870.55,1381.57 1872.79,1381.23 1875.03,1380.86 1877.28,1380.47 1879.52,1380.05 1881.76,1379.59 1884.01,1379.11 1886.25,1378.6 1888.49,1378.06 1890.73,1377.48 1892.98,1376.87 1895.22,1376.22 1897.46,1375.54 1899.71,1374.82 1901.95,1374.05 1904.19,1373.24 1906.43,1372.37 1908.68,1371.46 1910.92,1370.49 1913.16,1369.48 1915.41,1368.41 1917.65,1367.3 1919.89,1366.13 1922.13,1364.9 1924.38,1363.62 1926.62,1362.28 1928.86,1360.88 1931.11,1359.41 1933.35,1357.88 1935.59,1356.27 1937.83,1354.59 1940.08,1352.83 1942.32,1350.99 1944.56,1349.06 1946.81,1347.04 1949.05,1344.93 1951.29,1342.71 1953.53,1340.38 1955.78,1337.94 1958.02,1335.38 1960.26,1332.69 1962.5,1329.87 1964.75,1326.91 1966.99,1323.8 1969.23,1320.54 1971.48,1317.11 1973.72,1313.51 1975.96,1309.73 1978.2,1305.76 1980.45,1301.59 1982.69,1297.22 1984.93,1292.62 1987.18,1287.8 1989.42,1282.75 1991.66,1277.44 1993.9,1271.88 1996.15,1266.05 1998.39,1259.94 2000.63,1253.53 2002.88,1246.82 2005.12,1239.79 2007.36,1232.43 2009.6,1224.74 2011.85,1216.68 2014.09,1208.26 2016.33,1199.47 2018.58,1190.28 2020.82,1180.69 2023.06,1170.68 2025.3,1160.23 2027.55,1149.34 2029.79,1138.01 2032.03,1126.22 2034.28,1113.97 2036.52,1101.27 2038.76,1088.12 2041,1074.53 2043.25,1060.5 2045.49,1046.04 2047.73,1031.17 2049.97,1015.9 2052.22,1000.26 2054.46,984.252 2056.7,967.912 2058.95,951.262 2061.19,934.331 2063.43,917.149 2065.67,899.749 2067.92,882.16 2070.16,864.432 2072.4,846.637 2074.65,828.846 2076.89,811.126 2079.13,793.543 2081.37,776.161 2083.62,759.041 2085.86,742.242 2088.1,725.822 2090.35,709.835 2092.59,694.336 2094.83,679.373 2097.07,664.997 2099.32,651.253 2101.56,638.186 2103.8,625.839 2106.05,614.251 2108.29,603.46 2110.53,593.503 2112.77,584.413 2115.02,576.222 2117.26,568.958 2119.5,562.632 2121.75,557.225 2123.99,552.725 2126.23,549.12 2128.47,546.394 2130.72,544.532 2132.96,543.515 2135.2,543.323 2137.45,543.936 2139.69,545.331 2141.93,547.482 2144.17,550.365 2146.42,553.952 2148.66,558.212 2150.9,563.116 2153.14,568.63 2155.39,574.721 2157.63,581.352 2159.87,588.487 2162.12,596.087 2164.36,604.11 2166.6,612.515 2168.84,621.258 2171.09,630.293 2173.33,639.573 2175.57,649.078 2177.82,658.814 2180.06,668.755 2182.3,678.877 2184.54,689.157 2186.79,699.572 2189.03,710.101 2191.27,720.723 2193.52,731.419 2195.76,742.171 2198,752.96 2200.24,763.772 2202.49,774.59 2204.73,785.4 2206.97,796.188 2209.22,806.942 2211.46,817.651 2213.7,828.303 2215.94,838.891 2218.19,849.404 2220.43,859.836 2222.67,870.179 2224.92,880.43 2227.16,890.582 2229.4,900.627 2231.64,910.557 2233.89,920.37 2236.13,930.062 2238.37,939.63 2240.61,949.072 2242.86,958.384 2245.1,967.566 2247.34,976.615 2249.59,985.529 2251.83,994.307 2254.07,1002.95 2256.31,1011.45 2258.56,1019.81 2260.8,1028.04 2263.04,1036.12 2265.29,1044.06 2267.53,1051.86 2269.77,1059.52 2272.01,1067.04 2274.26,1074.43 2276.5,1081.67 2278.74,1088.78 2280.99,1095.76 2283.23,1102.6 2285.47,1109.31 2287.71,1115.89 2289.96,1122.34 2292.2,1128.66 2294.44,1134.86 2296.69,1140.94 2298.93,1146.89 2301.17,1152.71 2303.41,1158.42 2305.66,1164.02 2307.9,1169.49 2310.14,1174.85 2312.39,1180.1 2314.63,1185.24 2316.87,1190.27 2319.11,1195.19 2321.36,1200.01 2323.6,1204.72 2325.84,1209.33 2328.08,1213.84 2330.33,1218.26 2332.57,1222.57 2334.81,1226.79 2337.06,1230.92 2339.3,1234.96 2341.54,1238.9 2343.78,1242.76 2346.03,1246.54 2348.27,1250.22 2350.51,1253.83 2352.76,1257.35 "/>
<polyline clip-path="url(#clip722)" style="stroke:#3da44d; stroke-linecap:round; stroke-linejoin:round; stroke-width:12; stroke-opacity:1; fill:none" stroke-dasharray="48, 30" points="112.177,1239.06 114.42,1238.06 116.663,1237.02 118.906,1235.93 121.148,1234.8 123.391,1233.63 125.634,1232.41 127.877,1231.15 130.12,1229.85 132.363,1228.51 134.605,1227.12 136.848,1225.69 139.091,1224.22 141.334,1222.7 143.577,1221.14 145.819,1219.54 148.062,1217.9 150.305,1216.21 152.548,1214.48 154.791,1212.71 157.034,1210.89 159.276,1209.03 161.519,1207.13 163.762,1205.18 166.005,1203.19 168.248,1201.16 170.491,1199.08 172.733,1196.96 174.976,1194.79 177.219,1192.58 179.462,1190.32 181.705,1188.02 183.947,1185.67 186.19,1183.27 188.433,1180.83 190.676,1178.34 192.919,1175.8 195.162,1173.22 197.404,1170.59 199.647,1167.91 201.89,1165.18 204.133,1162.4 206.376,1159.58 208.619,1156.7 210.861,1153.77 213.104,1150.79 215.347,1147.76 217.59,1144.68 219.833,1141.55 222.075,1138.36 224.318,1135.12 226.561,1131.83 228.804,1128.48 231.047,1125.08 233.29,1121.63 235.532,1118.11 237.775,1114.54 240.018,1110.92 242.261,1107.23 244.504,1103.49 246.746,1099.69 248.989,1095.83 251.232,1091.91 253.475,1087.93 255.718,1083.89 257.961,1079.79 260.203,1075.63 262.446,1071.4 264.689,1067.11 266.932,1062.75 269.175,1058.33 271.418,1053.85 273.66,1049.29 275.903,1044.67 278.146,1039.99 280.389,1035.23 282.632,1030.41 284.874,1025.51 287.117,1020.55 289.36,1015.51 291.603,1010.41 293.846,1005.23 296.089,999.974 298.331,994.647 300.574,989.245 302.817,983.768 305.06,978.215 307.303,972.585 309.545,966.877 311.788,961.091 314.031,955.226 316.274,949.281 318.517,943.255 320.76,937.148 323.002,930.959 325.245,924.688 327.488,918.333 329.731,911.895 331.974,905.372 334.217,898.764 336.459,892.069 338.702,885.287 340.945,878.418 343.188,871.46 345.431,864.413 347.673,857.276 349.916,850.049 352.159,842.731 354.402,835.321 356.645,827.82 358.888,820.226 361.13,812.539 363.373,804.76 365.616,796.886 367.859,788.919 370.102,780.857 372.344,772.701 374.587,764.451 376.83,756.105 379.073,747.664 381.316,739.129 383.559,730.497 385.801,721.771 388.044,712.949 390.287,704.032 392.53,695.019 394.773,685.911 397.016,676.708 399.258,667.415 401.501,658.032 403.744,648.557 405.987,638.992 408.23,629.335 410.472,619.587 412.715,609.748 414.958,599.818 417.201,589.8 419.444,579.695 421.687,569.503 423.929,559.227 426.172,548.869 428.415,538.431 430.658,527.917 432.901,517.329 435.143,506.671 437.386,495.947 439.629,485.16 441.872,474.315 444.115,463.416 446.358,452.468 448.6,441.476 450.843,430.447 453.086,419.384 455.329,408.295 457.572,397.185 459.815,386.062 462.057,374.932 464.3,363.802 466.543,352.68 468.786,341.574 471.029,330.491 473.271,319.441 475.514,308.43 477.757,297.456 480,286.527 482.243,275.664 484.486,264.883 486.728,254.205 488.971,243.648 491.214,233.233 493.457,222.981 495.7,212.911 497.942,203.047 500.185,193.409 502.428,184.02 504.671,174.904 506.914,166.084 509.157,157.583 511.399,149.426 513.642,141.638 515.885,134.244 518.128,127.271 520.371,120.744 522.614,114.69 524.856,109.138 527.099,104.114 529.342,99.6467 531.585,95.7653 533.828,92.4989 536.07,89.8772 538.313,87.9305 540.556,86.6896 542.799,86.1857 545.042,86.4504 547.285,87.5161 549.527,89.4153 551.77,92.1813 554.013,95.8477 556.256,100.449 558.499,106.022 560.741,112.606 562.984,120.206 565.227,128.818 567.47,138.436 569.713,149.049 571.956,160.644 574.198,173.205 576.441,186.712 578.684,201.14 580.927,216.464 583.17,232.654 585.413,249.676 587.655,267.493 589.898,286.066 592.141,305.351 594.384,325.302 596.627,345.868 598.869,366.996 601.112,388.631 603.355,410.71 605.598,433.173 607.841,455.951 610.084,478.974 612.326,502.17 614.569,525.462 616.812,548.769 619.055,572.01 621.298,595.122 623.54,618.085 625.783,640.842 628.026,663.341 630.269,685.533 632.512,707.371 634.755,728.815 636.997,749.827 639.24,770.375 641.483,790.427 643.726,809.96 645.969,828.951 648.212,847.384 650.454,865.243 652.697,882.52 654.94,899.209 657.183,915.309 659.426,930.821 661.668,945.751 663.911,960.11 666.154,973.912 668.397,987.175 670.64,999.921 672.883,1012.18 675.125,1023.97 677.368,1035.3 679.611,1046.15 681.854,1056.55 684.097,1066.5 686.339,1076.02 688.582,1085.14 690.825,1093.85 693.068,1102.19 695.311,1110.15 697.554,1117.77 699.796,1125.04 702.039,1131.99 704.282,1138.62 706.525,1144.95 708.768,1150.99 711.011,1156.75 713.253,1162.24 715.496,1167.48 717.739,1172.46 719.982,1177.21 722.225,1181.73 724.467,1186.04 726.71,1190.13 728.953,1194.01 731.196,1197.71 733.439,1201.23 735.682,1204.57 737.924,1207.74 740.167,1210.75 742.41,1213.61 744.653,1216.32 746.896,1218.88 749.138,1221.3 751.381,1223.59 753.624,1225.76 755.867,1227.8 758.11,1229.72 760.353,1231.53 762.595,1233.24 764.838,1234.83 767.081,1236.33 769.324,1237.72 771.567,1239.03 773.81,1240.24 776.052,1241.36 778.295,1242.4 780.538,1243.35 782.781,1244.23 785.024,1245.02 787.266,1245.74 789.509,1246.39 791.752,1246.96 793.995,1247.46 796.238,1247.89 798.481,1248.25 800.723,1248.56 802.966,1248.79 805.209,1248.97 807.452,1249.09 809.695,1249.14 811.938,1249.14 814.18,1249.08 816.423,1248.97 818.666,1248.8 820.909,1248.58 823.152,1248.3 825.394,1247.98 827.637,1247.6 829.88,1247.17 832.123,1246.69 834.366,1246.17 836.609,1245.59 838.851,1244.97 841.094,1244.3 843.337,1243.59 845.58,1242.82 847.823,1242.02 850.065,1241.17 852.308,1240.27 854.551,1239.33 856.794,1238.35 859.037,1237.32 861.28,1236.25 863.522,1235.14 865.765,1233.98 868.008,1232.78 870.251,1231.54 872.494,1230.25 874.737,1228.92 876.979,1227.55 879.222,1226.14 881.465,1224.68 883.708,1223.18 885.951,1221.64 888.193,1220.05 890.436,1218.42 892.679,1216.75 894.922,1215.04 897.165,1213.28 899.408,1211.48 901.65,1209.63 903.893,1207.75 906.136,1205.81 908.379,1203.84 910.622,1201.82 912.864,1199.76 915.107,1197.65 917.35,1195.49 919.593,1193.3 921.836,1191.05 924.079,1188.76 926.321,1186.43 928.564,1184.05 930.807,1181.62 933.05,1179.15 935.293,1176.63 937.536,1174.06 939.778,1171.45 942.021,1168.79 944.264,1166.07 946.507,1163.31 948.75,1160.5 950.992,1157.64 953.235,1154.73 955.478,1151.77 957.721,1148.76 959.964,1145.7 962.207,1142.58 964.449,1139.42 966.692,1136.2 968.935,1132.92 971.178,1129.59 973.421,1126.21 975.663,1122.77 977.906,1119.28 980.149,1115.73 982.392,1112.12 984.635,1108.46 986.878,1104.74 989.12,1100.96 991.363,1097.12 993.606,1093.22 995.849,1089.26 998.092,1085.24 1000.33,1081.16 1002.58,1077.02 1004.82,1072.82 1007.06,1068.55 1009.31,1064.22 1011.55,1059.82 1013.79,1055.36 1016.03,1050.83 1018.28,1046.23 1020.52,1041.57 1022.76,1036.84 1025.01,1032.04 1027.25,1027.17 1029.49,1022.23 1031.73,1017.22 1033.98,1012.14 1036.22,1006.99 1038.46,1001.76 1040.71,996.461 1042.95,991.087 1045.19,985.637 1047.43,980.111 1049.68,974.508 1051.92,968.828 1054.16,963.07 1056.41,957.232 1058.65,951.315 1060.89,945.317 1063.13,939.239 1065.38,933.078 1067.62,926.834 1069.86,920.508 1072.1,914.097 1074.35,907.602 1076.59,901.021 1078.83,894.355 1081.08,887.602 1083.32,880.762 1085.56,873.834 1087.8,866.817 1090.05,859.712 1092.29,852.517 1094.53,845.232 1096.78,837.856 1099.02,830.389 1101.26,822.83 1103.5,815.179 1105.75,807.435 1107.99,799.597 1110.23,791.666 1112.48,783.64 1114.72,775.519 1116.96,767.307 1119.2,759.009 1121.45,750.623 1123.69,742.147 1125.93,733.579 1128.18,724.917 1130.42,716.16 1132.66,707.307 1134.9,698.357 1137.15,689.309 1139.39,680.162 1141.63,670.917 1143.88,661.574 1146.12,652.132 1148.36,642.593 1150.6,632.957 1152.85,623.225 1155.09,613.398 1157.33,603.478 1159.57,593.467 1161.82,583.366 1164.06,573.178 1166.3,562.905 1168.55,552.55 1170.79,542.116 1173.03,531.605 1175.27,521.022 1177.52,510.37 1179.76,499.653 1182,488.876 1184.25,478.041 1186.49,467.155 1188.73,456.221 1190.97,445.245 1193.22,434.233 1195.46,423.19 1197.7,412.122 1199.95,401.034 1202.19,389.933 1204.43,378.827 1206.67,367.72 1208.92,356.621 1211.16,345.537 1213.4,334.476 1215.65,323.444 1217.89,312.45 1220.13,301.503 1222.37,290.61 1224.62,279.777 1226.86,269.005 1229.1,258.313 1231.35,247.724 1233.59,237.259 1235.83,226.941 1238.07,216.793 1240.32,206.838 1242.56,197.099 1244.8,187.601 1247.04,178.366 1249.29,169.42 1251.53,160.787 1253.77,152.493 1256.02,144.563 1258.26,137.023 1260.5,129.898 1262.74,123.215 1264.99,117.002 1267.23,111.285 1269.47,106.091 1271.72,101.449 1273.96,97.3855 1276.2,93.9304 1278.44,91.1119 1280.69,88.9592 1282.93,87.5016 1285.17,86.769 1287.42,86.7914 1289.66,87.5993 1291.9,89.2234 1294.14,91.6949 1296.39,95.0452 1298.63,99.306 1300.87,104.51 1303.12,110.688 1305.36,117.903 1307.6,126.188 1309.84,135.524 1312.09,145.888 1314.33,157.257 1316.57,169.604 1318.82,182.902 1321.06,197.12 1323.3,212.226 1325.54,228.186 1327.79,244.962 1330.03,262.517 1332.27,280.81 1334.51,299.797 1336.76,319.434 1339,339.674 1341.24,360.468 1343.49,381.764 1345.73,403.509 1347.97,425.648 1350.21,448.123 1352.46,470.875 1354.7,493.841 1356.94,516.958 1359.19,540.161 1361.43,563.38 1363.67,586.546 1365.91,609.587 1368.16,632.428 1370.4,654.992 1372.64,677.207 1374.89,699.062 1377.13,720.536 1379.37,741.597 1381.61,762.217 1383.86,782.369 1386.1,802.03 1388.34,821.18 1390.59,839.801 1392.83,857.878 1395.07,875.398 1397.31,892.352 1399.56,908.734 1401.8,924.538 1404.04,939.765 1406.29,954.416 1408.53,968.494 1410.77,982.007 1413.01,994.964 1415.26,1007.38 1417.5,1019.27 1419.74,1030.64 1421.98,1041.53 1424.23,1051.95 1426.47,1061.94 1428.71,1071.51 1430.96,1080.71 1433.2,1089.56 1435.44,1098.04 1437.68,1106.15 1439.93,1113.89 1442.17,1121.29 1444.41,1128.36 1446.66,1135.11 1448.9,1141.55 1451.14,1147.69 1453.38,1153.56 1455.63,1159.15 1457.87,1164.49 1460.11,1169.57 1462.36,1174.42 1464.6,1179.05 1466.84,1183.45 1469.08,1187.64 1471.33,1191.63 1473.57,1195.43 1475.81,1199.05 1478.06,1202.48 1480.3,1205.74 1482.54,1208.84 1484.78,1211.78 1487.03,1214.56 1489.27,1217.2 1491.51,1219.68 1493.76,1222.03 1496,1224.25 1498.24,1226.35 1500.48,1228.33 1502.73,1230.19 1504.97,1231.94 1507.21,1233.59 1509.46,1235.12 1511.7,1236.56 1513.94,1237.91 1516.18,1239.15 1518.43,1240.31 1520.67,1241.38 1522.91,1242.36 1525.15,1243.26 1527.4,1244.09 1529.64,1244.83 1531.88,1245.5 1534.13,1246.1 1536.37,1246.63 1538.61,1247.09 1540.85,1247.48 1543.1,1247.81 1545.34,1248.07 1547.58,1248.27 1549.83,1248.41 1552.07,1248.49 1554.31,1248.52 1556.55,1248.48 1558.8,1248.39 1561.04,1248.25 1563.28,1248.05 1565.53,1247.8 1567.77,1247.49 1570.01,1247.14 1572.25,1246.73 1574.5,1246.28 1576.74,1245.78 1578.98,1245.22 1581.23,1244.62 1583.47,1243.97 1585.71,1243.28 1587.95,1242.54 1590.2,1241.75 1592.44,1240.91 1594.68,1240.04 1596.93,1239.11 1599.17,1238.14 1601.41,1237.13 1603.65,1236.07 1605.9,1234.97 1608.14,1233.83 1610.38,1232.64 1612.62,1231.41 1614.87,1230.14 1617.11,1228.82 1619.35,1227.46 1621.6,1226.06 1623.84,1224.62 1626.08,1223.13 1628.32,1221.6 1630.57,1220.03 1632.81,1218.42 1635.05,1216.76 1637.3,1215.06 1639.54,1213.32 1641.78,1211.54 1644.02,1209.71 1646.27,1207.84 1648.51,1205.92 1650.75,1203.96 1653,1201.96 1655.24,1199.91 1657.48,1197.82 1659.72,1195.68 1661.97,1193.5 1664.21,1191.27 1666.45,1189 1668.7,1186.68 1670.94,1184.32 1673.18,1181.9 1675.42,1179.45 1677.67,1176.94 1679.91,1174.39 1682.15,1171.79 1684.4,1169.14 1686.64,1166.45 1688.88,1163.7 1691.12,1160.91 1693.37,1158.06 1695.61,1155.17 1697.85,1152.22 1700.09,1149.22 1702.34,1146.18 1704.58,1143.08 1706.82,1139.93 1709.07,1136.72 1711.31,1133.46 1713.55,1130.15 1715.79,1126.79 1718.04,1123.37 1720.28,1119.89 1722.52,1116.36 1724.77,1112.77 1727.01,1109.12 1729.25,1105.42 1731.49,1101.66 1733.74,1097.84 1735.98,1093.96 1738.22,1090.01 1740.47,1086.01 1742.71,1081.95 1744.95,1077.83 1747.19,1073.64 1749.44,1069.39 1751.68,1065.08 1753.92,1060.7 1756.17,1056.25 1758.41,1051.74 1760.65,1047.17 1762.89,1042.53 1765.14,1037.82 1767.38,1033.04 1769.62,1028.19 1771.87,1023.27 1774.11,1018.28 1776.35,1013.22 1778.59,1008.09 1780.84,1002.89 1783.08,997.612 1785.32,992.26 1787.56,986.834 1789.81,981.332 1792.05,975.755 1794.29,970.1 1796.54,964.367 1798.78,958.556 1801.02,952.665 1803.26,946.695 1805.51,940.643 1807.75,934.51 1809.99,928.295 1812.24,921.996 1814.48,915.615 1816.72,909.151 1818.96,902.602 1821.21,895.969 1823.45,889.249 1825.69,882.442 1827.94,875.547 1830.18,868.564 1832.42,861.491 1834.66,854.329 1836.91,847.075 1839.15,839.731 1841.39,832.294 1843.64,824.765 1845.88,817.143 1848.12,809.428 1850.36,801.619 1852.61,793.717 1854.85,785.72 1857.09,777.629 1859.34,769.443 1861.58,761.162 1863.82,752.787 1866.06,744.317 1868.31,735.752 1870.55,727.092 1872.79,718.337 1875.03,709.488 1877.28,700.545 1879.52,691.508 1881.76,682.377 1884.01,673.153 1886.25,663.836 1888.49,654.426 1890.73,644.924 1892.98,635.331 1895.22,625.646 1897.46,615.872 1899.71,606.008 1901.95,596.066 1904.19,586.057 1906.43,575.977 1908.68,565.823 1910.92,555.595 1913.16,545.29 1915.41,534.909 1917.65,524.452 1919.89,513.919 1922.13,503.311 1924.38,492.631 1926.62,481.881 1928.86,471.064 1931.11,460.185 1933.35,449.247 1935.59,438.256 1937.83,427.218 1940.08,416.138 1942.32,405.024 1944.56,393.883 1946.81,382.723 1949.05,371.554 1951.29,360.385 1953.53,349.225 1955.78,338.085 1958.02,326.977 1960.26,315.912 1962.5,304.904 1964.75,293.964 1966.99,283.108 1969.23,272.349 1971.48,261.702 1973.72,251.184 1975.96,240.809 1978.2,230.596 1980.45,220.561 1982.69,210.723 1984.93,201.1 1987.18,191.712 1989.42,182.579 1991.66,173.721 1993.9,165.159 1996.15,156.916 1998.39,149.014 2000.63,141.476 2002.88,134.325 2005.12,127.586 2007.36,121.284 2009.6,115.445 2011.85,110.094 2014.09,105.258 2016.33,100.965 2018.58,97.2621 2020.82,94.192 2023.06,91.7961 2025.3,90.1132 2027.55,89.179 2029.79,89.0268 2032.03,89.687 2034.28,91.1876 2036.52,93.5538 2038.76,96.808 2041,100.97 2043.25,106.057 2045.49,112.084 2047.73,119.062 2049.97,127 2052.22,135.906 2054.46,145.782 2056.7,156.63 2058.95,168.448 2061.19,181.232 2063.43,194.975 2065.67,209.667 2067.92,225.308 2070.16,241.867 2072.4,259.287 2074.65,277.507 2076.89,296.468 2079.13,316.109 2081.37,336.371 2083.62,357.193 2085.86,378.514 2088.1,400.276 2090.35,422.415 2092.59,444.873 2094.83,467.586 2097.07,490.496 2099.32,513.539 2101.56,536.654 2103.8,559.78 2106.05,582.855 2108.29,605.816 2110.53,628.602 2112.77,651.15 2115.02,673.397 2117.26,695.282 2119.5,716.762 2121.75,737.824 2123.99,758.442 2126.23,778.592 2128.47,798.254 2130.72,817.408 2132.96,836.039 2135.2,854.134 2137.45,871.682 2139.69,888.674 2141.93,905.104 2144.17,920.968 2146.42,936.266 2148.66,951 2150.9,965.172 2153.14,978.789 2155.39,991.861 2157.63,1004.4 2159.87,1016.42 2162.12,1027.93 2164.36,1038.96 2166.6,1049.52 2168.84,1059.64 2171.09,1069.35 2173.33,1078.68 2175.57,1087.62 2177.82,1096.18 2180.06,1104.35 2182.3,1112.16 2184.54,1119.62 2186.79,1126.75 2189.03,1133.55 2191.27,1140.05 2193.52,1146.25 2195.76,1152.17 2198,1157.81 2200.24,1163.19 2202.49,1168.33 2204.73,1173.22 2206.97,1177.88 2209.22,1182.32 2211.46,1186.55 2213.7,1190.57 2215.94,1194.4 2218.19,1198.04 2220.43,1201.5 2222.67,1204.78 2224.92,1207.9 2227.16,1210.85 2229.4,1213.65 2231.64,1216.3 2233.89,1218.82 2236.13,1221.19 2238.37,1223.44 2240.61,1225.56 2242.86,1227.56 2245.1,1229.45 2247.34,1231.22 2249.59,1232.88 2251.83,1234.44 2254.07,1235.89 2256.31,1237.25 2258.56,1238.52 2260.8,1239.69 2263.04,1240.78 2265.29,1241.78 2267.53,1242.7 2269.77,1243.54 2272.01,1244.3 2274.26,1244.99 2276.5,1245.6 2278.74,1246.15 2280.99,1246.62 2283.23,1247.03 2285.47,1247.37 2287.71,1247.65 2289.96,1247.86 2292.2,1248.01 2294.44,1248.11 2296.69,1248.14 2298.93,1248.12 2301.17,1248.04 2303.41,1247.91 2305.66,1247.72 2307.9,1247.47 2310.14,1247.18 2312.39,1246.83 2314.63,1246.43 2316.87,1245.99 2319.11,1245.49 2321.36,1244.94 2323.6,1244.35 2325.84,1243.71 2328.08,1243.02 2330.33,1242.28 2332.57,1241.5 2334.81,1240.68 2337.06,1239.8 2339.3,1238.89 2341.54,1237.93 2343.78,1236.92 2346.03,1235.88 2348.27,1234.78 2350.51,1233.65 2352.76,1232.47 "/>
<polyline clip-path="url(#clip722)" style="stroke:#c271d2; stroke-linecap:round; stroke-linejoin:round; stroke-width:12; stroke-opacity:1; fill:none" stroke-dasharray="48, 30" points="112.177,1239.06 114.42,1242.93 116.663,1246.71 118.906,1250.41 121.148,1254.02 123.391,1257.55 125.634,1261.01 127.877,1264.38 130.12,1267.68 132.363,1270.9 134.605,1274.05 136.848,1277.12 139.091,1280.13 141.334,1283.07 143.577,1285.94 145.819,1288.74 148.062,1291.48 150.305,1294.15 152.548,1296.77 154.791,1299.32 157.034,1301.81 159.276,1304.25 161.519,1306.62 163.762,1308.94 166.005,1311.21 168.248,1313.42 170.491,1315.59 172.733,1317.7 174.976,1319.76 177.219,1321.77 179.462,1323.73 181.705,1325.65 183.947,1327.52 186.19,1329.34 188.433,1331.12 190.676,1332.86 192.919,1334.56 195.162,1336.21 197.404,1337.83 199.647,1339.4 201.89,1340.94 204.133,1342.44 206.376,1343.9 208.619,1345.33 210.861,1346.72 213.104,1348.07 215.347,1349.39 217.59,1350.68 219.833,1351.93 222.075,1353.16 224.318,1354.35 226.561,1355.51 228.804,1356.64 231.047,1357.74 233.29,1358.82 235.532,1359.86 237.775,1360.88 240.018,1361.87 242.261,1362.83 244.504,1363.77 246.746,1364.68 248.989,1365.56 251.232,1366.42 253.475,1367.26 255.718,1368.07 257.961,1368.86 260.203,1369.63 262.446,1370.37 264.689,1371.09 266.932,1371.79 269.175,1372.47 271.418,1373.12 273.66,1373.76 275.903,1374.37 278.146,1374.97 280.389,1375.54 282.632,1376.09 284.874,1376.63 287.117,1377.14 289.36,1377.64 291.603,1378.12 293.846,1378.57 296.089,1379.01 298.331,1379.43 300.574,1379.84 302.817,1380.22 305.06,1380.59 307.303,1380.94 309.545,1381.27 311.788,1381.58 314.031,1381.88 316.274,1382.16 318.517,1382.42 320.76,1382.67 323.002,1382.89 325.245,1383.1 327.488,1383.29 329.731,1383.47 331.974,1383.62 334.217,1383.76 336.459,1383.88 338.702,1383.99 340.945,1384.07 343.188,1384.14 345.431,1384.19 347.673,1384.22 349.916,1384.24 352.159,1384.23 354.402,1384.21 356.645,1384.17 358.888,1384.11 361.13,1384.02 363.373,1383.92 365.616,1383.8 367.859,1383.66 370.102,1383.49 372.344,1383.3 374.587,1383.1 376.83,1382.86 379.073,1382.61 381.316,1382.33 383.559,1382.02 385.801,1381.7 388.044,1381.34 390.287,1380.96 392.53,1380.55 394.773,1380.11 397.016,1379.64 399.258,1379.14 401.501,1378.61 403.744,1378.04 405.987,1377.44 408.23,1376.81 410.472,1376.14 412.715,1375.43 414.958,1374.68 417.201,1373.9 419.444,1373.08 421.687,1372.21 423.929,1371.3 426.172,1370.34 428.415,1369.33 430.658,1368.28 432.901,1367.17 435.143,1366.01 437.386,1364.79 439.629,1363.51 441.872,1362.16 444.115,1360.75 446.358,1359.27 448.6,1357.71 450.843,1356.08 453.086,1354.36 455.329,1352.56 457.572,1350.67 459.815,1348.69 462.057,1346.6 464.3,1344.42 466.543,1342.13 468.786,1339.72 471.029,1337.2 473.271,1334.56 475.514,1331.78 477.757,1328.89 480,1325.87 482.243,1322.7 484.486,1319.39 486.728,1315.91 488.971,1312.25 491.214,1308.41 493.457,1304.37 495.7,1300.11 497.942,1295.63 500.185,1290.92 502.428,1285.96 504.671,1280.75 506.914,1275.27 509.157,1269.51 511.399,1263.46 513.642,1257.11 515.885,1250.46 518.128,1243.48 520.371,1236.18 522.614,1228.53 524.856,1220.54 527.099,1212.19 529.342,1203.47 531.585,1194.37 533.828,1184.89 536.07,1175.01 538.313,1164.73 540.556,1154.03 542.799,1142.91 545.042,1131.36 547.285,1119.37 549.527,1106.93 551.77,1094.04 554.013,1080.68 556.256,1066.85 558.499,1052.54 560.741,1037.71 562.984,1022.4 565.227,1006.64 567.47,990.488 569.713,973.98 571.956,957.16 574.198,940.072 576.441,922.763 578.684,905.277 580.927,887.662 583.17,869.965 585.413,852.235 587.655,834.519 589.898,816.867 592.141,799.331 594.384,781.959 596.627,764.806 598.869,747.921 601.112,731.36 603.355,715.175 605.598,699.42 607.841,684.152 610.084,669.426 612.326,655.298 614.569,641.827 616.812,629.069 619.055,617.084 621.298,605.911 623.54,595.554 625.783,586.038 628.026,577.386 630.269,569.614 632.512,562.736 634.755,556.763 636.997,551.7 639.24,547.548 641.483,544.307 643.726,541.968 645.969,540.523 648.212,539.957 650.454,540.251 652.697,541.384 654.94,543.329 657.183,546.056 659.426,549.531 661.668,553.715 663.911,558.566 666.154,564.038 668.397,570.081 670.64,576.64 672.883,583.657 675.125,591.07 677.368,598.869 679.611,607.065 681.854,615.626 684.097,624.519 686.339,633.715 688.582,643.184 690.825,652.897 693.068,662.827 695.311,672.95 697.554,683.239 699.796,693.671 702.039,704.225 704.282,714.877 706.525,725.609 708.768,736.402 711.011,747.237 713.253,758.098 715.496,768.97 717.739,779.838 719.982,790.689 722.225,801.511 724.467,812.293 726.71,823.025 728.953,833.698 731.196,844.295 733.439,854.808 735.682,865.233 737.924,875.563 740.167,885.792 742.41,895.917 744.653,905.931 746.896,915.831 749.138,925.612 751.381,935.272 753.624,944.805 755.867,954.21 758.11,963.483 760.353,972.622 762.595,981.625 764.838,990.49 767.081,999.216 769.324,1007.8 771.567,1016.24 773.81,1024.54 776.052,1032.7 778.295,1040.72 780.538,1048.59 782.781,1056.33 785.024,1063.92 787.266,1071.38 789.509,1078.69 791.752,1085.88 793.995,1092.93 796.238,1099.84 798.481,1106.63 800.723,1113.28 802.966,1119.8 805.209,1126.19 807.452,1132.45 809.695,1138.59 811.938,1144.6 814.18,1150.49 816.423,1156.26 818.666,1161.91 820.909,1167.45 823.152,1172.87 825.394,1178.17 827.637,1183.37 829.88,1188.45 832.123,1193.42 834.366,1198.29 836.609,1203.05 838.851,1207.71 841.094,1212.27 843.337,1216.73 845.58,1221.09 847.823,1225.35 850.065,1229.52 852.308,1233.6 854.551,1237.58 856.794,1241.48 859.037,1245.3 861.28,1249.02 863.522,1252.67 865.765,1256.23 868.008,1259.71 870.251,1263.11 872.494,1266.43 874.737,1269.68 876.979,1272.86 879.222,1275.96 881.465,1278.99 883.708,1281.95 885.951,1284.85 888.193,1287.68 890.436,1290.44 892.679,1293.14 894.922,1295.77 897.165,1298.35 899.408,1300.86 901.65,1303.32 903.893,1305.72 906.136,1308.06 908.379,1310.35 910.622,1312.58 912.864,1314.76 915.107,1316.89 917.35,1318.97 919.593,1321 921.836,1322.98 924.079,1324.92 926.321,1326.81 928.564,1328.65 930.807,1330.45 933.05,1332.2 935.293,1333.92 937.536,1335.59 939.778,1337.22 942.021,1338.8 944.264,1340.35 946.507,1341.87 948.75,1343.34 950.992,1344.78 953.235,1346.18 955.478,1347.55 957.721,1348.88 959.964,1350.18 962.207,1351.45 964.449,1352.68 966.692,1353.88 968.935,1355.05 971.178,1356.19 973.421,1357.31 975.663,1358.39 977.906,1359.44 980.149,1360.47 982.392,1361.47 984.635,1362.44 986.878,1363.38 989.12,1364.3 991.363,1365.2 993.606,1366.07 995.849,1366.92 998.092,1367.74 1000.33,1368.54 1002.58,1369.31 1004.82,1370.06 1007.06,1370.79 1009.31,1371.5 1011.55,1372.19 1013.79,1372.85 1016.03,1373.5 1018.28,1374.12 1020.52,1374.72 1022.76,1375.3 1025.01,1375.86 1027.25,1376.41 1029.49,1376.93 1031.73,1377.43 1033.98,1377.91 1036.22,1378.38 1038.46,1378.82 1040.71,1379.25 1042.95,1379.66 1045.19,1380.05 1047.43,1380.42 1049.68,1380.78 1051.92,1381.12 1054.16,1381.44 1056.41,1381.74 1058.65,1382.02 1060.89,1382.29 1063.13,1382.54 1065.38,1382.77 1067.62,1382.99 1069.86,1383.19 1072.1,1383.37 1074.35,1383.53 1076.59,1383.68 1078.83,1383.81 1081.08,1383.92 1083.32,1384.01 1085.56,1384.09 1087.8,1384.14 1090.05,1384.18 1092.29,1384.2 1094.53,1384.21 1096.78,1384.19 1099.02,1384.15 1101.26,1384.1 1103.5,1384.02 1105.75,1383.92 1107.99,1383.81 1110.23,1383.67 1112.48,1383.51 1114.72,1383.33 1116.96,1383.13 1119.2,1382.9 1121.45,1382.64 1123.69,1382.35 1125.93,1382.03 1128.18,1381.69 1130.42,1381.33 1132.66,1380.94 1134.9,1380.52 1137.15,1380.07 1139.39,1379.6 1141.63,1379.1 1143.88,1378.57 1146.12,1378.01 1148.36,1377.42 1150.6,1376.8 1152.85,1376.14 1155.09,1375.46 1157.33,1374.74 1159.57,1373.98 1161.82,1373.18 1164.06,1372.34 1166.3,1371.46 1168.55,1370.53 1170.79,1369.56 1173.03,1368.54 1175.27,1367.46 1177.52,1366.33 1179.76,1365.14 1182,1363.89 1184.25,1362.58 1186.49,1361.2 1188.73,1359.75 1190.97,1358.23 1193.22,1356.62 1195.46,1354.94 1197.7,1353.17 1199.95,1351.31 1202.19,1349.36 1204.43,1347.31 1206.67,1345.16 1208.92,1342.9 1211.16,1340.52 1213.4,1338.04 1215.65,1335.43 1217.89,1332.69 1220.13,1329.82 1222.37,1326.81 1224.62,1323.67 1226.86,1320.39 1229.1,1316.96 1231.35,1313.36 1233.59,1309.59 1235.83,1305.63 1238.07,1301.47 1240.32,1297.09 1242.56,1292.48 1244.8,1287.64 1247.04,1282.53 1249.29,1277.17 1251.53,1271.52 1253.77,1265.59 1256.02,1259.36 1258.26,1252.82 1260.5,1245.96 1262.74,1238.77 1264.99,1231.24 1267.23,1223.36 1269.47,1215.12 1271.72,1206.52 1273.96,1197.53 1276.2,1188.16 1278.44,1178.4 1280.69,1168.23 1282.93,1157.66 1285.17,1146.67 1287.42,1135.25 1289.66,1123.41 1291.9,1111.12 1294.14,1098.4 1296.39,1085.22 1298.63,1071.58 1300.87,1057.49 1303.12,1042.93 1305.36,1027.86 1307.6,1012.26 1309.84,996.198 1312.09,979.728 1314.33,962.905 1316.57,945.786 1318.82,928.427 1321.06,910.881 1323.3,893.203 1325.54,875.447 1327.79,857.666 1330.03,839.912 1332.27,822.237 1334.51,804.693 1336.76,787.33 1339,770.199 1341.24,753.349 1343.49,736.83 1345.73,720.691 1347.97,704.978 1350.21,689.74 1352.46,675.023 1354.7,660.874 1356.94,647.339 1359.19,634.462 1361.43,622.289 1363.67,610.864 1365.91,600.229 1368.16,590.428 1370.4,581.504 1372.64,573.495 1374.89,566.401 1377.13,560.212 1379.37,554.926 1381.61,550.534 1383.86,547.028 1386.1,544.397 1388.34,542.629 1390.59,541.708 1392.83,541.618 1395.07,542.339 1397.31,543.85 1399.56,546.129 1401.8,549.149 1404.04,552.884 1406.29,557.304 1408.53,562.378 1410.77,568.072 1413.01,574.351 1415.26,581.178 1417.5,588.512 1419.74,596.312 1421.98,604.534 1424.23,613.133 1426.47,622.06 1428.71,631.265 1430.96,640.698 1433.2,650.304 1435.44,660.099 1437.68,670.091 1439.93,680.257 1442.17,690.574 1444.41,701.02 1446.66,711.576 1448.9,722.222 1451.14,732.938 1453.38,743.708 1455.63,754.514 1457.87,765.34 1460.11,776.171 1462.36,786.993 1464.6,797.792 1466.84,808.557 1469.08,819.274 1471.33,829.934 1473.57,840.527 1475.81,851.043 1478.06,861.475 1480.3,871.816 1482.54,882.059 1484.78,892.198 1487.03,902.23 1489.27,912.151 1491.51,921.957 1493.76,931.645 1496,941.205 1498.24,950.636 1500.48,959.935 1502.73,969.101 1504.97,978.132 1507.21,987.029 1509.46,995.788 1511.7,1004.41 1513.94,1012.89 1516.18,1021.24 1518.43,1029.45 1520.67,1037.51 1522.91,1045.44 1525.15,1053.23 1527.4,1060.88 1529.64,1068.39 1531.88,1075.76 1534.13,1082.99 1536.37,1090.09 1538.61,1097.05 1540.85,1103.87 1543.1,1110.57 1545.34,1117.13 1547.58,1123.56 1549.83,1129.86 1552.07,1136.04 1554.31,1142.09 1556.55,1148.02 1558.8,1153.83 1561.04,1159.52 1563.28,1165.1 1565.53,1170.56 1567.77,1175.9 1570.01,1181.13 1572.25,1186.25 1574.5,1191.26 1576.74,1196.17 1578.98,1200.97 1581.23,1205.66 1583.47,1210.26 1585.71,1214.75 1587.95,1219.15 1590.2,1223.45 1592.44,1227.66 1594.68,1231.77 1596.93,1235.8 1599.17,1239.73 1601.41,1243.58 1603.65,1247.34 1605.9,1251.01 1608.14,1254.6 1610.38,1258.12 1612.62,1261.55 1614.87,1264.9 1617.11,1268.18 1619.35,1271.39 1621.6,1274.52 1623.84,1277.58 1626.08,1280.57 1628.32,1283.49 1630.57,1286.34 1632.81,1289.13 1635.05,1291.85 1637.3,1294.51 1639.54,1297.11 1641.78,1299.64 1644.02,1302.12 1646.27,1304.54 1648.51,1306.9 1650.75,1309.21 1653,1311.46 1655.24,1313.67 1657.48,1315.81 1659.72,1317.91 1661.97,1319.96 1664.21,1321.96 1666.45,1323.91 1668.7,1325.81 1670.94,1327.67 1673.18,1329.49 1675.42,1331.26 1677.67,1332.99 1679.91,1334.68 1682.15,1336.32 1684.4,1337.93 1686.64,1339.5 1688.88,1341.03 1691.12,1342.52 1693.37,1343.97 1695.61,1345.39 1697.85,1346.77 1700.09,1348.12 1702.34,1349.44 1704.58,1350.72 1706.82,1351.97 1709.07,1353.19 1711.31,1354.37 1713.55,1355.53 1715.79,1356.65 1718.04,1357.75 1720.28,1358.82 1722.52,1359.85 1724.77,1360.86 1727.01,1361.85 1729.25,1362.8 1731.49,1363.73 1733.74,1364.64 1735.98,1365.51 1738.22,1366.37 1740.47,1367.2 1742.71,1368 1744.95,1368.79 1747.19,1369.55 1749.44,1370.28 1751.68,1371 1753.92,1371.69 1756.17,1372.36 1758.41,1373.01 1760.65,1373.64 1762.89,1374.25 1765.14,1374.84 1767.38,1375.4 1769.62,1375.95 1771.87,1376.48 1774.11,1376.99 1776.35,1377.48 1778.59,1377.95 1780.84,1378.41 1783.08,1378.84 1785.32,1379.26 1787.56,1379.66 1789.81,1380.04 1792.05,1380.4 1794.29,1380.74 1796.54,1381.07 1798.78,1381.38 1801.02,1381.67 1803.26,1381.94 1805.51,1382.2 1807.75,1382.44 1809.99,1382.66 1812.24,1382.86 1814.48,1383.05 1816.72,1383.22 1818.96,1383.36 1821.21,1383.5 1823.45,1383.61 1825.69,1383.7 1827.94,1383.78 1830.18,1383.84 1832.42,1383.88 1834.66,1383.91 1836.91,1383.91 1839.15,1383.9 1841.39,1383.87 1843.64,1383.82 1845.88,1383.74 1848.12,1383.65 1850.36,1383.54 1852.61,1383.41 1854.85,1383.26 1857.09,1383.09 1859.34,1382.89 1861.58,1382.68 1863.82,1382.44 1866.06,1382.17 1868.31,1381.88 1870.55,1381.57 1872.79,1381.23 1875.03,1380.86 1877.28,1380.47 1879.52,1380.05 1881.76,1379.59 1884.01,1379.11 1886.25,1378.6 1888.49,1378.06 1890.73,1377.48 1892.98,1376.87 1895.22,1376.22 1897.46,1375.54 1899.71,1374.82 1901.95,1374.05 1904.19,1373.24 1906.43,1372.37 1908.68,1371.46 1910.92,1370.49 1913.16,1369.48 1915.41,1368.41 1917.65,1367.3 1919.89,1366.13 1922.13,1364.9 1924.38,1363.62 1926.62,1362.28 1928.86,1360.88 1931.11,1359.41 1933.35,1357.88 1935.59,1356.27 1937.83,1354.59 1940.08,1352.83 1942.32,1350.99 1944.56,1349.06 1946.81,1347.04 1949.05,1344.93 1951.29,1342.71 1953.53,1340.38 1955.78,1337.94 1958.02,1335.38 1960.26,1332.69 1962.5,1329.87 1964.75,1326.91 1966.99,1323.8 1969.23,1320.54 1971.48,1317.11 1973.72,1313.51 1975.96,1309.73 1978.2,1305.76 1980.45,1301.59 1982.69,1297.22 1984.93,1292.62 1987.18,1287.8 1989.42,1282.75 1991.66,1277.44 1993.9,1271.88 1996.15,1266.05 1998.39,1259.94 2000.63,1253.53 2002.88,1246.82 2005.12,1239.79 2007.36,1232.43 2009.6,1224.74 2011.85,1216.68 2014.09,1208.26 2016.33,1199.47 2018.58,1190.28 2020.82,1180.69 2023.06,1170.68 2025.3,1160.23 2027.55,1149.34 2029.79,1138.01 2032.03,1126.22 2034.28,1113.97 2036.52,1101.27 2038.76,1088.12 2041,1074.53 2043.25,1060.5 2045.49,1046.04 2047.73,1031.17 2049.97,1015.9 2052.22,1000.26 2054.46,984.252 2056.7,967.912 2058.95,951.262 2061.19,934.331 2063.43,917.149 2065.67,899.749 2067.92,882.16 2070.16,864.432 2072.4,846.637 2074.65,828.846 2076.89,811.126 2079.13,793.543 2081.37,776.161 2083.62,759.041 2085.86,742.242 2088.1,725.822 2090.35,709.835 2092.59,694.336 2094.83,679.373 2097.07,664.997 2099.32,651.253 2101.56,638.186 2103.8,625.839 2106.05,614.251 2108.29,603.46 2110.53,593.503 2112.77,584.413 2115.02,576.222 2117.26,568.958 2119.5,562.632 2121.75,557.225 2123.99,552.725 2126.23,549.12 2128.47,546.394 2130.72,544.532 2132.96,543.515 2135.2,543.323 2137.45,543.936 2139.69,545.331 2141.93,547.482 2144.17,550.365 2146.42,553.952 2148.66,558.212 2150.9,563.116 2153.14,568.63 2155.39,574.721 2157.63,581.352 2159.87,588.487 2162.12,596.087 2164.36,604.11 2166.6,612.515 2168.84,621.258 2171.09,630.293 2173.33,639.573 2175.57,649.078 2177.82,658.814 2180.06,668.755 2182.3,678.877 2184.54,689.157 2186.79,699.572 2189.03,710.101 2191.27,720.723 2193.52,731.419 2195.76,742.171 2198,752.96 2200.24,763.772 2202.49,774.59 2204.73,785.4 2206.97,796.188 2209.22,806.942 2211.46,817.651 2213.7,828.303 2215.94,838.891 2218.19,849.404 2220.43,859.836 2222.67,870.179 2224.92,880.43 2227.16,890.582 2229.4,900.627 2231.64,910.557 2233.89,920.37 2236.13,930.062 2238.37,939.63 2240.61,949.072 2242.86,958.384 2245.1,967.566 2247.34,976.615 2249.59,985.529 2251.83,994.307 2254.07,1002.95 2256.31,1011.45 2258.56,1019.81 2260.8,1028.04 2263.04,1036.12 2265.29,1044.06 2267.53,1051.86 2269.77,1059.52 2272.01,1067.04 2274.26,1074.43 2276.5,1081.67 2278.74,1088.78 2280.99,1095.76 2283.23,1102.6 2285.47,1109.31 2287.71,1115.89 2289.96,1122.34 2292.2,1128.66 2294.44,1134.86 2296.69,1140.94 2298.93,1146.89 2301.17,1152.71 2303.41,1158.42 2305.66,1164.02 2307.9,1169.49 2310.14,1174.85 2312.39,1180.1 2314.63,1185.24 2316.87,1190.27 2319.11,1195.19 2321.36,1200.01 2323.6,1204.72 2325.84,1209.33 2328.08,1213.84 2330.33,1218.26 2332.57,1222.57 2334.81,1226.79 2337.06,1230.92 2339.3,1234.96 2341.54,1238.9 2343.78,1242.76 2346.03,1246.54 2348.27,1250.22 2350.51,1253.83 2352.76,1257.35 "/>
<path clip-path="url(#clip720)" d="M186.863 352.309 L500.018 352.309 L500.018 93.1086 L186.863 93.1086  Z" fill="#ffffff" fill-rule="evenodd" fill-opacity="1"/>
<polyline clip-path="url(#clip720)" style="stroke:#000000; stroke-linecap:round; stroke-linejoin:round; stroke-width:4; stroke-opacity:1; fill:none" points="186.863,352.309 500.018,352.309 500.018,93.1086 186.863,93.1086 186.863,352.309 "/>
<polyline clip-path="url(#clip720)" style="stroke:#009af9; stroke-linecap:round; stroke-linejoin:round; stroke-width:12; stroke-opacity:1; fill:none" points="211.758,144.949 361.13,144.949 "/>
<path clip-path="url(#clip720)" d="M386.026 151.997 L386.026 136.303 L390.285 136.303 L390.285 151.835 Q390.285 155.516 391.72 157.368 Q393.155 159.196 396.026 159.196 Q399.475 159.196 401.465 156.997 Q403.479 154.798 403.479 151.002 L403.479 136.303 L407.739 136.303 L407.739 162.229 L403.479 162.229 L403.479 158.247 Q401.928 160.608 399.868 161.766 Q397.831 162.9 395.123 162.9 Q390.655 162.9 388.34 160.122 Q386.026 157.344 386.026 151.997 M396.743 135.678 L396.743 135.678 Z" fill="#000000" fill-rule="nonzero" fill-opacity="1" /><path clip-path="url(#clip720)" d="M416.118 126.21 L425.933 126.21 L425.933 129.52 L420.377 129.52 L420.377 165.168 L425.933 165.168 L425.933 168.479 L416.118 168.479 L416.118 126.21 Z" fill="#000000" fill-rule="nonzero" fill-opacity="1" /><path clip-path="url(#clip720)" d="M436.419 158.293 L444.058 158.293 L444.058 131.928 L435.748 133.595 L435.748 129.335 L444.011 127.669 L448.687 127.669 L448.687 158.293 L456.326 158.293 L456.326 162.229 L436.419 162.229 L436.419 158.293 Z" fill="#000000" fill-rule="nonzero" fill-opacity="1" /><path clip-path="url(#clip720)" d="M475.122 126.21 L475.122 168.479 L465.308 168.479 L465.308 165.168 L470.84 165.168 L470.84 129.52 L465.308 129.52 L465.308 126.21 L475.122 126.21 Z" fill="#000000" fill-rule="nonzero" fill-opacity="1" /><polyline clip-path="url(#clip720)" style="stroke:#e26f46; stroke-linecap:round; stroke-linejoin:round; stroke-width:12; stroke-opacity:1; fill:none" points="211.758,196.789 361.13,196.789 "/>
<path clip-path="url(#clip720)" d="M386.026 203.837 L386.026 188.143 L390.285 188.143 L390.285 203.675 Q390.285 207.356 391.72 209.208 Q393.155 211.036 396.026 211.036 Q399.475 211.036 401.465 208.837 Q403.479 206.638 403.479 202.842 L403.479 188.143 L407.739 188.143 L407.739 214.069 L403.479 214.069 L403.479 210.087 Q401.928 212.448 399.868 213.606 Q397.831 214.74 395.123 214.74 Q390.655 214.74 388.34 211.962 Q386.026 209.184 386.026 203.837 M396.743 187.518 L396.743 187.518 Z" fill="#000000" fill-rule="nonzero" fill-opacity="1" /><path clip-path="url(#clip720)" d="M416.118 178.05 L425.933 178.05 L425.933 181.36 L420.377 181.36 L420.377 217.008 L425.933 217.008 L425.933 220.319 L416.118 220.319 L416.118 178.05 Z" fill="#000000" fill-rule="nonzero" fill-opacity="1" /><path clip-path="url(#clip720)" d="M439.637 210.133 L455.956 210.133 L455.956 214.069 L434.012 214.069 L434.012 210.133 Q436.674 207.379 441.257 202.749 Q445.863 198.096 447.044 196.754 Q449.289 194.231 450.169 192.495 Q451.072 190.735 451.072 189.046 Q451.072 186.291 449.127 184.555 Q447.206 182.819 444.104 182.819 Q441.905 182.819 439.451 183.583 Q437.021 184.347 434.243 185.897 L434.243 181.175 Q437.067 180.041 439.521 179.462 Q441.974 178.884 444.011 178.884 Q449.382 178.884 452.576 181.569 Q455.771 184.254 455.771 188.745 Q455.771 190.874 454.961 192.796 Q454.173 194.694 452.067 197.286 Q451.488 197.958 448.386 201.175 Q445.285 204.37 439.637 210.133 Z" fill="#000000" fill-rule="nonzero" fill-opacity="1" /><path clip-path="url(#clip720)" d="M475.122 178.05 L475.122 220.319 L465.308 220.319 L465.308 217.008 L470.84 217.008 L470.84 181.36 L465.308 181.36 L465.308 178.05 L475.122 178.05 Z" fill="#000000" fill-rule="nonzero" fill-opacity="1" /><polyline clip-path="url(#clip720)" style="stroke:#3da44d; stroke-linecap:round; stroke-linejoin:round; stroke-width:12; stroke-opacity:1; fill:none" stroke-dasharray="48, 30" points="211.758,248.629 361.13,248.629 "/>
<path clip-path="url(#clip720)" d="M386.026 255.677 L386.026 239.983 L390.285 239.983 L390.285 255.515 Q390.285 259.196 391.72 261.048 Q393.155 262.876 396.026 262.876 Q399.475 262.876 401.465 260.677 Q403.479 258.478 403.479 254.682 L403.479 239.983 L407.739 239.983 L407.739 265.909 L403.479 265.909 L403.479 261.927 Q401.928 264.288 399.868 265.446 Q397.831 266.58 395.123 266.58 Q390.655 266.58 388.34 263.802 Q386.026 261.024 386.026 255.677 M396.743 239.358 L396.743 239.358 Z" fill="#000000" fill-rule="nonzero" fill-opacity="1" /><path clip-path="url(#clip720)" d="M416.118 229.89 L425.933 229.89 L425.933 233.2 L420.377 233.2 L420.377 268.848 L425.933 268.848 L425.933 272.159 L416.118 272.159 L416.118 229.89 Z" fill="#000000" fill-rule="nonzero" fill-opacity="1" /><path clip-path="url(#clip720)" d="M436.419 261.973 L444.058 261.973 L444.058 235.608 L435.748 237.275 L435.748 233.015 L444.011 231.349 L448.687 231.349 L448.687 261.973 L456.326 261.973 L456.326 265.909 L436.419 265.909 L436.419 261.973 Z" fill="#000000" fill-rule="nonzero" fill-opacity="1" /><path clip-path="url(#clip720)" d="M475.122 229.89 L475.122 272.159 L465.308 272.159 L465.308 268.848 L470.84 268.848 L470.84 233.2 L465.308 233.2 L465.308 229.89 L475.122 229.89 Z" fill="#000000" fill-rule="nonzero" fill-opacity="1" /><polyline clip-path="url(#clip720)" style="stroke:#c271d2; stroke-linecap:round; stroke-linejoin:round; stroke-width:12; stroke-opacity:1; fill:none" stroke-dasharray="48, 30" points="211.758,300.469 361.13,300.469 "/>
<path clip-path="url(#clip720)" d="M386.026 307.517 L386.026 291.823 L390.285 291.823 L390.285 307.355 Q390.285 311.036 391.72 312.888 Q393.155 314.716 396.026 314.716 Q399.475 314.716 401.465 312.517 Q403.479 310.318 403.479 306.522 L403.479 291.823 L407.739 291.823 L407.739 317.749 L403.479 317.749 L403.479 313.767 Q401.928 316.128 399.868 317.286 Q397.831 318.42 395.123 318.42 Q390.655 318.42 388.34 315.642 Q386.026 312.864 386.026 307.517 M396.743 291.198 L396.743 291.198 Z" fill="#000000" fill-rule="nonzero" fill-opacity="1" /><path clip-path="url(#clip720)" d="M416.118 281.73 L425.933 281.73 L425.933 285.04 L420.377 285.04 L420.377 320.688 L425.933 320.688 L425.933 323.999 L416.118 323.999 L416.118 281.73 Z" fill="#000000" fill-rule="nonzero" fill-opacity="1" /><path clip-path="url(#clip720)" d="M439.637 313.813 L455.956 313.813 L455.956 317.749 L434.012 317.749 L434.012 313.813 Q436.674 311.059 441.257 306.429 Q445.863 301.776 447.044 300.434 Q449.289 297.911 450.169 296.175 Q451.072 294.415 451.072 292.726 Q451.072 289.971 449.127 288.235 Q447.206 286.499 444.104 286.499 Q441.905 286.499 439.451 287.263 Q437.021 288.027 434.243 289.577 L434.243 284.855 Q437.067 283.721 439.521 283.142 Q441.974 282.564 444.011 282.564 Q449.382 282.564 452.576 285.249 Q455.771 287.934 455.771 292.425 Q455.771 294.554 454.961 296.476 Q454.173 298.374 452.067 300.966 Q451.488 301.638 448.386 304.855 Q445.285 308.05 439.637 313.813 Z" fill="#000000" fill-rule="nonzero" fill-opacity="1" /><path clip-path="url(#clip720)" d="M475.122 281.73 L475.122 323.999 L465.308 323.999 L465.308 320.688 L470.84 320.688 L470.84 285.04 L465.308 285.04 L465.308 281.73 L475.122 281.73 Z" fill="#000000" fill-rule="nonzero" fill-opacity="1" /></svg>
