<?xml version="1.0" encoding="utf-8"?>
<svg xmlns="http://www.w3.org/2000/svg" xmlns:xlink="http://www.w3.org/1999/xlink" width="600" height="400" viewBox="0 0 2400 1600">
<defs>
  <clipPath id="clip670">
    <rect x="0" y="0" width="2400" height="1600"/>
  </clipPath>
</defs>
<path clip-path="url(#clip670)" d="M0 1600 L2400 1600 L2400 0 L0 0  Z" fill="#ffffff" fill-rule="evenodd" fill-opacity="1"/>
<defs>
  <clipPath id="clip671">
    <rect x="480" y="0" width="1681" height="1600"/>
  </clipPath>
</defs>
<path clip-path="url(#clip670)" d="M112.177 1423.18 L2352.76 1423.18 L2352.76 47.2441 L112.177 47.2441  Z" fill="#ffffff" fill-rule="evenodd" fill-opacity="1"/>
<defs>
  <clipPath id="clip672">
    <rect x="112" y="47" width="2242" height="1377"/>
  </clipPath>
</defs>
<polyline clip-path="url(#clip672)" style="stroke:#000000; stroke-linecap:round; stroke-linejoin:round; stroke-width:2; stroke-opacity:0.1; fill:none" points="112.177,1423.18 112.177,47.2441 "/>
<polyline clip-path="url(#clip672)" style="stroke:#000000; stroke-linecap:round; stroke-linejoin:round; stroke-width:2; stroke-opacity:0.1; fill:none" points="672.322,1423.18 672.322,47.2441 "/>
<polyline clip-path="url(#clip672)" style="stroke:#000000; stroke-linecap:round; stroke-linejoin:round; stroke-width:2; stroke-opacity:0.1; fill:none" points="1232.47,1423.18 1232.47,47.2441 "/>
<polyline clip-path="url(#clip672)" style="stroke:#000000; stroke-linecap:round; stroke-linejoin:round; stroke-width:2; stroke-opacity:0.1; fill:none" points="1792.61,1423.18 1792.61,47.2441 "/>
<polyline clip-path="url(#clip672)" style="stroke:#000000; stroke-linecap:round; stroke-linejoin:round; stroke-width:2; stroke-opacity:0.1; fill:none" points="2352.76,1423.18 2352.76,47.2441 "/>
<polyline clip-path="url(#clip670)" style="stroke:#000000; stroke-linecap:round; stroke-linejoin:round; stroke-width:4; stroke-opacity:1; fill:none" points="112.177,1423.18 2352.76,1423.18 "/>
<polyline clip-path="url(#clip670)" style="stroke:#000000; stroke-linecap:round; stroke-linejoin:round; stroke-width:4; stroke-opacity:1; fill:none" points="112.177,1423.18 112.177,1404.28 "/>
<polyline clip-path="url(#clip670)" style="stroke:#000000; stroke-linecap:round; stroke-linejoin:round; stroke-width:4; stroke-opacity:1; fill:none" points="672.322,1423.18 672.322,1404.28 "/>
<polyline clip-path="url(#clip670)" style="stroke:#000000; stroke-linecap:round; stroke-linejoin:round; stroke-width:4; stroke-opacity:1; fill:none" points="1232.47,1423.18 1232.47,1404.28 "/>
<polyline clip-path="url(#clip670)" style="stroke:#000000; stroke-linecap:round; stroke-linejoin:round; stroke-width:4; stroke-opacity:1; fill:none" points="1792.61,1423.18 1792.61,1404.28 "/>
<polyline clip-path="url(#clip670)" style="stroke:#000000; stroke-linecap:round; stroke-linejoin:round; stroke-width:4; stroke-opacity:1; fill:none" points="2352.76,1423.18 2352.76,1404.28 "/>
<path clip-path="url(#clip670)" d="M89.5616 1454.1 Q85.9505 1454.1 84.1218 1457.66 Q82.3162 1461.2 82.3162 1468.33 Q82.3162 1475.44 84.1218 1479.01 Q85.9505 1482.55 89.5616 1482.55 Q93.1958 1482.55 95.0013 1479.01 Q96.83 1475.44 96.83 1468.33 Q96.83 1461.2 95.0013 1457.66 Q93.1958 1454.1 89.5616 1454.1 M89.5616 1450.39 Q95.3717 1450.39 98.4272 1455 Q101.506 1459.58 101.506 1468.33 Q101.506 1477.06 98.4272 1481.67 Q95.3717 1486.25 89.5616 1486.25 Q83.7514 1486.25 80.6727 1481.67 Q77.6172 1477.06 77.6172 1468.33 Q77.6172 1459.58 80.6727 1455 Q83.7514 1450.39 89.5616 1450.39 Z" fill="#000000" fill-rule="nonzero" fill-opacity="1" /><path clip-path="url(#clip670)" d="M109.723 1479.7 L114.608 1479.7 L114.608 1485.58 L109.723 1485.58 L109.723 1479.7 Z" fill="#000000" fill-rule="nonzero" fill-opacity="1" /><path clip-path="url(#clip670)" d="M134.793 1454.1 Q131.182 1454.1 129.353 1457.66 Q127.547 1461.2 127.547 1468.33 Q127.547 1475.44 129.353 1479.01 Q131.182 1482.55 134.793 1482.55 Q138.427 1482.55 140.233 1479.01 Q142.061 1475.44 142.061 1468.33 Q142.061 1461.2 140.233 1457.66 Q138.427 1454.1 134.793 1454.1 M134.793 1450.39 Q140.603 1450.39 143.658 1455 Q146.737 1459.58 146.737 1468.33 Q146.737 1477.06 143.658 1481.67 Q140.603 1486.25 134.793 1486.25 Q128.983 1486.25 125.904 1481.67 Q122.848 1477.06 122.848 1468.33 Q122.848 1459.58 125.904 1455 Q128.983 1450.39 134.793 1450.39 Z" fill="#000000" fill-rule="nonzero" fill-opacity="1" /><path clip-path="url(#clip670)" d="M650.204 1454.1 Q646.593 1454.1 644.764 1457.66 Q642.959 1461.2 642.959 1468.33 Q642.959 1475.44 644.764 1479.01 Q646.593 1482.55 650.204 1482.55 Q653.838 1482.55 655.644 1479.01 Q657.472 1475.44 657.472 1468.33 Q657.472 1461.2 655.644 1457.66 Q653.838 1454.1 650.204 1454.1 M650.204 1450.39 Q656.014 1450.39 659.07 1455 Q662.148 1459.58 662.148 1468.33 Q662.148 1477.06 659.07 1481.67 Q656.014 1486.25 650.204 1486.25 Q644.394 1486.25 641.315 1481.67 Q638.26 1477.06 638.26 1468.33 Q638.26 1459.58 641.315 1455 Q644.394 1450.39 650.204 1450.39 Z" fill="#000000" fill-rule="nonzero" fill-opacity="1" /><path clip-path="url(#clip670)" d="M670.366 1479.7 L675.25 1479.7 L675.25 1485.58 L670.366 1485.58 L670.366 1479.7 Z" fill="#000000" fill-rule="nonzero" fill-opacity="1" /><path clip-path="url(#clip670)" d="M685.482 1451.02 L703.838 1451.02 L703.838 1454.96 L689.764 1454.96 L689.764 1463.43 Q690.782 1463.08 691.801 1462.92 Q692.819 1462.73 693.838 1462.73 Q699.625 1462.73 703.005 1465.9 Q706.384 1469.08 706.384 1474.49 Q706.384 1480.07 702.912 1483.17 Q699.44 1486.25 693.12 1486.25 Q690.944 1486.25 688.676 1485.88 Q686.431 1485.51 684.023 1484.77 L684.023 1480.07 Q686.107 1481.2 688.329 1481.76 Q690.551 1482.32 693.028 1482.32 Q697.032 1482.32 699.37 1480.21 Q701.708 1478.1 701.708 1474.49 Q701.708 1470.88 699.37 1468.77 Q697.032 1466.67 693.028 1466.67 Q691.153 1466.67 689.278 1467.08 Q687.426 1467.5 685.482 1468.38 L685.482 1451.02 Z" fill="#000000" fill-rule="nonzero" fill-opacity="1" /><path clip-path="url(#clip670)" d="M1199.62 1481.64 L1207.26 1481.64 L1207.26 1455.28 L1198.95 1456.95 L1198.95 1452.69 L1207.21 1451.02 L1211.89 1451.02 L1211.89 1481.64 L1219.53 1481.64 L1219.53 1485.58 L1199.62 1485.58 L1199.62 1481.64 Z" fill="#000000" fill-rule="nonzero" fill-opacity="1" /><path clip-path="url(#clip670)" d="M1228.97 1479.7 L1233.86 1479.7 L1233.86 1485.58 L1228.97 1485.58 L1228.97 1479.7 Z" fill="#000000" fill-rule="nonzero" fill-opacity="1" /><path clip-path="url(#clip670)" d="M1254.04 1454.1 Q1250.43 1454.1 1248.6 1457.66 Q1246.8 1461.2 1246.8 1468.33 Q1246.8 1475.44 1248.6 1479.01 Q1250.43 1482.55 1254.04 1482.55 Q1257.67 1482.55 1259.48 1479.01 Q1261.31 1475.44 1261.31 1468.33 Q1261.31 1461.2 1259.48 1457.66 Q1257.67 1454.1 1254.04 1454.1 M1254.04 1450.39 Q1259.85 1450.39 1262.91 1455 Q1265.98 1459.58 1265.98 1468.33 Q1265.98 1477.06 1262.91 1481.67 Q1259.85 1486.25 1254.04 1486.25 Q1248.23 1486.25 1245.15 1481.67 Q1242.1 1477.06 1242.1 1468.33 Q1242.1 1459.58 1245.15 1455 Q1248.23 1450.39 1254.04 1450.39 Z" fill="#000000" fill-rule="nonzero" fill-opacity="1" /><path clip-path="url(#clip670)" d="M1760.26 1481.64 L1767.9 1481.64 L1767.9 1455.28 L1759.59 1456.95 L1759.59 1452.69 L1767.85 1451.02 L1772.53 1451.02 L1772.53 1481.64 L1780.17 1481.64 L1780.17 1485.58 L1760.26 1485.58 L1760.26 1481.64 Z" fill="#000000" fill-rule="nonzero" fill-opacity="1" /><path clip-path="url(#clip670)" d="M1789.61 1479.7 L1794.5 1479.7 L1794.5 1485.58 L1789.61 1485.58 L1789.61 1479.7 Z" fill="#000000" fill-rule="nonzero" fill-opacity="1" /><path clip-path="url(#clip670)" d="M1804.73 1451.02 L1823.09 1451.02 L1823.09 1454.96 L1809.01 1454.96 L1809.01 1463.43 Q1810.03 1463.08 1811.05 1462.92 Q1812.07 1462.73 1813.09 1462.73 Q1818.87 1462.73 1822.25 1465.9 Q1825.63 1469.08 1825.63 1474.49 Q1825.63 1480.07 1822.16 1483.17 Q1818.69 1486.25 1812.37 1486.25 Q1810.19 1486.25 1807.92 1485.88 Q1805.68 1485.51 1803.27 1484.77 L1803.27 1480.07 Q1805.35 1481.2 1807.58 1481.76 Q1809.8 1482.32 1812.28 1482.32 Q1816.28 1482.32 1818.62 1480.21 Q1820.96 1478.1 1820.96 1474.49 Q1820.96 1470.88 1818.62 1468.77 Q1816.28 1466.67 1812.28 1466.67 Q1810.4 1466.67 1808.53 1467.08 Q1806.67 1467.5 1804.73 1468.38 L1804.73 1451.02 Z" fill="#000000" fill-rule="nonzero" fill-opacity="1" /><path clip-path="url(#clip670)" d="M2323.99 1481.64 L2340.31 1481.64 L2340.31 1485.58 L2318.37 1485.58 L2318.37 1481.64 Q2321.03 1478.89 2325.61 1474.26 Q2330.22 1469.61 2331.4 1468.27 Q2333.65 1465.74 2334.53 1464.01 Q2335.43 1462.25 2335.43 1460.56 Q2335.43 1457.8 2333.49 1456.07 Q2331.56 1454.33 2328.46 1454.33 Q2326.26 1454.33 2323.81 1455.09 Q2321.38 1455.86 2318.6 1457.41 L2318.6 1452.69 Q2321.43 1451.55 2323.88 1450.97 Q2326.33 1450.39 2328.37 1450.39 Q2333.74 1450.39 2336.93 1453.08 Q2340.13 1455.77 2340.13 1460.26 Q2340.13 1462.39 2339.32 1464.31 Q2338.53 1466.2 2336.42 1468.8 Q2335.85 1469.47 2332.74 1472.69 Q2329.64 1475.88 2323.99 1481.64 Z" fill="#000000" fill-rule="nonzero" fill-opacity="1" /><path clip-path="url(#clip670)" d="M2350.13 1479.7 L2355.01 1479.7 L2355.01 1485.58 L2350.13 1485.58 L2350.13 1479.7 Z" fill="#000000" fill-rule="nonzero" fill-opacity="1" /><path clip-path="url(#clip670)" d="M2375.2 1454.1 Q2371.59 1454.1 2369.76 1457.66 Q2367.95 1461.2 2367.95 1468.33 Q2367.95 1475.44 2369.76 1479.01 Q2371.59 1482.55 2375.2 1482.55 Q2378.83 1482.55 2380.64 1479.01 Q2382.47 1475.44 2382.47 1468.33 Q2382.47 1461.2 2380.64 1457.66 Q2378.83 1454.1 2375.2 1454.1 M2375.2 1450.39 Q2381.01 1450.39 2384.06 1455 Q2387.14 1459.58 2387.14 1468.33 Q2387.14 1477.06 2384.06 1481.67 Q2381.01 1486.25 2375.2 1486.25 Q2369.39 1486.25 2366.31 1481.67 Q2363.25 1477.06 2363.25 1468.33 Q2363.25 1459.58 2366.31 1455 Q2369.39 1450.39 2375.2 1450.39 Z" fill="#000000" fill-rule="nonzero" fill-opacity="1" /><path clip-path="url(#clip670)" d="M1231.53 1522.27 L1231.53 1532.4 L1243.59 1532.4 L1243.59 1536.95 L1231.53 1536.95 L1231.53 1556.3 Q1231.53 1560.66 1232.71 1561.9 Q1233.91 1563.14 1237.58 1563.14 L1243.59 1563.14 L1243.59 1568.04 L1237.58 1568.04 Q1230.8 1568.04 1228.22 1565.53 Q1225.64 1562.98 1225.64 1556.3 L1225.64 1536.95 L1221.34 1536.95 L1221.34 1532.4 L1225.64 1532.4 L1225.64 1522.27 L1231.53 1522.27 Z" fill="#000000" fill-rule="nonzero" fill-opacity="1" /><polyline clip-path="url(#clip672)" style="stroke:#000000; stroke-linecap:round; stroke-linejoin:round; stroke-width:2; stroke-opacity:0.1; fill:none" points="112.177,1238.94 2352.76,1238.94 "/>
<polyline clip-path="url(#clip672)" style="stroke:#000000; stroke-linecap:round; stroke-linejoin:round; stroke-width:2; stroke-opacity:0.1; fill:none" points="112.177,1043.26 2352.76,1043.26 "/>
<polyline clip-path="url(#clip672)" style="stroke:#000000; stroke-linecap:round; stroke-linejoin:round; stroke-width:2; stroke-opacity:0.1; fill:none" points="112.177,847.584 2352.76,847.584 "/>
<polyline clip-path="url(#clip672)" style="stroke:#000000; stroke-linecap:round; stroke-linejoin:round; stroke-width:2; stroke-opacity:0.1; fill:none" points="112.177,651.904 2352.76,651.904 "/>
<polyline clip-path="url(#clip672)" style="stroke:#000000; stroke-linecap:round; stroke-linejoin:round; stroke-width:2; stroke-opacity:0.1; fill:none" points="112.177,456.223 2352.76,456.223 "/>
<polyline clip-path="url(#clip672)" style="stroke:#000000; stroke-linecap:round; stroke-linejoin:round; stroke-width:2; stroke-opacity:0.1; fill:none" points="112.177,260.543 2352.76,260.543 "/>
<polyline clip-path="url(#clip672)" style="stroke:#000000; stroke-linecap:round; stroke-linejoin:round; stroke-width:2; stroke-opacity:0.1; fill:none" points="112.177,64.8628 2352.76,64.8628 "/>
<polyline clip-path="url(#clip670)" style="stroke:#000000; stroke-linecap:round; stroke-linejoin:round; stroke-width:4; stroke-opacity:1; fill:none" points="112.177,1423.18 112.177,47.2441 "/>
<polyline clip-path="url(#clip670)" style="stroke:#000000; stroke-linecap:round; stroke-linejoin:round; stroke-width:4; stroke-opacity:1; fill:none" points="112.177,1238.94 131.075,1238.94 "/>
<polyline clip-path="url(#clip670)" style="stroke:#000000; stroke-linecap:round; stroke-linejoin:round; stroke-width:4; stroke-opacity:1; fill:none" points="112.177,1043.26 131.075,1043.26 "/>
<polyline clip-path="url(#clip670)" style="stroke:#000000; stroke-linecap:round; stroke-linejoin:round; stroke-width:4; stroke-opacity:1; fill:none" points="112.177,847.584 131.075,847.584 "/>
<polyline clip-path="url(#clip670)" style="stroke:#000000; stroke-linecap:round; stroke-linejoin:round; stroke-width:4; stroke-opacity:1; fill:none" points="112.177,651.904 131.075,651.904 "/>
<polyline clip-path="url(#clip670)" style="stroke:#000000; stroke-linecap:round; stroke-linejoin:round; stroke-width:4; stroke-opacity:1; fill:none" points="112.177,456.223 131.075,456.223 "/>
<polyline clip-path="url(#clip670)" style="stroke:#000000; stroke-linecap:round; stroke-linejoin:round; stroke-width:4; stroke-opacity:1; fill:none" points="112.177,260.543 131.075,260.543 "/>
<polyline clip-path="url(#clip670)" style="stroke:#000000; stroke-linecap:round; stroke-linejoin:round; stroke-width:4; stroke-opacity:1; fill:none" points="112.177,64.8628 131.075,64.8628 "/>
<path clip-path="url(#clip670)" d="M56.2699 1252.29 L63.9087 1252.29 L63.9087 1225.92 L55.5986 1227.59 L55.5986 1223.33 L63.8624 1221.66 L68.5383 1221.66 L68.5383 1252.29 L76.1772 1252.29 L76.1772 1256.22 L56.2699 1256.22 L56.2699 1252.29 Z" fill="#000000" fill-rule="nonzero" fill-opacity="1" /><path clip-path="url(#clip670)" d="M59.8578 1056.61 L76.1772 1056.61 L76.1772 1060.54 L54.2328 1060.54 L54.2328 1056.61 Q56.8949 1053.85 61.4782 1049.23 Q66.0846 1044.57 67.2652 1043.23 Q69.5105 1040.71 70.3902 1038.97 Q71.2929 1037.21 71.2929 1035.52 Q71.2929 1032.77 69.3485 1031.03 Q67.4272 1029.29 64.3254 1029.29 Q62.1263 1029.29 59.6726 1030.06 Q57.2421 1030.82 54.4643 1032.37 L54.4643 1027.65 Q57.2884 1026.52 59.7421 1025.94 Q62.1958 1025.36 64.2328 1025.36 Q69.6031 1025.36 72.7976 1028.04 Q75.992 1030.73 75.992 1035.22 Q75.992 1037.35 75.1818 1039.27 Q74.3948 1041.17 72.2883 1043.76 Q71.7096 1044.43 68.6078 1047.65 Q65.5059 1050.85 59.8578 1056.61 Z" fill="#000000" fill-rule="nonzero" fill-opacity="1" /><path clip-path="url(#clip670)" d="M69.0476 846.23 Q72.404 846.948 74.279 849.216 Q76.1772 851.485 76.1772 854.818 Q76.1772 859.934 72.6587 862.735 Q69.1402 865.536 62.6587 865.536 Q60.4828 865.536 58.168 865.096 Q55.8764 864.679 53.4227 863.823 L53.4227 859.309 Q55.3671 860.443 57.6819 861.022 Q59.9967 861.6 62.5198 861.6 Q66.918 861.6 69.2096 859.864 Q71.5244 858.128 71.5244 854.818 Q71.5244 851.762 69.3717 850.049 Q67.242 848.313 63.4226 848.313 L59.3949 848.313 L59.3949 844.471 L63.6078 844.471 Q67.0569 844.471 68.8855 843.105 Q70.7142 841.716 70.7142 839.124 Q70.7142 836.462 68.8161 835.05 Q66.9411 833.614 63.4226 833.614 Q61.5013 833.614 59.3023 834.031 Q57.1032 834.448 54.4643 835.327 L54.4643 831.161 Q57.1264 830.42 59.4412 830.05 Q61.7791 829.679 63.8393 829.679 Q69.1633 829.679 72.2652 832.11 Q75.367 834.517 75.367 838.638 Q75.367 841.508 73.7235 843.499 Q72.08 845.466 69.0476 846.23 Z" fill="#000000" fill-rule="nonzero" fill-opacity="1" /><path clip-path="url(#clip670)" d="M66.5939 638.698 L54.7884 657.147 L66.5939 657.147 L66.5939 638.698 M65.367 634.624 L71.2466 634.624 L71.2466 657.147 L76.1772 657.147 L76.1772 661.036 L71.2466 661.036 L71.2466 669.184 L66.5939 669.184 L66.5939 661.036 L50.9921 661.036 L50.9921 656.522 L65.367 634.624 Z" fill="#000000" fill-rule="nonzero" fill-opacity="1" /><path clip-path="url(#clip670)" d="M55.2745 438.943 L73.6309 438.943 L73.6309 442.879 L59.5569 442.879 L59.5569 451.351 Q60.5754 451.004 61.5939 450.842 Q62.6124 450.656 63.6309 450.656 Q69.418 450.656 72.7976 453.828 Q76.1772 456.999 76.1772 462.416 Q76.1772 467.994 72.705 471.096 Q69.2328 474.175 62.9134 474.175 Q60.7374 474.175 58.4689 473.804 Q56.2236 473.434 53.8162 472.693 L53.8162 467.994 Q55.8995 469.129 58.1217 469.684 Q60.3439 470.24 62.8208 470.24 Q66.8254 470.24 69.1633 468.133 Q71.5013 466.027 71.5013 462.416 Q71.5013 458.805 69.1633 456.698 Q66.8254 454.592 62.8208 454.592 Q60.9458 454.592 59.0708 455.008 Q57.2189 455.425 55.2745 456.305 L55.2745 438.943 Z" fill="#000000" fill-rule="nonzero" fill-opacity="1" /><path clip-path="url(#clip670)" d="M64.6495 258.68 Q61.5013 258.68 59.6495 260.832 Q57.8208 262.985 57.8208 266.735 Q57.8208 270.462 59.6495 272.638 Q61.5013 274.791 64.6495 274.791 Q67.7976 274.791 69.6263 272.638 Q71.4781 270.462 71.4781 266.735 Q71.4781 262.985 69.6263 260.832 Q67.7976 258.68 64.6495 258.68 M73.9318 244.027 L73.9318 248.286 Q72.1726 247.453 70.367 247.013 Q68.5846 246.573 66.8254 246.573 Q62.1958 246.573 59.7421 249.698 Q57.3115 252.823 56.9643 259.143 Q58.33 257.129 60.3902 256.064 Q62.4504 254.976 64.9272 254.976 Q70.1355 254.976 73.1448 258.147 Q76.1772 261.295 76.1772 266.735 Q76.1772 272.059 73.029 275.277 Q69.8809 278.494 64.6495 278.494 Q58.6541 278.494 55.4828 273.911 Q52.3116 269.305 52.3116 260.578 Q52.3116 252.383 56.2004 247.522 Q60.0893 242.638 66.6402 242.638 Q68.3994 242.638 70.1818 242.985 Q71.9874 243.333 73.9318 244.027 Z" fill="#000000" fill-rule="nonzero" fill-opacity="1" /><path clip-path="url(#clip670)" d="M53.9551 47.5828 L76.1772 47.5828 L76.1772 49.5735 L63.6309 82.1428 L58.7467 82.1428 L70.5522 51.5179 L53.9551 51.5179 L53.9551 47.5828 Z" fill="#000000" fill-rule="nonzero" fill-opacity="1" /><polyline clip-path="url(#clip672)" style="stroke:#009af9; stroke-linecap:round; stroke-linejoin:round; stroke-width:12; stroke-opacity:1; fill:none" points="112.177,1238.94 224.206,1226.99 336.235,1210.76 448.264,1190.19 560.293,1165.05 672.322,1134.99 784.351,1099.57 896.38,1058.22 1008.41,1010.31 1120.44,955.159 1232.47,892.038 1344.5,820.241 1456.52,739.197 1568.55,648.68 1680.58,549.042 1792.61,441.665 1904.64,330.613 2016.67,222.88 2128.7,133.563 2240.73,86.1857 2352.76,109.138 "/>
<polyline clip-path="url(#clip672)" style="stroke:#e26f46; stroke-linecap:round; stroke-linejoin:round; stroke-width:12; stroke-opacity:1; fill:none" points="112.177,1238.94 224.206,1273.96 336.235,1301.75 448.264,1323.7 560.293,1340.93 672.322,1354.37 784.351,1364.72 896.38,1372.53 1008.41,1378.19 1120.44,1381.98 1232.47,1384 1344.5,1384.24 1456.52,1382.49 1568.55,1378.24 1680.58,1370.58 1792.61,1358.03 1904.64,1337.66 2016.67,1305.06 2128.7,1251.58 2240.73,1166.47 2352.76,1040.34 "/>
<path clip-path="url(#clip670)" d="M186.863 248.629 L500.018 248.629 L500.018 93.1086 L186.863 93.1086  Z" fill="#ffffff" fill-rule="evenodd" fill-opacity="1"/>
<polyline clip-path="url(#clip670)" style="stroke:#000000; stroke-linecap:round; stroke-linejoin:round; stroke-width:4; stroke-opacity:1; fill:none" points="186.863,248.629 500.018,248.629 500.018,93.1086 186.863,93.1086 186.863,248.629 "/>
<polyline clip-path="url(#clip670)" style="stroke:#009af9; stroke-linecap:round; stroke-linejoin:round; stroke-width:12; stroke-opacity:1; fill:none" points="211.758,144.949 361.13,144.949 "/>
<path clip-path="url(#clip670)" d="M386.026 151.997 L386.026 136.303 L390.285 136.303 L390.285 151.835 Q390.285 155.516 391.72 157.368 Q393.155 159.196 396.026 159.196 Q399.475 159.196 401.465 156.997 Q403.479 154.798 403.479 151.002 L403.479 136.303 L407.739 136.303 L407.739 162.229 L403.479 162.229 L403.479 158.247 Q401.928 160.608 399.868 161.766 Q397.831 162.9 395.123 162.9 Q390.655 162.9 388.34 160.122 Q386.026 157.344 386.026 151.997 M396.743 135.678 L396.743 135.678 Z" fill="#000000" fill-rule="nonzero" fill-opacity="1" /><path clip-path="url(#clip670)" d="M416.118 126.21 L425.933 126.21 L425.933 129.52 L420.377 129.52 L420.377 165.168 L425.933 165.168 L425.933 168.479 L416.118 168.479 L416.118 126.21 Z" fill="#000000" fill-rule="nonzero" fill-opacity="1" /><path clip-path="url(#clip670)" d="M436.419 158.293 L444.058 158.293 L444.058 131.928 L435.748 133.595 L435.748 129.335 L444.011 127.669 L448.687 127.669 L448.687 158.293 L456.326 158.293 L456.326 162.229 L436.419 162.229 L436.419 158.293 Z" fill="#000000" fill-rule="nonzero" fill-opacity="1" /><path clip-path="url(#clip670)" d="M475.122 126.21 L475.122 168.479 L465.308 168.479 L465.308 165.168 L470.84 165.168 L470.84 129.52 L465.308 129.52 L465.308 126.21 L475.122 126.21 Z" fill="#000000" fill-rule="nonzero" fill-opacity="1" /><polyline clip-path="url(#clip670)" style="stroke:#e26f46; stroke-linecap:round; stroke-linejoin:round; stroke-width:12; stroke-opacity:1; fill:none" points="211.758,196.789 361.13,196.789 "/>
<path clip-path="url(#clip670)" d="M386.026 203.837 L386.026 188.143 L390.285 188.143 L390.285 203.675 Q390.285 207.356 391.72 209.208 Q393.155 211.036 396.026 211.036 Q399.475 211.036 401.465 208.837 Q403.479 206.638 403.479 202.842 L403.479 188.143 L407.739 188.143 L407.739 214.069 L403.479 214.069 L403.479 210.087 Q401.928 212.448 399.868 213.606 Q397.831 214.74 395.123 214.74 Q390.655 214.74 388.34 211.962 Q386.026 209.184 386.026 203.837 M396.743 187.518 L396.743 187.518 Z" fill="#000000" fill-rule="nonzero" fill-opacity="1" /><path clip-path="url(#clip670)" d="M416.118 178.05 L425.933 178.05 L425.933 181.36 L420.377 181.36 L420.377 217.008 L425.933 217.008 L425.933 220.319 L416.118 220.319 L416.118 178.05 Z" fill="#000000" fill-rule="nonzero" fill-opacity="1" /><path clip-path="url(#clip670)" d="M439.637 210.133 L455.956 210.133 L455.956 214.069 L434.012 214.069 L434.012 210.133 Q436.674 207.379 441.257 202.749 Q445.863 198.096 447.044 196.754 Q449.289 194.231 450.169 192.495 Q451.072 190.735 451.072 189.046 Q451.072 186.291 449.127 184.555 Q447.206 182.819 444.104 182.819 Q441.905 182.819 439.451 183.583 Q437.021 184.347 434.243 185.897 L434.243 181.175 Q437.067 180.041 439.521 179.462 Q441.974 178.884 444.011 178.884 Q449.382 178.884 452.576 181.569 Q455.771 184.254 455.771 188.745 Q455.771 190.874 454.961 192.796 Q454.173 194.694 452.067 197.286 Q451.488 197.958 448.386 201.175 Q445.285 204.37 439.637 210.133 Z" fill="#000000" fill-rule="nonzero" fill-opacity="1" /><path clip-path="url(#clip670)" d="M475.122 178.05 L475.122 220.319 L465.308 220.319 L465.308 217.008 L470.84 217.008 L470.84 181.36 L465.308 181.36 L465.308 178.05 L475.122 178.05 Z" fill="#000000" fill-rule="nonzero" fill-opacity="1" /></svg>
