<?xml version="1.0" encoding="utf-8"?>
<svg xmlns="http://www.w3.org/2000/svg" xmlns:xlink="http://www.w3.org/1999/xlink" width="600" height="400" viewBox="0 0 2400 1600">
<defs>
  <clipPath id="clip080">
    <rect x="0" y="0" width="2400" height="1600"/>
  </clipPath>
</defs>
<path clip-path="url(#clip080)" d="M0 1600 L2400 1600 L2400 0 L0 0  Z" fill="#ffffff" fill-rule="evenodd" fill-opacity="1"/>
<defs>
  <clipPath id="clip081">
    <rect x="480" y="0" width="1681" height="1600"/>
  </clipPath>
</defs>
<path clip-path="url(#clip080)" d="M140.696 1423.18 L2352.76 1423.18 L2352.76 47.2441 L140.696 47.2441  Z" fill="#ffffff" fill-rule="evenodd" fill-opacity="1"/>
<defs>
  <clipPath id="clip082">
    <rect x="140" y="47" width="2213" height="1377"/>
  </clipPath>
</defs>
<polyline clip-path="url(#clip082)" style="stroke:#000000; stroke-linecap:round; stroke-linejoin:round; stroke-width:2; stroke-opacity:0.1; fill:none" points="140.696,1423.18 140.696,47.2441 "/>
<polyline clip-path="url(#clip082)" style="stroke:#000000; stroke-linecap:round; stroke-linejoin:round; stroke-width:2; stroke-opacity:0.1; fill:none" points="583.108,1423.18 583.108,47.2441 "/>
<polyline clip-path="url(#clip082)" style="stroke:#000000; stroke-linecap:round; stroke-linejoin:round; stroke-width:2; stroke-opacity:0.1; fill:none" points="1025.52,1423.18 1025.52,47.2441 "/>
<polyline clip-path="url(#clip082)" style="stroke:#000000; stroke-linecap:round; stroke-linejoin:round; stroke-width:2; stroke-opacity:0.1; fill:none" points="1467.93,1423.18 1467.93,47.2441 "/>
<polyline clip-path="url(#clip082)" style="stroke:#000000; stroke-linecap:round; stroke-linejoin:round; stroke-width:2; stroke-opacity:0.1; fill:none" points="1910.34,1423.18 1910.34,47.2441 "/>
<polyline clip-path="url(#clip082)" style="stroke:#000000; stroke-linecap:round; stroke-linejoin:round; stroke-width:2; stroke-opacity:0.1; fill:none" points="2352.76,1423.18 2352.76,47.2441 "/>
<polyline clip-path="url(#clip080)" style="stroke:#000000; stroke-linecap:round; stroke-linejoin:round; stroke-width:4; stroke-opacity:1; fill:none" points="140.696,1423.18 2352.76,1423.18 "/>
<polyline clip-path="url(#clip080)" style="stroke:#000000; stroke-linecap:round; stroke-linejoin:round; stroke-width:4; stroke-opacity:1; fill:none" points="140.696,1423.18 140.696,1404.28 "/>
<polyline clip-path="url(#clip080)" style="stroke:#000000; stroke-linecap:round; stroke-linejoin:round; stroke-width:4; stroke-opacity:1; fill:none" points="583.108,1423.18 583.108,1404.28 "/>
<polyline clip-path="url(#clip080)" style="stroke:#000000; stroke-linecap:round; stroke-linejoin:round; stroke-width:4; stroke-opacity:1; fill:none" points="1025.52,1423.18 1025.52,1404.28 "/>
<polyline clip-path="url(#clip080)" style="stroke:#000000; stroke-linecap:round; stroke-linejoin:round; stroke-width:4; stroke-opacity:1; fill:none" points="1467.93,1423.18 1467.93,1404.28 "/>
<polyline clip-path="url(#clip080)" style="stroke:#000000; stroke-linecap:round; stroke-linejoin:round; stroke-width:4; stroke-opacity:1; fill:none" points="1910.34,1423.18 1910.34,1404.28 "/>
<polyline clip-path="url(#clip080)" style="stroke:#000000; stroke-linecap:round; stroke-linejoin:round; stroke-width:4; stroke-opacity:1; fill:none" points="2352.76,1423.18 2352.76,1404.28 "/>
<path clip-path="url(#clip080)" d="M140.696 1454.1 Q137.084 1454.1 135.256 1457.66 Q133.45 1461.2 133.45 1468.33 Q133.45 1475.44 135.256 1479.01 Q137.084 1482.55 140.696 1482.55 Q144.33 1482.55 146.135 1479.01 Q147.964 1475.44 147.964 1468.33 Q147.964 1461.2 146.135 1457.66 Q144.33 1454.1 140.696 1454.1 M140.696 1450.39 Q146.506 1450.39 149.561 1455 Q152.64 1459.58 152.64 1468.33 Q152.64 1477.06 149.561 1481.67 Q146.506 1486.25 140.696 1486.25 Q134.885 1486.25 131.807 1481.67 Q128.751 1477.06 128.751 1468.33 Q128.751 1459.58 131.807 1455 Q134.885 1450.39 140.696 1450.39 Z" fill="#000000" fill-rule="nonzero" fill-opacity="1" /><path clip-path="url(#clip080)" d="M577.76 1481.64 L594.08 1481.64 L594.08 1485.58 L572.135 1485.58 L572.135 1481.64 Q574.797 1478.89 579.381 1474.26 Q583.987 1469.61 585.168 1468.27 Q587.413 1465.74 588.293 1464.01 Q589.196 1462.25 589.196 1460.56 Q589.196 1457.8 587.251 1456.07 Q585.33 1454.33 582.228 1454.33 Q580.029 1454.33 577.575 1455.09 Q575.145 1455.86 572.367 1457.41 L572.367 1452.69 Q575.191 1451.55 577.645 1450.97 Q580.098 1450.39 582.135 1450.39 Q587.506 1450.39 590.7 1453.08 Q593.895 1455.77 593.895 1460.26 Q593.895 1462.39 593.084 1464.31 Q592.297 1466.2 590.191 1468.8 Q589.612 1469.47 586.51 1472.69 Q583.409 1475.88 577.76 1481.64 Z" fill="#000000" fill-rule="nonzero" fill-opacity="1" /><path clip-path="url(#clip080)" d="M1028.53 1455.09 L1016.72 1473.54 L1028.53 1473.54 L1028.53 1455.09 M1027.3 1451.02 L1033.18 1451.02 L1033.18 1473.54 L1038.11 1473.54 L1038.11 1477.43 L1033.18 1477.43 L1033.18 1485.58 L1028.53 1485.58 L1028.53 1477.43 L1012.93 1477.43 L1012.93 1472.92 L1027.3 1451.02 Z" fill="#000000" fill-rule="nonzero" fill-opacity="1" /><path clip-path="url(#clip080)" d="M1468.34 1466.44 Q1465.19 1466.44 1463.34 1468.59 Q1461.51 1470.74 1461.51 1474.49 Q1461.51 1478.22 1463.34 1480.39 Q1465.19 1482.55 1468.34 1482.55 Q1471.48 1482.55 1473.31 1480.39 Q1475.17 1478.22 1475.17 1474.49 Q1475.17 1470.74 1473.31 1468.59 Q1471.48 1466.44 1468.34 1466.44 M1477.62 1451.78 L1477.62 1456.04 Q1475.86 1455.21 1474.05 1454.77 Q1472.27 1454.33 1470.51 1454.33 Q1465.88 1454.33 1463.43 1457.45 Q1461 1460.58 1460.65 1466.9 Q1462.02 1464.89 1464.08 1463.82 Q1466.14 1462.73 1468.61 1462.73 Q1473.82 1462.73 1476.83 1465.9 Q1479.86 1469.05 1479.86 1474.49 Q1479.86 1479.82 1476.72 1483.03 Q1473.57 1486.25 1468.34 1486.25 Q1462.34 1486.25 1459.17 1481.67 Q1456 1477.06 1456 1468.33 Q1456 1460.14 1459.89 1455.28 Q1463.78 1450.39 1470.33 1450.39 Q1472.09 1450.39 1473.87 1450.74 Q1475.67 1451.09 1477.62 1451.78 Z" fill="#000000" fill-rule="nonzero" fill-opacity="1" /><path clip-path="url(#clip080)" d="M1910.34 1469.17 Q1907.01 1469.17 1905.09 1470.95 Q1903.19 1472.73 1903.19 1475.86 Q1903.19 1478.98 1905.09 1480.77 Q1907.01 1482.55 1910.34 1482.55 Q1913.68 1482.55 1915.6 1480.77 Q1917.52 1478.96 1917.52 1475.86 Q1917.52 1472.73 1915.6 1470.95 Q1913.7 1469.17 1910.34 1469.17 M1905.67 1467.18 Q1902.66 1466.44 1900.97 1464.38 Q1899.3 1462.32 1899.3 1459.35 Q1899.3 1455.21 1902.24 1452.8 Q1905.2 1450.39 1910.34 1450.39 Q1915.51 1450.39 1918.45 1452.8 Q1921.39 1455.21 1921.39 1459.35 Q1921.39 1462.32 1919.7 1464.38 Q1918.03 1466.44 1915.04 1467.18 Q1918.42 1467.96 1920.3 1470.26 Q1922.2 1472.55 1922.2 1475.86 Q1922.2 1480.88 1919.12 1483.57 Q1916.06 1486.25 1910.34 1486.25 Q1904.63 1486.25 1901.55 1483.57 Q1898.49 1480.88 1898.49 1475.86 Q1898.49 1472.55 1900.39 1470.26 Q1902.29 1467.96 1905.67 1467.18 M1903.95 1459.79 Q1903.95 1462.48 1905.62 1463.98 Q1907.31 1465.49 1910.34 1465.49 Q1913.35 1465.49 1915.04 1463.98 Q1916.76 1462.48 1916.76 1459.79 Q1916.76 1457.11 1915.04 1455.6 Q1913.35 1454.1 1910.34 1454.1 Q1907.31 1454.1 1905.62 1455.6 Q1903.95 1457.11 1903.95 1459.79 Z" fill="#000000" fill-rule="nonzero" fill-opacity="1" /><path clip-path="url(#clip080)" d="M2327.44 1481.64 L2335.08 1481.64 L2335.08 1455.28 L2326.77 1456.95 L2326.77 1452.69 L2335.04 1451.02 L2339.71 1451.02 L2339.71 1481.64 L2347.35 1481.64 L2347.35 1485.58 L2327.44 1485.58 L2327.44 1481.64 Z" fill="#000000" fill-rule="nonzero" fill-opacity="1" /><path clip-path="url(#clip080)" d="M2366.8 1454.1 Q2363.18 1454.1 2361.36 1457.66 Q2359.55 1461.2 2359.55 1468.33 Q2359.55 1475.44 2361.36 1479.01 Q2363.18 1482.55 2366.8 1482.55 Q2370.43 1482.55 2372.23 1479.01 Q2374.06 1475.44 2374.06 1468.33 Q2374.06 1461.2 2372.23 1457.66 Q2370.43 1454.1 2366.8 1454.1 M2366.8 1450.39 Q2372.61 1450.39 2375.66 1455 Q2378.74 1459.58 2378.74 1468.33 Q2378.74 1477.06 2375.66 1481.67 Q2372.61 1486.25 2366.8 1486.25 Q2360.99 1486.25 2357.91 1481.67 Q2354.85 1477.06 2354.85 1468.33 Q2354.85 1459.58 2357.91 1455 Q2360.99 1450.39 2366.8 1450.39 Z" fill="#000000" fill-rule="nonzero" fill-opacity="1" /><path clip-path="url(#clip080)" d="M1245.79 1522.27 L1245.79 1532.4 L1257.85 1532.4 L1257.85 1536.95 L1245.79 1536.95 L1245.79 1556.3 Q1245.79 1560.66 1246.96 1561.9 Q1248.17 1563.14 1251.83 1563.14 L1257.85 1563.14 L1257.85 1568.04 L1251.83 1568.04 Q1245.05 1568.04 1242.48 1565.53 Q1239.9 1562.98 1239.9 1556.3 L1239.9 1536.95 L1235.6 1536.95 L1235.6 1532.4 L1239.9 1532.4 L1239.9 1522.27 L1245.79 1522.27 Z" fill="#000000" fill-rule="nonzero" fill-opacity="1" /><polyline clip-path="url(#clip082)" style="stroke:#000000; stroke-linecap:round; stroke-linejoin:round; stroke-width:2; stroke-opacity:0.1; fill:none" points="140.696,1393.99 2352.76,1393.99 "/>
<polyline clip-path="url(#clip082)" style="stroke:#000000; stroke-linecap:round; stroke-linejoin:round; stroke-width:2; stroke-opacity:0.1; fill:none" points="140.696,1014.25 2352.76,1014.25 "/>
<polyline clip-path="url(#clip082)" style="stroke:#000000; stroke-linecap:round; stroke-linejoin:round; stroke-width:2; stroke-opacity:0.1; fill:none" points="140.696,634.506 2352.76,634.506 "/>
<polyline clip-path="url(#clip082)" style="stroke:#000000; stroke-linecap:round; stroke-linejoin:round; stroke-width:2; stroke-opacity:0.1; fill:none" points="140.696,254.762 2352.76,254.762 "/>
<polyline clip-path="url(#clip080)" style="stroke:#000000; stroke-linecap:round; stroke-linejoin:round; stroke-width:4; stroke-opacity:1; fill:none" points="140.696,1423.18 140.696,47.2441 "/>
<polyline clip-path="url(#clip080)" style="stroke:#000000; stroke-linecap:round; stroke-linejoin:round; stroke-width:4; stroke-opacity:1; fill:none" points="140.696,1393.99 159.593,1393.99 "/>
<polyline clip-path="url(#clip080)" style="stroke:#000000; stroke-linecap:round; stroke-linejoin:round; stroke-width:4; stroke-opacity:1; fill:none" points="140.696,1014.25 159.593,1014.25 "/>
<polyline clip-path="url(#clip080)" style="stroke:#000000; stroke-linecap:round; stroke-linejoin:round; stroke-width:4; stroke-opacity:1; fill:none" points="140.696,634.506 159.593,634.506 "/>
<polyline clip-path="url(#clip080)" style="stroke:#000000; stroke-linecap:round; stroke-linejoin:round; stroke-width:4; stroke-opacity:1; fill:none" points="140.696,254.762 159.593,254.762 "/>
<path clip-path="url(#clip080)" d="M92.7512 1379.79 Q89.1401 1379.79 87.3114 1383.36 Q85.5058 1386.9 85.5058 1394.03 Q85.5058 1401.13 87.3114 1404.7 Q89.1401 1408.24 92.7512 1408.24 Q96.3854 1408.24 98.1909 1404.7 Q100.02 1401.13 100.02 1394.03 Q100.02 1386.9 98.1909 1383.36 Q96.3854 1379.79 92.7512 1379.79 M92.7512 1376.09 Q98.5613 1376.09 101.617 1380.69 Q104.696 1385.28 104.696 1394.03 Q104.696 1402.75 101.617 1407.36 Q98.5613 1411.94 92.7512 1411.94 Q86.941 1411.94 83.8623 1407.36 Q80.8068 1402.75 80.8068 1394.03 Q80.8068 1385.28 83.8623 1380.69 Q86.941 1376.09 92.7512 1376.09 Z" fill="#000000" fill-rule="nonzero" fill-opacity="1" /><path clip-path="url(#clip080)" d="M53.3995 1027.59 L61.0384 1027.59 L61.0384 1001.23 L52.7282 1002.89 L52.7282 998.636 L60.9921 996.969 L65.668 996.969 L65.668 1027.59 L73.3068 1027.59 L73.3068 1031.53 L53.3995 1031.53 L53.3995 1027.59 Z" fill="#000000" fill-rule="nonzero" fill-opacity="1" /><path clip-path="url(#clip080)" d="M92.7512 1000.05 Q89.1401 1000.05 87.3114 1003.61 Q85.5058 1007.15 85.5058 1014.28 Q85.5058 1021.39 87.3114 1024.95 Q89.1401 1028.5 92.7512 1028.5 Q96.3854 1028.5 98.1909 1024.95 Q100.02 1021.39 100.02 1014.28 Q100.02 1007.15 98.1909 1003.61 Q96.3854 1000.05 92.7512 1000.05 M92.7512 996.344 Q98.5613 996.344 101.617 1000.95 Q104.696 1005.53 104.696 1014.28 Q104.696 1023.01 101.617 1027.62 Q98.5613 1032.2 92.7512 1032.2 Q86.941 1032.2 83.8623 1027.62 Q80.8068 1023.01 80.8068 1014.28 Q80.8068 1005.53 83.8623 1000.95 Q86.941 996.344 92.7512 996.344 Z" fill="#000000" fill-rule="nonzero" fill-opacity="1" /><path clip-path="url(#clip080)" d="M56.6171 647.85 L72.9365 647.85 L72.9365 651.786 L50.9921 651.786 L50.9921 647.85 Q53.6541 645.096 58.2375 640.466 Q62.8439 635.813 64.0245 634.471 Q66.2698 631.948 67.1494 630.212 Q68.0522 628.452 68.0522 626.763 Q68.0522 624.008 66.1078 622.272 Q64.1865 620.536 61.0847 620.536 Q58.8856 620.536 56.4319 621.3 Q54.0014 622.063 51.2236 623.614 L51.2236 618.892 Q54.0477 617.758 56.5014 617.179 Q58.955 616.601 60.9921 616.601 Q66.3624 616.601 69.5568 619.286 Q72.7513 621.971 72.7513 626.462 Q72.7513 628.591 71.9411 630.513 Q71.1541 632.411 69.0476 635.003 Q68.4689 635.675 65.367 638.892 Q62.2652 642.087 56.6171 647.85 Z" fill="#000000" fill-rule="nonzero" fill-opacity="1" /><path clip-path="url(#clip080)" d="M92.7512 620.304 Q89.1401 620.304 87.3114 623.869 Q85.5058 627.411 85.5058 634.54 Q85.5058 641.647 87.3114 645.211 Q89.1401 648.753 92.7512 648.753 Q96.3854 648.753 98.1909 645.211 Q100.02 641.647 100.02 634.54 Q100.02 627.411 98.1909 623.869 Q96.3854 620.304 92.7512 620.304 M92.7512 616.601 Q98.5613 616.601 101.617 621.207 Q104.696 625.79 104.696 634.54 Q104.696 643.267 101.617 647.874 Q98.5613 652.457 92.7512 652.457 Q86.941 652.457 83.8623 647.874 Q80.8068 643.267 80.8068 634.54 Q80.8068 625.79 83.8623 621.207 Q86.941 616.601 92.7512 616.601 Z" fill="#000000" fill-rule="nonzero" fill-opacity="1" /><path clip-path="url(#clip080)" d="M66.7559 253.408 Q70.1124 254.126 71.9874 256.394 Q73.8855 258.663 73.8855 261.996 Q73.8855 267.112 70.367 269.913 Q66.8485 272.714 60.3671 272.714 Q58.1912 272.714 55.8764 272.274 Q53.5847 271.857 51.131 271.001 L51.131 266.487 Q53.0754 267.621 55.3903 268.2 Q57.7051 268.778 60.2282 268.778 Q64.6263 268.778 66.918 267.042 Q69.2328 265.306 69.2328 261.996 Q69.2328 258.94 67.08 257.227 Q64.9504 255.491 61.131 255.491 L57.1032 255.491 L57.1032 251.649 L61.3161 251.649 Q64.7652 251.649 66.5939 250.283 Q68.4226 248.894 68.4226 246.302 Q68.4226 243.64 66.5245 242.228 Q64.6495 240.792 61.131 240.792 Q59.2097 240.792 57.0106 241.209 Q54.8115 241.626 52.1727 242.505 L52.1727 238.339 Q54.8347 237.598 57.1495 237.228 Q59.4875 236.857 61.5476 236.857 Q66.8717 236.857 69.9735 239.288 Q73.0753 241.695 73.0753 245.816 Q73.0753 248.686 71.4318 250.677 Q69.7883 252.644 66.7559 253.408 Z" fill="#000000" fill-rule="nonzero" fill-opacity="1" /><path clip-path="url(#clip080)" d="M92.7512 240.561 Q89.1401 240.561 87.3114 244.126 Q85.5058 247.667 85.5058 254.797 Q85.5058 261.903 87.3114 265.468 Q89.1401 269.01 92.7512 269.01 Q96.3854 269.01 98.1909 265.468 Q100.02 261.903 100.02 254.797 Q100.02 247.667 98.1909 244.126 Q96.3854 240.561 92.7512 240.561 M92.7512 236.857 Q98.5613 236.857 101.617 241.464 Q104.696 246.047 104.696 254.797 Q104.696 263.524 101.617 268.13 Q98.5613 272.714 92.7512 272.714 Q86.941 272.714 83.8623 268.13 Q80.8068 263.524 80.8068 254.797 Q80.8068 246.047 83.8623 241.464 Q86.941 236.857 92.7512 236.857 Z" fill="#000000" fill-rule="nonzero" fill-opacity="1" /><polyline clip-path="url(#clip082)" style="stroke:#009af9; stroke-linecap:round; stroke-linejoin:round; stroke-width:12; stroke-opacity:1; fill:none" points="140.696,1356.02 142.91,1355.82 145.124,1355.62 147.338,1355.41 149.553,1355.19 151.767,1354.96 153.981,1354.72 156.195,1354.48 158.41,1354.23 160.624,1353.97 162.838,1353.7 165.053,1353.42 167.267,1353.13 169.481,1352.84 171.695,1352.53 173.91,1352.22 176.124,1351.9 178.338,1351.58 180.552,1351.24 182.767,1350.89 184.981,1350.54 187.195,1350.18 189.41,1349.81 191.624,1349.43 193.838,1349.04 196.052,1348.65 198.267,1348.25 200.481,1347.83 202.695,1347.41 204.91,1346.98 207.124,1346.54 209.338,1346.09 211.552,1345.64 213.767,1345.17 215.981,1344.7 218.195,1344.21 220.409,1343.72 222.624,1343.22 224.838,1342.71 227.052,1342.19 229.267,1341.66 231.481,1341.12 233.695,1340.57 235.909,1340.01 238.124,1339.44 240.338,1338.86 242.552,1338.27 244.766,1337.67 246.981,1337.06 249.195,1336.44 251.409,1335.81 253.624,1335.17 255.838,1334.52 258.052,1333.86 260.266,1333.19 262.481,1332.51 264.695,1331.81 266.909,1331.11 269.123,1330.39 271.338,1329.66 273.552,1328.93 275.766,1328.17 277.981,1327.41 280.195,1326.64 282.409,1325.85 284.623,1325.06 286.838,1324.25 289.052,1323.43 291.266,1322.59 293.48,1321.74 295.695,1320.88 297.909,1320.01 300.123,1319.13 302.338,1318.23 304.552,1317.32 306.766,1316.39 308.98,1315.46 311.195,1314.51 313.409,1313.54 315.623,1312.56 317.838,1311.57 320.052,1310.56 322.266,1309.54 324.48,1308.51 326.695,1307.46 328.909,1306.39 331.123,1305.31 333.337,1304.22 335.552,1303.11 337.766,1301.98 339.98,1300.84 342.195,1299.69 344.409,1298.52 346.623,1297.33 348.837,1296.13 351.052,1294.91 353.266,1293.67 355.48,1292.42 357.694,1291.15 359.909,1289.87 362.123,1288.57 364.337,1287.25 366.552,1285.91 368.766,1284.56 370.98,1283.19 373.194,1281.8 375.409,1280.4 377.623,1278.97 379.837,1277.53 382.051,1276.08 384.266,1274.6 386.48,1273.11 388.694,1271.59 390.909,1270.06 393.123,1268.51 395.337,1266.95 397.551,1265.36 399.766,1263.76 401.98,1262.14 404.194,1260.49 406.408,1258.84 408.623,1257.16 410.837,1255.46 413.051,1253.75 415.266,1252.01 417.48,1250.26 419.694,1248.49 421.908,1246.7 424.123,1244.89 426.337,1243.07 428.551,1241.23 430.766,1239.37 432.98,1237.49 435.194,1235.6 437.408,1233.68 439.623,1231.75 441.837,1229.81 444.051,1227.84 446.265,1225.86 448.48,1223.86 450.694,1221.85 452.908,1219.82 455.123,1217.78 457.337,1215.72 459.551,1213.65 461.765,1211.56 463.98,1209.47 466.194,1207.36 468.408,1205.24 470.622,1203.11 472.837,1200.97 475.051,1198.83 477.265,1196.68 479.48,1194.52 481.694,1192.36 483.908,1190.2 486.122,1188.04 488.337,1185.88 490.551,1183.71 492.765,1181.55 494.979,1179.4 497.194,1177.25 499.408,1175.11 501.622,1172.98 503.837,1170.85 506.051,1168.74 508.265,1166.65 510.479,1164.57 512.694,1162.52 514.908,1160.49 517.122,1158.5 519.337,1156.54 521.551,1154.63 523.765,1152.75 525.979,1150.93 528.194,1149.16 530.408,1147.44 532.622,1145.79 534.836,1144.2 537.051,1142.69 539.265,1141.25 541.479,1139.9 543.694,1138.63 545.908,1137.45 548.122,1136.37 550.336,1135.39 552.551,1134.53 554.765,1133.77 556.979,1133.14 559.193,1132.63 561.408,1132.25 563.622,1132.01 565.836,1131.91 568.051,1131.96 570.265,1132.17 572.479,1132.54 574.693,1133.07 576.908,1133.79 579.122,1134.68 581.336,1135.77 583.55,1137.04 585.765,1138.52 587.979,1140.2 590.193,1142.07 592.408,1144.13 594.622,1146.38 596.836,1148.82 599.05,1151.45 601.265,1154.26 603.479,1157.23 605.693,1160.38 607.907,1163.69 610.122,1167.15 612.336,1170.76 614.55,1174.51 616.765,1178.39 618.979,1182.39 621.193,1186.5 623.407,1190.7 625.622,1194.99 627.836,1199.36 630.05,1203.79 632.265,1208.26 634.479,1212.77 636.693,1217.3 638.907,1221.83 641.122,1226.35 643.336,1230.84 645.55,1235.31 647.764,1239.73 649.979,1244.1 652.193,1248.42 654.407,1252.66 656.622,1256.83 658.836,1260.91 661.05,1264.91 663.264,1268.81 665.479,1272.6 667.693,1276.3 669.907,1279.88 672.121,1283.35 674.336,1286.71 676.55,1289.95 678.764,1293.08 680.979,1296.1 683.193,1299 685.407,1301.79 687.621,1304.47 689.836,1307.05 692.05,1309.53 694.264,1311.91 696.478,1314.21 698.693,1316.41 700.907,1318.52 703.121,1320.54 705.336,1322.47 707.55,1324.32 709.764,1326.1 711.978,1327.79 714.193,1329.41 716.407,1330.96 718.621,1332.44 720.835,1333.85 723.05,1335.2 725.264,1336.49 727.478,1337.72 729.693,1338.9 731.907,1340.02 734.121,1341.08 736.335,1342.1 738.55,1343.07 740.764,1343.99 742.978,1344.87 745.193,1345.71 747.407,1346.5 749.621,1347.26 751.835,1347.98 754.05,1348.66 756.264,1349.31 758.478,1349.93 760.692,1350.51 762.907,1351.07 765.121,1351.6 767.335,1352.09 769.55,1352.57 771.764,1353.01 773.978,1353.43 776.192,1353.83 778.407,1354.2 780.621,1354.55 782.835,1354.88 785.049,1355.19 787.264,1355.49 789.478,1355.76 791.692,1356.01 793.907,1356.25 796.121,1356.46 798.335,1356.67 800.549,1356.85 802.764,1357.02 804.978,1357.18 807.192,1357.32 809.406,1357.44 811.621,1357.55 813.835,1357.65 816.049,1357.73 818.264,1357.8 820.478,1357.86 822.692,1357.91 824.906,1357.94 827.121,1357.97 829.335,1357.98 831.549,1357.98 833.764,1357.97 835.978,1357.94 838.192,1357.91 840.406,1357.87 842.621,1357.81 844.835,1357.75 847.049,1357.68 849.263,1357.59 851.478,1357.5 853.692,1357.4 855.906,1357.29 858.121,1357.17 860.335,1357.04 862.549,1356.9 864.763,1356.75 866.978,1356.59 869.192,1356.43 871.406,1356.25 873.62,1356.07 875.835,1355.88 878.049,1355.68 880.263,1355.47 882.478,1355.25 884.692,1355.03 886.906,1354.8 889.12,1354.55 891.335,1354.3 893.549,1354.05 895.763,1353.78 897.977,1353.5 900.192,1353.22 902.406,1352.93 904.62,1352.63 906.835,1352.32 909.049,1352.01 911.263,1351.68 913.477,1351.35 915.692,1351.01 917.906,1350.66 920.12,1350.3 922.334,1349.93 924.549,1349.55 926.763,1349.17 928.977,1348.78 931.192,1348.38 933.406,1347.97 935.62,1347.55 937.834,1347.12 940.049,1346.68 942.263,1346.24 944.477,1345.79 946.692,1345.32 948.906,1344.85 951.12,1344.37 953.334,1343.88 955.549,1343.38 957.763,1342.87 959.977,1342.36 962.191,1341.83 964.406,1341.29 966.62,1340.75 968.834,1340.19 971.049,1339.62 973.263,1339.05 975.477,1338.46 977.691,1337.87 979.906,1337.26 982.12,1336.65 984.334,1336.02 986.548,1335.38 988.763,1334.74 990.977,1334.08 993.191,1333.41 995.406,1332.73 997.62,1332.04 999.834,1331.34 1002.05,1330.63 1004.26,1329.91 1006.48,1329.17 1008.69,1328.43 1010.91,1327.67 1013.12,1326.9 1015.33,1326.12 1017.55,1325.32 1019.76,1324.52 1021.98,1323.7 1024.19,1322.87 1026.41,1322.03 1028.62,1321.17 1030.83,1320.31 1033.05,1319.43 1035.26,1318.53 1037.48,1317.63 1039.69,1316.71 1041.91,1315.77 1044.12,1314.83 1046.33,1313.87 1048.55,1312.89 1050.76,1311.91 1052.98,1310.9 1055.19,1309.89 1057.41,1308.86 1059.62,1307.81 1061.83,1306.75 1064.05,1305.68 1066.26,1304.59 1068.48,1303.49 1070.69,1302.37 1072.91,1301.23 1075.12,1300.08 1077.33,1298.92 1079.55,1297.73 1081.76,1296.54 1083.98,1295.32 1086.19,1294.09 1088.41,1292.85 1090.62,1291.58 1092.83,1290.31 1095.05,1289.01 1097.26,1287.7 1099.48,1286.37 1101.69,1285.02 1103.91,1283.66 1106.12,1282.28 1108.33,1280.88 1110.55,1279.46 1112.76,1278.03 1114.98,1276.58 1117.19,1275.11 1119.4,1273.62 1121.62,1272.11 1123.83,1270.59 1126.05,1269.05 1128.26,1267.49 1130.48,1265.91 1132.69,1264.31 1134.9,1262.7 1137.12,1261.07 1139.33,1259.42 1141.55,1257.76 1143.76,1256.07 1145.98,1254.37 1148.19,1252.65 1150.4,1250.91 1152.62,1249.15 1154.83,1247.37 1157.05,1245.58 1159.26,1243.76 1161.48,1241.92 1163.69,1240.07 1165.9,1238.2 1168.12,1236.3 1170.33,1234.39 1172.55,1232.47 1174.76,1230.52 1176.98,1228.56 1179.19,1226.58 1181.4,1224.58 1183.62,1222.57 1185.83,1220.54 1188.05,1218.49 1190.26,1216.44 1192.48,1214.37 1194.69,1212.28 1196.9,1210.19 1199.12,1208.08 1201.33,1205.97 1203.55,1203.84 1205.76,1201.71 1207.98,1199.57 1210.19,1197.42 1212.4,1195.27 1214.62,1193.11 1216.83,1190.95 1219.05,1188.8 1221.26,1186.64 1223.48,1184.48 1225.69,1182.32 1227.9,1180.17 1230.12,1178.03 1232.33,1175.89 1234.55,1173.76 1236.76,1171.65 1238.98,1169.54 1241.19,1167.45 1243.4,1165.37 1245.62,1163.31 1247.83,1161.28 1250.05,1159.27 1252.26,1157.3 1254.48,1155.36 1256.69,1153.47 1258.9,1151.62 1261.12,1149.83 1263.33,1148.09 1265.55,1146.41 1267.76,1144.8 1269.98,1143.26 1272.19,1141.79 1274.4,1140.41 1276.62,1139.11 1278.83,1137.9 1281.05,1136.79 1283.26,1135.78 1285.48,1134.88 1287.69,1134.09 1289.9,1133.41 1292.12,1132.87 1294.33,1132.45 1296.55,1132.16 1298.76,1132.02 1300.98,1132.03 1303.19,1132.18 1305.4,1132.5 1307.62,1132.98 1309.83,1133.63 1312.05,1134.46 1314.26,1135.47 1316.48,1136.67 1318.69,1138.07 1320.9,1139.69 1323.12,1141.5 1325.33,1143.51 1327.55,1145.72 1329.76,1148.12 1331.98,1150.71 1334.19,1153.47 1336.4,1156.41 1338.62,1159.51 1340.83,1162.77 1343.05,1166.19 1345.26,1169.74 1347.48,1173.43 1349.69,1177.25 1351.9,1181.18 1354.12,1185.23 1356.33,1189.37 1358.55,1193.59 1360.76,1197.9 1362.98,1202.27 1365.19,1206.69 1367.4,1211.15 1369.62,1215.65 1371.83,1220.16 1374.05,1224.67 1376.26,1229.17 1378.48,1233.65 1380.69,1238.09 1382.9,1242.48 1385.12,1246.8 1387.33,1251.05 1389.55,1255.22 1391.76,1259.31 1393.97,1263.32 1396.19,1267.24 1398.4,1271.06 1400.62,1274.79 1402.83,1278.4 1405.05,1281.92 1407.26,1285.32 1409.47,1288.62 1411.69,1291.8 1413.9,1294.88 1416.12,1297.84 1418.33,1300.68 1420.55,1303.42 1422.76,1306.05 1424.97,1308.57 1427.19,1310.98 1429.4,1313.29 1431.62,1315.5 1433.83,1317.62 1436.05,1319.65 1438.26,1321.59 1440.47,1323.45 1442.69,1325.23 1444.9,1326.95 1447.12,1328.6 1449.33,1330.18 1451.55,1331.69 1453.76,1333.12 1455.97,1334.5 1458.19,1335.81 1460.4,1337.06 1462.62,1338.26 1464.83,1339.4 1467.05,1340.48 1469.26,1341.52 1471.47,1342.51 1473.69,1343.45 1475.9,1344.35 1478.12,1345.21 1480.33,1346.02 1482.55,1346.8 1484.76,1347.54 1486.97,1348.24 1489.19,1348.91 1491.4,1349.54 1493.62,1350.14 1495.83,1350.71 1498.05,1351.25 1500.26,1351.77 1502.47,1352.25 1504.69,1352.71 1506.9,1353.14 1509.12,1353.55 1511.33,1353.93 1513.55,1354.29 1515.76,1354.63 1517.97,1354.95 1520.19,1355.25 1522.4,1355.53 1524.62,1355.79 1526.83,1356.04 1529.05,1356.26 1531.26,1356.47 1533.47,1356.66 1535.69,1356.83 1537.9,1356.99 1540.12,1357.14 1542.33,1357.27 1544.55,1357.39 1546.76,1357.49 1548.97,1357.58 1551.19,1357.65 1553.4,1357.72 1555.62,1357.77 1557.83,1357.81 1560.05,1357.83 1562.26,1357.85 1564.47,1357.86 1566.69,1357.85 1568.9,1357.83 1571.12,1357.8 1573.33,1357.76 1575.55,1357.72 1577.76,1357.66 1579.97,1357.59 1582.19,1357.51 1584.4,1357.42 1586.62,1357.32 1588.83,1357.21 1591.05,1357.1 1593.26,1356.97 1595.47,1356.84 1597.69,1356.69 1599.9,1356.54 1602.12,1356.38 1604.33,1356.21 1606.55,1356.03 1608.76,1355.84 1610.97,1355.64 1613.19,1355.44 1615.4,1355.22 1617.62,1355 1619.83,1354.77 1622.05,1354.53 1624.26,1354.28 1626.47,1354.03 1628.69,1353.76 1630.9,1353.49 1633.12,1353.21 1635.33,1352.92 1637.55,1352.62 1639.76,1352.32 1641.97,1352 1644.19,1351.68 1646.4,1351.35 1648.62,1351.01 1650.83,1350.67 1653.05,1350.31 1655.26,1349.95 1657.47,1349.58 1659.69,1349.19 1661.9,1348.8 1664.12,1348.41 1666.33,1348 1668.55,1347.58 1670.76,1347.16 1672.97,1346.73 1675.19,1346.29 1677.4,1345.83 1679.62,1345.38 1681.83,1344.91 1684.04,1344.43 1686.26,1343.94 1688.47,1343.45 1690.69,1342.94 1692.9,1342.43 1695.12,1341.9 1697.33,1341.37 1699.54,1340.82 1701.76,1340.27 1703.97,1339.71 1706.19,1339.14 1708.4,1338.55 1710.62,1337.96 1712.83,1337.36 1715.04,1336.75 1717.26,1336.12 1719.47,1335.49 1721.69,1334.85 1723.9,1334.19 1726.12,1333.53 1728.33,1332.85 1730.54,1332.16 1732.76,1331.47 1734.97,1330.76 1737.19,1330.04 1739.4,1329.31 1741.62,1328.56 1743.83,1327.81 1746.04,1327.04 1748.26,1326.27 1750.47,1325.48 1752.69,1324.67 1754.9,1323.86 1757.12,1323.03 1759.33,1322.2 1761.54,1321.35 1763.76,1320.48 1765.97,1319.6 1768.19,1318.72 1770.4,1317.81 1772.62,1316.9 1774.83,1315.97 1777.04,1315.03 1779.26,1314.07 1781.47,1313.1 1783.69,1312.12 1785.9,1311.12 1788.12,1310.11 1790.33,1309.08 1792.54,1308.04 1794.76,1306.99 1796.97,1305.92 1799.19,1304.83 1801.4,1303.73 1803.62,1302.62 1805.83,1301.49 1808.04,1300.34 1810.26,1299.18 1812.47,1298.01 1814.69,1296.82 1816.9,1295.61 1819.12,1294.38 1821.33,1293.14 1823.54,1291.89 1825.76,1290.61 1827.97,1289.32 1830.19,1288.02 1832.4,1286.69 1834.62,1285.35 1836.83,1284 1839.04,1282.62 1841.26,1281.23 1843.47,1279.82 1845.69,1278.39 1847.9,1276.95 1850.12,1275.48 1852.33,1274 1854.54,1272.5 1856.76,1270.98 1858.97,1269.45 1861.19,1267.89 1863.4,1266.32 1865.62,1264.73 1867.83,1263.12 1870.04,1261.49 1872.26,1259.84 1874.47,1258.18 1876.69,1256.5 1878.9,1254.79 1881.12,1253.07 1883.33,1251.33 1885.54,1249.58 1887.76,1247.8 1889.97,1246.01 1892.19,1244.2 1894.4,1242.37 1896.62,1240.52 1898.83,1238.66 1901.04,1236.78 1903.26,1234.88 1905.47,1232.96 1907.69,1231.03 1909.9,1229.08 1912.12,1227.12 1914.33,1225.15 1916.54,1223.16 1918.76,1221.15 1920.97,1219.14 1923.19,1217.1 1925.4,1215.06 1927.62,1212.99 1929.83,1210.92 1932.04,1208.83 1934.26,1206.73 1936.47,1204.61 1938.69,1202.48 1940.9,1200.35 1943.12,1198.2 1945.33,1196.05 1947.54,1193.89 1949.76,1191.72 1951.97,1189.55 1954.19,1187.38 1956.4,1185.21 1958.62,1183.04 1960.83,1180.88 1963.04,1178.72 1965.26,1176.57 1967.47,1174.43 1969.69,1172.3 1971.9,1170.19 1974.11,1168.1 1976.33,1166.03 1978.54,1163.98 1980.76,1161.97 1982.97,1159.98 1985.19,1158.03 1987.4,1156.12 1989.61,1154.25 1991.83,1152.42 1994.04,1150.65 1996.26,1148.93 1998.47,1147.26 2000.69,1145.66 2002.9,1144.12 2005.11,1142.66 2007.33,1141.27 2009.54,1139.96 2011.76,1138.73 2013.97,1137.6 2016.19,1136.56 2018.4,1135.62 2020.61,1134.78 2022.83,1134.06 2025.04,1133.47 2027.26,1133 2029.47,1132.67 2031.69,1132.49 2033.9,1132.46 2036.11,1132.59 2038.33,1132.88 2040.54,1133.34 2042.76,1133.97 2044.97,1134.78 2047.19,1135.77 2049.4,1136.94 2051.61,1138.3 2053.83,1139.84 2056.04,1141.57 2058.26,1143.49 2060.47,1145.6 2062.69,1147.9 2064.9,1150.39 2067.11,1153.06 2069.33,1155.91 2071.54,1158.95 2073.76,1162.17 2075.97,1165.56 2078.19,1169.1 2080.4,1172.79 2082.61,1176.6 2084.83,1180.54 2087.04,1184.59 2089.26,1188.74 2091.47,1192.97 2093.69,1197.27 2095.9,1201.63 2098.11,1206.05 2100.33,1210.5 2102.54,1214.98 2104.76,1219.48 2106.97,1223.97 2109.19,1228.46 2111.4,1232.92 2113.61,1237.35 2115.83,1241.73 2118.04,1246.06 2120.26,1250.31 2122.47,1254.49 2124.69,1258.58 2126.9,1262.59 2129.11,1266.51 2131.33,1270.33 2133.54,1274.05 2135.76,1277.67 2137.97,1281.19 2140.19,1284.6 2142.4,1287.91 2144.61,1291.1 2146.83,1294.18 2149.04,1297.16 2151.26,1300.02 2153.47,1302.78 2155.69,1305.42 2157.9,1307.96 2160.11,1310.4 2162.33,1312.74 2164.54,1314.98 2166.76,1317.12 2168.97,1319.17 2171.19,1321.14 2173.4,1323.03 2175.61,1324.84 2177.83,1326.58 2180.04,1328.24 2182.26,1329.83 2184.47,1331.35 2186.69,1332.8 2188.9,1334.18 2191.11,1335.51 2193.33,1336.77 2195.54,1337.98 2197.76,1339.13 2199.97,1340.22 2202.19,1341.27 2204.4,1342.27 2206.61,1343.22 2208.83,1344.12 2211.04,1344.99 2213.26,1345.81 2215.47,1346.59 2217.69,1347.34 2219.9,1348.04 2222.11,1348.72 2224.33,1349.35 2226.54,1349.96 2228.76,1350.53 2230.97,1351.08 2233.19,1351.59 2235.4,1352.08 2237.61,1352.54 2239.83,1352.98 2242.04,1353.39 2244.26,1353.78 2246.47,1354.15 2248.68,1354.49 2250.9,1354.82 2253.11,1355.12 2255.33,1355.4 2257.54,1355.67 2259.76,1355.91 2261.97,1356.14 2264.18,1356.35 2266.4,1356.55 2268.61,1356.72 2270.83,1356.89 2273.04,1357.04 2275.26,1357.17 2277.47,1357.29 2279.68,1357.39 2281.9,1357.49 2284.11,1357.57 2286.33,1357.63 2288.54,1357.69 2290.76,1357.73 2292.97,1357.76 2295.18,1357.78 2297.4,1357.78 2299.61,1357.78 2301.83,1357.76 2304.04,1357.74 2306.26,1357.7 2308.47,1357.65 2310.68,1357.6 2312.9,1357.53 2315.11,1357.45 2317.33,1357.36 2319.54,1357.27 2321.76,1357.16 2323.97,1357.05 2326.18,1356.92 2328.4,1356.79 2330.61,1356.64 2332.83,1356.49 2335.04,1356.33 2337.26,1356.16 2339.47,1355.98 2341.68,1355.8 2343.9,1355.6 2346.11,1355.4 2348.33,1355.19 2350.54,1354.96 2352.76,1354.74 "/>
<polyline clip-path="url(#clip082)" style="stroke:#e26f46; stroke-linecap:round; stroke-linejoin:round; stroke-width:12; stroke-opacity:1; fill:none" points="140.696,1356.02 142.91,1356.77 145.124,1357.5 147.338,1358.22 149.553,1358.93 151.767,1359.61 153.981,1360.28 156.195,1360.94 158.41,1361.58 160.624,1362.21 162.838,1362.82 165.053,1363.42 167.267,1364 169.481,1364.57 171.695,1365.13 173.91,1365.67 176.124,1366.21 178.338,1366.73 180.552,1367.23 182.767,1367.73 184.981,1368.22 187.195,1368.69 189.41,1369.15 191.624,1369.6 193.838,1370.04 196.052,1370.47 198.267,1370.89 200.481,1371.3 202.695,1371.7 204.91,1372.09 207.124,1372.48 209.338,1372.85 211.552,1373.21 213.767,1373.57 215.981,1373.91 218.195,1374.25 220.409,1374.58 222.624,1374.9 224.838,1375.22 227.052,1375.52 229.267,1375.82 231.481,1376.11 233.695,1376.4 235.909,1376.67 238.124,1376.94 240.338,1377.21 242.552,1377.46 244.766,1377.71 246.981,1377.96 249.195,1378.2 251.409,1378.43 253.624,1378.65 255.838,1378.87 258.052,1379.09 260.266,1379.3 262.481,1379.5 264.695,1379.7 266.909,1379.89 269.123,1380.08 271.338,1380.26 273.552,1380.44 275.766,1380.61 277.981,1380.78 280.195,1380.94 282.409,1381.1 284.623,1381.25 286.838,1381.4 289.052,1381.54 291.266,1381.68 293.48,1381.82 295.695,1381.95 297.909,1382.08 300.123,1382.2 302.338,1382.32 304.552,1382.44 306.766,1382.55 308.98,1382.66 311.195,1382.76 313.409,1382.86 315.623,1382.96 317.838,1383.05 320.052,1383.14 322.266,1383.22 324.48,1383.3 326.695,1383.38 328.909,1383.46 331.123,1383.53 333.337,1383.6 335.552,1383.66 337.766,1383.72 339.98,1383.78 342.195,1383.83 344.409,1383.89 346.623,1383.93 348.837,1383.98 351.052,1384.02 353.266,1384.05 355.48,1384.09 357.694,1384.12 359.909,1384.15 362.123,1384.17 364.337,1384.19 366.552,1384.21 368.766,1384.22 370.98,1384.23 373.194,1384.24 375.409,1384.24 377.623,1384.24 379.837,1384.23 382.051,1384.22 384.266,1384.21 386.48,1384.2 388.694,1384.18 390.909,1384.15 393.123,1384.12 395.337,1384.09 397.551,1384.06 399.766,1384.02 401.98,1383.97 404.194,1383.92 406.408,1383.87 408.623,1383.81 410.837,1383.74 413.051,1383.67 415.266,1383.6 417.48,1383.52 419.694,1383.44 421.908,1383.35 424.123,1383.25 426.337,1383.14 428.551,1383.03 430.766,1382.92 432.98,1382.79 435.194,1382.66 437.408,1382.53 439.623,1382.38 441.837,1382.23 444.051,1382.07 446.265,1381.9 448.48,1381.72 450.694,1381.54 452.908,1381.34 455.123,1381.14 457.337,1380.92 459.551,1380.69 461.765,1380.46 463.98,1380.21 466.194,1379.95 468.408,1379.67 470.622,1379.38 472.837,1379.08 475.051,1378.76 477.265,1378.43 479.48,1378.08 481.694,1377.71 483.908,1377.33 486.122,1376.92 488.337,1376.5 490.551,1376.05 492.765,1375.58 494.979,1375.09 497.194,1374.58 499.408,1374.04 501.622,1373.48 503.837,1372.89 506.051,1372.28 508.265,1371.63 510.479,1370.96 512.694,1370.25 514.908,1369.5 517.122,1368.71 519.337,1367.88 521.551,1367.01 523.765,1366.1 525.979,1365.13 528.194,1364.12 530.408,1363.05 532.622,1361.94 534.836,1360.76 537.051,1359.53 539.265,1358.23 541.479,1356.88 543.694,1355.46 545.908,1353.97 548.122,1352.42 550.336,1350.79 552.551,1349.1 554.765,1347.33 556.979,1345.49 559.193,1343.57 561.408,1341.57 563.622,1339.49 565.836,1337.33 568.051,1335.08 570.265,1332.75 572.479,1330.33 574.693,1327.83 576.908,1325.23 579.122,1322.54 581.336,1319.76 583.55,1316.88 585.765,1313.9 587.979,1310.84 590.193,1307.7 592.408,1304.49 594.622,1301.22 596.836,1297.9 599.05,1294.53 601.265,1291.13 603.479,1287.71 605.693,1284.27 607.907,1280.82 610.122,1277.38 612.336,1273.95 614.55,1270.54 616.765,1267.16 618.979,1263.83 621.193,1260.54 623.407,1257.32 625.622,1254.18 627.836,1251.12 630.05,1248.15 632.265,1245.29 634.479,1242.54 636.693,1239.92 638.907,1237.44 641.122,1235.11 643.336,1232.94 645.55,1230.93 647.764,1229.08 649.979,1227.39 652.193,1225.88 654.407,1224.55 656.622,1223.38 658.836,1222.4 661.05,1221.59 663.264,1220.96 665.479,1220.51 667.693,1220.23 669.907,1220.12 672.121,1220.18 674.336,1220.4 676.55,1220.77 678.764,1221.3 680.979,1221.98 683.193,1222.79 685.407,1223.74 687.621,1224.8 689.836,1225.97 692.05,1227.25 694.264,1228.61 696.478,1230.05 698.693,1231.57 700.907,1233.16 703.121,1234.83 705.336,1236.56 707.55,1238.34 709.764,1240.18 711.978,1242.07 714.193,1244 716.407,1245.97 718.621,1247.97 720.835,1250 723.05,1252.05 725.264,1254.12 727.478,1256.21 729.693,1258.31 731.907,1260.41 734.121,1262.52 736.335,1264.64 738.55,1266.75 740.764,1268.86 742.978,1270.96 745.193,1273.06 747.407,1275.14 749.621,1277.22 751.835,1279.28 754.05,1281.32 756.264,1283.35 758.478,1285.36 760.692,1287.35 762.907,1289.31 765.121,1291.26 767.335,1293.18 769.55,1295.09 771.764,1296.96 773.978,1298.82 776.192,1300.64 778.407,1302.45 780.621,1304.22 782.835,1305.97 785.049,1307.7 787.264,1309.39 789.478,1311.06 791.692,1312.7 793.907,1314.32 796.121,1315.9 798.335,1317.46 800.549,1318.99 802.764,1320.5 804.978,1321.97 807.192,1323.42 809.406,1324.84 811.621,1326.24 813.835,1327.61 816.049,1328.95 818.264,1330.27 820.478,1331.57 822.692,1332.83 824.906,1334.08 827.121,1335.29 829.335,1336.49 831.549,1337.66 833.764,1338.8 835.978,1339.92 838.192,1341.02 840.406,1342.1 842.621,1343.15 844.835,1344.18 847.049,1345.19 849.263,1346.18 851.478,1347.15 853.692,1348.09 855.906,1349.02 858.121,1349.92 860.335,1350.81 862.549,1351.68 864.763,1352.52 866.978,1353.35 869.192,1354.16 871.406,1354.96 873.62,1355.73 875.835,1356.49 878.049,1357.23 880.263,1357.95 882.478,1358.66 884.692,1359.35 886.906,1360.03 889.12,1360.69 891.335,1361.34 893.549,1361.97 895.763,1362.59 897.977,1363.19 900.192,1363.78 902.406,1364.36 904.62,1364.92 906.835,1365.47 909.049,1366 911.263,1366.53 913.477,1367.04 915.692,1367.54 917.906,1368.03 920.12,1368.51 922.334,1368.97 924.549,1369.43 926.763,1369.87 928.977,1370.31 931.192,1370.73 933.406,1371.15 935.62,1371.55 937.834,1371.95 940.049,1372.33 942.263,1372.71 944.477,1373.07 946.692,1373.43 948.906,1373.78 951.12,1374.12 953.334,1374.46 955.549,1374.78 957.763,1375.1 959.977,1375.41 962.191,1375.71 964.406,1376 966.62,1376.29 968.834,1376.57 971.049,1376.84 973.263,1377.11 975.477,1377.37 977.691,1377.62 979.906,1377.86 982.12,1378.1 984.334,1378.34 986.548,1378.56 988.763,1378.79 990.977,1379 993.191,1379.21 995.406,1379.42 997.62,1379.62 999.834,1379.81 1002.05,1380 1004.26,1380.18 1006.48,1380.36 1008.69,1380.54 1010.91,1380.71 1013.12,1380.87 1015.33,1381.03 1017.55,1381.19 1019.76,1381.34 1021.98,1381.48 1024.19,1381.62 1026.41,1381.76 1028.62,1381.9 1030.83,1382.02 1033.05,1382.15 1035.26,1382.27 1037.48,1382.39 1039.69,1382.5 1041.91,1382.61 1044.12,1382.72 1046.33,1382.82 1048.55,1382.92 1050.76,1383.01 1052.98,1383.1 1055.19,1383.19 1057.41,1383.27 1059.62,1383.35 1061.83,1383.42 1064.05,1383.5 1066.26,1383.57 1068.48,1383.63 1070.69,1383.69 1072.91,1383.75 1075.12,1383.81 1077.33,1383.86 1079.55,1383.91 1081.76,1383.95 1083.98,1384 1086.19,1384.03 1088.41,1384.07 1090.62,1384.1 1092.83,1384.13 1095.05,1384.15 1097.26,1384.18 1099.48,1384.19 1101.69,1384.21 1103.91,1384.22 1106.12,1384.23 1108.33,1384.23 1110.55,1384.23 1112.76,1384.23 1114.98,1384.22 1117.19,1384.21 1119.4,1384.2 1121.62,1384.18 1123.83,1384.15 1126.05,1384.13 1128.26,1384.1 1130.48,1384.06 1132.69,1384.02 1134.9,1383.98 1137.12,1383.93 1139.33,1383.87 1141.55,1383.81 1143.76,1383.74 1145.98,1383.67 1148.19,1383.6 1150.4,1383.51 1152.62,1383.43 1154.83,1383.34 1157.05,1383.24 1159.26,1383.14 1161.48,1383.03 1163.69,1382.91 1165.9,1382.79 1168.12,1382.66 1170.33,1382.53 1172.55,1382.39 1174.76,1382.24 1176.98,1382.09 1179.19,1381.93 1181.4,1381.75 1183.62,1381.57 1185.83,1381.38 1188.05,1381.19 1190.26,1380.98 1192.48,1380.76 1194.69,1380.53 1196.9,1380.28 1199.12,1380.03 1201.33,1379.76 1203.55,1379.48 1205.76,1379.18 1207.98,1378.87 1210.19,1378.54 1212.4,1378.2 1214.62,1377.84 1216.83,1377.46 1219.05,1377.06 1221.26,1376.64 1223.48,1376.2 1225.69,1375.74 1227.9,1375.26 1230.12,1374.75 1232.33,1374.22 1234.55,1373.66 1236.76,1373.08 1238.98,1372.46 1241.19,1371.83 1243.4,1371.16 1245.62,1370.46 1247.83,1369.73 1250.05,1368.96 1252.26,1368.15 1254.48,1367.3 1256.69,1366.4 1258.9,1365.46 1261.12,1364.47 1263.33,1363.42 1265.55,1362.33 1267.76,1361.17 1269.98,1359.96 1272.19,1358.69 1274.4,1357.36 1276.62,1355.96 1278.83,1354.5 1281.05,1352.97 1283.26,1351.36 1285.48,1349.69 1287.69,1347.94 1289.9,1346.12 1292.12,1344.23 1294.33,1342.25 1296.55,1340.19 1298.76,1338.06 1300.98,1335.84 1303.19,1333.54 1305.4,1331.15 1307.62,1328.67 1309.83,1326.11 1312.05,1323.46 1314.26,1320.72 1316.48,1317.89 1318.69,1314.96 1320.9,1311.93 1323.12,1308.81 1325.33,1305.61 1327.55,1302.34 1329.76,1299.01 1331.98,1295.63 1334.19,1292.22 1336.4,1288.79 1338.62,1285.33 1340.83,1281.88 1343.05,1278.43 1345.26,1274.99 1347.48,1271.58 1349.69,1268.2 1351.9,1264.87 1354.12,1261.6 1356.33,1258.39 1358.55,1255.25 1360.76,1252.2 1362.98,1249.23 1365.19,1246.37 1367.4,1243.62 1369.62,1240.99 1371.83,1238.49 1374.05,1236.12 1376.26,1233.9 1378.48,1231.83 1380.69,1229.93 1382.9,1228.19 1385.12,1226.64 1387.33,1225.26 1389.55,1224.06 1391.76,1223.03 1393.97,1222.17 1396.19,1221.49 1398.4,1220.98 1400.62,1220.64 1402.83,1220.46 1405.05,1220.44 1407.26,1220.58 1409.47,1220.87 1411.69,1221.32 1413.9,1221.9 1416.12,1222.63 1418.33,1223.49 1420.55,1224.48 1422.76,1225.58 1424.97,1226.8 1427.19,1228.13 1429.4,1229.56 1431.62,1231.07 1433.83,1232.67 1436.05,1234.34 1438.26,1236.08 1440.47,1237.87 1442.69,1239.7 1444.9,1241.57 1447.12,1243.47 1449.33,1245.41 1451.55,1247.39 1453.76,1249.4 1455.97,1251.43 1458.19,1253.48 1460.4,1255.55 1462.62,1257.63 1464.83,1259.73 1467.05,1261.83 1469.26,1263.93 1471.47,1266.04 1473.69,1268.14 1475.9,1270.24 1478.12,1272.33 1480.33,1274.41 1482.55,1276.49 1484.76,1278.55 1486.97,1280.59 1489.19,1282.62 1491.4,1284.63 1493.62,1286.62 1495.83,1288.59 1498.05,1290.54 1500.26,1292.47 1502.47,1294.38 1504.69,1296.26 1506.9,1298.12 1509.12,1299.95 1511.33,1301.76 1513.55,1303.54 1515.76,1305.3 1517.97,1307.02 1520.19,1308.73 1522.4,1310.4 1524.62,1312.05 1526.83,1313.67 1529.05,1315.27 1531.26,1316.84 1533.47,1318.38 1535.69,1319.89 1537.9,1321.38 1540.12,1322.84 1542.33,1324.27 1544.55,1325.68 1546.76,1327.06 1548.97,1328.41 1551.19,1329.74 1553.4,1331.04 1555.62,1332.31 1557.83,1333.56 1560.05,1334.79 1562.26,1335.99 1564.47,1337.17 1566.69,1338.32 1568.9,1339.45 1571.12,1340.56 1573.33,1341.64 1575.55,1342.7 1577.76,1343.74 1579.97,1344.76 1582.19,1345.75 1584.4,1346.73 1586.62,1347.68 1588.83,1348.61 1591.05,1349.52 1593.26,1350.42 1595.47,1351.29 1597.69,1352.15 1599.9,1352.98 1602.12,1353.8 1604.33,1354.6 1606.55,1355.38 1608.76,1356.15 1610.97,1356.89 1613.19,1357.63 1615.4,1358.34 1617.62,1359.04 1619.83,1359.72 1622.05,1360.39 1624.26,1361.04 1626.47,1361.68 1628.69,1362.3 1630.9,1362.91 1633.12,1363.5 1635.33,1364.09 1637.55,1364.65 1639.76,1365.21 1641.97,1365.75 1644.19,1366.28 1646.4,1366.8 1648.62,1367.3 1650.83,1367.79 1653.05,1368.28 1655.26,1368.75 1657.47,1369.21 1659.69,1369.65 1661.9,1370.09 1664.12,1370.52 1666.33,1370.94 1668.55,1371.34 1670.76,1371.74 1672.97,1372.13 1675.19,1372.51 1677.4,1372.88 1679.62,1373.24 1681.83,1373.6 1684.04,1373.94 1686.26,1374.28 1688.47,1374.6 1690.69,1374.92 1692.9,1375.24 1695.12,1375.54 1697.33,1375.84 1699.54,1376.13 1701.76,1376.41 1703.97,1376.69 1706.19,1376.96 1708.4,1377.22 1710.62,1377.47 1712.83,1377.72 1715.04,1377.97 1717.26,1378.2 1719.47,1378.43 1721.69,1378.66 1723.9,1378.88 1726.12,1379.09 1728.33,1379.3 1730.54,1379.5 1732.76,1379.69 1734.97,1379.89 1737.19,1380.07 1739.4,1380.25 1741.62,1380.43 1743.83,1380.6 1746.04,1380.76 1748.26,1380.93 1750.47,1381.08 1752.69,1381.23 1754.9,1381.38 1757.12,1381.53 1759.33,1381.66 1761.54,1381.8 1763.76,1381.93 1765.97,1382.06 1768.19,1382.18 1770.4,1382.3 1772.62,1382.41 1774.83,1382.52 1777.04,1382.63 1779.26,1382.73 1781.47,1382.83 1783.69,1382.92 1785.9,1383.02 1788.12,1383.1 1790.33,1383.19 1792.54,1383.27 1794.76,1383.35 1796.97,1383.42 1799.19,1383.49 1801.4,1383.56 1803.62,1383.62 1805.83,1383.68 1808.04,1383.74 1810.26,1383.79 1812.47,1383.84 1814.69,1383.89 1816.9,1383.93 1819.12,1383.97 1821.33,1384.01 1823.54,1384.04 1825.76,1384.07 1827.97,1384.09 1830.19,1384.12 1832.4,1384.13 1834.62,1384.15 1836.83,1384.16 1839.04,1384.17 1841.26,1384.17 1843.47,1384.17 1845.69,1384.17 1847.9,1384.17 1850.12,1384.16 1852.33,1384.14 1854.54,1384.12 1856.76,1384.1 1858.97,1384.08 1861.19,1384.05 1863.4,1384.01 1865.62,1383.98 1867.83,1383.93 1870.04,1383.89 1872.26,1383.84 1874.47,1383.78 1876.69,1383.72 1878.9,1383.65 1881.12,1383.58 1883.33,1383.51 1885.54,1383.42 1887.76,1383.34 1889.97,1383.24 1892.19,1383.14 1894.4,1383.04 1896.62,1382.92 1898.83,1382.81 1901.04,1382.68 1903.26,1382.55 1905.47,1382.41 1907.69,1382.26 1909.9,1382.1 1912.12,1381.93 1914.33,1381.75 1916.54,1381.57 1918.76,1381.37 1920.97,1381.16 1923.19,1380.95 1925.4,1380.72 1927.62,1380.48 1929.83,1380.23 1932.04,1379.97 1934.26,1379.7 1936.47,1379.41 1938.69,1379.11 1940.9,1378.8 1943.12,1378.48 1945.33,1378.13 1947.54,1377.78 1949.76,1377.4 1951.97,1377.01 1954.19,1376.6 1956.4,1376.17 1958.62,1375.71 1960.83,1375.24 1963.04,1374.74 1965.26,1374.22 1967.47,1373.67 1969.69,1373.09 1971.9,1372.49 1974.11,1371.86 1976.33,1371.19 1978.54,1370.49 1980.76,1369.75 1982.97,1368.98 1985.19,1368.17 1987.4,1367.32 1989.61,1366.43 1991.83,1365.49 1994.04,1364.51 1996.26,1363.48 1998.47,1362.4 2000.69,1361.26 2002.9,1360.08 2005.11,1358.83 2007.33,1357.53 2009.54,1356.16 2011.76,1354.73 2013.97,1353.23 2016.19,1351.67 2018.4,1350.03 2020.61,1348.32 2022.83,1346.53 2025.04,1344.67 2027.26,1342.72 2029.47,1340.69 2031.69,1338.58 2033.9,1336.37 2036.11,1334.08 2038.33,1331.7 2040.54,1329.23 2042.76,1326.68 2044.97,1324.03 2047.19,1321.31 2049.4,1318.5 2051.61,1315.61 2053.83,1312.64 2056.04,1309.6 2058.26,1306.48 2060.47,1303.31 2062.69,1300.07 2064.9,1296.78 2067.11,1293.44 2069.33,1290.06 2071.54,1286.64 2073.76,1283.19 2075.97,1279.73 2078.19,1276.28 2080.4,1272.83 2082.61,1269.41 2084.83,1266.03 2087.04,1262.71 2089.26,1259.44 2091.47,1256.25 2093.69,1253.14 2095.9,1250.13 2098.11,1247.22 2100.33,1244.42 2102.54,1241.75 2104.76,1239.21 2106.97,1236.81 2109.19,1234.56 2111.4,1232.46 2113.61,1230.53 2115.83,1228.76 2118.04,1227.17 2120.26,1225.76 2122.47,1224.53 2124.69,1223.47 2126.9,1222.6 2129.11,1221.9 2131.33,1221.37 2133.54,1221.01 2135.76,1220.81 2137.97,1220.77 2140.19,1220.89 2142.4,1221.16 2144.61,1221.58 2146.83,1222.14 2149.04,1222.84 2151.26,1223.67 2153.47,1224.62 2155.69,1225.69 2157.9,1226.88 2160.11,1228.16 2162.33,1229.55 2164.54,1231.03 2166.76,1232.59 2168.97,1234.22 2171.19,1235.92 2173.4,1237.68 2175.61,1239.48 2177.83,1241.33 2180.04,1243.22 2182.26,1245.16 2184.47,1247.12 2186.69,1249.12 2188.9,1251.15 2191.11,1253.19 2193.33,1255.26 2195.54,1257.34 2197.76,1259.43 2199.97,1261.52 2202.19,1263.63 2204.4,1265.73 2206.61,1267.83 2208.83,1269.93 2211.04,1272.02 2213.26,1274.1 2215.47,1276.17 2217.69,1278.23 2219.9,1280.27 2222.11,1282.3 2224.33,1284.31 2226.54,1286.3 2228.76,1288.28 2230.97,1290.23 2233.19,1292.16 2235.4,1294.07 2237.61,1295.95 2239.83,1297.81 2242.04,1299.65 2244.26,1301.46 2246.47,1303.24 2248.68,1305 2250.9,1306.73 2253.11,1308.44 2255.33,1310.12 2257.54,1311.77 2259.76,1313.4 2261.97,1315 2264.18,1316.57 2266.4,1318.11 2268.61,1319.63 2270.83,1321.12 2273.04,1322.58 2275.26,1324.01 2277.47,1325.42 2279.68,1326.8 2281.9,1328.16 2284.11,1329.49 2286.33,1330.79 2288.54,1332.07 2290.76,1333.33 2292.97,1334.56 2295.18,1335.76 2297.4,1336.94 2299.61,1338.1 2301.83,1339.23 2304.04,1340.34 2306.26,1341.43 2308.47,1342.49 2310.68,1343.54 2312.9,1344.56 2315.11,1345.56 2317.33,1346.53 2319.54,1347.49 2321.76,1348.43 2323.97,1349.34 2326.18,1350.24 2328.4,1351.12 2330.61,1351.97 2332.83,1352.81 2335.04,1353.63 2337.26,1354.44 2339.47,1355.22 2341.68,1355.99 2343.9,1356.74 2346.11,1357.47 2348.33,1358.19 2350.54,1358.89 2352.76,1359.57 "/>
<polyline clip-path="url(#clip082)" style="stroke:#3da44d; stroke-linecap:round; stroke-linejoin:round; stroke-width:12; stroke-opacity:1; fill:none" stroke-dasharray="48, 30" points="140.696,1356.02 142.91,1355.64 145.124,1355.26 147.338,1354.88 149.553,1354.49 151.767,1354.09 153.981,1353.69 156.195,1353.29 158.41,1352.88 160.624,1352.47 162.838,1352.06 165.053,1351.63 167.267,1351.21 169.481,1350.78 171.695,1350.34 173.91,1349.9 176.124,1349.46 178.338,1349.01 180.552,1348.55 182.767,1348.09 184.981,1347.63 187.195,1347.15 189.41,1346.68 191.624,1346.2 193.838,1345.71 196.052,1345.22 198.267,1344.72 200.481,1344.22 202.695,1343.71 204.91,1343.2 207.124,1342.68 209.338,1342.15 211.552,1341.62 213.767,1341.08 215.981,1340.54 218.195,1339.99 220.409,1339.43 222.624,1338.87 224.838,1338.31 227.052,1337.73 229.267,1337.15 231.481,1336.56 233.695,1335.97 235.909,1335.37 238.124,1334.77 240.338,1334.15 242.552,1333.53 244.766,1332.91 246.981,1332.27 249.195,1331.63 251.409,1330.99 253.624,1330.33 255.838,1329.67 258.052,1329 260.266,1328.33 262.481,1327.64 264.695,1326.95 266.909,1326.26 269.123,1325.55 271.338,1324.84 273.552,1324.11 275.766,1323.39 277.981,1322.65 280.195,1321.9 282.409,1321.15 284.623,1320.39 286.838,1319.62 289.052,1318.84 291.266,1318.06 293.48,1317.26 295.695,1316.46 297.909,1315.64 300.123,1314.82 302.338,1313.99 304.552,1313.15 306.766,1312.31 308.98,1311.45 311.195,1310.58 313.409,1309.71 315.623,1308.82 317.838,1307.93 320.052,1307.02 322.266,1306.11 324.48,1305.19 326.695,1304.25 328.909,1303.31 331.123,1302.36 333.337,1301.39 335.552,1300.42 337.766,1299.43 339.98,1298.44 342.195,1297.43 344.409,1296.42 346.623,1295.39 348.837,1294.35 351.052,1293.3 353.266,1292.24 355.48,1291.17 357.694,1290.09 359.909,1288.99 362.123,1287.89 364.337,1286.77 366.552,1285.64 368.766,1284.5 370.98,1283.35 373.194,1282.18 375.409,1281 377.623,1279.82 379.837,1278.61 382.051,1277.4 384.266,1276.17 386.48,1274.93 388.694,1273.68 390.909,1272.41 393.123,1271.13 395.337,1269.84 397.551,1268.53 399.766,1267.21 401.98,1265.88 404.194,1264.53 406.408,1263.17 408.623,1261.8 410.837,1260.41 413.051,1259.01 415.266,1257.59 417.48,1256.16 419.694,1254.71 421.908,1253.25 424.123,1251.77 426.337,1250.28 428.551,1248.77 430.766,1247.25 432.98,1245.71 435.194,1244.16 437.408,1242.59 439.623,1241.01 441.837,1239.41 444.051,1237.79 446.265,1236.16 448.48,1234.52 450.694,1232.85 452.908,1231.17 455.123,1229.48 457.337,1227.76 459.551,1226.04 461.765,1224.29 463.98,1222.53 466.194,1220.75 468.408,1218.95 470.622,1217.14 472.837,1215.31 475.051,1213.46 477.265,1211.59 479.48,1209.71 481.694,1207.81 483.908,1205.89 486.122,1203.95 488.337,1202 490.551,1200.03 492.765,1198.04 494.979,1196.04 497.194,1194.02 499.408,1191.97 501.622,1189.91 503.837,1187.84 506.051,1185.74 508.265,1183.63 510.479,1181.49 512.694,1179.34 514.908,1177.17 517.122,1174.98 519.337,1172.78 521.551,1170.55 523.765,1168.31 525.979,1166.05 528.194,1163.77 530.408,1161.47 532.622,1159.16 534.836,1156.83 537.051,1154.48 539.265,1152.11 541.479,1149.73 543.694,1147.33 545.908,1144.92 548.122,1142.48 550.336,1140.04 552.551,1137.58 554.765,1135.1 556.979,1132.61 559.193,1130.1 561.408,1127.58 563.622,1125.05 565.836,1122.5 568.051,1119.94 570.265,1117.37 572.479,1114.79 574.693,1112.2 576.908,1109.6 579.122,1106.99 581.336,1104.37 583.55,1101.74 585.765,1099.1 587.979,1096.46 590.193,1093.81 592.408,1091.16 594.622,1088.5 596.836,1085.85 599.05,1083.19 601.265,1080.53 603.479,1077.88 605.693,1075.23 607.907,1072.58 610.122,1069.93 612.336,1067.3 614.55,1064.67 616.765,1062.06 618.979,1059.46 621.193,1056.88 623.407,1054.32 625.622,1051.78 627.836,1049.26 630.05,1046.77 632.265,1044.31 634.479,1041.89 636.693,1039.5 638.907,1037.15 641.122,1034.85 643.336,1032.6 645.55,1030.4 647.764,1028.25 649.979,1026.17 652.193,1024.15 654.407,1022.2 656.622,1020.32 658.836,1018.53 661.05,1016.82 663.264,1015.19 665.479,1013.67 667.693,1012.24 669.907,1010.92 672.121,1009.7 674.336,1008.61 676.55,1007.64 678.764,1006.8 680.979,1006.09 683.193,1005.52 685.407,1005.1 687.621,1004.83 689.836,1004.73 692.05,1004.81 694.264,1005.06 696.478,1005.51 698.693,1006.15 700.907,1006.99 703.121,1008.04 705.336,1009.3 707.55,1010.78 709.764,1012.48 711.978,1014.4 714.193,1016.55 716.407,1018.92 718.621,1021.53 720.835,1024.37 723.05,1027.44 725.264,1030.74 727.478,1034.27 729.693,1038.03 731.907,1042.02 734.121,1046.23 736.335,1050.67 738.55,1055.32 740.764,1060.19 742.978,1065.27 745.193,1070.55 747.407,1076.02 749.621,1081.65 751.835,1087.43 754.05,1093.36 756.264,1099.42 758.478,1105.58 760.692,1111.84 762.907,1118.19 765.121,1124.61 767.335,1131.08 769.55,1137.6 771.764,1144.14 773.978,1150.7 776.192,1157.26 778.407,1163.81 780.621,1170.34 782.835,1176.82 785.049,1183.25 787.264,1189.62 789.478,1195.9 791.692,1202.1 793.907,1208.19 796.121,1214.17 798.335,1220.02 800.549,1225.75 802.764,1231.35 804.978,1236.82 807.192,1242.16 809.406,1247.35 811.621,1252.41 813.835,1257.32 816.049,1262.09 818.264,1266.72 820.478,1271.2 822.692,1275.53 824.906,1279.72 827.121,1283.77 829.335,1287.67 831.549,1291.43 833.764,1295.05 835.978,1298.54 838.192,1301.89 840.406,1305.11 842.621,1308.2 844.835,1311.17 847.049,1314.02 849.263,1316.75 851.478,1319.38 853.692,1321.9 855.906,1324.33 858.121,1326.67 860.335,1328.91 862.549,1331.07 864.763,1333.13 866.978,1335.11 869.192,1337.01 871.406,1338.84 873.62,1340.59 875.835,1342.26 878.049,1343.87 880.263,1345.41 882.478,1346.89 884.692,1348.3 886.906,1349.66 889.12,1350.96 891.335,1352.2 893.549,1353.4 895.763,1354.54 897.977,1355.64 900.192,1356.69 902.406,1357.7 904.62,1358.66 906.835,1359.59 909.049,1360.48 911.263,1361.33 913.477,1362.15 915.692,1362.93 917.906,1363.69 920.12,1364.41 922.334,1365.11 924.549,1365.78 926.763,1366.42 928.977,1367.04 931.192,1367.63 933.406,1368.2 935.62,1368.75 937.834,1369.28 940.049,1369.78 942.263,1370.27 944.477,1370.74 946.692,1371.19 948.906,1371.63 951.12,1372.05 953.334,1372.45 955.549,1372.84 957.763,1373.21 959.977,1373.57 962.191,1373.92 964.406,1374.25 966.62,1374.57 968.834,1374.88 971.049,1375.18 973.263,1375.47 975.477,1375.74 977.691,1376.01 979.906,1376.27 982.12,1376.52 984.334,1376.75 986.548,1376.99 988.763,1377.21 990.977,1377.42 993.191,1377.63 995.406,1377.83 997.62,1378.02 999.834,1378.2 1002.05,1378.38 1004.26,1378.55 1006.48,1378.71 1008.69,1378.87 1010.91,1379.02 1013.12,1379.17 1015.33,1379.31 1017.55,1379.45 1019.76,1379.58 1021.98,1379.71 1024.19,1379.83 1026.41,1379.94 1028.62,1380.06 1030.83,1380.16 1033.05,1380.27 1035.26,1380.37 1037.48,1380.46 1039.69,1380.55 1041.91,1380.64 1044.12,1380.73 1046.33,1380.81 1048.55,1380.88 1050.76,1380.96 1052.98,1381.03 1055.19,1381.09 1057.41,1381.16 1059.62,1381.22 1061.83,1381.28 1064.05,1381.33 1066.26,1381.38 1068.48,1381.43 1070.69,1381.48 1072.91,1381.52 1075.12,1381.57 1077.33,1381.6 1079.55,1381.64 1081.76,1381.67 1083.98,1381.71 1086.19,1381.73 1088.41,1381.76 1090.62,1381.79 1092.83,1381.81 1095.05,1381.83 1097.26,1381.85 1099.48,1381.86 1101.69,1381.88 1103.91,1381.89 1106.12,1381.9 1108.33,1381.9 1110.55,1381.91 1112.76,1381.91 1114.98,1381.92 1117.19,1381.92 1119.4,1381.92 1121.62,1381.91 1123.83,1381.91 1126.05,1381.9 1128.26,1381.89 1130.48,1381.88 1132.69,1381.87 1134.9,1381.86 1137.12,1381.84 1139.33,1381.82 1141.55,1381.81 1143.76,1381.79 1145.98,1381.76 1148.19,1381.74 1150.4,1381.72 1152.62,1381.69 1154.83,1381.66 1157.05,1381.63 1159.26,1381.6 1161.48,1381.57 1163.69,1381.53 1165.9,1381.5 1168.12,1381.46 1170.33,1381.42 1172.55,1381.38 1174.76,1381.34 1176.98,1381.3 1179.19,1381.25 1181.4,1381.21 1183.62,1381.16 1185.83,1381.11 1188.05,1381.06 1190.26,1381.01 1192.48,1380.95 1194.69,1380.9 1196.9,1380.84 1199.12,1380.78 1201.33,1380.72 1203.55,1380.66 1205.76,1380.6 1207.98,1380.54 1210.19,1380.47 1212.4,1380.41 1214.62,1380.34 1216.83,1380.27 1219.05,1380.2 1221.26,1380.12 1223.48,1380.05 1225.69,1379.98 1227.9,1379.9 1230.12,1379.82 1232.33,1379.74 1234.55,1379.66 1236.76,1379.58 1238.98,1379.49 1241.19,1379.41 1243.4,1379.32 1245.62,1379.23 1247.83,1379.14 1250.05,1379.05 1252.26,1378.95 1254.48,1378.86 1256.69,1378.76 1258.9,1378.66 1261.12,1378.56 1263.33,1378.46 1265.55,1378.36 1267.76,1378.25 1269.98,1378.15 1272.19,1378.04 1274.4,1377.93 1276.62,1377.82 1278.83,1377.7 1281.05,1377.59 1283.26,1377.47 1285.48,1377.35 1287.69,1377.23 1289.9,1377.11 1292.12,1376.99 1294.33,1376.86 1296.55,1376.74 1298.76,1376.61 1300.98,1376.48 1303.19,1376.34 1305.4,1376.21 1307.62,1376.07 1309.83,1375.94 1312.05,1375.8 1314.26,1375.65 1316.48,1375.51 1318.69,1375.37 1320.9,1375.22 1323.12,1375.07 1325.33,1374.92 1327.55,1374.76 1329.76,1374.61 1331.98,1374.45 1334.19,1374.29 1336.4,1374.13 1338.62,1373.97 1340.83,1373.8 1343.05,1373.63 1345.26,1373.46 1347.48,1373.29 1349.69,1373.12 1351.9,1372.94 1354.12,1372.76 1356.33,1372.58 1358.55,1372.4 1360.76,1372.21 1362.98,1372.02 1365.19,1371.83 1367.4,1371.64 1369.62,1371.45 1371.83,1371.25 1374.05,1371.05 1376.26,1370.85 1378.48,1370.64 1380.69,1370.44 1382.9,1370.23 1385.12,1370.01 1387.33,1369.8 1389.55,1369.58 1391.76,1369.36 1393.97,1369.14 1396.19,1368.91 1398.4,1368.69 1400.62,1368.46 1402.83,1368.22 1405.05,1367.99 1407.26,1367.75 1409.47,1367.51 1411.69,1367.26 1413.9,1367.01 1416.12,1366.76 1418.33,1366.51 1420.55,1366.25 1422.76,1365.99 1424.97,1365.73 1427.19,1365.47 1429.4,1365.2 1431.62,1364.93 1433.83,1364.65 1436.05,1364.37 1438.26,1364.09 1440.47,1363.81 1442.69,1363.52 1444.9,1363.23 1447.12,1362.93 1449.33,1362.64 1451.55,1362.34 1453.76,1362.03 1455.97,1361.72 1458.19,1361.41 1460.4,1361.1 1462.62,1360.78 1464.83,1360.45 1467.05,1360.13 1469.26,1359.8 1471.47,1359.46 1473.69,1359.13 1475.9,1358.78 1478.12,1358.44 1480.33,1358.09 1482.55,1357.74 1484.76,1357.38 1486.97,1357.02 1489.19,1356.65 1491.4,1356.28 1493.62,1355.91 1495.83,1355.53 1498.05,1355.15 1500.26,1354.76 1502.47,1354.37 1504.69,1353.98 1506.9,1353.58 1509.12,1353.17 1511.33,1352.77 1513.55,1352.35 1515.76,1351.93 1517.97,1351.51 1520.19,1351.08 1522.4,1350.65 1524.62,1350.22 1526.83,1349.77 1529.05,1349.33 1531.26,1348.88 1533.47,1348.42 1535.69,1347.96 1537.9,1347.49 1540.12,1347.02 1542.33,1346.54 1544.55,1346.06 1546.76,1345.57 1548.97,1345.08 1551.19,1344.58 1553.4,1344.07 1555.62,1343.56 1557.83,1343.05 1560.05,1342.52 1562.26,1342 1564.47,1341.46 1566.69,1340.92 1568.9,1340.38 1571.12,1339.83 1573.33,1339.27 1575.55,1338.71 1577.76,1338.14 1579.97,1337.56 1582.19,1336.98 1584.4,1336.39 1586.62,1335.8 1588.83,1335.2 1591.05,1334.59 1593.26,1333.97 1595.47,1333.35 1597.69,1332.72 1599.9,1332.09 1602.12,1331.45 1604.33,1330.8 1606.55,1330.14 1608.76,1329.48 1610.97,1328.81 1613.19,1328.13 1615.4,1327.44 1617.62,1326.75 1619.83,1326.05 1622.05,1325.34 1624.26,1324.62 1626.47,1323.9 1628.69,1323.17 1630.9,1322.43 1633.12,1321.68 1635.33,1320.93 1637.55,1320.16 1639.76,1319.39 1641.97,1318.61 1644.19,1317.82 1646.4,1317.02 1648.62,1316.22 1650.83,1315.4 1653.05,1314.58 1655.26,1313.75 1657.47,1312.9 1659.69,1312.05 1661.9,1311.19 1664.12,1310.33 1666.33,1309.45 1668.55,1308.56 1670.76,1307.66 1672.97,1306.75 1675.19,1305.84 1677.4,1304.91 1679.62,1303.97 1681.83,1303.03 1684.04,1302.07 1686.26,1301.1 1688.47,1300.13 1690.69,1299.14 1692.9,1298.14 1695.12,1297.13 1697.33,1296.11 1699.54,1295.08 1701.76,1294.04 1703.97,1292.99 1706.19,1291.92 1708.4,1290.85 1710.62,1289.76 1712.83,1288.67 1715.04,1287.56 1717.26,1286.44 1719.47,1285.31 1721.69,1284.16 1723.9,1283 1726.12,1281.84 1728.33,1280.66 1730.54,1279.46 1732.76,1278.26 1734.97,1277.04 1737.19,1275.81 1739.4,1274.56 1741.62,1273.31 1743.83,1272.04 1746.04,1270.75 1748.26,1269.45 1750.47,1268.14 1752.69,1266.82 1754.9,1265.48 1757.12,1264.13 1759.33,1262.77 1761.54,1261.39 1763.76,1259.99 1765.97,1258.58 1768.19,1257.16 1770.4,1255.72 1772.62,1254.27 1774.83,1252.8 1777.04,1251.32 1779.26,1249.83 1781.47,1248.32 1783.69,1246.79 1785.9,1245.25 1788.12,1243.69 1790.33,1242.12 1792.54,1240.53 1794.76,1238.92 1796.97,1237.3 1799.19,1235.67 1801.4,1234.01 1803.62,1232.34 1805.83,1230.66 1808.04,1228.96 1810.26,1227.24 1812.47,1225.51 1814.69,1223.75 1816.9,1221.99 1819.12,1220.2 1821.33,1218.4 1823.54,1216.58 1825.76,1214.74 1827.97,1212.89 1830.19,1211.02 1832.4,1209.13 1834.62,1207.23 1836.83,1205.3 1839.04,1203.36 1841.26,1201.4 1843.47,1199.43 1845.69,1197.45 1847.9,1195.46 1850.12,1193.46 1852.33,1191.45 1854.54,1189.43 1856.76,1187.38 1858.97,1185.33 1861.19,1183.25 1863.4,1181.16 1865.62,1179.05 1867.83,1176.92 1870.04,1174.77 1872.26,1172.6 1874.47,1170.41 1876.69,1168.2 1878.9,1165.96 1881.12,1163.7 1883.33,1161.42 1885.54,1159.11 1887.76,1156.79 1889.97,1154.43 1892.19,1152.06 1894.4,1149.66 1896.62,1147.24 1898.83,1144.79 1901.04,1142.33 1903.26,1139.84 1905.47,1137.33 1907.69,1134.79 1909.9,1132.24 1912.12,1129.67 1914.33,1127.08 1916.54,1124.47 1918.76,1121.84 1920.97,1119.19 1923.19,1116.54 1925.4,1113.86 1927.62,1111.17 1929.83,1108.48 1932.04,1105.77 1934.26,1103.05 1936.47,1100.32 1938.69,1097.59 1940.9,1094.85 1943.12,1092.12 1945.33,1089.38 1947.54,1086.64 1949.76,1083.9 1951.97,1081.17 1954.19,1078.45 1956.4,1075.73 1958.62,1073.03 1960.83,1070.34 1963.04,1067.66 1965.26,1065.01 1967.47,1062.37 1969.69,1059.76 1971.9,1057.17 1974.11,1054.62 1976.33,1052.09 1978.54,1049.6 1980.76,1047.15 1982.97,1044.74 1985.19,1042.37 1987.4,1040.05 1989.61,1037.78 1991.83,1035.56 1994.04,1033.4 1996.26,1031.3 1998.47,1029.27 2000.69,1027.3 2002.9,1025.4 2005.11,1023.58 2007.33,1021.83 2009.54,1020.17 2011.76,1018.6 2013.97,1017.11 2016.19,1015.72 2018.4,1014.43 2020.61,1013.25 2022.83,1012.17 2025.04,1011.2 2027.26,1010.35 2029.47,1009.62 2031.69,1009.02 2033.9,1008.55 2036.11,1008.21 2038.33,1008.01 2040.54,1007.96 2042.76,1008.07 2044.97,1008.34 2047.19,1008.8 2049.4,1009.45 2051.61,1010.3 2053.83,1011.34 2056.04,1012.59 2058.26,1014.06 2060.47,1015.74 2062.69,1017.63 2064.9,1019.75 2067.11,1022.1 2069.33,1024.67 2071.54,1027.47 2073.76,1030.5 2075.97,1033.76 2078.19,1037.25 2080.4,1040.96 2082.61,1044.9 2084.83,1049.06 2087.04,1053.45 2089.26,1058.06 2091.47,1062.87 2093.69,1067.88 2095.9,1073.06 2098.11,1078.43 2100.33,1083.95 2102.54,1089.62 2104.76,1095.43 2106.97,1101.36 2109.19,1107.4 2111.4,1113.55 2113.61,1119.78 2115.83,1126.08 2118.04,1132.44 2120.26,1138.85 2122.47,1145.3 2124.69,1151.76 2126.9,1158.22 2129.11,1164.68 2131.33,1171.11 2133.54,1177.5 2135.76,1183.83 2137.97,1190.1 2140.19,1196.28 2142.4,1202.37 2144.61,1208.37 2146.83,1214.27 2149.04,1220.05 2151.26,1225.72 2153.47,1231.26 2155.69,1236.68 2157.9,1241.97 2160.11,1247.12 2162.33,1252.13 2164.54,1257.01 2166.76,1261.73 2168.97,1266.32 2171.19,1270.76 2173.4,1275.05 2175.61,1279.2 2177.83,1283.2 2180.04,1287.07 2182.26,1290.79 2184.47,1294.38 2186.69,1297.83 2188.9,1301.16 2191.11,1304.36 2193.33,1307.45 2195.54,1310.42 2197.76,1313.28 2199.97,1316.03 2202.19,1318.67 2204.4,1321.21 2206.61,1323.65 2208.83,1325.99 2211.04,1328.23 2213.26,1330.39 2215.47,1332.46 2217.69,1334.44 2219.9,1336.35 2222.11,1338.17 2224.33,1339.92 2226.54,1341.6 2228.76,1343.21 2230.97,1344.75 2233.19,1346.23 2235.4,1347.65 2237.61,1349.01 2239.83,1350.31 2242.04,1351.56 2244.26,1352.76 2246.47,1353.91 2248.68,1355.01 2250.9,1356.07 2253.11,1357.08 2255.33,1358.05 2257.54,1358.99 2259.76,1359.88 2261.97,1360.75 2264.18,1361.57 2266.4,1362.37 2268.61,1363.13 2270.83,1363.86 2273.04,1364.56 2275.26,1365.24 2277.47,1365.89 2279.68,1366.51 2281.9,1367.12 2284.11,1367.69 2286.33,1368.25 2288.54,1368.78 2290.76,1369.3 2292.97,1369.79 2295.18,1370.27 2297.4,1370.73 2299.61,1371.17 2301.83,1371.59 2304.04,1372 2306.26,1372.39 2308.47,1372.77 2310.68,1373.14 2312.9,1373.49 2315.11,1373.83 2317.33,1374.15 2319.54,1374.47 2321.76,1374.77 2323.97,1375.06 2326.18,1375.34 2328.4,1375.61 2330.61,1375.88 2332.83,1376.13 2335.04,1376.37 2337.26,1376.6 2339.47,1376.83 2341.68,1377.05 2343.9,1377.26 2346.11,1377.46 2348.33,1377.65 2350.54,1377.84 2352.76,1378.02 "/>
<polyline clip-path="url(#clip082)" style="stroke:#c271d2; stroke-linecap:round; stroke-linejoin:round; stroke-width:12; stroke-opacity:1; fill:none" stroke-dasharray="48, 30" points="140.696,1356.02 142.91,1356.39 145.124,1356.76 147.338,1357.12 149.553,1357.47 151.767,1357.82 153.981,1358.17 156.195,1358.51 158.41,1358.84 160.624,1359.17 162.838,1359.5 165.053,1359.82 167.267,1360.13 169.481,1360.44 171.695,1360.74 173.91,1361.04 176.124,1361.34 178.338,1361.63 180.552,1361.91 182.767,1362.2 184.981,1362.47 187.195,1362.74 189.41,1363.01 191.624,1363.28 193.838,1363.53 196.052,1363.79 198.267,1364.04 200.481,1364.29 202.695,1364.53 204.91,1364.77 207.124,1365 209.338,1365.23 211.552,1365.46 213.767,1365.68 215.981,1365.9 218.195,1366.11 220.409,1366.33 222.624,1366.53 224.838,1366.74 227.052,1366.94 229.267,1367.13 231.481,1367.32 233.695,1367.51 235.909,1367.7 238.124,1367.88 240.338,1368.06 242.552,1368.24 244.766,1368.41 246.981,1368.58 249.195,1368.74 251.409,1368.9 253.624,1369.06 255.838,1369.22 258.052,1369.37 260.266,1369.52 262.481,1369.66 264.695,1369.8 266.909,1369.94 269.123,1370.08 271.338,1370.21 273.552,1370.34 275.766,1370.47 277.981,1370.59 280.195,1370.71 282.409,1370.83 284.623,1370.94 286.838,1371.06 289.052,1371.16 291.266,1371.27 293.48,1371.37 295.695,1371.47 297.909,1371.57 300.123,1371.66 302.338,1371.75 304.552,1371.84 306.766,1371.92 308.98,1372.01 311.195,1372.08 313.409,1372.16 315.623,1372.23 317.838,1372.3 320.052,1372.37 322.266,1372.43 324.48,1372.49 326.695,1372.55 328.909,1372.61 331.123,1372.66 333.337,1372.71 335.552,1372.76 337.766,1372.8 339.98,1372.84 342.195,1372.88 344.409,1372.91 346.623,1372.94 348.837,1372.97 351.052,1372.99 353.266,1373.02 355.48,1373.03 357.694,1373.05 359.909,1373.06 362.123,1373.07 364.337,1373.08 366.552,1373.08 368.766,1373.08 370.98,1373.07 373.194,1373.07 375.409,1373.05 377.623,1373.04 379.837,1373.02 382.051,1373 384.266,1372.97 386.48,1372.94 388.694,1372.91 390.909,1372.87 393.123,1372.83 395.337,1372.79 397.551,1372.74 399.766,1372.69 401.98,1372.63 404.194,1372.57 406.408,1372.51 408.623,1372.44 410.837,1372.36 413.051,1372.29 415.266,1372.2 417.48,1372.12 419.694,1372.03 421.908,1371.93 424.123,1371.83 426.337,1371.72 428.551,1371.61 430.766,1371.5 432.98,1371.38 435.194,1371.25 437.408,1371.12 439.623,1370.98 441.837,1370.83 444.051,1370.68 446.265,1370.52 448.48,1370.36 450.694,1370.19 452.908,1370.01 455.123,1369.82 457.337,1369.63 459.551,1369.43 461.765,1369.22 463.98,1369.01 466.194,1368.78 468.408,1368.55 470.622,1368.31 472.837,1368.06 475.051,1367.8 477.265,1367.53 479.48,1367.26 481.694,1366.97 483.908,1366.67 486.122,1366.36 488.337,1366.04 490.551,1365.7 492.765,1365.35 494.979,1364.99 497.194,1364.62 499.408,1364.23 501.622,1363.83 503.837,1363.41 506.051,1362.99 508.265,1362.54 510.479,1362.09 512.694,1361.61 514.908,1361.12 517.122,1360.62 519.337,1360.1 521.551,1359.56 523.765,1359 525.979,1358.42 528.194,1357.82 530.408,1357.2 532.622,1356.55 534.836,1355.89 537.051,1355.2 539.265,1354.48 541.479,1353.74 543.694,1352.97 545.908,1352.17 548.122,1351.33 550.336,1350.47 552.551,1349.57 554.765,1348.64 556.979,1347.67 559.193,1346.67 561.408,1345.62 563.622,1344.53 565.836,1343.4 568.051,1342.22 570.265,1341 572.479,1339.72 574.693,1338.4 576.908,1337.02 579.122,1335.59 581.336,1334.1 583.55,1332.55 585.765,1330.94 587.979,1329.26 590.193,1327.52 592.408,1325.69 594.622,1323.8 596.836,1321.82 599.05,1319.76 601.265,1317.62 603.479,1315.38 605.693,1313.05 607.907,1310.63 610.122,1308.1 612.336,1305.46 614.55,1302.7 616.765,1299.83 618.979,1296.84 621.193,1293.71 623.407,1290.44 625.622,1287.03 627.836,1283.46 630.05,1279.74 632.265,1275.85 634.479,1271.78 636.693,1267.53 638.907,1263.08 641.122,1258.44 643.336,1253.58 645.55,1248.5 647.764,1243.19 649.979,1237.64 652.193,1231.84 654.407,1225.78 656.622,1219.44 658.836,1212.82 661.05,1205.9 663.264,1198.67 665.479,1191.12 667.693,1183.24 669.907,1175.01 672.121,1166.43 674.336,1157.46 676.55,1148.11 678.764,1138.36 680.979,1128.2 683.193,1117.62 685.407,1106.59 687.621,1095.11 689.836,1083.16 692.05,1070.71 694.264,1057.77 696.478,1044.31 698.693,1030.33 700.907,1015.83 703.121,1000.8 705.336,985.232 707.55,969.136 709.764,952.509 711.978,935.357 714.193,917.685 716.407,899.502 718.621,880.817 720.835,861.644 723.05,841.997 725.264,821.892 727.478,801.348 729.693,780.385 731.907,759.026 734.121,737.297 736.335,715.223 738.55,692.833 740.764,670.157 742.978,647.23 745.193,624.115 747.407,600.878 749.621,577.581 751.835,554.286 754.05,531.055 756.264,507.945 758.478,485.014 760.692,462.318 762.907,439.911 765.121,417.845 767.335,396.173 769.55,374.942 771.764,354.203 773.978,334 776.192,314.379 778.407,295.384 780.621,277.056 782.835,259.436 785.049,242.563 787.264,226.474 789.478,211.204 791.692,196.789 793.907,183.261 796.121,170.646 798.335,158.948 800.549,148.16 802.764,138.277 804.978,129.29 807.192,121.192 809.406,113.971 811.621,107.616 813.835,102.116 816.049,97.4555 818.264,93.6202 820.478,90.5936 822.692,88.3584 824.906,86.8957 827.121,86.1857 829.335,86.207 831.549,86.9373 833.764,88.3529 835.978,90.4289 838.192,93.1391 840.406,96.4562 842.621,100.352 844.835,104.795 847.049,109.757 849.263,115.203 851.478,121.101 853.692,127.415 855.906,134.111 858.121,141.158 860.335,148.546 862.549,156.257 864.763,164.272 866.978,172.573 869.192,181.142 871.406,189.961 873.62,199.015 875.835,208.285 878.049,217.757 880.263,227.415 882.478,237.242 884.692,247.226 886.906,257.35 889.12,267.602 891.335,277.968 893.549,288.434 895.763,298.988 897.977,309.619 900.192,320.313 902.406,331.06 904.62,341.849 906.835,352.669 909.049,363.51 911.263,374.363 913.477,385.218 915.692,396.066 917.906,406.9 920.12,417.711 922.334,428.492 924.549,439.241 926.763,449.957 928.977,460.634 931.192,471.269 933.406,481.857 935.62,492.395 937.834,502.878 940.049,513.304 942.263,523.668 944.477,533.969 946.692,544.202 948.906,554.366 951.12,564.458 953.334,574.475 955.549,584.416 957.763,594.278 959.977,604.06 962.191,613.761 964.406,623.378 966.62,632.912 968.834,642.361 971.049,651.724 973.263,661.001 975.477,670.191 977.691,679.292 979.906,688.305 982.12,697.228 984.334,706.062 986.548,714.806 988.763,723.46 990.977,732.025 993.191,740.5 995.406,748.885 997.62,757.18 999.834,765.385 1002.05,773.501 1004.26,781.527 1006.48,789.464 1008.69,797.311 1010.91,805.07 1013.12,812.74 1015.33,820.322 1017.55,827.815 1019.76,835.221 1021.98,842.54 1024.19,849.772 1026.41,856.918 1028.62,863.978 1030.83,870.953 1033.05,877.843 1035.26,884.649 1037.48,891.373 1039.69,898.013 1041.91,904.572 1044.12,911.05 1046.33,917.448 1048.55,923.766 1050.76,930.006 1052.98,936.169 1055.19,942.253 1057.41,948.262 1059.62,954.194 1061.83,960.05 1064.05,965.833 1066.26,971.541 1068.48,977.176 1070.69,982.739 1072.91,988.23 1075.12,993.65 1077.33,999 1079.55,1004.28 1081.76,1009.49 1083.98,1014.64 1086.19,1019.71 1088.41,1024.72 1090.62,1029.67 1092.83,1034.55 1095.05,1039.36 1097.26,1044.11 1099.48,1048.8 1101.69,1053.43 1103.91,1057.99 1106.12,1062.5 1108.33,1066.94 1110.55,1071.33 1112.76,1075.65 1114.98,1079.92 1117.19,1084.13 1119.4,1088.29 1121.62,1092.39 1123.83,1096.43 1126.05,1100.42 1128.26,1104.36 1130.48,1108.24 1132.69,1112.07 1134.9,1115.85 1137.12,1119.58 1139.33,1123.25 1141.55,1126.88 1143.76,1130.46 1145.98,1133.99 1148.19,1137.47 1150.4,1140.9 1152.62,1144.29 1154.83,1147.63 1157.05,1150.92 1159.26,1154.17 1161.48,1157.38 1163.69,1160.54 1165.9,1163.65 1168.12,1166.73 1170.33,1169.76 1172.55,1172.75 1174.76,1175.7 1176.98,1178.61 1179.19,1181.48 1181.4,1184.31 1183.62,1187.1 1185.83,1189.85 1188.05,1192.57 1190.26,1195.24 1192.48,1197.88 1194.69,1200.48 1196.9,1203.05 1199.12,1205.58 1201.33,1208.08 1203.55,1210.54 1205.76,1212.97 1207.98,1215.36 1210.19,1217.72 1212.4,1220.05 1214.62,1222.34 1216.83,1224.61 1219.05,1226.84 1221.26,1229.04 1223.48,1231.21 1225.69,1233.35 1227.9,1235.46 1230.12,1237.54 1232.33,1239.59 1234.55,1241.62 1236.76,1243.61 1238.98,1245.58 1241.19,1247.52 1243.4,1249.43 1245.62,1251.32 1247.83,1253.18 1250.05,1255.01 1252.26,1256.82 1254.48,1258.6 1256.69,1260.36 1258.9,1262.09 1261.12,1263.8 1263.33,1265.48 1265.55,1267.14 1267.76,1268.78 1269.98,1270.4 1272.19,1271.99 1274.4,1273.56 1276.62,1275.11 1278.83,1276.63 1281.05,1278.14 1283.26,1279.62 1285.48,1281.08 1287.69,1282.52 1289.9,1283.95 1292.12,1285.35 1294.33,1286.73 1296.55,1288.09 1298.76,1289.43 1300.98,1290.76 1303.19,1292.06 1305.4,1293.35 1307.62,1294.62 1309.83,1295.87 1312.05,1297.11 1314.26,1298.32 1316.48,1299.52 1318.69,1300.7 1320.9,1301.87 1323.12,1303.02 1325.33,1304.15 1327.55,1305.27 1329.76,1306.37 1331.98,1307.46 1334.19,1308.53 1336.4,1309.58 1338.62,1310.62 1340.83,1311.65 1343.05,1312.66 1345.26,1313.65 1347.48,1314.64 1349.69,1315.61 1351.9,1316.56 1354.12,1317.5 1356.33,1318.43 1358.55,1319.34 1360.76,1320.25 1362.98,1321.14 1365.19,1322.01 1367.4,1322.88 1369.62,1323.73 1371.83,1324.57 1374.05,1325.39 1376.26,1326.21 1378.48,1327.02 1380.69,1327.81 1382.9,1328.59 1385.12,1329.36 1387.33,1330.12 1389.55,1330.87 1391.76,1331.61 1393.97,1332.33 1396.19,1333.05 1398.4,1333.76 1400.62,1334.45 1402.83,1335.14 1405.05,1335.82 1407.26,1336.48 1409.47,1337.14 1411.69,1337.79 1413.9,1338.43 1416.12,1339.06 1418.33,1339.68 1420.55,1340.29 1422.76,1340.9 1424.97,1341.49 1427.19,1342.08 1429.4,1342.65 1431.62,1343.22 1433.83,1343.78 1436.05,1344.33 1438.26,1344.88 1440.47,1345.42 1442.69,1345.94 1444.9,1346.47 1447.12,1346.98 1449.33,1347.49 1451.55,1347.98 1453.76,1348.48 1455.97,1348.96 1458.19,1349.44 1460.4,1349.91 1462.62,1350.37 1464.83,1350.83 1467.05,1351.28 1469.26,1351.72 1471.47,1352.16 1473.69,1352.59 1475.9,1353.01 1478.12,1353.43 1480.33,1353.84 1482.55,1354.24 1484.76,1354.64 1486.97,1355.03 1489.19,1355.42 1491.4,1355.8 1493.62,1356.18 1495.83,1356.55 1498.05,1356.91 1500.26,1357.27 1502.47,1357.62 1504.69,1357.97 1506.9,1358.32 1509.12,1358.65 1511.33,1358.99 1513.55,1359.31 1515.76,1359.64 1517.97,1359.95 1520.19,1360.26 1522.4,1360.57 1524.62,1360.88 1526.83,1361.17 1529.05,1361.47 1531.26,1361.76 1533.47,1362.04 1535.69,1362.32 1537.9,1362.59 1540.12,1362.86 1542.33,1363.13 1544.55,1363.39 1546.76,1363.65 1548.97,1363.9 1551.19,1364.15 1553.4,1364.4 1555.62,1364.64 1557.83,1364.88 1560.05,1365.11 1562.26,1365.34 1564.47,1365.56 1566.69,1365.79 1568.9,1366 1571.12,1366.22 1573.33,1366.43 1575.55,1366.63 1577.76,1366.83 1579.97,1367.03 1582.19,1367.23 1584.4,1367.42 1586.62,1367.61 1588.83,1367.79 1591.05,1367.97 1593.26,1368.15 1595.47,1368.32 1597.69,1368.49 1599.9,1368.66 1602.12,1368.82 1604.33,1368.98 1606.55,1369.14 1608.76,1369.3 1610.97,1369.45 1613.19,1369.59 1615.4,1369.74 1617.62,1369.88 1619.83,1370.02 1622.05,1370.15 1624.26,1370.28 1626.47,1370.41 1628.69,1370.54 1630.9,1370.66 1633.12,1370.78 1635.33,1370.9 1637.55,1371.01 1639.76,1371.12 1641.97,1371.23 1644.19,1371.33 1646.4,1371.43 1648.62,1371.53 1650.83,1371.63 1653.05,1371.72 1655.26,1371.81 1657.47,1371.9 1659.69,1371.98 1661.9,1372.06 1664.12,1372.14 1666.33,1372.21 1668.55,1372.28 1670.76,1372.35 1672.97,1372.42 1675.19,1372.48 1677.4,1372.54 1679.62,1372.6 1681.83,1372.65 1684.04,1372.7 1686.26,1372.75 1688.47,1372.8 1690.69,1372.84 1692.9,1372.88 1695.12,1372.92 1697.33,1372.95 1699.54,1372.98 1701.76,1373.01 1703.97,1373.03 1706.19,1373.05 1708.4,1373.07 1710.62,1373.08 1712.83,1373.09 1715.04,1373.1 1717.26,1373.1 1719.47,1373.1 1721.69,1373.09 1723.9,1373.09 1726.12,1373.08 1728.33,1373.06 1730.54,1373.05 1732.76,1373.03 1734.97,1373 1737.19,1372.98 1739.4,1372.95 1741.62,1372.91 1743.83,1372.87 1746.04,1372.83 1748.26,1372.79 1750.47,1372.74 1752.69,1372.69 1754.9,1372.63 1757.12,1372.57 1759.33,1372.5 1761.54,1372.44 1763.76,1372.36 1765.97,1372.29 1768.19,1372.2 1770.4,1372.12 1772.62,1372.03 1774.83,1371.93 1777.04,1371.83 1779.26,1371.72 1781.47,1371.61 1783.69,1371.49 1785.9,1371.37 1788.12,1371.24 1790.33,1371.11 1792.54,1370.97 1794.76,1370.82 1796.97,1370.67 1799.19,1370.51 1801.4,1370.35 1803.62,1370.18 1805.83,1370 1808.04,1369.81 1810.26,1369.61 1812.47,1369.41 1814.69,1369.2 1816.9,1368.99 1819.12,1368.76 1821.33,1368.52 1823.54,1368.28 1825.76,1368.03 1827.97,1367.77 1830.19,1367.49 1832.4,1367.21 1834.62,1366.92 1836.83,1366.62 1839.04,1366.31 1841.26,1365.98 1843.47,1365.64 1845.69,1365.26 1847.9,1364.86 1850.12,1364.43 1852.33,1363.99 1854.54,1363.52 1856.76,1363.03 1858.97,1362.52 1861.19,1362 1863.4,1361.46 1865.62,1360.91 1867.83,1360.34 1870.04,1359.76 1872.26,1359.17 1874.47,1358.57 1876.69,1357.95 1878.9,1357.32 1881.12,1356.68 1883.33,1356.02 1885.54,1355.36 1887.76,1354.68 1889.97,1353.98 1892.19,1353.27 1894.4,1352.55 1896.62,1351.8 1898.83,1351.04 1901.04,1350.26 1903.26,1349.45 1905.47,1348.62 1907.69,1347.76 1909.9,1346.88 1912.12,1345.97 1914.33,1345.02 1916.54,1344.04 1918.76,1343.02 1920.97,1341.95 1923.19,1340.85 1925.4,1339.69 1927.62,1338.49 1929.83,1337.23 1932.04,1335.91 1934.26,1334.53 1936.47,1333.09 1938.69,1331.57 1940.9,1329.98 1943.12,1328.31 1945.33,1326.56 1947.54,1324.72 1949.76,1322.78 1951.97,1320.75 1954.19,1318.61 1956.4,1316.37 1958.62,1314.01 1960.83,1311.53 1963.04,1308.92 1965.26,1306.18 1967.47,1303.31 1969.69,1300.29 1971.9,1297.11 1974.11,1293.78 1976.33,1290.29 1978.54,1286.62 1980.76,1282.78 1982.97,1278.75 1985.19,1274.53 1987.4,1270.1 1989.61,1265.47 1991.83,1260.62 1994.04,1255.55 1996.26,1250.24 1998.47,1244.69 2000.69,1238.9 2002.9,1232.84 2005.11,1226.52 2007.33,1219.92 2009.54,1213.04 2011.76,1205.87 2013.97,1198.39 2016.19,1190.59 2018.4,1182.48 2020.61,1174.03 2022.83,1165.24 2025.04,1156.1 2027.26,1146.59 2029.47,1136.71 2031.69,1126.44 2033.9,1115.78 2036.11,1104.72 2038.33,1093.23 2040.54,1081.32 2042.76,1068.96 2044.97,1056.12 2047.19,1042.8 2049.4,1028.97 2051.61,1014.63 2053.83,999.783 2056.04,984.413 2058.26,968.522 2060.47,952.111 2062.69,935.182 2064.9,917.74 2067.11,899.793 2069.33,881.35 2071.54,862.423 2073.76,843.027 2075.97,823.178 2078.19,802.895 2080.4,782.198 2082.61,761.112 2084.83,739.657 2087.04,717.844 2089.26,695.725 2091.47,673.353 2093.69,650.783 2095.9,628.069 2098.11,605.262 2100.33,582.417 2102.54,559.585 2104.76,536.819 2106.97,514.169 2109.19,491.688 2111.4,469.426 2113.61,447.433 2115.83,425.759 2118.04,404.453 2120.26,383.565 2122.47,363.143 2124.69,343.236 2126.9,323.89 2129.11,305.155 2131.33,287.076 2133.54,269.7 2135.76,253.074 2137.97,237.243 2140.19,222.243 2142.4,208.079 2144.61,194.762 2146.83,182.301 2149.04,170.703 2151.26,159.973 2153.47,150.113 2155.69,141.124 2157.9,133.004 2160.11,125.749 2162.33,119.353 2164.54,113.806 2166.76,109.099 2168.97,105.219 2171.19,102.151 2173.4,99.8768 2175.61,98.3774 2177.83,97.6311 2180.04,97.614 2182.26,98.3 2184.47,99.6607 2186.69,101.665 2188.9,104.282 2191.11,107.474 2193.33,111.206 2195.54,115.439 2197.76,120.16 2199.97,125.353 2202.19,130.993 2204.4,137.057 2206.61,143.523 2208.83,150.368 2211.04,157.571 2213.26,165.11 2215.47,172.964 2217.69,181.114 2219.9,189.54 2222.11,198.223 2224.33,207.144 2226.54,216.286 2228.76,225.63 2230.97,235.161 2233.19,244.861 2235.4,254.715 2237.61,264.708 2239.83,274.824 2242.04,285.051 2244.26,295.373 2246.47,305.778 2248.68,316.253 2250.9,326.787 2253.11,337.367 2255.33,347.983 2257.54,358.628 2259.76,369.294 2261.97,379.975 2264.18,390.662 2266.4,401.35 2268.61,412.032 2270.83,422.7 2273.04,433.35 2275.26,443.975 2277.47,454.57 2279.68,465.13 2281.9,475.65 2284.11,486.125 2286.33,496.552 2288.54,506.926 2290.76,517.244 2292.97,527.502 2295.18,537.698 2297.4,547.829 2299.61,557.892 2301.83,567.886 2304.04,577.808 2306.26,587.657 2308.47,597.43 2310.68,607.126 2312.9,616.742 2315.11,626.278 2317.33,635.733 2319.54,645.105 2321.76,654.393 2323.97,663.596 2326.18,672.714 2328.4,681.745 2330.61,690.69 2332.83,699.547 2335.04,708.316 2337.26,716.997 2339.47,725.589 2341.68,734.092 2343.9,742.507 2346.11,750.832 2348.33,759.069 2350.54,767.217 2352.76,775.276 "/>
<path clip-path="url(#clip080)" d="M214.431 352.309 L524.734 352.309 L524.734 93.1086 L214.431 93.1086  Z" fill="#ffffff" fill-rule="evenodd" fill-opacity="1"/>
<polyline clip-path="url(#clip080)" style="stroke:#000000; stroke-linecap:round; stroke-linejoin:round; stroke-width:4; stroke-opacity:1; fill:none" points="214.431,352.309 524.734,352.309 524.734,93.1086 214.431,93.1086 214.431,352.309 "/>
<polyline clip-path="url(#clip080)" style="stroke:#009af9; stroke-linecap:round; stroke-linejoin:round; stroke-width:12; stroke-opacity:1; fill:none" points="239.009,144.949 386.48,144.949 "/>
<path clip-path="url(#clip080)" d="M411.058 151.997 L411.058 136.303 L415.318 136.303 L415.318 151.835 Q415.318 155.516 416.753 157.368 Q418.188 159.196 421.058 159.196 Q424.507 159.196 426.498 156.997 Q428.512 154.798 428.512 151.002 L428.512 136.303 L432.771 136.303 L432.771 162.229 L428.512 162.229 L428.512 158.247 Q426.961 160.608 424.901 161.766 Q422.864 162.9 420.156 162.9 Q415.688 162.9 413.373 160.122 Q411.058 157.344 411.058 151.997 M421.776 135.678 L421.776 135.678 Z" fill="#000000" fill-rule="nonzero" fill-opacity="1" /><path clip-path="url(#clip080)" d="M441.151 126.21 L450.966 126.21 L450.966 129.52 L445.41 129.52 L445.41 165.168 L450.966 165.168 L450.966 168.479 L441.151 168.479 L441.151 126.21 Z" fill="#000000" fill-rule="nonzero" fill-opacity="1" /><path clip-path="url(#clip080)" d="M461.452 158.293 L469.091 158.293 L469.091 131.928 L460.78 133.595 L460.78 129.335 L469.044 127.669 L473.72 127.669 L473.72 158.293 L481.359 158.293 L481.359 162.229 L461.452 162.229 L461.452 158.293 Z" fill="#000000" fill-rule="nonzero" fill-opacity="1" /><path clip-path="url(#clip080)" d="M500.155 126.21 L500.155 168.479 L490.34 168.479 L490.34 165.168 L495.873 165.168 L495.873 129.52 L490.34 129.52 L490.34 126.21 L500.155 126.21 Z" fill="#000000" fill-rule="nonzero" fill-opacity="1" /><polyline clip-path="url(#clip080)" style="stroke:#e26f46; stroke-linecap:round; stroke-linejoin:round; stroke-width:12; stroke-opacity:1; fill:none" points="239.009,196.789 386.48,196.789 "/>
<path clip-path="url(#clip080)" d="M411.058 203.837 L411.058 188.143 L415.318 188.143 L415.318 203.675 Q415.318 207.356 416.753 209.208 Q418.188 211.036 421.058 211.036 Q424.507 211.036 426.498 208.837 Q428.512 206.638 428.512 202.842 L428.512 188.143 L432.771 188.143 L432.771 214.069 L428.512 214.069 L428.512 210.087 Q426.961 212.448 424.901 213.606 Q422.864 214.74 420.156 214.74 Q415.688 214.74 413.373 211.962 Q411.058 209.184 411.058 203.837 M421.776 187.518 L421.776 187.518 Z" fill="#000000" fill-rule="nonzero" fill-opacity="1" /><path clip-path="url(#clip080)" d="M441.151 178.05 L450.966 178.05 L450.966 181.36 L445.41 181.36 L445.41 217.008 L450.966 217.008 L450.966 220.319 L441.151 220.319 L441.151 178.05 Z" fill="#000000" fill-rule="nonzero" fill-opacity="1" /><path clip-path="url(#clip080)" d="M464.669 210.133 L480.989 210.133 L480.989 214.069 L459.044 214.069 L459.044 210.133 Q461.706 207.379 466.29 202.749 Q470.896 198.096 472.077 196.754 Q474.322 194.231 475.202 192.495 Q476.104 190.735 476.104 189.046 Q476.104 186.291 474.16 184.555 Q472.239 182.819 469.137 182.819 Q466.938 182.819 464.484 183.583 Q462.054 184.347 459.276 185.897 L459.276 181.175 Q462.1 180.041 464.554 179.462 Q467.007 178.884 469.044 178.884 Q474.415 178.884 477.609 181.569 Q480.803 184.254 480.803 188.745 Q480.803 190.874 479.993 192.796 Q479.206 194.694 477.1 197.286 Q476.521 197.958 473.419 201.175 Q470.317 204.37 464.669 210.133 Z" fill="#000000" fill-rule="nonzero" fill-opacity="1" /><path clip-path="url(#clip080)" d="M500.155 178.05 L500.155 220.319 L490.34 220.319 L490.34 217.008 L495.873 217.008 L495.873 181.36 L490.34 181.36 L490.34 178.05 L500.155 178.05 Z" fill="#000000" fill-rule="nonzero" fill-opacity="1" /><polyline clip-path="url(#clip080)" style="stroke:#3da44d; stroke-linecap:round; stroke-linejoin:round; stroke-width:12; stroke-opacity:1; fill:none" stroke-dasharray="48, 30" points="239.009,248.629 386.48,248.629 "/>
<path clip-path="url(#clip080)" d="M411.058 255.677 L411.058 239.983 L415.318 239.983 L415.318 255.515 Q415.318 259.196 416.753 261.048 Q418.188 262.876 421.058 262.876 Q424.507 262.876 426.498 260.677 Q428.512 258.478 428.512 254.682 L428.512 239.983 L432.771 239.983 L432.771 265.909 L428.512 265.909 L428.512 261.927 Q426.961 264.288 424.901 265.446 Q422.864 266.58 420.156 266.58 Q415.688 266.58 413.373 263.802 Q411.058 261.024 411.058 255.677 M421.776 239.358 L421.776 239.358 Z" fill="#000000" fill-rule="nonzero" fill-opacity="1" /><path clip-path="url(#clip080)" d="M441.151 229.89 L450.966 229.89 L450.966 233.2 L445.41 233.2 L445.41 268.848 L450.966 268.848 L450.966 272.159 L441.151 272.159 L441.151 229.89 Z" fill="#000000" fill-rule="nonzero" fill-opacity="1" /><path clip-path="url(#clip080)" d="M461.452 261.973 L469.091 261.973 L469.091 235.608 L460.78 237.275 L460.78 233.015 L469.044 231.349 L473.72 231.349 L473.72 261.973 L481.359 261.973 L481.359 265.909 L461.452 265.909 L461.452 261.973 Z" fill="#000000" fill-rule="nonzero" fill-opacity="1" /><path clip-path="url(#clip080)" d="M500.155 229.89 L500.155 272.159 L490.34 272.159 L490.34 268.848 L495.873 268.848 L495.873 233.2 L490.34 233.2 L490.34 229.89 L500.155 229.89 Z" fill="#000000" fill-rule="nonzero" fill-opacity="1" /><polyline clip-path="url(#clip080)" style="stroke:#c271d2; stroke-linecap:round; stroke-linejoin:round; stroke-width:12; stroke-opacity:1; fill:none" stroke-dasharray="48, 30" points="239.009,300.469 386.48,300.469 "/>
<path clip-path="url(#clip080)" d="M411.058 307.517 L411.058 291.823 L415.318 291.823 L415.318 307.355 Q415.318 311.036 416.753 312.888 Q418.188 314.716 421.058 314.716 Q424.507 314.716 426.498 312.517 Q428.512 310.318 428.512 306.522 L428.512 291.823 L432.771 291.823 L432.771 317.749 L428.512 317.749 L428.512 313.767 Q426.961 316.128 424.901 317.286 Q422.864 318.42 420.156 318.42 Q415.688 318.42 413.373 315.642 Q411.058 312.864 411.058 307.517 M421.776 291.198 L421.776 291.198 Z" fill="#000000" fill-rule="nonzero" fill-opacity="1" /><path clip-path="url(#clip080)" d="M441.151 281.73 L450.966 281.73 L450.966 285.04 L445.41 285.04 L445.41 320.688 L450.966 320.688 L450.966 323.999 L441.151 323.999 L441.151 281.73 Z" fill="#000000" fill-rule="nonzero" fill-opacity="1" /><path clip-path="url(#clip080)" d="M464.669 313.813 L480.989 313.813 L480.989 317.749 L459.044 317.749 L459.044 313.813 Q461.706 311.059 466.29 306.429 Q470.896 301.776 472.077 300.434 Q474.322 297.911 475.202 296.175 Q476.104 294.415 476.104 292.726 Q476.104 289.971 474.16 288.235 Q472.239 286.499 469.137 286.499 Q466.938 286.499 464.484 287.263 Q462.054 288.027 459.276 289.577 L459.276 284.855 Q462.1 283.721 464.554 283.142 Q467.007 282.564 469.044 282.564 Q474.415 282.564 477.609 285.249 Q480.803 287.934 480.803 292.425 Q480.803 294.554 479.993 296.476 Q479.206 298.374 477.1 300.966 Q476.521 301.638 473.419 304.855 Q470.317 308.05 464.669 313.813 Z" fill="#000000" fill-rule="nonzero" fill-opacity="1" /><path clip-path="url(#clip080)" d="M500.155 281.73 L500.155 323.999 L490.34 323.999 L490.34 320.688 L495.873 320.688 L495.873 285.04 L490.34 285.04 L490.34 281.73 L500.155 281.73 Z" fill="#000000" fill-rule="nonzero" fill-opacity="1" /></svg>
