<?xml version="1.0" encoding="utf-8"?>
<svg xmlns="http://www.w3.org/2000/svg" xmlns:xlink="http://www.w3.org/1999/xlink" width="600" height="400" viewBox="0 0 2400 1600">
<defs>
  <clipPath id="clip590">
    <rect x="0" y="0" width="2400" height="1600"/>
  </clipPath>
</defs>
<path clip-path="url(#clip590)" d="M0 1600 L2400 1600 L2400 0 L0 0  Z" fill="#ffffff" fill-rule="evenodd" fill-opacity="1"/>
<defs>
  <clipPath id="clip591">
    <rect x="480" y="0" width="1681" height="1600"/>
  </clipPath>
</defs>
<path clip-path="url(#clip590)" d="M86.9921 1505.26 L2352.76 1505.26 L2352.76 47.2441 L86.9921 47.2441  Z" fill="#ffffff" fill-rule="evenodd" fill-opacity="1"/>
<defs>
  <clipPath id="clip592">
    <rect x="86" y="47" width="2267" height="1459"/>
  </clipPath>
</defs>
<polyline clip-path="url(#clip592)" style="stroke:#000000; stroke-linecap:round; stroke-linejoin:round; stroke-width:2; stroke-opacity:0.1; fill:none" points="86.9921,1505.26 86.9921,47.2441 "/>
<polyline clip-path="url(#clip592)" style="stroke:#000000; stroke-linecap:round; stroke-linejoin:round; stroke-width:2; stroke-opacity:0.1; fill:none" points="540.145,1505.26 540.145,47.2441 "/>
<polyline clip-path="url(#clip592)" style="stroke:#000000; stroke-linecap:round; stroke-linejoin:round; stroke-width:2; stroke-opacity:0.1; fill:none" points="993.298,1505.26 993.298,47.2441 "/>
<polyline clip-path="url(#clip592)" style="stroke:#000000; stroke-linecap:round; stroke-linejoin:round; stroke-width:2; stroke-opacity:0.1; fill:none" points="1446.45,1505.26 1446.45,47.2441 "/>
<polyline clip-path="url(#clip592)" style="stroke:#000000; stroke-linecap:round; stroke-linejoin:round; stroke-width:2; stroke-opacity:0.1; fill:none" points="1899.6,1505.26 1899.6,47.2441 "/>
<polyline clip-path="url(#clip592)" style="stroke:#000000; stroke-linecap:round; stroke-linejoin:round; stroke-width:2; stroke-opacity:0.1; fill:none" points="2352.76,1505.26 2352.76,47.2441 "/>
<polyline clip-path="url(#clip590)" style="stroke:#000000; stroke-linecap:round; stroke-linejoin:round; stroke-width:4; stroke-opacity:1; fill:none" points="86.9921,1505.26 2352.76,1505.26 "/>
<polyline clip-path="url(#clip590)" style="stroke:#000000; stroke-linecap:round; stroke-linejoin:round; stroke-width:4; stroke-opacity:1; fill:none" points="86.9921,1505.26 86.9921,1486.36 "/>
<polyline clip-path="url(#clip590)" style="stroke:#000000; stroke-linecap:round; stroke-linejoin:round; stroke-width:4; stroke-opacity:1; fill:none" points="540.145,1505.26 540.145,1486.36 "/>
<polyline clip-path="url(#clip590)" style="stroke:#000000; stroke-linecap:round; stroke-linejoin:round; stroke-width:4; stroke-opacity:1; fill:none" points="993.298,1505.26 993.298,1486.36 "/>
<polyline clip-path="url(#clip590)" style="stroke:#000000; stroke-linecap:round; stroke-linejoin:round; stroke-width:4; stroke-opacity:1; fill:none" points="1446.45,1505.26 1446.45,1486.36 "/>
<polyline clip-path="url(#clip590)" style="stroke:#000000; stroke-linecap:round; stroke-linejoin:round; stroke-width:4; stroke-opacity:1; fill:none" points="1899.6,1505.26 1899.6,1486.36 "/>
<polyline clip-path="url(#clip590)" style="stroke:#000000; stroke-linecap:round; stroke-linejoin:round; stroke-width:4; stroke-opacity:1; fill:none" points="2352.76,1505.26 2352.76,1486.36 "/>
<path clip-path="url(#clip590)" d="M86.9921 1536.18 Q83.381 1536.18 81.5523 1539.74 Q79.7468 1543.28 79.7468 1550.41 Q79.7468 1557.52 81.5523 1561.09 Q83.381 1564.63 86.9921 1564.63 Q90.6264 1564.63 92.4319 1561.09 Q94.2606 1557.52 94.2606 1550.41 Q94.2606 1543.28 92.4319 1539.74 Q90.6264 1536.18 86.9921 1536.18 M86.9921 1532.47 Q92.8023 1532.47 95.8578 1537.08 Q98.9365 1541.66 98.9365 1550.41 Q98.9365 1559.14 95.8578 1563.75 Q92.8023 1568.33 86.9921 1568.33 Q81.182 1568.33 78.1033 1563.75 Q75.0477 1559.14 75.0477 1550.41 Q75.0477 1541.66 78.1033 1537.08 Q81.182 1532.47 86.9921 1532.47 Z" fill="#000000" fill-rule="nonzero" fill-opacity="1" /><path clip-path="url(#clip590)" d="M534.798 1563.72 L551.117 1563.72 L551.117 1567.66 L529.173 1567.66 L529.173 1563.72 Q531.835 1560.97 536.418 1556.34 Q541.025 1551.69 542.205 1550.35 Q544.45 1547.82 545.33 1546.09 Q546.233 1544.33 546.233 1542.64 Q546.233 1539.88 544.288 1538.15 Q542.367 1536.41 539.265 1536.41 Q537.066 1536.41 534.613 1537.17 Q532.182 1537.94 529.404 1539.49 L529.404 1534.77 Q532.228 1533.63 534.682 1533.05 Q537.136 1532.47 539.173 1532.47 Q544.543 1532.47 547.737 1535.16 Q550.932 1537.85 550.932 1542.34 Q550.932 1544.47 550.122 1546.39 Q549.335 1548.28 547.228 1550.88 Q546.649 1551.55 543.548 1554.77 Q540.446 1557.96 534.798 1563.72 Z" fill="#000000" fill-rule="nonzero" fill-opacity="1" /><path clip-path="url(#clip590)" d="M996.307 1537.17 L984.501 1555.62 L996.307 1555.62 L996.307 1537.17 M995.08 1533.1 L1000.96 1533.1 L1000.96 1555.62 L1005.89 1555.62 L1005.89 1559.51 L1000.96 1559.51 L1000.96 1567.66 L996.307 1567.66 L996.307 1559.51 L980.705 1559.51 L980.705 1555 L995.08 1533.1 Z" fill="#000000" fill-rule="nonzero" fill-opacity="1" /><path clip-path="url(#clip590)" d="M1446.86 1548.52 Q1443.71 1548.52 1441.86 1550.67 Q1440.03 1552.82 1440.03 1556.57 Q1440.03 1560.3 1441.86 1562.47 Q1443.71 1564.63 1446.86 1564.63 Q1450 1564.63 1451.83 1562.47 Q1453.68 1560.3 1453.68 1556.57 Q1453.68 1552.82 1451.83 1550.67 Q1450 1548.52 1446.86 1548.52 M1456.14 1533.86 L1456.14 1538.12 Q1454.38 1537.29 1452.57 1536.85 Q1450.79 1536.41 1449.03 1536.41 Q1444.4 1536.41 1441.95 1539.53 Q1439.52 1542.66 1439.17 1548.98 Q1440.54 1546.97 1442.6 1545.9 Q1444.66 1544.81 1447.13 1544.81 Q1452.34 1544.81 1455.35 1547.98 Q1458.38 1551.13 1458.38 1556.57 Q1458.38 1561.9 1455.24 1565.11 Q1452.09 1568.33 1446.86 1568.33 Q1440.86 1568.33 1437.69 1563.75 Q1434.52 1559.14 1434.52 1550.41 Q1434.52 1542.22 1438.41 1537.36 Q1442.3 1532.47 1448.85 1532.47 Q1450.61 1532.47 1452.39 1532.82 Q1454.19 1533.17 1456.14 1533.86 Z" fill="#000000" fill-rule="nonzero" fill-opacity="1" /><path clip-path="url(#clip590)" d="M1899.6 1551.25 Q1896.27 1551.25 1894.35 1553.03 Q1892.45 1554.81 1892.45 1557.94 Q1892.45 1561.06 1894.35 1562.85 Q1896.27 1564.63 1899.6 1564.63 Q1902.94 1564.63 1904.86 1562.85 Q1906.78 1561.04 1906.78 1557.94 Q1906.78 1554.81 1904.86 1553.03 Q1902.96 1551.25 1899.6 1551.25 M1894.93 1549.26 Q1891.92 1548.52 1890.23 1546.46 Q1888.56 1544.4 1888.56 1541.43 Q1888.56 1537.29 1891.5 1534.88 Q1894.46 1532.47 1899.6 1532.47 Q1904.77 1532.47 1907.7 1534.88 Q1910.64 1537.29 1910.64 1541.43 Q1910.64 1544.4 1908.95 1546.46 Q1907.29 1548.52 1904.3 1549.26 Q1907.68 1550.04 1909.56 1552.34 Q1911.45 1554.63 1911.45 1557.94 Q1911.45 1562.96 1908.38 1565.65 Q1905.32 1568.33 1899.6 1568.33 Q1893.89 1568.33 1890.81 1565.65 Q1887.75 1562.96 1887.75 1557.94 Q1887.75 1554.63 1889.65 1552.34 Q1891.55 1550.04 1894.93 1549.26 M1893.21 1541.87 Q1893.21 1544.56 1894.88 1546.06 Q1896.57 1547.57 1899.6 1547.57 Q1902.61 1547.57 1904.3 1546.06 Q1906.02 1544.56 1906.02 1541.87 Q1906.02 1539.19 1904.3 1537.68 Q1902.61 1536.18 1899.6 1536.18 Q1896.57 1536.18 1894.88 1537.68 Q1893.21 1539.19 1893.21 1541.87 Z" fill="#000000" fill-rule="nonzero" fill-opacity="1" /><path clip-path="url(#clip590)" d="M2327.44 1563.72 L2335.08 1563.72 L2335.08 1537.36 L2326.77 1539.03 L2326.77 1534.77 L2335.04 1533.1 L2339.71 1533.1 L2339.71 1563.72 L2347.35 1563.72 L2347.35 1567.66 L2327.44 1567.66 L2327.44 1563.72 Z" fill="#000000" fill-rule="nonzero" fill-opacity="1" /><path clip-path="url(#clip590)" d="M2366.8 1536.18 Q2363.18 1536.18 2361.36 1539.74 Q2359.55 1543.28 2359.55 1550.41 Q2359.55 1557.52 2361.36 1561.09 Q2363.18 1564.63 2366.8 1564.63 Q2370.43 1564.63 2372.23 1561.09 Q2374.06 1557.52 2374.06 1550.41 Q2374.06 1543.28 2372.23 1539.74 Q2370.43 1536.18 2366.8 1536.18 M2366.8 1532.47 Q2372.61 1532.47 2375.66 1537.08 Q2378.74 1541.66 2378.74 1550.41 Q2378.74 1559.14 2375.66 1563.75 Q2372.61 1568.33 2366.8 1568.33 Q2360.99 1568.33 2357.91 1563.75 Q2354.85 1559.14 2354.85 1550.41 Q2354.85 1541.66 2357.91 1537.08 Q2360.99 1532.47 2366.8 1532.47 Z" fill="#000000" fill-rule="nonzero" fill-opacity="1" /><path clip-path="url(#clip590)" d="M1218.94 1604.35 L1218.94 1614.48 L1231 1614.48 L1231 1619.03 L1218.94 1619.03 L1218.94 1638.38 Q1218.94 1642.74 1220.11 1643.98 Q1221.32 1645.22 1224.98 1645.22 L1231 1645.22 L1231 1650.12 L1224.98 1650.12 Q1218.2 1650.12 1215.62 1647.61 Q1213.05 1645.06 1213.05 1638.38 L1213.05 1619.03 L1208.75 1619.03 L1208.75 1614.48 L1213.05 1614.48 L1213.05 1604.35 L1218.94 1604.35 Z" fill="#000000" fill-rule="nonzero" fill-opacity="1" /><polyline clip-path="url(#clip592)" style="stroke:#000000; stroke-linecap:round; stroke-linejoin:round; stroke-width:2; stroke-opacity:0.1; fill:none" points="86.9921,1474.33 2352.76,1474.33 "/>
<polyline clip-path="url(#clip592)" style="stroke:#000000; stroke-linecap:round; stroke-linejoin:round; stroke-width:2; stroke-opacity:0.1; fill:none" points="86.9921,1071.93 2352.76,1071.93 "/>
<polyline clip-path="url(#clip592)" style="stroke:#000000; stroke-linecap:round; stroke-linejoin:round; stroke-width:2; stroke-opacity:0.1; fill:none" points="86.9921,669.538 2352.76,669.538 "/>
<polyline clip-path="url(#clip592)" style="stroke:#000000; stroke-linecap:round; stroke-linejoin:round; stroke-width:2; stroke-opacity:0.1; fill:none" points="86.9921,267.142 2352.76,267.142 "/>
<polyline clip-path="url(#clip590)" style="stroke:#000000; stroke-linecap:round; stroke-linejoin:round; stroke-width:4; stroke-opacity:1; fill:none" points="86.9921,1505.26 86.9921,47.2441 "/>
<polyline clip-path="url(#clip590)" style="stroke:#000000; stroke-linecap:round; stroke-linejoin:round; stroke-width:4; stroke-opacity:1; fill:none" points="86.9921,1474.33 105.89,1474.33 "/>
<polyline clip-path="url(#clip590)" style="stroke:#000000; stroke-linecap:round; stroke-linejoin:round; stroke-width:4; stroke-opacity:1; fill:none" points="86.9921,1071.93 105.89,1071.93 "/>
<polyline clip-path="url(#clip590)" style="stroke:#000000; stroke-linecap:round; stroke-linejoin:round; stroke-width:4; stroke-opacity:1; fill:none" points="86.9921,669.538 105.89,669.538 "/>
<polyline clip-path="url(#clip590)" style="stroke:#000000; stroke-linecap:round; stroke-linejoin:round; stroke-width:4; stroke-opacity:1; fill:none" points="86.9921,267.142 105.89,267.142 "/>
<path clip-path="url(#clip590)" d="M39.0477 1460.13 Q35.4367 1460.13 33.608 1463.69 Q31.8024 1467.24 31.8024 1474.37 Q31.8024 1481.47 33.608 1485.04 Q35.4367 1488.58 39.0477 1488.58 Q42.682 1488.58 44.4875 1485.04 Q46.3162 1481.47 46.3162 1474.37 Q46.3162 1467.24 44.4875 1463.69 Q42.682 1460.13 39.0477 1460.13 M39.0477 1456.43 Q44.8579 1456.43 47.9134 1461.03 Q50.9921 1465.62 50.9921 1474.37 Q50.9921 1483.09 47.9134 1487.7 Q44.8579 1492.28 39.0477 1492.28 Q33.2376 1492.28 30.1589 1487.7 Q27.1034 1483.09 27.1034 1474.37 Q27.1034 1465.62 30.1589 1461.03 Q33.2376 1456.43 39.0477 1456.43 Z" fill="#000000" fill-rule="nonzero" fill-opacity="1" /><path clip-path="url(#clip590)" d="M-0.303895 1085.28 L7.33495 1085.28 L7.33495 1058.91 L-0.975188 1060.58 L-0.975188 1056.32 L7.28866 1054.65 L11.9646 1054.65 L11.9646 1085.28 L19.6034 1085.28 L19.6034 1089.21 L-0.303895 1089.21 L-0.303895 1085.28 Z" fill="#000000" fill-rule="nonzero" fill-opacity="1" /><path clip-path="url(#clip590)" d="M39.0477 1057.73 Q35.4367 1057.73 33.608 1061.3 Q31.8024 1064.84 31.8024 1071.97 Q31.8024 1079.08 33.608 1082.64 Q35.4367 1086.18 39.0477 1086.18 Q42.682 1086.18 44.4875 1082.64 Q46.3162 1079.08 46.3162 1071.97 Q46.3162 1064.84 44.4875 1061.3 Q42.682 1057.73 39.0477 1057.73 M39.0477 1054.03 Q44.8579 1054.03 47.9134 1058.64 Q50.9921 1063.22 50.9921 1071.97 Q50.9921 1080.7 47.9134 1085.3 Q44.8579 1089.89 39.0477 1089.89 Q33.2376 1089.89 30.1589 1085.3 Q27.1034 1080.7 27.1034 1071.97 Q27.1034 1063.22 30.1589 1058.64 Q33.2376 1054.03 39.0477 1054.03 Z" fill="#000000" fill-rule="nonzero" fill-opacity="1" /><path clip-path="url(#clip590)" d="M2.91368 682.883 L19.233 682.883 L19.233 686.818 L-2.71129 686.818 L-2.71129 682.883 Q-0.0492672 680.128 4.53404 675.499 Q9.1405 670.846 10.321 669.503 Q12.5664 666.98 13.446 665.244 Q14.3488 663.485 14.3488 661.795 Q14.3488 659.04 12.4044 657.304 Q10.4831 655.568 7.38125 655.568 Q5.18219 655.568 2.7285 656.332 Q0.297953 657.096 -2.47981 658.647 L-2.47981 653.925 Q0.344249 652.79 2.79794 652.212 Q5.25163 651.633 7.28866 651.633 Q12.659 651.633 15.8534 654.318 Q19.0479 657.003 19.0479 661.494 Q19.0479 663.624 18.2377 665.545 Q17.4506 667.443 15.3442 670.036 Q14.7655 670.707 11.6636 673.925 Q8.5618 677.119 2.91368 682.883 Z" fill="#000000" fill-rule="nonzero" fill-opacity="1" /><path clip-path="url(#clip590)" d="M39.0477 655.337 Q35.4367 655.337 33.608 658.901 Q31.8024 662.443 31.8024 669.573 Q31.8024 676.679 33.608 680.244 Q35.4367 683.786 39.0477 683.786 Q42.682 683.786 44.4875 680.244 Q46.3162 676.679 46.3162 669.573 Q46.3162 662.443 44.4875 658.901 Q42.682 655.337 39.0477 655.337 M39.0477 651.633 Q44.8579 651.633 47.9134 656.239 Q50.9921 660.823 50.9921 669.573 Q50.9921 678.3 47.9134 682.906 Q44.8579 687.489 39.0477 687.489 Q33.2376 687.489 30.1589 682.906 Q27.1034 678.3 27.1034 669.573 Q27.1034 660.823 30.1589 656.239 Q33.2376 651.633 39.0477 651.633 Z" fill="#000000" fill-rule="nonzero" fill-opacity="1" /><path clip-path="url(#clip590)" d="M13.0525 265.787 Q16.409 266.505 18.284 268.773 Q20.1821 271.042 20.1821 274.375 Q20.1821 279.491 16.6636 282.292 Q13.1451 285.093 6.66366 285.093 Q4.48775 285.093 2.17294 284.653 Q-0.118711 284.236 -2.5724 283.38 L-2.5724 278.866 Q-0.627968 280 1.68683 280.579 Q4.00164 281.158 6.52477 281.158 Q10.9229 281.158 13.2146 279.422 Q15.5294 277.685 15.5294 274.375 Q15.5294 271.32 13.3766 269.607 Q11.247 267.871 7.42754 267.871 L3.39979 267.871 L3.39979 264.028 L7.61273 264.028 Q11.0618 264.028 12.8905 262.662 Q14.7192 261.273 14.7192 258.681 Q14.7192 256.019 12.821 254.607 Q10.946 253.172 7.42754 253.172 Q5.50626 253.172 3.3072 253.588 Q1.10813 254.005 -1.53074 254.885 L-1.53074 250.718 Q1.13128 249.977 3.44608 249.607 Q5.78403 249.237 7.84421 249.237 Q13.1683 249.237 16.2701 251.667 Q19.3719 254.074 19.3719 258.195 Q19.3719 261.065 17.7284 263.056 Q16.0849 265.023 13.0525 265.787 Z" fill="#000000" fill-rule="nonzero" fill-opacity="1" /><path clip-path="url(#clip590)" d="M39.0477 252.94 Q35.4367 252.94 33.608 256.505 Q31.8024 260.047 31.8024 267.176 Q31.8024 274.283 33.608 277.847 Q35.4367 281.389 39.0477 281.389 Q42.682 281.389 44.4875 277.847 Q46.3162 274.283 46.3162 267.176 Q46.3162 260.047 44.4875 256.505 Q42.682 252.94 39.0477 252.94 M39.0477 249.237 Q44.8579 249.237 47.9134 253.843 Q50.9921 258.426 50.9921 267.176 Q50.9921 275.903 47.9134 280.509 Q44.8579 285.093 39.0477 285.093 Q33.2376 285.093 30.1589 280.509 Q27.1034 275.903 27.1034 267.176 Q27.1034 258.426 30.1589 253.843 Q33.2376 249.237 39.0477 249.237 Z" fill="#000000" fill-rule="nonzero" fill-opacity="1" /><polyline clip-path="url(#clip592)" style="stroke:#009af9; stroke-linecap:round; stroke-linejoin:round; stroke-width:12; stroke-opacity:1; fill:none" points="86.9921,1434.09 89.2602,1433.89 91.5282,1433.67 93.7962,1433.45 96.0643,1433.21 98.3323,1432.97 100.6,1432.72 102.868,1432.46 105.136,1432.19 107.404,1431.92 109.672,1431.63 111.94,1431.34 114.209,1431.03 116.477,1430.72 118.745,1430.4 121.013,1430.07 123.281,1429.73 125.549,1429.38 127.817,1429.03 130.085,1428.66 132.353,1428.29 134.621,1427.91 136.889,1427.51 139.157,1427.11 141.425,1426.7 143.693,1426.28 145.961,1425.86 148.229,1425.42 150.497,1424.97 152.765,1424.52 155.033,1424.05 157.301,1423.58 159.569,1423.09 161.837,1422.6 164.105,1422.1 166.373,1421.58 168.641,1421.06 170.909,1420.53 173.177,1419.99 175.445,1419.43 177.713,1418.87 179.981,1418.3 182.249,1417.72 184.517,1417.13 186.786,1416.52 189.054,1415.91 191.322,1415.28 193.59,1414.65 195.858,1414 198.126,1413.35 200.394,1412.68 202.662,1412 204.93,1411.31 207.198,1410.61 209.466,1409.9 211.734,1409.18 214.002,1408.44 216.27,1407.69 218.538,1406.94 220.806,1406.17 223.074,1405.38 225.342,1404.59 227.61,1403.78 229.878,1402.96 232.146,1402.13 234.414,1401.28 236.682,1400.43 238.95,1399.55 241.218,1398.67 243.486,1397.77 245.754,1396.86 248.022,1395.94 250.29,1395 252.558,1394.05 254.826,1393.08 257.095,1392.1 259.363,1391.11 261.631,1390.1 263.899,1389.08 266.167,1388.04 268.435,1386.99 270.703,1385.92 272.971,1384.84 275.239,1383.74 277.507,1382.63 279.775,1381.5 282.043,1380.36 284.311,1379.2 286.579,1378.02 288.847,1376.83 291.115,1375.62 293.383,1374.4 295.651,1373.16 297.919,1371.9 300.187,1370.63 302.455,1369.33 304.723,1368.02 306.991,1366.7 309.259,1365.36 311.527,1363.99 313.795,1362.61 316.063,1361.22 318.331,1359.8 320.599,1358.37 322.867,1356.92 325.135,1355.45 327.403,1353.96 329.672,1352.45 331.94,1350.93 334.208,1349.38 336.476,1347.82 338.744,1346.23 341.012,1344.63 343.28,1343.01 345.548,1341.37 347.816,1339.71 350.084,1338.03 352.352,1336.33 354.62,1334.61 356.888,1332.87 359.156,1331.11 361.424,1329.33 363.692,1327.54 365.96,1325.72 368.228,1323.88 370.496,1322.03 372.764,1320.15 375.032,1318.25 377.3,1316.34 379.568,1314.41 381.836,1312.45 384.104,1310.48 386.372,1308.5 388.64,1306.49 390.908,1304.46 393.176,1302.42 395.444,1300.35 397.712,1298.27 399.981,1296.17 402.249,1294.05 404.517,1291.92 406.785,1289.77 409.053,1287.6 411.321,1285.42 413.589,1283.23 415.857,1281.02 418.125,1278.8 420.393,1276.56 422.661,1274.32 424.929,1272.06 427.197,1269.8 429.465,1267.53 431.733,1265.25 434.001,1262.96 436.269,1260.68 438.537,1258.38 440.805,1256.09 443.073,1253.8 445.341,1251.51 447.609,1249.22 449.877,1246.94 452.145,1244.66 454.413,1242.39 456.681,1240.13 458.949,1237.88 461.217,1235.64 463.485,1233.42 465.753,1231.22 468.021,1229.05 470.29,1226.9 472.558,1224.79 474.826,1222.72 477.094,1220.69 479.362,1218.7 481.63,1216.77 483.898,1214.89 486.166,1213.07 488.434,1211.32 490.702,1209.64 492.97,1208.04 495.238,1206.51 497.506,1205.08 499.774,1203.73 502.042,1202.49 504.31,1201.34 506.578,1200.31 508.846,1199.39 511.114,1198.59 513.382,1197.91 515.65,1197.37 517.918,1196.97 520.186,1196.72 522.454,1196.61 524.722,1196.67 526.99,1196.89 529.258,1197.28 531.526,1197.85 533.794,1198.6 536.062,1199.55 538.33,1200.7 540.598,1202.06 542.867,1203.62 545.135,1205.4 547.403,1207.38 549.671,1209.56 551.939,1211.95 554.207,1214.54 556.475,1217.32 558.743,1220.29 561.011,1223.45 563.279,1226.78 565.547,1230.29 567.815,1233.96 570.083,1237.79 572.351,1241.76 574.619,1245.87 576.887,1250.1 579.155,1254.46 581.423,1258.91 583.691,1263.46 585.959,1268.09 588.227,1272.78 590.495,1277.52 592.763,1282.3 595.031,1287.1 597.299,1291.9 599.567,1296.69 601.835,1301.45 604.103,1306.18 606.371,1310.87 608.639,1315.5 610.907,1320.07 613.176,1324.57 615.444,1328.99 617.712,1333.32 619.98,1337.55 622.248,1341.68 624.516,1345.7 626.784,1349.61 629.052,1353.41 631.32,1357.09 633.588,1360.65 635.856,1364.09 638.124,1367.4 640.392,1370.6 642.66,1373.67 644.928,1376.63 647.196,1379.47 649.464,1382.21 651.732,1384.83 654,1387.36 656.268,1389.78 658.536,1392.12 660.804,1394.35 663.072,1396.5 665.34,1398.55 667.608,1400.51 669.876,1402.38 672.144,1404.18 674.412,1405.9 676.68,1407.54 678.948,1409.11 681.216,1410.6 683.484,1412.03 685.753,1413.4 688.021,1414.7 690.289,1415.95 692.557,1417.14 694.825,1418.27 697.093,1419.35 699.361,1420.37 701.629,1421.35 703.897,1422.28 706.165,1423.17 708.433,1424.01 710.701,1424.81 712.969,1425.57 715.237,1426.3 717.505,1426.99 719.773,1427.64 722.041,1428.26 724.309,1428.85 726.577,1429.41 728.845,1429.93 731.113,1430.43 733.381,1430.9 735.649,1431.35 737.917,1431.77 740.185,1432.17 742.453,1432.54 744.721,1432.89 746.989,1433.22 749.257,1433.53 751.525,1433.82 753.793,1434.08 756.062,1434.33 758.33,1434.56 760.598,1434.78 762.866,1434.97 765.134,1435.16 767.402,1435.32 769.67,1435.47 771.938,1435.6 774.206,1435.72 776.474,1435.82 778.742,1435.91 781.01,1435.98 783.278,1436.05 785.546,1436.1 787.814,1436.13 790.082,1436.16 792.35,1436.17 794.618,1436.17 796.886,1436.16 799.154,1436.13 801.422,1436.1 803.69,1436.05 805.958,1435.99 808.226,1435.93 810.494,1435.85 812.762,1435.76 815.03,1435.66 817.298,1435.55 819.566,1435.44 821.834,1435.31 824.102,1435.17 826.37,1435.02 828.639,1434.87 830.907,1434.7 833.175,1434.52 835.443,1434.34 837.711,1434.15 839.979,1433.94 842.247,1433.73 844.515,1433.51 846.783,1433.28 849.051,1433.04 851.319,1432.8 853.587,1432.54 855.855,1432.28 858.123,1432 860.391,1431.72 862.659,1431.43 864.927,1431.13 867.195,1430.82 869.463,1430.5 871.731,1430.17 873.999,1429.84 876.267,1429.5 878.535,1429.14 880.803,1428.78 883.071,1428.41 885.339,1428.03 887.607,1427.64 889.875,1427.24 892.143,1426.84 894.411,1426.42 896.679,1425.99 898.948,1425.56 901.216,1425.12 903.484,1424.66 905.752,1424.2 908.02,1423.73 910.288,1423.25 912.556,1422.76 914.824,1422.26 917.092,1421.75 919.36,1421.23 921.628,1420.7 923.896,1420.16 926.164,1419.61 928.432,1419.06 930.7,1418.49 932.968,1417.91 935.236,1417.32 937.504,1416.72 939.772,1416.11 942.04,1415.49 944.308,1414.86 946.576,1414.22 948.844,1413.57 951.112,1412.9 953.38,1412.23 955.648,1411.54 957.916,1410.84 960.184,1410.14 962.452,1409.42 964.72,1408.69 966.988,1407.94 969.257,1407.19 971.525,1406.42 973.793,1405.64 976.061,1404.85 978.329,1404.05 980.597,1403.23 982.865,1402.41 985.133,1401.57 987.401,1400.71 989.669,1399.85 991.937,1398.97 994.205,1398.07 996.473,1397.17 998.741,1396.25 1001.01,1395.32 1003.28,1394.37 1005.55,1393.41 1007.81,1392.44 1010.08,1391.45 1012.35,1390.44 1014.62,1389.43 1016.89,1388.39 1019.15,1387.35 1021.42,1386.29 1023.69,1385.21 1025.96,1384.12 1028.23,1383.01 1030.49,1381.89 1032.76,1380.75 1035.03,1379.6 1037.3,1378.43 1039.57,1377.24 1041.83,1376.04 1044.1,1374.82 1046.37,1373.58 1048.64,1372.33 1050.91,1371.06 1053.17,1369.78 1055.44,1368.47 1057.71,1367.15 1059.98,1365.81 1062.25,1364.46 1064.51,1363.09 1066.78,1361.69 1069.05,1360.29 1071.32,1358.86 1073.59,1357.41 1075.85,1355.95 1078.12,1354.47 1080.39,1352.97 1082.66,1351.45 1084.93,1349.91 1087.19,1348.35 1089.46,1346.78 1091.73,1345.18 1094,1343.57 1096.27,1341.93 1098.53,1340.28 1100.8,1338.61 1103.07,1336.92 1105.34,1335.21 1107.61,1333.48 1109.87,1331.73 1112.14,1329.97 1114.41,1328.18 1116.68,1326.38 1118.95,1324.56 1121.21,1322.71 1123.48,1320.85 1125.75,1318.96 1128.02,1317.06 1130.29,1315.14 1132.55,1313.19 1134.82,1311.23 1137.09,1309.24 1139.36,1307.24 1141.63,1305.21 1143.89,1303.17 1146.16,1301.11 1148.43,1299.03 1150.7,1296.93 1152.97,1294.81 1155.24,1292.68 1157.5,1290.53 1159.77,1288.36 1162.04,1286.18 1164.31,1283.99 1166.58,1281.78 1168.84,1279.56 1171.11,1277.33 1173.38,1275.09 1175.65,1272.84 1177.92,1270.58 1180.18,1268.31 1182.45,1266.03 1184.72,1263.75 1186.99,1261.47 1189.26,1259.18 1191.52,1256.89 1193.79,1254.61 1196.06,1252.32 1198.33,1250.04 1200.6,1247.76 1202.86,1245.49 1205.13,1243.22 1207.4,1240.97 1209.67,1238.72 1211.94,1236.49 1214.2,1234.27 1216.47,1232.07 1218.74,1229.89 1221.01,1227.73 1223.28,1225.61 1225.54,1223.52 1227.81,1221.47 1230.08,1219.46 1232.35,1217.5 1234.62,1215.6 1236.88,1213.76 1239.15,1211.98 1241.42,1210.27 1243.69,1208.64 1245.96,1207.09 1248.22,1205.62 1250.49,1204.24 1252.76,1202.96 1255.03,1201.78 1257.3,1200.71 1259.56,1199.76 1261.83,1198.92 1264.1,1198.21 1266.37,1197.63 1268.64,1197.18 1270.9,1196.88 1273.17,1196.73 1275.44,1196.74 1277.71,1196.9 1279.98,1197.24 1282.24,1197.75 1284.51,1198.44 1286.78,1199.32 1289.05,1200.39 1291.32,1201.66 1293.59,1203.15 1295.85,1204.85 1298.12,1206.78 1300.39,1208.91 1302.66,1211.25 1304.93,1213.8 1307.19,1216.54 1309.46,1219.46 1311.73,1222.58 1314,1225.86 1316.27,1229.32 1318.53,1232.94 1320.8,1236.7 1323.07,1240.61 1325.34,1244.66 1327.61,1248.83 1329.87,1253.11 1332.14,1257.5 1334.41,1261.98 1336.68,1266.54 1338.95,1271.17 1341.21,1275.85 1343.48,1280.59 1345.75,1285.35 1348.02,1290.13 1350.29,1294.91 1352.55,1299.68 1354.82,1304.43 1357.09,1309.13 1359.36,1313.78 1361.63,1318.36 1363.89,1322.86 1366.16,1327.28 1368.43,1331.62 1370.7,1335.87 1372.97,1340.02 1375.23,1344.07 1377.5,1348.01 1379.77,1351.85 1382.04,1355.57 1384.31,1359.18 1386.57,1362.67 1388.84,1366.05 1391.11,1369.3 1393.38,1372.44 1395.65,1375.46 1397.91,1378.36 1400.18,1381.14 1402.45,1383.81 1404.72,1386.37 1406.99,1388.82 1409.25,1391.16 1411.52,1393.4 1413.79,1395.55 1416.06,1397.61 1418.33,1399.58 1420.59,1401.47 1422.86,1403.29 1425.13,1405.04 1427.4,1406.71 1429.67,1408.31 1431.93,1409.83 1434.2,1411.29 1436.47,1412.68 1438.74,1414 1441.01,1415.27 1443.28,1416.48 1445.54,1417.63 1447.81,1418.73 1450.08,1419.78 1452.35,1420.78 1454.62,1421.73 1456.88,1422.64 1459.15,1423.5 1461.42,1424.32 1463.69,1425.1 1465.96,1425.85 1468.22,1426.56 1470.49,1427.23 1472.76,1427.87 1475.03,1428.47 1477.3,1429.04 1479.56,1429.59 1481.83,1430.1 1484.1,1430.58 1486.37,1431.04 1488.64,1431.47 1490.9,1431.88 1493.17,1432.26 1495.44,1432.62 1497.71,1432.96 1499.98,1433.28 1502.24,1433.58 1504.51,1433.85 1506.78,1434.11 1509.05,1434.35 1511.32,1434.57 1513.58,1434.77 1515.85,1434.96 1518.12,1435.13 1520.39,1435.28 1522.66,1435.42 1524.92,1435.54 1527.19,1435.65 1529.46,1435.74 1531.73,1435.82 1534,1435.89 1536.26,1435.95 1538.53,1435.99 1540.8,1436.02 1543.07,1436.03 1545.34,1436.04 1547.6,1436.03 1549.87,1436.01 1552.14,1435.98 1554.41,1435.94 1556.68,1435.89 1558.94,1435.83 1561.21,1435.75 1563.48,1435.67 1565.75,1435.58 1568.02,1435.47 1570.28,1435.36 1572.55,1435.24 1574.82,1435.1 1577.09,1434.96 1579.36,1434.81 1581.63,1434.64 1583.89,1434.47 1586.16,1434.29 1588.43,1434.1 1590.7,1433.9 1592.97,1433.69 1595.23,1433.48 1597.5,1433.25 1599.77,1433.01 1602.04,1432.77 1604.31,1432.51 1606.57,1432.25 1608.84,1431.98 1611.11,1431.7 1613.38,1431.41 1615.65,1431.12 1617.91,1430.81 1620.18,1430.49 1622.45,1430.17 1624.72,1429.84 1626.99,1429.5 1629.25,1429.15 1631.52,1428.79 1633.79,1428.42 1636.06,1428.04 1638.33,1427.66 1640.59,1427.26 1642.86,1426.86 1645.13,1426.45 1647.4,1426.03 1649.67,1425.6 1651.93,1425.15 1654.2,1424.71 1656.47,1424.25 1658.74,1423.78 1661.01,1423.3 1663.27,1422.81 1665.54,1422.32 1667.81,1421.81 1670.08,1421.3 1672.35,1420.77 1674.61,1420.23 1676.88,1419.69 1679.15,1419.13 1681.42,1418.57 1683.69,1417.99 1685.95,1417.41 1688.22,1416.81 1690.49,1416.2 1692.76,1415.59 1695.03,1414.96 1697.29,1414.32 1699.56,1413.67 1701.83,1413.01 1704.1,1412.34 1706.37,1411.66 1708.63,1410.96 1710.9,1410.26 1713.17,1409.54 1715.44,1408.82 1717.71,1408.08 1719.98,1407.32 1722.24,1406.56 1724.51,1405.79 1726.78,1405 1729.05,1404.2 1731.32,1403.39 1733.58,1402.56 1735.85,1401.73 1738.12,1400.88 1740.39,1400.02 1742.66,1399.14 1744.92,1398.25 1747.19,1397.35 1749.46,1396.43 1751.73,1395.51 1754,1394.56 1756.26,1393.61 1758.53,1392.64 1760.8,1391.65 1763.07,1390.65 1765.34,1389.64 1767.6,1388.61 1769.87,1387.57 1772.14,1386.51 1774.41,1385.44 1776.68,1384.36 1778.94,1383.25 1781.21,1382.14 1783.48,1381 1785.75,1379.85 1788.02,1378.69 1790.28,1377.51 1792.55,1376.31 1794.82,1375.1 1797.09,1373.87 1799.36,1372.62 1801.62,1371.36 1803.89,1370.08 1806.16,1368.78 1808.43,1367.47 1810.7,1366.13 1812.96,1364.78 1815.23,1363.42 1817.5,1362.03 1819.77,1360.63 1822.04,1359.21 1824.3,1357.77 1826.57,1356.32 1828.84,1354.84 1831.11,1353.35 1833.38,1351.83 1835.64,1350.3 1837.91,1348.75 1840.18,1347.18 1842.45,1345.59 1844.72,1343.98 1846.98,1342.36 1849.25,1340.71 1851.52,1339.04 1853.79,1337.36 1856.06,1335.65 1858.32,1333.92 1860.59,1332.18 1862.86,1330.42 1865.13,1328.63 1867.4,1326.83 1869.67,1325.01 1871.93,1323.16 1874.2,1321.3 1876.47,1319.42 1878.74,1317.52 1881.01,1315.6 1883.27,1313.66 1885.54,1311.71 1887.81,1309.73 1890.08,1307.74 1892.35,1305.72 1894.61,1303.69 1896.88,1301.64 1899.15,1299.58 1901.42,1297.5 1903.69,1295.41 1905.95,1293.31 1908.22,1291.18 1910.49,1289.04 1912.76,1286.89 1915.03,1284.72 1917.29,1282.54 1919.56,1280.34 1921.83,1278.12 1924.1,1275.89 1926.37,1273.65 1928.63,1271.4 1930.9,1269.14 1933.17,1266.86 1935.44,1264.58 1937.71,1262.29 1939.97,1260 1942.24,1257.7 1944.51,1255.4 1946.78,1253.09 1949.05,1250.8 1951.31,1248.5 1953.58,1246.21 1955.85,1243.93 1958.12,1241.67 1960.39,1239.41 1962.65,1237.18 1964.92,1234.96 1967.19,1232.77 1969.46,1230.6 1971.73,1228.46 1973.99,1226.36 1976.26,1224.29 1978.53,1222.27 1980.8,1220.28 1983.07,1218.35 1985.33,1216.47 1987.6,1214.64 1989.87,1212.88 1992.14,1211.18 1994.41,1209.56 1996.67,1208 1998.94,1206.53 2001.21,1205.14 2003.48,1203.84 2005.75,1202.64 2008.02,1201.54 2010.28,1200.54 2012.55,1199.66 2014.82,1198.9 2017.09,1198.26 2019.36,1197.77 2021.62,1197.42 2023.89,1197.23 2026.16,1197.2 2028.43,1197.33 2030.7,1197.64 2032.96,1198.13 2035.23,1198.8 2037.5,1199.66 2039.77,1200.71 2042.04,1201.95 2044.3,1203.39 2046.57,1205.02 2048.84,1206.86 2051.11,1208.89 2053.38,1211.12 2055.64,1213.56 2057.91,1216.19 2060.18,1219.02 2062.45,1222.05 2064.72,1225.27 2066.98,1228.68 2069.25,1232.27 2071.52,1236.02 2073.79,1239.93 2076.06,1243.97 2078.32,1248.15 2080.59,1252.44 2082.86,1256.83 2085.13,1261.31 2087.4,1265.87 2089.66,1270.5 2091.93,1275.18 2094.2,1279.9 2096.47,1284.64 2098.74,1289.4 2101,1294.17 2103.27,1298.92 2105.54,1303.65 2107.81,1308.34 2110.08,1312.99 2112.34,1317.57 2114.61,1322.08 2116.88,1326.5 2119.15,1330.84 2121.42,1335.09 2123.68,1339.24 2125.95,1343.29 2128.22,1347.24 2130.49,1351.07 2132.76,1354.8 2135.02,1358.42 2137.29,1361.92 2139.56,1365.3 2141.83,1368.57 2144.1,1371.72 2146.37,1374.75 2148.63,1377.67 2150.9,1380.48 2153.17,1383.17 2155.44,1385.75 2157.71,1388.23 2159.97,1390.6 2162.24,1392.87 2164.51,1395.05 2166.78,1397.13 2169.05,1399.13 2171.31,1401.05 2173.58,1402.9 2175.85,1404.66 2178.12,1406.34 2180.39,1407.95 2182.65,1409.49 2184.92,1410.96 2187.19,1412.36 2189.46,1413.7 2191.73,1414.97 2193.99,1416.19 2196.26,1417.35 2198.53,1418.46 2200.8,1419.52 2203.07,1420.53 2205.33,1421.49 2207.6,1422.4 2209.87,1423.27 2212.14,1424.1 2214.41,1424.89 2216.67,1425.64 2218.94,1426.35 2221.21,1427.03 2223.48,1427.67 2225.75,1428.28 2228.01,1428.86 2230.28,1429.4 2232.55,1429.92 2234.82,1430.41 2237.09,1430.87 2239.35,1431.31 2241.62,1431.72 2243.89,1432.11 2246.16,1432.47 2248.43,1432.82 2250.69,1433.14 2252.96,1433.44 2255.23,1433.72 2257.5,1433.98 2259.77,1434.22 2262.03,1434.44 2264.3,1434.65 2266.57,1434.84 2268.84,1435.01 2271.11,1435.17 2273.37,1435.31 2275.64,1435.44 2277.91,1435.55 2280.18,1435.65 2282.45,1435.73 2284.71,1435.8 2286.98,1435.86 2289.25,1435.9 2291.52,1435.94 2293.79,1435.95 2296.06,1435.96 2298.32,1435.96 2300.59,1435.94 2302.86,1435.91 2305.13,1435.87 2307.4,1435.82 2309.66,1435.76 2311.93,1435.69 2314.2,1435.61 2316.47,1435.52 2318.74,1435.41 2321,1435.3 2323.27,1435.18 2325.54,1435.05 2327.81,1434.91 2330.08,1434.75 2332.34,1434.59 2334.61,1434.42 2336.88,1434.24 2339.15,1434.06 2341.42,1433.86 2343.68,1433.65 2345.95,1433.43 2348.22,1433.21 2350.49,1432.98 2352.76,1432.73 "/>
<polyline clip-path="url(#clip592)" style="stroke:#e26f46; stroke-linecap:round; stroke-linejoin:round; stroke-width:12; stroke-opacity:1; fill:none" points="86.9921,1434.09 89.2602,1434.89 91.5282,1435.67 93.7962,1436.43 96.0643,1437.17 98.3323,1437.9 100.6,1438.61 102.868,1439.31 105.136,1439.98 107.404,1440.65 109.672,1441.3 111.94,1441.93 114.209,1442.55 116.477,1443.16 118.745,1443.75 121.013,1444.32 123.281,1444.89 125.549,1445.44 127.817,1445.98 130.085,1446.5 132.353,1447.02 134.621,1447.52 136.889,1448.01 139.157,1448.49 141.425,1448.95 143.693,1449.41 145.961,1449.85 148.229,1450.29 150.497,1450.71 152.765,1451.13 155.033,1451.53 157.301,1451.93 159.569,1452.31 161.837,1452.69 164.105,1453.05 166.373,1453.41 168.641,1453.76 170.909,1454.1 173.177,1454.44 175.445,1454.76 177.713,1455.08 179.981,1455.38 182.249,1455.69 184.517,1455.98 186.786,1456.27 189.054,1456.55 191.322,1456.82 193.59,1457.08 195.858,1457.34 198.126,1457.59 200.394,1457.84 202.662,1458.08 204.93,1458.31 207.198,1458.54 209.466,1458.76 211.734,1458.97 214.002,1459.18 216.27,1459.39 218.538,1459.59 220.806,1459.78 223.074,1459.97 225.342,1460.15 227.61,1460.33 229.878,1460.5 232.146,1460.67 234.414,1460.83 236.682,1460.99 238.95,1461.14 241.218,1461.29 243.486,1461.43 245.754,1461.57 248.022,1461.71 250.29,1461.84 252.558,1461.96 254.826,1462.09 257.095,1462.2 259.363,1462.32 261.631,1462.43 263.899,1462.53 266.167,1462.64 268.435,1462.73 270.703,1462.83 272.971,1462.92 275.239,1463.01 277.507,1463.09 279.775,1463.17 282.043,1463.24 284.311,1463.32 286.579,1463.38 288.847,1463.45 291.115,1463.51 293.383,1463.57 295.651,1463.62 297.919,1463.67 300.187,1463.72 302.455,1463.76 304.723,1463.8 306.991,1463.84 309.259,1463.87 311.527,1463.9 313.795,1463.92 316.063,1463.94 318.331,1463.96 320.599,1463.98 322.867,1463.99 325.135,1463.99 327.403,1464 329.672,1463.99 331.94,1463.99 334.208,1463.98 336.476,1463.97 338.744,1463.95 341.012,1463.93 343.28,1463.9 345.548,1463.88 347.816,1463.84 350.084,1463.8 352.352,1463.76 354.62,1463.71 356.888,1463.66 359.156,1463.6 361.424,1463.54 363.692,1463.47 365.96,1463.4 368.228,1463.32 370.496,1463.24 372.764,1463.15 375.032,1463.05 377.3,1462.95 379.568,1462.84 381.836,1462.72 384.104,1462.6 386.372,1462.46 388.64,1462.33 390.908,1462.18 393.176,1462.03 395.444,1461.87 397.712,1461.7 399.981,1461.52 402.249,1461.33 404.517,1461.13 406.785,1460.93 409.053,1460.71 411.321,1460.48 413.589,1460.24 415.857,1459.99 418.125,1459.72 420.393,1459.45 422.661,1459.16 424.929,1458.85 427.197,1458.53 429.465,1458.19 431.733,1457.84 434.001,1457.47 436.269,1457.08 438.537,1456.67 440.805,1456.24 443.073,1455.79 445.341,1455.32 447.609,1454.83 449.877,1454.31 452.145,1453.76 454.413,1453.19 456.681,1452.59 458.949,1451.97 461.217,1451.32 463.485,1450.64 465.753,1449.92 468.021,1449.17 470.29,1448.38 472.558,1447.54 474.826,1446.67 477.094,1445.74 479.362,1444.77 481.63,1443.75 483.898,1442.68 486.166,1441.55 488.434,1440.36 490.702,1439.12 492.97,1437.81 495.238,1436.44 497.506,1435 499.774,1433.5 502.042,1431.92 504.31,1430.28 506.578,1428.56 508.846,1426.76 511.114,1424.89 513.382,1422.93 515.65,1420.9 517.918,1418.78 520.186,1416.58 522.454,1414.28 524.722,1411.91 526.99,1409.44 529.258,1406.87 531.526,1404.22 533.794,1401.47 536.062,1398.62 538.33,1395.67 540.598,1392.61 542.867,1389.46 545.135,1386.22 547.403,1382.89 549.671,1379.49 551.939,1376.02 554.207,1372.5 556.475,1368.94 558.743,1365.34 561.011,1361.71 563.279,1358.06 565.547,1354.41 567.815,1350.76 570.083,1347.12 572.351,1343.51 574.619,1339.93 576.887,1336.4 579.155,1332.92 581.423,1329.51 583.691,1326.18 585.959,1322.93 588.227,1319.79 590.495,1316.75 592.763,1313.84 595.031,1311.07 597.299,1308.44 599.567,1305.97 601.835,1303.67 604.103,1301.54 606.371,1299.58 608.639,1297.79 610.907,1296.19 613.176,1294.78 615.444,1293.55 617.712,1292.5 619.98,1291.65 622.248,1290.98 624.516,1290.5 626.784,1290.2 629.052,1290.08 631.32,1290.15 633.588,1290.38 635.856,1290.78 638.124,1291.34 640.392,1292.06 642.66,1292.92 644.928,1293.92 647.196,1295.04 649.464,1296.29 651.732,1297.64 654,1299.09 656.268,1300.61 658.536,1302.22 660.804,1303.91 663.072,1305.67 665.34,1307.5 667.608,1309.4 669.876,1311.35 672.144,1313.35 674.412,1315.39 676.68,1317.48 678.948,1319.6 681.216,1321.75 683.484,1323.92 685.753,1326.12 688.021,1328.33 690.289,1330.55 692.557,1332.78 694.825,1335.02 697.093,1337.26 699.361,1339.5 701.629,1341.73 703.897,1343.96 706.165,1346.18 708.433,1348.39 710.701,1350.59 712.969,1352.77 715.237,1354.94 717.505,1357.09 719.773,1359.21 722.041,1361.32 724.309,1363.41 726.577,1365.47 728.845,1367.51 731.113,1369.52 733.381,1371.51 735.649,1373.48 737.917,1375.42 740.185,1377.33 742.453,1379.21 744.721,1381.06 746.989,1382.89 749.257,1384.69 751.525,1386.45 753.793,1388.19 756.062,1389.9 758.33,1391.58 760.598,1393.23 762.866,1394.86 765.134,1396.45 767.402,1398.01 769.67,1399.55 771.938,1401.06 774.206,1402.54 776.474,1403.99 778.742,1405.41 781.01,1406.81 783.278,1408.18 785.546,1409.52 787.814,1410.84 790.082,1412.13 792.35,1413.39 794.618,1414.63 796.886,1415.85 799.154,1417.04 801.422,1418.2 803.69,1419.34 805.958,1420.46 808.226,1421.55 810.494,1422.62 812.762,1423.67 815.03,1424.69 817.298,1425.69 819.566,1426.67 821.834,1427.63 824.102,1428.57 826.37,1429.49 828.639,1430.39 830.907,1431.27 833.175,1432.13 835.443,1432.97 837.711,1433.79 839.979,1434.59 842.247,1435.37 844.515,1436.14 846.783,1436.89 849.051,1437.63 851.319,1438.34 853.587,1439.04 855.855,1439.73 858.123,1440.4 860.391,1441.05 862.659,1441.69 864.927,1442.32 867.195,1442.93 869.463,1443.52 871.731,1444.1 873.999,1444.67 876.267,1445.23 878.535,1445.77 880.803,1446.3 883.071,1446.82 885.339,1447.33 887.607,1447.82 889.875,1448.3 892.143,1448.77 894.411,1449.23 896.679,1449.68 898.948,1450.12 901.216,1450.55 903.484,1450.97 905.752,1451.38 908.02,1451.78 910.288,1452.17 912.556,1452.54 914.824,1452.92 917.092,1453.28 919.36,1453.63 921.628,1453.97 923.896,1454.31 926.164,1454.64 928.432,1454.96 930.7,1455.27 932.968,1455.57 935.236,1455.87 937.504,1456.16 939.772,1456.44 942.04,1456.71 944.308,1456.98 946.576,1457.24 948.844,1457.49 951.112,1457.74 953.38,1457.98 955.648,1458.22 957.916,1458.45 960.184,1458.67 962.452,1458.89 964.72,1459.1 966.988,1459.3 969.257,1459.5 971.525,1459.7 973.793,1459.89 976.061,1460.07 978.329,1460.25 980.597,1460.43 982.865,1460.6 985.133,1460.76 987.401,1460.92 989.669,1461.08 991.937,1461.23 994.205,1461.37 996.473,1461.51 998.741,1461.65 1001.01,1461.78 1003.28,1461.91 1005.55,1462.03 1007.81,1462.15 1010.08,1462.27 1012.35,1462.38 1014.62,1462.49 1016.89,1462.59 1019.15,1462.69 1021.42,1462.79 1023.69,1462.88 1025.96,1462.97 1028.23,1463.05 1030.49,1463.13 1032.76,1463.21 1035.03,1463.28 1037.3,1463.35 1039.57,1463.42 1041.83,1463.48 1044.1,1463.54 1046.37,1463.59 1048.64,1463.65 1050.91,1463.69 1053.17,1463.74 1055.44,1463.78 1057.71,1463.82 1059.98,1463.85 1062.25,1463.88 1064.51,1463.91 1066.78,1463.93 1069.05,1463.95 1071.32,1463.96 1073.59,1463.98 1075.85,1463.98 1078.12,1463.99 1080.39,1463.99 1082.66,1463.98 1084.93,1463.98 1087.19,1463.97 1089.46,1463.95 1091.73,1463.93 1094,1463.91 1096.27,1463.88 1098.53,1463.85 1100.8,1463.81 1103.07,1463.77 1105.34,1463.72 1107.61,1463.67 1109.87,1463.61 1112.14,1463.54 1114.41,1463.47 1116.68,1463.4 1118.95,1463.31 1121.21,1463.23 1123.48,1463.14 1125.75,1463.04 1128.02,1462.94 1130.29,1462.83 1132.55,1462.71 1134.82,1462.59 1137.09,1462.46 1139.36,1462.33 1141.63,1462.19 1143.89,1462.04 1146.16,1461.88 1148.43,1461.72 1150.7,1461.54 1152.97,1461.36 1155.24,1461.17 1157.5,1460.97 1159.77,1460.76 1162.04,1460.54 1164.31,1460.31 1166.58,1460.06 1168.84,1459.8 1171.11,1459.53 1173.38,1459.25 1175.65,1458.95 1177.92,1458.64 1180.18,1458.31 1182.45,1457.96 1184.72,1457.6 1186.99,1457.21 1189.26,1456.81 1191.52,1456.39 1193.79,1455.94 1196.06,1455.48 1198.33,1454.99 1200.6,1454.48 1202.86,1453.94 1205.13,1453.38 1207.4,1452.79 1209.67,1452.17 1211.94,1451.52 1214.2,1450.84 1216.47,1450.14 1218.74,1449.4 1221.01,1448.62 1223.28,1447.8 1225.54,1446.95 1227.81,1446.04 1230.08,1445.1 1232.35,1444.1 1234.62,1443.05 1236.88,1441.94 1239.15,1440.78 1241.42,1439.56 1243.69,1438.27 1245.96,1436.93 1248.22,1435.51 1250.49,1434.03 1252.76,1432.48 1255.03,1430.86 1257.3,1429.16 1259.56,1427.39 1261.83,1425.54 1264.1,1423.61 1266.37,1421.6 1268.64,1419.5 1270.9,1417.32 1273.17,1415.06 1275.44,1412.71 1277.71,1410.27 1279.98,1407.74 1282.24,1405.12 1284.51,1402.4 1286.78,1399.59 1289.05,1396.69 1291.32,1393.69 1293.59,1390.59 1295.85,1387.37 1298.12,1384.06 1300.39,1380.67 1302.66,1377.21 1304.93,1373.68 1307.19,1370.1 1309.46,1366.49 1311.73,1362.85 1314,1359.19 1316.27,1355.53 1318.53,1351.87 1320.8,1348.23 1323.07,1344.62 1325.34,1341.04 1327.61,1337.51 1329.87,1334.04 1332.14,1330.64 1334.41,1327.31 1336.68,1324.08 1338.95,1320.94 1341.21,1317.91 1343.48,1314.99 1345.75,1312.2 1348.02,1309.55 1350.29,1307.04 1352.55,1304.69 1354.82,1302.5 1357.09,1300.48 1359.36,1298.64 1361.63,1296.99 1363.89,1295.53 1366.16,1294.26 1368.43,1293.17 1370.7,1292.26 1372.97,1291.54 1375.23,1291 1377.5,1290.63 1379.77,1290.45 1382.04,1290.43 1384.31,1290.58 1386.57,1290.89 1388.84,1291.36 1391.11,1291.98 1393.38,1292.75 1395.65,1293.66 1397.91,1294.7 1400.18,1295.88 1402.45,1297.17 1404.72,1298.58 1406.99,1300.09 1409.25,1301.69 1411.52,1303.39 1413.79,1305.16 1416.06,1307 1418.33,1308.89 1420.59,1310.84 1422.86,1312.81 1425.13,1314.83 1427.4,1316.89 1429.67,1318.98 1431.93,1321.11 1434.2,1323.26 1436.47,1325.44 1438.74,1327.63 1441.01,1329.84 1443.28,1332.05 1445.54,1334.28 1447.81,1336.51 1450.08,1338.74 1452.35,1340.97 1454.62,1343.2 1456.88,1345.41 1459.15,1347.62 1461.42,1349.82 1463.69,1352 1465.96,1354.16 1468.22,1356.31 1470.49,1358.44 1472.76,1360.55 1475.03,1362.64 1477.3,1364.71 1479.56,1366.75 1481.83,1368.77 1484.1,1370.77 1486.37,1372.74 1488.64,1374.68 1490.9,1376.59 1493.17,1378.48 1495.44,1380.34 1497.71,1382.18 1499.98,1383.98 1502.24,1385.76 1504.51,1387.5 1506.78,1389.22 1509.05,1390.91 1511.32,1392.57 1513.58,1394.21 1515.85,1395.81 1518.12,1397.39 1520.39,1398.93 1522.66,1400.45 1524.92,1401.94 1527.19,1403.4 1529.46,1404.84 1531.73,1406.24 1534,1407.62 1536.26,1408.97 1538.53,1410.3 1540.8,1411.6 1543.07,1412.87 1545.34,1414.12 1547.6,1415.34 1549.87,1416.53 1552.14,1417.71 1554.41,1418.86 1556.68,1419.98 1558.94,1421.08 1561.21,1422.16 1563.48,1423.21 1565.75,1424.24 1568.02,1425.25 1570.28,1426.24 1572.55,1427.21 1574.82,1428.16 1577.09,1429.08 1579.36,1429.99 1581.63,1430.88 1583.89,1431.74 1586.16,1432.59 1588.43,1433.42 1590.7,1434.23 1592.97,1435.02 1595.23,1435.8 1597.5,1436.55 1599.77,1437.29 1602.04,1438.02 1604.31,1438.72 1606.57,1439.41 1608.84,1440.09 1611.11,1440.75 1613.38,1441.39 1615.65,1442.02 1617.91,1442.64 1620.18,1443.24 1622.45,1443.83 1624.72,1444.4 1626.99,1444.96 1629.25,1445.51 1631.52,1446.05 1633.79,1446.57 1636.06,1447.08 1638.33,1447.58 1640.59,1448.07 1642.86,1448.54 1645.13,1449 1647.4,1449.46 1649.67,1449.9 1651.93,1450.33 1654.2,1450.75 1656.47,1451.17 1658.74,1451.57 1661.01,1451.96 1663.27,1452.34 1665.54,1452.72 1667.81,1453.08 1670.08,1453.44 1672.35,1453.79 1674.61,1454.13 1676.88,1454.46 1679.15,1454.78 1681.42,1455.09 1683.69,1455.4 1685.95,1455.7 1688.22,1455.99 1690.49,1456.28 1692.76,1456.56 1695.03,1456.83 1697.29,1457.09 1699.56,1457.35 1701.83,1457.6 1704.1,1457.84 1706.37,1458.08 1708.63,1458.31 1710.9,1458.54 1713.17,1458.76 1715.44,1458.97 1717.71,1459.18 1719.98,1459.38 1722.24,1459.58 1724.51,1459.77 1726.78,1459.96 1729.05,1460.14 1731.32,1460.31 1733.58,1460.49 1735.85,1460.65 1738.12,1460.81 1740.39,1460.97 1742.66,1461.12 1744.92,1461.27 1747.19,1461.41 1749.46,1461.55 1751.73,1461.68 1754,1461.81 1756.26,1461.94 1758.53,1462.06 1760.8,1462.18 1763.07,1462.29 1765.34,1462.4 1767.6,1462.5 1769.87,1462.6 1772.14,1462.7 1774.41,1462.79 1776.68,1462.88 1778.94,1462.97 1781.21,1463.05 1783.48,1463.13 1785.75,1463.2 1788.02,1463.28 1790.28,1463.34 1792.55,1463.41 1794.82,1463.47 1797.09,1463.52 1799.36,1463.58 1801.62,1463.62 1803.89,1463.67 1806.16,1463.71 1808.43,1463.75 1810.7,1463.78 1812.96,1463.82 1815.23,1463.84 1817.5,1463.87 1819.77,1463.89 1822.04,1463.9 1824.3,1463.91 1826.57,1463.92 1828.84,1463.93 1831.11,1463.93 1833.38,1463.93 1835.64,1463.92 1837.91,1463.91 1840.18,1463.89 1842.45,1463.87 1844.72,1463.85 1846.98,1463.83 1849.25,1463.79 1851.52,1463.76 1853.79,1463.72 1856.06,1463.67 1858.32,1463.62 1860.59,1463.57 1862.86,1463.51 1865.13,1463.45 1867.4,1463.38 1869.67,1463.3 1871.93,1463.22 1874.2,1463.13 1876.47,1463.04 1878.74,1462.94 1881.01,1462.83 1883.27,1462.72 1885.54,1462.6 1887.81,1462.48 1890.08,1462.34 1892.35,1462.2 1894.61,1462.05 1896.88,1461.9 1899.15,1461.73 1901.42,1461.55 1903.69,1461.36 1905.95,1461.16 1908.22,1460.96 1910.49,1460.74 1912.76,1460.51 1915.03,1460.26 1917.29,1460.01 1919.56,1459.75 1921.83,1459.47 1924.1,1459.18 1926.37,1458.88 1928.63,1458.56 1930.9,1458.23 1933.17,1457.89 1935.44,1457.53 1937.71,1457.15 1939.97,1456.75 1942.24,1456.33 1944.51,1455.9 1946.78,1455.44 1949.05,1454.96 1951.31,1454.46 1953.58,1453.93 1955.85,1453.38 1958.12,1452.8 1960.39,1452.19 1962.65,1451.55 1964.92,1450.87 1967.19,1450.17 1969.46,1449.43 1971.73,1448.65 1973.99,1447.83 1976.26,1446.97 1978.53,1446.07 1980.8,1445.12 1983.07,1444.13 1985.33,1443.09 1987.6,1442 1989.87,1440.85 1992.14,1439.65 1994.41,1438.39 1996.67,1437.07 1998.94,1435.69 2001.21,1434.24 2003.48,1432.73 2005.75,1431.14 2008.02,1429.48 2010.28,1427.75 2012.55,1425.93 2014.82,1424.04 2017.09,1422.07 2019.36,1420 2021.62,1417.85 2023.89,1415.61 2026.16,1413.27 2028.43,1410.85 2030.7,1408.32 2032.96,1405.71 2035.23,1403 2037.5,1400.2 2039.77,1397.31 2042.04,1394.33 2044.3,1391.27 2046.57,1388.12 2048.84,1384.9 2051.11,1381.6 2053.38,1378.24 2055.64,1374.81 2057.91,1371.32 2060.18,1367.78 2062.45,1364.2 2064.72,1360.57 2066.98,1356.92 2069.25,1353.26 2071.52,1349.59 2073.79,1345.94 2076.06,1342.32 2078.32,1338.74 2080.59,1335.21 2082.86,1331.75 2085.13,1328.37 2087.4,1325.08 2089.66,1321.88 2091.93,1318.8 2094.2,1315.84 2096.47,1313.01 2098.74,1310.32 2101,1307.78 2103.27,1305.39 2105.54,1303.17 2107.81,1301.11 2110.08,1299.24 2112.34,1297.55 2114.61,1296.06 2116.88,1294.76 2119.15,1293.64 2121.42,1292.71 2123.68,1291.97 2125.95,1291.41 2128.22,1291.03 2130.49,1290.82 2132.76,1290.78 2135.02,1290.9 2137.29,1291.19 2139.56,1291.63 2141.83,1292.23 2144.1,1292.97 2146.37,1293.84 2148.63,1294.85 2150.9,1295.99 2153.17,1297.25 2155.44,1298.61 2157.71,1300.08 2159.97,1301.65 2162.24,1303.3 2164.51,1305.03 2166.78,1306.83 2169.05,1308.69 2171.31,1310.6 2173.58,1312.56 2175.85,1314.57 2178.12,1316.62 2180.39,1318.7 2182.65,1320.82 2184.92,1322.96 2187.19,1325.13 2189.46,1327.32 2191.73,1329.52 2193.99,1331.74 2196.26,1333.96 2198.53,1336.19 2200.8,1338.42 2203.07,1340.64 2205.33,1342.86 2207.6,1345.08 2209.87,1347.29 2212.14,1349.48 2214.41,1351.66 2216.67,1353.83 2218.94,1355.98 2221.21,1358.11 2223.48,1360.22 2225.75,1362.31 2228.01,1364.38 2230.28,1366.42 2232.55,1368.44 2234.82,1370.44 2237.09,1372.41 2239.35,1374.36 2241.62,1376.28 2243.89,1378.17 2246.16,1380.03 2248.43,1381.87 2250.69,1383.67 2252.96,1385.45 2255.23,1387.21 2257.5,1388.93 2259.77,1390.62 2262.03,1392.29 2264.3,1393.92 2266.57,1395.53 2268.84,1397.11 2271.11,1398.66 2273.37,1400.18 2275.64,1401.67 2277.91,1403.14 2280.18,1404.57 2282.45,1405.98 2284.71,1407.36 2286.98,1408.72 2289.25,1410.05 2291.52,1411.35 2293.79,1412.63 2296.06,1413.88 2298.32,1415.1 2300.59,1416.3 2302.86,1417.48 2305.13,1418.63 2307.4,1419.76 2309.66,1420.86 2311.93,1421.95 2314.2,1423 2316.47,1424.04 2318.74,1425.05 2321,1426.05 2323.27,1427.02 2325.54,1427.97 2327.81,1428.9 2330.08,1429.81 2332.34,1430.69 2334.61,1431.56 2336.88,1432.41 2339.15,1433.25 2341.42,1434.06 2343.68,1434.85 2345.95,1435.63 2348.22,1436.39 2350.49,1437.13 2352.76,1437.86 "/>
<polyline clip-path="url(#clip592)" style="stroke:#3da44d; stroke-linecap:round; stroke-linejoin:round; stroke-width:12; stroke-opacity:1; fill:none" stroke-dasharray="48, 30" points="86.9921,1434.09 89.2602,1433.69 91.5282,1433.29 93.7962,1432.88 96.0643,1432.47 98.3323,1432.05 100.6,1431.63 102.868,1431.2 105.136,1430.77 107.404,1430.33 109.672,1429.89 111.94,1429.45 114.209,1428.99 116.477,1428.54 118.745,1428.08 121.013,1427.61 123.281,1427.14 125.549,1426.66 127.817,1426.18 130.085,1425.69 132.353,1425.2 134.621,1424.7 136.889,1424.2 139.157,1423.69 141.425,1423.17 143.693,1422.65 145.961,1422.12 148.229,1421.59 150.497,1421.05 152.765,1420.5 155.033,1419.95 157.301,1419.4 159.569,1418.83 161.837,1418.26 164.105,1417.69 166.373,1417.11 168.641,1416.52 170.909,1415.92 173.177,1415.32 175.445,1414.71 177.713,1414.1 179.981,1413.48 182.249,1412.85 184.517,1412.21 186.786,1411.57 189.054,1410.92 191.322,1410.27 193.59,1409.6 195.858,1408.93 198.126,1408.25 200.394,1407.57 202.662,1406.87 204.93,1406.17 207.198,1405.47 209.466,1404.75 211.734,1404.03 214.002,1403.29 216.27,1402.55 218.538,1401.81 220.806,1401.05 223.074,1400.29 225.342,1399.51 227.61,1398.73 229.878,1397.94 232.146,1397.14 234.414,1396.34 236.682,1395.52 238.95,1394.7 241.218,1393.86 243.486,1393.02 245.754,1392.17 248.022,1391.31 250.29,1390.44 252.558,1389.56 254.826,1388.67 257.095,1387.77 259.363,1386.86 261.631,1385.95 263.899,1385.02 266.167,1384.08 268.435,1383.13 270.703,1382.18 272.971,1381.21 275.239,1380.23 277.507,1379.24 279.775,1378.24 282.043,1377.23 284.311,1376.21 286.579,1375.18 288.847,1374.13 291.115,1373.08 293.383,1372.01 295.651,1370.94 297.919,1369.85 300.187,1368.75 302.455,1367.64 304.723,1366.51 306.991,1365.38 309.259,1364.23 311.527,1363.07 313.795,1361.9 316.063,1360.71 318.331,1359.52 320.599,1358.31 322.867,1357.09 325.135,1355.85 327.403,1354.6 329.672,1353.34 331.94,1352.07 334.208,1350.78 336.476,1349.48 338.744,1348.17 341.012,1346.84 343.28,1345.5 345.548,1344.14 347.816,1342.77 350.084,1341.39 352.352,1339.99 354.62,1338.58 356.888,1337.15 359.156,1335.71 361.424,1334.25 363.692,1332.78 365.96,1331.29 368.228,1329.79 370.496,1328.27 372.764,1326.74 375.032,1325.19 377.3,1323.62 379.568,1322.04 381.836,1320.45 384.104,1318.84 386.372,1317.21 388.64,1315.56 390.908,1313.9 393.176,1312.22 395.444,1310.53 397.712,1308.82 399.981,1307.09 402.249,1305.34 404.517,1303.58 406.785,1301.8 409.053,1300 411.321,1298.19 413.589,1296.35 415.857,1294.5 418.125,1292.64 420.393,1290.75 422.661,1288.85 424.929,1286.93 427.197,1284.99 429.465,1283.03 431.733,1281.05 434.001,1279.05 436.269,1277.04 438.537,1275.01 440.805,1272.96 443.073,1270.89 445.341,1268.8 447.609,1266.69 449.877,1264.57 452.145,1262.42 454.413,1260.26 456.681,1258.08 458.949,1255.88 461.217,1253.66 463.485,1251.42 465.753,1249.16 468.021,1246.88 470.29,1244.58 472.558,1242.26 474.826,1239.92 477.094,1237.56 479.362,1235.19 481.63,1232.79 483.898,1230.38 486.166,1227.94 488.434,1225.49 490.702,1223.02 492.97,1220.53 495.238,1218.02 497.506,1215.5 499.774,1212.96 502.042,1210.4 504.31,1207.82 506.578,1205.23 508.846,1202.62 511.114,1199.99 513.382,1197.35 515.65,1194.7 517.918,1192.03 520.186,1189.34 522.454,1186.65 524.722,1183.93 526.99,1181.21 529.258,1178.48 531.526,1175.73 533.794,1172.97 536.062,1170.2 538.33,1167.43 540.598,1164.64 542.867,1161.85 545.135,1159.04 547.403,1156.24 549.671,1153.43 551.939,1150.62 554.207,1147.8 556.475,1144.99 558.743,1142.17 561.011,1139.36 563.279,1136.55 565.547,1133.74 567.815,1130.94 570.083,1128.15 572.351,1125.37 574.619,1122.6 576.887,1119.85 579.155,1117.11 581.423,1114.39 583.691,1111.7 585.959,1109.03 588.227,1106.4 590.495,1103.79 592.763,1101.22 595.031,1098.69 597.299,1096.2 599.567,1093.77 601.835,1091.38 604.103,1089.04 606.371,1086.77 608.639,1084.56 610.907,1082.42 613.176,1080.36 615.444,1078.37 617.712,1076.47 619.98,1074.66 622.248,1072.94 624.516,1071.32 626.784,1069.8 629.052,1068.4 631.32,1067.12 633.588,1065.96 635.856,1064.93 638.124,1064.04 640.392,1063.29 642.66,1062.68 644.928,1062.24 647.196,1061.95 649.464,1061.85 651.732,1061.93 654,1062.2 656.268,1062.67 658.536,1063.35 660.804,1064.24 663.072,1065.35 665.34,1066.69 667.608,1068.26 669.876,1070.06 672.144,1072.09 674.412,1074.37 676.68,1076.89 678.948,1079.65 681.216,1082.66 683.484,1085.91 685.753,1089.41 688.021,1093.15 690.289,1097.13 692.557,1101.36 694.825,1105.82 697.093,1110.52 699.361,1115.46 701.629,1120.62 703.897,1126 706.165,1131.6 708.433,1137.39 710.701,1143.35 712.969,1149.49 715.237,1155.77 717.505,1162.18 719.773,1168.72 722.041,1175.35 724.309,1182.08 726.577,1188.88 728.845,1195.74 731.113,1202.64 733.381,1209.58 735.649,1216.53 737.917,1223.48 740.185,1230.42 742.453,1237.33 744.721,1244.2 746.989,1251.02 749.257,1257.76 751.525,1264.43 753.793,1270.99 756.062,1277.45 758.33,1283.78 760.598,1289.98 762.866,1296.06 765.134,1301.99 767.402,1307.79 769.67,1313.44 771.938,1318.94 774.206,1324.3 776.474,1329.51 778.742,1334.56 781.01,1339.46 783.278,1344.21 785.546,1348.8 787.814,1353.24 790.082,1357.53 792.35,1361.67 794.618,1365.65 796.886,1369.49 799.154,1373.18 801.422,1376.73 803.69,1380.14 805.958,1383.42 808.226,1386.56 810.494,1389.58 812.762,1392.48 815.03,1395.27 817.298,1397.94 819.566,1400.52 821.834,1402.99 824.102,1405.37 826.37,1407.65 828.639,1409.84 830.907,1411.94 833.175,1413.95 835.443,1415.89 837.711,1417.74 839.979,1419.52 842.247,1421.22 844.515,1422.85 846.783,1424.42 849.051,1425.92 851.319,1427.35 853.587,1428.73 855.855,1430.05 858.123,1431.31 860.391,1432.53 862.659,1433.69 864.927,1434.8 867.195,1435.87 869.463,1436.89 871.731,1437.87 873.999,1438.82 876.267,1439.72 878.535,1440.59 880.803,1441.42 883.071,1442.22 885.339,1442.99 887.607,1443.72 889.875,1444.43 892.143,1445.11 894.411,1445.77 896.679,1446.4 898.948,1447 901.216,1447.58 903.484,1448.14 905.752,1448.68 908.02,1449.2 910.288,1449.69 912.556,1450.17 914.824,1450.63 917.092,1451.07 919.36,1451.5 921.628,1451.91 923.896,1452.31 926.164,1452.69 928.432,1453.06 930.7,1453.41 932.968,1453.75 935.236,1454.08 937.504,1454.4 939.772,1454.7 942.04,1454.99 944.308,1455.28 946.576,1455.55 948.844,1455.81 951.112,1456.07 953.38,1456.31 955.648,1456.54 957.916,1456.77 960.184,1456.99 962.452,1457.2 964.72,1457.4 966.988,1457.6 969.257,1457.79 971.525,1457.97 973.793,1458.14 976.061,1458.31 978.329,1458.47 980.597,1458.63 982.865,1458.78 985.133,1458.92 987.401,1459.06 989.669,1459.19 991.937,1459.32 994.205,1459.44 996.473,1459.56 998.741,1459.68 1001.01,1459.79 1003.28,1459.89 1005.55,1459.99 1007.81,1460.09 1010.08,1460.18 1012.35,1460.27 1014.62,1460.36 1016.89,1460.44 1019.15,1460.52 1021.42,1460.59 1023.69,1460.66 1025.96,1460.73 1028.23,1460.8 1030.49,1460.86 1032.76,1460.92 1035.03,1460.97 1037.3,1461.02 1039.57,1461.07 1041.83,1461.12 1044.1,1461.16 1046.37,1461.2 1048.64,1461.24 1050.91,1461.28 1053.17,1461.31 1055.44,1461.34 1057.71,1461.37 1059.98,1461.4 1062.25,1461.42 1064.51,1461.44 1066.78,1461.46 1069.05,1461.48 1071.32,1461.49 1073.59,1461.5 1075.85,1461.51 1078.12,1461.52 1080.39,1461.53 1082.66,1461.53 1084.93,1461.54 1087.19,1461.54 1089.46,1461.53 1091.73,1461.53 1094,1461.53 1096.27,1461.52 1098.53,1461.51 1100.8,1461.5 1103.07,1461.49 1105.34,1461.47 1107.61,1461.46 1109.87,1461.44 1112.14,1461.42 1114.41,1461.4 1116.68,1461.37 1118.95,1461.35 1121.21,1461.32 1123.48,1461.29 1125.75,1461.26 1128.02,1461.23 1130.29,1461.2 1132.55,1461.17 1134.82,1461.13 1137.09,1461.09 1139.36,1461.05 1141.63,1461.01 1143.89,1460.97 1146.16,1460.92 1148.43,1460.88 1150.7,1460.83 1152.97,1460.78 1155.24,1460.73 1157.5,1460.68 1159.77,1460.63 1162.04,1460.57 1164.31,1460.51 1166.58,1460.46 1168.84,1460.4 1171.11,1460.33 1173.38,1460.27 1175.65,1460.21 1177.92,1460.14 1180.18,1460.07 1182.45,1460 1184.72,1459.93 1186.99,1459.86 1189.26,1459.79 1191.52,1459.71 1193.79,1459.64 1196.06,1459.56 1198.33,1459.48 1200.6,1459.4 1202.86,1459.31 1205.13,1459.23 1207.4,1459.14 1209.67,1459.05 1211.94,1458.97 1214.2,1458.87 1216.47,1458.78 1218.74,1458.69 1221.01,1458.59 1223.28,1458.49 1225.54,1458.39 1227.81,1458.29 1230.08,1458.19 1232.35,1458.09 1234.62,1457.98 1236.88,1457.87 1239.15,1457.76 1241.42,1457.65 1243.69,1457.54 1245.96,1457.42 1248.22,1457.31 1250.49,1457.19 1252.76,1457.07 1255.03,1456.95 1257.3,1456.83 1259.56,1456.7 1261.83,1456.57 1264.1,1456.44 1266.37,1456.31 1268.64,1456.18 1270.9,1456.05 1273.17,1455.91 1275.44,1455.77 1277.71,1455.63 1279.98,1455.49 1282.24,1455.34 1284.51,1455.2 1286.78,1455.05 1289.05,1454.9 1291.32,1454.75 1293.59,1454.59 1295.85,1454.44 1298.12,1454.28 1300.39,1454.12 1302.66,1453.96 1304.93,1453.79 1307.19,1453.62 1309.46,1453.46 1311.73,1453.28 1314,1453.11 1316.27,1452.93 1318.53,1452.76 1320.8,1452.58 1323.07,1452.39 1325.34,1452.21 1327.61,1452.02 1329.87,1451.83 1332.14,1451.64 1334.41,1451.45 1336.68,1451.25 1338.95,1451.05 1341.21,1450.85 1343.48,1450.65 1345.75,1450.44 1348.02,1450.23 1350.29,1450.02 1352.55,1449.81 1354.82,1449.59 1357.09,1449.37 1359.36,1449.15 1361.63,1448.92 1363.89,1448.69 1366.16,1448.46 1368.43,1448.23 1370.7,1448 1372.97,1447.76 1375.23,1447.52 1377.5,1447.27 1379.77,1447.02 1382.04,1446.77 1384.31,1446.52 1386.57,1446.26 1388.84,1446.01 1391.11,1445.74 1393.38,1445.48 1395.65,1445.21 1397.91,1444.94 1400.18,1444.66 1402.45,1444.38 1404.72,1444.1 1406.99,1443.82 1409.25,1443.53 1411.52,1443.24 1413.79,1442.95 1416.06,1442.65 1418.33,1442.35 1420.59,1442.04 1422.86,1441.73 1425.13,1441.42 1427.4,1441.1 1429.67,1440.79 1431.93,1440.46 1434.2,1440.14 1436.47,1439.81 1438.74,1439.47 1441.01,1439.13 1443.28,1438.79 1445.54,1438.45 1447.81,1438.1 1450.08,1437.74 1452.35,1437.38 1454.62,1437.02 1456.88,1436.66 1459.15,1436.29 1461.42,1435.91 1463.69,1435.53 1465.96,1435.15 1468.22,1434.76 1470.49,1434.37 1472.76,1433.98 1475.03,1433.58 1477.3,1433.17 1479.56,1432.76 1481.83,1432.35 1484.1,1431.93 1486.37,1431.51 1488.64,1431.08 1490.9,1430.64 1493.17,1430.21 1495.44,1429.76 1497.71,1429.32 1499.98,1428.86 1502.24,1428.41 1504.51,1427.94 1506.78,1427.47 1509.05,1427 1511.32,1426.52 1513.58,1426.04 1515.85,1425.55 1518.12,1425.05 1520.39,1424.55 1522.66,1424.05 1524.92,1423.54 1527.19,1423.02 1529.46,1422.5 1531.73,1421.97 1534,1421.43 1536.26,1420.89 1538.53,1420.35 1540.8,1419.79 1543.07,1419.23 1545.34,1418.67 1547.6,1418.1 1549.87,1417.52 1552.14,1416.94 1554.41,1416.35 1556.68,1415.75 1558.94,1415.15 1561.21,1414.54 1563.48,1413.92 1565.75,1413.29 1568.02,1412.66 1570.28,1412.03 1572.55,1411.38 1574.82,1410.73 1577.09,1410.07 1579.36,1409.41 1581.63,1408.73 1583.89,1408.05 1586.16,1407.37 1588.43,1406.67 1590.7,1405.97 1592.97,1405.26 1595.23,1404.54 1597.5,1403.81 1599.77,1403.08 1602.04,1402.33 1604.31,1401.58 1606.57,1400.83 1608.84,1400.06 1611.11,1399.28 1613.38,1398.5 1615.65,1397.71 1617.91,1396.91 1620.18,1396.1 1622.45,1395.28 1624.72,1394.45 1626.99,1393.62 1629.25,1392.77 1631.52,1391.92 1633.79,1391.05 1636.06,1390.18 1638.33,1389.3 1640.59,1388.41 1642.86,1387.5 1645.13,1386.59 1647.4,1385.67 1649.67,1384.74 1651.93,1383.8 1654.2,1382.85 1656.47,1381.89 1658.74,1380.92 1661.01,1379.94 1663.27,1378.94 1665.54,1377.94 1667.81,1376.93 1670.08,1375.9 1672.35,1374.87 1674.61,1373.82 1676.88,1372.76 1679.15,1371.69 1681.42,1370.61 1683.69,1369.52 1685.95,1368.42 1688.22,1367.3 1690.49,1366.17 1692.76,1365.04 1695.03,1363.89 1697.29,1362.72 1699.56,1361.55 1701.83,1360.36 1704.1,1359.16 1706.37,1357.95 1708.63,1356.72 1710.9,1355.48 1713.17,1354.23 1715.44,1352.97 1717.71,1351.69 1719.98,1350.4 1722.24,1349.1 1724.51,1347.78 1726.78,1346.45 1729.05,1345.1 1731.32,1343.74 1733.58,1342.36 1735.85,1340.98 1738.12,1339.57 1740.39,1338.16 1742.66,1336.72 1744.92,1335.28 1747.19,1333.81 1749.46,1332.34 1751.73,1330.84 1754,1329.34 1756.26,1327.81 1758.53,1326.28 1760.8,1324.72 1763.07,1323.15 1765.34,1321.57 1767.6,1319.96 1769.87,1318.35 1772.14,1316.71 1774.41,1315.06 1776.68,1313.39 1778.94,1311.71 1781.21,1310.01 1783.48,1308.29 1785.75,1306.56 1788.02,1304.81 1790.28,1303.04 1792.55,1301.25 1794.82,1299.45 1797.09,1297.63 1799.36,1295.79 1801.62,1293.94 1803.89,1292.06 1806.16,1290.17 1808.43,1288.26 1810.7,1286.34 1812.96,1284.39 1815.23,1282.43 1817.5,1280.44 1819.77,1278.44 1822.04,1276.42 1824.3,1274.38 1826.57,1272.33 1828.84,1270.25 1831.11,1268.16 1833.38,1266.07 1835.64,1263.96 1837.91,1261.84 1840.18,1259.71 1842.45,1257.56 1844.72,1255.4 1846.98,1253.22 1849.25,1251.02 1851.52,1248.81 1853.79,1246.57 1856.06,1244.31 1858.32,1242.04 1860.59,1239.74 1862.86,1237.41 1865.13,1235.07 1867.4,1232.7 1869.67,1230.3 1871.93,1227.89 1874.2,1225.44 1876.47,1222.97 1878.74,1220.48 1881.01,1217.97 1883.27,1215.42 1885.54,1212.86 1887.81,1210.27 1890.08,1207.65 1892.35,1205.02 1894.61,1202.35 1896.88,1199.67 1899.15,1196.97 1901.42,1194.24 1903.69,1191.49 1905.95,1188.73 1908.22,1185.94 1910.49,1183.14 1912.76,1180.32 1915.03,1177.49 1917.29,1174.64 1919.56,1171.78 1921.83,1168.91 1924.1,1166.03 1926.37,1163.14 1928.63,1160.25 1930.9,1157.35 1933.17,1154.45 1935.44,1151.54 1937.71,1148.64 1939.97,1145.74 1942.24,1142.85 1944.51,1139.96 1946.78,1137.08 1949.05,1134.22 1951.31,1131.37 1953.58,1128.53 1955.85,1125.72 1958.12,1122.93 1960.39,1120.16 1962.65,1117.42 1964.92,1114.71 1967.19,1112.04 1969.46,1109.4 1971.73,1106.8 1973.99,1104.24 1976.26,1101.74 1978.53,1099.28 1980.8,1096.87 1983.07,1094.52 1985.33,1092.23 1987.6,1090 1989.87,1087.85 1992.14,1085.76 1994.41,1083.75 1996.67,1081.82 1998.94,1079.97 2001.21,1078.21 2003.48,1076.54 2005.75,1074.97 2008.02,1073.5 2010.28,1072.13 2012.55,1070.87 2014.82,1069.73 2017.09,1068.7 2019.36,1067.8 2021.62,1067.03 2023.89,1066.39 2026.16,1065.89 2028.43,1065.53 2030.7,1065.33 2032.96,1065.27 2035.23,1065.38 2037.5,1065.68 2039.77,1066.17 2042.04,1066.85 2044.3,1067.75 2046.57,1068.85 2048.84,1070.18 2051.11,1071.73 2053.38,1073.51 2055.64,1075.52 2057.91,1077.77 2060.18,1080.25 2062.45,1082.98 2064.72,1085.95 2066.98,1089.16 2069.25,1092.61 2071.52,1096.3 2073.79,1100.24 2076.06,1104.41 2078.32,1108.83 2080.59,1113.48 2082.86,1118.36 2085.13,1123.46 2087.4,1128.76 2089.66,1134.26 2091.93,1139.94 2094.2,1145.79 2096.47,1151.8 2098.74,1157.95 2101,1164.24 2103.27,1170.65 2105.54,1177.16 2107.81,1183.76 2110.08,1190.44 2112.34,1197.18 2114.61,1203.97 2116.88,1210.8 2119.15,1217.64 2121.42,1224.5 2123.68,1231.34 2125.95,1238.15 2128.22,1244.92 2130.49,1251.63 2132.76,1258.27 2135.02,1264.82 2137.29,1271.28 2139.56,1277.64 2141.83,1283.88 2144.1,1290.01 2146.37,1296.02 2148.63,1301.9 2150.9,1307.64 2153.17,1313.24 2155.44,1318.7 2157.71,1324.01 2159.97,1329.17 2162.24,1334.18 2164.51,1339.04 2166.78,1343.74 2169.05,1348.29 2171.31,1352.69 2173.58,1356.93 2175.85,1361.03 2178.12,1364.97 2180.39,1368.77 2182.65,1372.44 2184.92,1375.96 2187.19,1379.36 2189.46,1382.62 2191.73,1385.78 2193.99,1388.81 2196.26,1391.72 2198.53,1394.52 2200.8,1397.21 2203.07,1399.79 2205.33,1402.27 2207.6,1404.65 2209.87,1406.93 2212.14,1409.13 2214.41,1411.23 2216.67,1413.25 2218.94,1415.18 2221.21,1417.04 2223.48,1418.82 2225.75,1420.52 2228.01,1422.16 2230.28,1423.72 2232.55,1425.23 2234.82,1426.67 2237.09,1428.05 2239.35,1429.37 2241.62,1430.64 2243.89,1431.86 2246.16,1433.02 2248.43,1434.14 2250.69,1435.22 2252.96,1436.25 2255.23,1437.24 2257.5,1438.19 2259.77,1439.1 2262.03,1439.98 2264.3,1440.82 2266.57,1441.63 2268.84,1442.4 2271.11,1443.15 2273.37,1443.86 2275.64,1444.55 2277.91,1445.21 2280.18,1445.85 2282.45,1446.46 2284.71,1447.05 2286.98,1447.62 2289.25,1448.16 2291.52,1448.69 2293.79,1449.19 2296.06,1449.68 2298.32,1450.14 2300.59,1450.59 2302.86,1451.03 2305.13,1451.44 2307.4,1451.85 2309.66,1452.23 2311.93,1452.6 2314.2,1452.96 2316.47,1453.31 2318.74,1453.64 2321,1453.96 2323.27,1454.27 2325.54,1454.57 2327.81,1454.86 2330.08,1455.13 2332.34,1455.4 2334.61,1455.66 2336.88,1455.9 2339.15,1456.14 2341.42,1456.37 2343.68,1456.6 2345.95,1456.81 2348.22,1457.02 2350.49,1457.21 2352.76,1457.41 "/>
<polyline clip-path="url(#clip592)" style="stroke:#c271d2; stroke-linecap:round; stroke-linejoin:round; stroke-width:12; stroke-opacity:1; fill:none" stroke-dasharray="48, 30" points="86.9921,1434.09 89.2602,1434.49 91.5282,1434.87 93.7962,1435.26 96.0643,1435.63 98.3323,1436.01 100.6,1436.37 102.868,1436.73 105.136,1437.08 107.404,1437.43 109.672,1437.78 111.94,1438.12 114.209,1438.45 116.477,1438.78 118.745,1439.1 121.013,1439.42 123.281,1439.73 125.549,1440.04 127.817,1440.34 130.085,1440.64 132.353,1440.93 134.621,1441.22 136.889,1441.5 139.157,1441.78 141.425,1442.06 143.693,1442.33 145.961,1442.59 148.229,1442.85 150.497,1443.11 152.765,1443.36 155.033,1443.61 157.301,1443.85 159.569,1444.09 161.837,1444.33 164.105,1444.56 166.373,1444.79 168.641,1445.01 170.909,1445.23 173.177,1445.45 175.445,1445.66 177.713,1445.87 179.981,1446.07 182.249,1446.27 184.517,1446.47 186.786,1446.66 189.054,1446.85 191.322,1447.04 193.59,1447.22 195.858,1447.4 198.126,1447.57 200.394,1447.74 202.662,1447.91 204.93,1448.08 207.198,1448.24 209.466,1448.4 211.734,1448.55 214.002,1448.7 216.27,1448.85 218.538,1448.99 220.806,1449.13 223.074,1449.27 225.342,1449.4 227.61,1449.53 229.878,1449.66 232.146,1449.79 234.414,1449.91 236.682,1450.03 238.95,1450.14 241.218,1450.25 243.486,1450.36 245.754,1450.47 248.022,1450.57 250.29,1450.67 252.558,1450.76 254.826,1450.86 257.095,1450.95 259.363,1451.03 261.631,1451.12 263.899,1451.2 266.167,1451.27 268.435,1451.35 270.703,1451.42 272.971,1451.49 275.239,1451.55 277.507,1451.61 279.775,1451.67 282.043,1451.73 284.311,1451.78 286.579,1451.83 288.847,1451.87 291.115,1451.92 293.383,1451.96 295.651,1451.99 297.919,1452.02 300.187,1452.05 302.455,1452.08 304.723,1452.1 306.991,1452.12 309.259,1452.14 311.527,1452.15 313.795,1452.16 316.063,1452.17 318.331,1452.17 320.599,1452.17 322.867,1452.17 325.135,1452.16 327.403,1452.14 329.672,1452.13 331.94,1452.11 334.208,1452.09 336.476,1452.06 338.744,1452.03 341.012,1451.99 343.28,1451.95 345.548,1451.91 347.816,1451.86 350.084,1451.81 352.352,1451.75 354.62,1451.69 356.888,1451.63 359.156,1451.56 361.424,1451.49 363.692,1451.41 365.96,1451.33 368.228,1451.24 370.496,1451.15 372.764,1451.06 375.032,1450.95 377.3,1450.85 379.568,1450.74 381.836,1450.62 384.104,1450.49 386.372,1450.37 388.64,1450.23 390.908,1450.09 393.176,1449.94 395.444,1449.79 397.712,1449.63 399.981,1449.46 402.249,1449.29 404.517,1449.11 406.785,1448.92 409.053,1448.72 411.321,1448.52 413.589,1448.31 415.857,1448.09 418.125,1447.86 420.393,1447.62 422.661,1447.37 424.929,1447.12 427.197,1446.85 429.465,1446.58 431.733,1446.29 434.001,1446 436.269,1445.69 438.537,1445.38 440.805,1445.05 443.073,1444.71 445.341,1444.35 447.609,1443.98 449.877,1443.6 452.145,1443.2 454.413,1442.79 456.681,1442.37 458.949,1441.93 461.217,1441.47 463.485,1441.01 465.753,1440.52 468.021,1440.02 470.29,1439.5 472.558,1438.97 474.826,1438.41 477.094,1437.84 479.362,1437.25 481.63,1436.63 483.898,1436 486.166,1435.34 488.434,1434.66 490.702,1433.95 492.97,1433.22 495.238,1432.46 497.506,1431.68 499.774,1430.86 502.042,1430.01 504.31,1429.13 506.578,1428.21 508.846,1427.26 511.114,1426.27 513.382,1425.25 515.65,1424.18 517.918,1423.07 520.186,1421.92 522.454,1420.72 524.722,1419.47 526.99,1418.17 529.258,1416.82 531.526,1415.42 533.794,1413.96 536.062,1412.44 538.33,1410.87 540.598,1409.22 542.867,1407.52 545.135,1405.74 547.403,1403.89 549.671,1401.96 551.939,1399.95 554.207,1397.85 556.475,1395.67 558.743,1393.4 561.011,1391.03 563.279,1388.56 565.547,1385.99 567.815,1383.31 570.083,1380.51 572.351,1377.6 574.619,1374.56 576.887,1371.38 579.155,1368.06 581.423,1364.6 583.691,1360.99 585.959,1357.21 588.227,1353.26 590.495,1349.14 592.763,1344.83 595.031,1340.32 597.299,1335.61 599.567,1330.69 601.835,1325.54 604.103,1320.16 606.371,1314.54 608.639,1308.65 610.907,1302.51 613.176,1296.08 615.444,1289.37 617.712,1282.35 619.98,1275.02 622.248,1267.36 624.516,1259.36 626.784,1251.01 629.052,1242.29 631.32,1233.19 633.588,1223.69 635.856,1213.79 638.124,1203.45 640.392,1192.68 642.66,1181.47 644.928,1169.79 647.196,1157.62 649.464,1144.95 651.732,1131.77 654,1118.05 656.268,1103.79 658.536,1088.98 660.804,1073.61 663.072,1057.68 665.34,1041.19 667.608,1024.13 669.876,1006.51 672.144,988.337 674.412,969.61 676.68,950.342 678.948,930.543 681.216,910.226 683.484,889.407 685.753,868.103 688.021,846.333 690.289,824.12 692.557,801.487 694.825,778.461 697.093,755.07 699.361,731.345 701.629,707.316 703.897,683.022 706.165,658.528 708.433,633.904 710.701,609.217 712.969,584.533 715.237,559.916 717.505,535.427 719.773,511.129 722.041,487.079 724.309,463.335 726.577,439.953 728.845,416.987 731.113,394.491 733.381,372.514 735.649,351.106 737.917,330.315 740.185,310.186 742.453,290.765 744.721,272.094 746.989,254.215 749.257,237.166 751.525,220.985 753.793,205.71 756.062,191.375 758.33,178.007 760.598,165.611 762.866,154.18 765.134,143.707 767.402,134.185 769.67,125.603 771.938,117.951 774.206,111.218 776.474,105.389 778.742,100.451 781.01,96.3867 783.278,93.1796 785.546,90.811 787.814,89.2611 790.082,88.5087 792.35,88.5313 794.618,89.3052 796.886,90.8052 799.154,93.005 801.422,95.8769 803.69,99.3919 805.958,103.52 808.226,108.229 810.494,113.486 812.762,119.257 815.03,125.507 817.298,132.198 819.566,139.293 821.834,146.76 824.102,154.589 826.37,162.76 828.639,171.253 830.907,180.049 833.175,189.129 835.443,198.475 837.711,208.068 839.979,217.892 842.247,227.929 844.515,238.162 846.783,248.576 849.051,259.155 851.319,269.884 853.587,280.747 855.855,291.731 858.123,302.822 860.391,314.006 862.659,325.27 864.927,336.603 867.195,347.991 869.463,359.423 871.731,370.889 873.999,382.376 876.267,393.877 878.535,405.379 880.803,416.875 883.071,428.355 885.339,439.811 887.607,451.235 889.875,462.625 892.143,473.98 894.411,485.295 896.679,496.564 898.948,507.783 901.216,518.95 903.484,530.058 905.752,541.106 908.02,552.089 910.288,563.004 912.556,573.848 914.824,584.618 917.092,595.312 919.36,605.926 921.628,616.46 923.896,626.911 926.164,637.276 928.432,647.555 930.7,657.747 932.968,667.849 935.236,677.862 937.504,687.783 939.772,697.614 942.04,707.352 944.308,716.997 946.576,726.546 948.844,736.002 951.112,745.363 953.38,754.628 955.648,763.799 957.916,772.875 960.184,781.855 962.452,790.74 964.72,799.53 966.988,808.225 969.257,816.825 971.525,825.33 973.793,833.74 976.061,842.056 978.329,850.277 980.597,858.405 982.865,866.439 985.133,874.379 987.401,882.227 989.669,889.982 991.937,897.646 994.205,905.218 996.473,912.699 998.741,920.09 1001.01,927.392 1003.28,934.604 1005.55,941.728 1007.81,948.765 1010.08,955.715 1012.35,962.58 1014.62,969.359 1016.89,976.054 1019.15,982.666 1021.42,989.196 1023.69,995.644 1025.96,1002.01 1028.23,1008.3 1030.49,1014.5 1032.76,1020.63 1035.03,1026.68 1037.3,1032.65 1039.57,1038.54 1041.83,1044.36 1044.1,1050.11 1046.37,1055.78 1048.64,1061.37 1050.91,1066.89 1053.17,1072.35 1055.44,1077.73 1057.71,1083.03 1059.98,1088.27 1062.25,1093.44 1064.51,1098.55 1066.78,1103.58 1069.05,1108.55 1071.32,1113.45 1073.59,1118.29 1075.85,1123.06 1078.12,1127.77 1080.39,1132.42 1082.66,1137 1084.93,1141.53 1087.19,1145.99 1089.46,1150.39 1091.73,1154.73 1094,1159.02 1096.27,1163.25 1098.53,1167.42 1100.8,1171.53 1103.07,1175.59 1105.34,1179.59 1107.61,1183.54 1109.87,1187.44 1112.14,1191.28 1114.41,1195.07 1116.68,1198.81 1118.95,1202.5 1121.21,1206.14 1123.48,1209.73 1125.75,1213.27 1128.02,1216.76 1130.29,1220.2 1132.55,1223.6 1134.82,1226.95 1137.09,1230.25 1139.36,1233.51 1141.63,1236.72 1143.89,1239.89 1146.16,1243.02 1148.43,1246.1 1150.7,1249.14 1152.97,1252.14 1155.24,1255.1 1157.5,1258.01 1159.77,1260.89 1162.04,1263.72 1164.31,1266.52 1166.58,1269.28 1168.84,1272 1171.11,1274.68 1173.38,1277.33 1175.65,1279.93 1177.92,1282.51 1180.18,1285.04 1182.45,1287.54 1184.72,1290.01 1186.99,1292.44 1189.26,1294.84 1191.52,1297.2 1193.79,1299.54 1196.06,1301.84 1198.33,1304.1 1200.6,1306.34 1202.86,1308.55 1205.13,1310.72 1207.4,1312.86 1209.67,1314.98 1211.94,1317.06 1214.2,1319.12 1216.47,1321.15 1218.74,1323.14 1221.01,1325.11 1223.28,1327.06 1225.54,1328.97 1227.81,1330.86 1230.08,1332.72 1232.35,1334.56 1234.62,1336.37 1236.88,1338.16 1239.15,1339.92 1241.42,1341.65 1243.69,1343.36 1245.96,1345.05 1248.22,1346.71 1250.49,1348.35 1252.76,1349.97 1255.03,1351.56 1257.3,1353.14 1259.56,1354.69 1261.83,1356.21 1264.1,1357.72 1266.37,1359.2 1268.64,1360.67 1270.9,1362.11 1273.17,1363.54 1275.44,1364.94 1277.71,1366.32 1279.98,1367.69 1282.24,1369.03 1284.51,1370.36 1286.78,1371.67 1289.05,1372.95 1291.32,1374.23 1293.59,1375.48 1295.85,1376.71 1298.12,1377.93 1300.39,1379.13 1302.66,1380.31 1304.93,1381.48 1307.19,1382.63 1309.46,1383.77 1311.73,1384.88 1314,1385.99 1316.27,1387.07 1318.53,1388.14 1320.8,1389.2 1323.07,1390.24 1325.34,1391.27 1327.61,1392.28 1329.87,1393.28 1332.14,1394.26 1334.41,1395.23 1336.68,1396.19 1338.95,1397.13 1341.21,1398.06 1343.48,1398.97 1345.75,1399.88 1348.02,1400.76 1350.29,1401.64 1352.55,1402.51 1354.82,1403.36 1357.09,1404.2 1359.36,1405.03 1361.63,1405.84 1363.89,1406.65 1366.16,1407.44 1368.43,1408.22 1370.7,1408.99 1372.97,1409.75 1375.23,1410.5 1377.5,1411.24 1379.77,1411.97 1382.04,1412.69 1384.31,1413.39 1386.57,1414.09 1388.84,1414.78 1391.11,1415.45 1393.38,1416.12 1395.65,1416.78 1397.91,1417.43 1400.18,1418.07 1402.45,1418.7 1404.72,1419.32 1406.99,1419.93 1409.25,1420.53 1411.52,1421.13 1413.79,1421.71 1416.06,1422.29 1418.33,1422.86 1420.59,1423.42 1422.86,1423.97 1425.13,1424.51 1427.4,1425.05 1429.67,1425.58 1431.93,1426.1 1434.2,1426.61 1436.47,1427.12 1438.74,1427.62 1441.01,1428.11 1443.28,1428.59 1445.54,1429.07 1447.81,1429.54 1450.08,1430 1452.35,1430.45 1454.62,1430.9 1456.88,1431.35 1459.15,1431.78 1461.42,1432.21 1463.69,1432.63 1465.96,1433.05 1468.22,1433.46 1470.49,1433.86 1472.76,1434.26 1475.03,1434.65 1477.3,1435.04 1479.56,1435.42 1481.83,1435.79 1484.1,1436.16 1486.37,1436.53 1488.64,1436.88 1490.9,1437.24 1493.17,1437.58 1495.44,1437.92 1497.71,1438.26 1499.98,1438.59 1502.24,1438.92 1504.51,1439.24 1506.78,1439.55 1509.05,1439.87 1511.32,1440.17 1513.58,1440.47 1515.85,1440.77 1518.12,1441.06 1520.39,1441.35 1522.66,1441.63 1524.92,1441.91 1527.19,1442.18 1529.46,1442.45 1531.73,1442.71 1534,1442.97 1536.26,1443.23 1538.53,1443.48 1540.8,1443.73 1543.07,1443.97 1545.34,1444.21 1547.6,1444.44 1549.87,1444.67 1552.14,1444.9 1554.41,1445.12 1556.68,1445.34 1558.94,1445.55 1561.21,1445.76 1563.48,1445.97 1565.75,1446.17 1568.02,1446.37 1570.28,1446.57 1572.55,1446.76 1574.82,1446.95 1577.09,1447.13 1579.36,1447.31 1581.63,1447.49 1583.89,1447.66 1586.16,1447.83 1588.43,1448 1590.7,1448.16 1592.97,1448.32 1595.23,1448.48 1597.5,1448.63 1599.77,1448.78 1602.04,1448.93 1604.31,1449.07 1606.57,1449.21 1608.84,1449.34 1611.11,1449.48 1613.38,1449.61 1615.65,1449.73 1617.91,1449.86 1620.18,1449.98 1622.45,1450.09 1624.72,1450.21 1626.99,1450.32 1629.25,1450.43 1631.52,1450.53 1633.79,1450.63 1636.06,1450.73 1638.33,1450.82 1640.59,1450.92 1642.86,1451 1645.13,1451.09 1647.4,1451.17 1649.67,1451.25 1651.93,1451.33 1654.2,1451.4 1656.47,1451.47 1658.74,1451.54 1661.01,1451.6 1663.27,1451.66 1665.54,1451.72 1667.81,1451.77 1670.08,1451.82 1672.35,1451.87 1674.61,1451.92 1676.88,1451.96 1679.15,1452 1681.42,1452.03 1683.69,1452.06 1685.95,1452.09 1688.22,1452.12 1690.49,1452.14 1692.76,1452.16 1695.03,1452.17 1697.29,1452.18 1699.56,1452.19 1701.83,1452.19 1704.1,1452.19 1706.37,1452.19 1708.63,1452.18 1710.9,1452.17 1713.17,1452.15 1715.44,1452.14 1717.71,1452.12 1719.98,1452.09 1722.24,1452.06 1724.51,1452.03 1726.78,1451.99 1729.05,1451.95 1731.32,1451.91 1733.58,1451.86 1735.85,1451.81 1738.12,1451.75 1740.39,1451.69 1742.66,1451.63 1744.92,1451.56 1747.19,1451.49 1749.46,1451.41 1751.73,1451.33 1754,1451.24 1756.26,1451.15 1758.53,1451.05 1760.8,1450.95 1763.07,1450.84 1765.34,1450.73 1767.6,1450.61 1769.87,1450.49 1772.14,1450.36 1774.41,1450.23 1776.68,1450.08 1778.94,1449.94 1781.21,1449.78 1783.48,1449.62 1785.75,1449.45 1788.02,1449.28 1790.28,1449.09 1792.55,1448.9 1794.82,1448.71 1797.09,1448.5 1799.36,1448.29 1801.62,1448.06 1803.89,1447.83 1806.16,1447.59 1808.43,1447.34 1810.7,1447.09 1812.96,1446.82 1815.23,1446.54 1817.5,1446.25 1819.77,1445.95 1822.04,1445.65 1824.3,1445.33 1826.57,1445 1828.84,1444.65 1831.11,1444.29 1833.38,1443.89 1835.64,1443.46 1837.91,1443.01 1840.18,1442.54 1842.45,1442.04 1844.72,1441.52 1846.98,1440.98 1849.25,1440.43 1851.52,1439.86 1853.79,1439.27 1856.06,1438.67 1858.32,1438.06 1860.59,1437.43 1862.86,1436.79 1865.13,1436.14 1867.4,1435.47 1869.67,1434.79 1871.93,1434.1 1874.2,1433.39 1876.47,1432.67 1878.74,1431.93 1881.01,1431.18 1883.27,1430.41 1885.54,1429.62 1887.81,1428.82 1890.08,1427.99 1892.35,1427.13 1894.61,1426.25 1896.88,1425.35 1899.15,1424.41 1901.42,1423.44 1903.69,1422.44 1905.95,1421.4 1908.22,1420.31 1910.49,1419.19 1912.76,1418.02 1915.03,1416.79 1917.29,1415.52 1919.56,1414.18 1921.83,1412.79 1924.1,1411.32 1926.37,1409.79 1928.63,1408.19 1930.9,1406.5 1933.17,1404.73 1935.44,1402.87 1937.71,1400.92 1939.97,1398.87 1942.24,1396.72 1944.51,1394.46 1946.78,1392.08 1949.05,1389.58 1951.31,1386.95 1953.58,1384.19 1955.85,1381.29 1958.12,1378.24 1960.39,1375.04 1962.65,1371.67 1964.92,1368.15 1967.19,1364.44 1969.46,1360.56 1971.73,1356.48 1973.99,1352.21 1976.26,1347.74 1978.53,1343.05 1980.8,1338.14 1983.07,1333 1985.33,1327.63 1987.6,1322 1989.87,1316.12 1992.14,1309.98 1994.41,1303.57 1996.67,1296.87 1998.94,1289.88 2001.21,1282.59 2003.48,1274.98 2005.75,1267.06 2008.02,1258.8 2010.28,1250.2 2012.55,1241.25 2014.82,1231.93 2017.09,1222.24 2019.36,1212.17 2021.62,1201.7 2023.89,1190.82 2026.16,1179.53 2028.43,1167.8 2030.7,1155.63 2032.96,1143.01 2035.23,1129.91 2037.5,1116.31 2039.77,1102.18 2042.04,1087.53 2044.3,1072.34 2046.57,1056.61 2048.84,1040.32 2051.11,1023.48 2053.38,1006.09 2055.64,988.151 2057.91,969.668 2060.18,950.651 2062.45,931.108 2064.72,911.052 2066.98,890.499 2069.25,869.466 2071.52,847.973 2073.79,826.041 2076.06,803.697 2078.32,780.962 2080.59,757.848 2082.86,734.41 2085.13,710.703 2087.4,686.787 2089.66,662.717 2091.93,638.55 2094.2,614.342 2096.47,590.148 2098.74,566.024 2101,542.023 2103.27,518.201 2105.54,494.611 2107.81,471.306 2110.08,448.339 2112.34,425.762 2114.61,403.628 2116.88,381.988 2119.15,360.893 2121.42,340.393 2123.68,320.54 2125.95,301.383 2128.22,282.971 2130.49,265.352 2132.76,248.577 2135.02,232.682 2137.29,217.674 2139.56,203.562 2141.83,190.358 2144.1,178.068 2146.37,166.698 2148.63,156.25 2150.9,146.725 2153.17,138.12 2155.44,130.432 2157.71,123.654 2159.97,117.777 2162.24,112.789 2164.51,108.678 2166.78,105.426 2169.05,103.017 2171.31,101.428 2173.58,100.637 2175.85,100.619 2178.12,101.346 2180.39,102.788 2182.65,104.912 2184.92,107.684 2187.19,111.067 2189.46,115.022 2191.73,119.507 2193.99,124.51 2196.26,130.012 2198.53,135.989 2200.8,142.415 2203.07,149.267 2205.33,156.52 2207.6,164.153 2209.87,172.141 2212.14,180.464 2214.41,189.1 2216.67,198.029 2218.94,207.229 2221.21,216.683 2223.48,226.37 2225.75,236.271 2228.01,246.371 2230.28,256.649 2232.55,267.091 2234.82,277.68 2237.09,288.4 2239.35,299.237 2241.62,310.175 2243.89,321.2 2246.16,332.301 2248.43,343.463 2250.69,354.674 2252.96,365.923 2255.23,377.203 2257.5,388.506 2259.77,399.823 2262.03,411.149 2264.3,422.474 2266.57,433.793 2268.84,445.098 2271.11,456.383 2273.37,467.642 2275.64,478.869 2277.91,490.058 2280.18,501.206 2282.45,512.306 2284.71,523.355 2286.98,534.348 2289.25,545.281 2291.52,556.151 2293.79,566.955 2296.06,577.691 2298.32,588.354 2300.59,598.944 2302.86,609.458 2305.13,619.895 2307.4,630.251 2309.66,640.525 2311.93,650.715 2314.2,660.82 2316.47,670.839 2318.74,680.769 2321,690.611 2323.27,700.364 2325.54,710.025 2327.81,719.596 2330.08,729.074 2332.34,738.459 2334.61,747.752 2336.88,756.95 2339.15,766.055 2341.42,775.065 2343.68,783.982 2345.95,792.804 2348.22,801.532 2350.49,810.166 2352.76,818.706 "/>
<path clip-path="url(#clip590)" d="M162.518 355.045 L478.191 355.045 L478.191 95.8446 L162.518 95.8446  Z" fill="#ffffff" fill-rule="evenodd" fill-opacity="1"/>
<polyline clip-path="url(#clip590)" style="stroke:#000000; stroke-linecap:round; stroke-linejoin:round; stroke-width:4; stroke-opacity:1; fill:none" points="162.518,355.045 478.191,355.045 478.191,95.8446 162.518,95.8446 162.518,355.045 "/>
<polyline clip-path="url(#clip590)" style="stroke:#009af9; stroke-linecap:round; stroke-linejoin:round; stroke-width:12; stroke-opacity:1; fill:none" points="187.693,147.685 338.744,147.685 "/>
<path clip-path="url(#clip590)" d="M363.919 154.733 L363.919 139.039 L368.178 139.039 L368.178 154.571 Q368.178 158.252 369.613 160.104 Q371.048 161.932 373.919 161.932 Q377.368 161.932 379.359 159.733 Q381.372 157.534 381.372 153.738 L381.372 139.039 L385.632 139.039 L385.632 164.965 L381.372 164.965 L381.372 160.983 Q379.822 163.344 377.761 164.502 Q375.724 165.636 373.016 165.636 Q368.548 165.636 366.234 162.858 Q363.919 160.08 363.919 154.733 M374.636 138.414 L374.636 138.414 Z" fill="#000000" fill-rule="nonzero" fill-opacity="1" /><path clip-path="url(#clip590)" d="M394.011 128.946 L403.826 128.946 L403.826 132.256 L398.27 132.256 L398.27 167.904 L403.826 167.904 L403.826 171.215 L394.011 171.215 L394.011 128.946 Z" fill="#000000" fill-rule="nonzero" fill-opacity="1" /><path clip-path="url(#clip590)" d="M414.312 161.029 L421.951 161.029 L421.951 134.664 L413.641 136.331 L413.641 132.071 L421.905 130.405 L426.581 130.405 L426.581 161.029 L434.219 161.029 L434.219 164.965 L414.312 164.965 L414.312 161.029 Z" fill="#000000" fill-rule="nonzero" fill-opacity="1" /><path clip-path="url(#clip590)" d="M453.016 128.946 L453.016 171.215 L443.201 171.215 L443.201 167.904 L448.733 167.904 L448.733 132.256 L443.201 132.256 L443.201 128.946 L453.016 128.946 Z" fill="#000000" fill-rule="nonzero" fill-opacity="1" /><polyline clip-path="url(#clip590)" style="stroke:#e26f46; stroke-linecap:round; stroke-linejoin:round; stroke-width:12; stroke-opacity:1; fill:none" points="187.693,199.525 338.744,199.525 "/>
<path clip-path="url(#clip590)" d="M363.919 206.573 L363.919 190.879 L368.178 190.879 L368.178 206.411 Q368.178 210.092 369.613 211.944 Q371.048 213.772 373.919 213.772 Q377.368 213.772 379.359 211.573 Q381.372 209.374 381.372 205.578 L381.372 190.879 L385.632 190.879 L385.632 216.805 L381.372 216.805 L381.372 212.823 Q379.822 215.184 377.761 216.342 Q375.724 217.476 373.016 217.476 Q368.548 217.476 366.234 214.698 Q363.919 211.92 363.919 206.573 M374.636 190.254 L374.636 190.254 Z" fill="#000000" fill-rule="nonzero" fill-opacity="1" /><path clip-path="url(#clip590)" d="M394.011 180.786 L403.826 180.786 L403.826 184.096 L398.27 184.096 L398.27 219.744 L403.826 219.744 L403.826 223.055 L394.011 223.055 L394.011 180.786 Z" fill="#000000" fill-rule="nonzero" fill-opacity="1" /><path clip-path="url(#clip590)" d="M417.53 212.869 L433.849 212.869 L433.849 216.805 L411.905 216.805 L411.905 212.869 Q414.567 210.115 419.15 205.485 Q423.756 200.832 424.937 199.49 Q427.182 196.967 428.062 195.231 Q428.965 193.471 428.965 191.782 Q428.965 189.027 427.02 187.291 Q425.099 185.555 421.997 185.555 Q419.798 185.555 417.344 186.319 Q414.914 187.083 412.136 188.633 L412.136 183.911 Q414.96 182.777 417.414 182.198 Q419.868 181.62 421.905 181.62 Q427.275 181.62 430.469 184.305 Q433.664 186.99 433.664 191.481 Q433.664 193.61 432.854 195.532 Q432.067 197.43 429.96 200.022 Q429.381 200.694 426.28 203.911 Q423.178 207.106 417.53 212.869 Z" fill="#000000" fill-rule="nonzero" fill-opacity="1" /><path clip-path="url(#clip590)" d="M453.016 180.786 L453.016 223.055 L443.201 223.055 L443.201 219.744 L448.733 219.744 L448.733 184.096 L443.201 184.096 L443.201 180.786 L453.016 180.786 Z" fill="#000000" fill-rule="nonzero" fill-opacity="1" /><polyline clip-path="url(#clip590)" style="stroke:#3da44d; stroke-linecap:round; stroke-linejoin:round; stroke-width:12; stroke-opacity:1; fill:none" stroke-dasharray="48, 30" points="187.693,251.365 338.744,251.365 "/>
<path clip-path="url(#clip590)" d="M363.919 258.413 L363.919 242.719 L368.178 242.719 L368.178 258.251 Q368.178 261.932 369.613 263.784 Q371.048 265.612 373.919 265.612 Q377.368 265.612 379.359 263.413 Q381.372 261.214 381.372 257.418 L381.372 242.719 L385.632 242.719 L385.632 268.645 L381.372 268.645 L381.372 264.663 Q379.822 267.024 377.761 268.182 Q375.724 269.316 373.016 269.316 Q368.548 269.316 366.234 266.538 Q363.919 263.76 363.919 258.413 M374.636 242.094 L374.636 242.094 Z" fill="#000000" fill-rule="nonzero" fill-opacity="1" /><path clip-path="url(#clip590)" d="M394.011 232.626 L403.826 232.626 L403.826 235.936 L398.27 235.936 L398.27 271.584 L403.826 271.584 L403.826 274.895 L394.011 274.895 L394.011 232.626 Z" fill="#000000" fill-rule="nonzero" fill-opacity="1" /><path clip-path="url(#clip590)" d="M414.312 264.709 L421.951 264.709 L421.951 238.344 L413.641 240.011 L413.641 235.751 L421.905 234.085 L426.581 234.085 L426.581 264.709 L434.219 264.709 L434.219 268.645 L414.312 268.645 L414.312 264.709 Z" fill="#000000" fill-rule="nonzero" fill-opacity="1" /><path clip-path="url(#clip590)" d="M453.016 232.626 L453.016 274.895 L443.201 274.895 L443.201 271.584 L448.733 271.584 L448.733 235.936 L443.201 235.936 L443.201 232.626 L453.016 232.626 Z" fill="#000000" fill-rule="nonzero" fill-opacity="1" /><polyline clip-path="url(#clip590)" style="stroke:#c271d2; stroke-linecap:round; stroke-linejoin:round; stroke-width:12; stroke-opacity:1; fill:none" stroke-dasharray="48, 30" points="187.693,303.205 338.744,303.205 "/>
<path clip-path="url(#clip590)" d="M363.919 310.253 L363.919 294.559 L368.178 294.559 L368.178 310.091 Q368.178 313.772 369.613 315.624 Q371.048 317.452 373.919 317.452 Q377.368 317.452 379.359 315.253 Q381.372 313.054 381.372 309.258 L381.372 294.559 L385.632 294.559 L385.632 320.485 L381.372 320.485 L381.372 316.503 Q379.822 318.864 377.761 320.022 Q375.724 321.156 373.016 321.156 Q368.548 321.156 366.234 318.378 Q363.919 315.6 363.919 310.253 M374.636 293.934 L374.636 293.934 Z" fill="#000000" fill-rule="nonzero" fill-opacity="1" /><path clip-path="url(#clip590)" d="M394.011 284.466 L403.826 284.466 L403.826 287.776 L398.27 287.776 L398.27 323.424 L403.826 323.424 L403.826 326.735 L394.011 326.735 L394.011 284.466 Z" fill="#000000" fill-rule="nonzero" fill-opacity="1" /><path clip-path="url(#clip590)" d="M417.53 316.549 L433.849 316.549 L433.849 320.485 L411.905 320.485 L411.905 316.549 Q414.567 313.795 419.15 309.165 Q423.756 304.512 424.937 303.17 Q427.182 300.647 428.062 298.911 Q428.965 297.151 428.965 295.462 Q428.965 292.707 427.02 290.971 Q425.099 289.235 421.997 289.235 Q419.798 289.235 417.344 289.999 Q414.914 290.763 412.136 292.313 L412.136 287.591 Q414.96 286.457 417.414 285.878 Q419.868 285.3 421.905 285.3 Q427.275 285.3 430.469 287.985 Q433.664 290.67 433.664 295.161 Q433.664 297.29 432.854 299.212 Q432.067 301.11 429.96 303.702 Q429.381 304.374 426.28 307.591 Q423.178 310.786 417.53 316.549 Z" fill="#000000" fill-rule="nonzero" fill-opacity="1" /><path clip-path="url(#clip590)" d="M453.016 284.466 L453.016 326.735 L443.201 326.735 L443.201 323.424 L448.733 323.424 L448.733 287.776 L443.201 287.776 L443.201 284.466 L453.016 284.466 Z" fill="#000000" fill-rule="nonzero" fill-opacity="1" /></svg>
