<?xml version="1.0" encoding="utf-8"?>
<svg xmlns="http://www.w3.org/2000/svg" xmlns:xlink="http://www.w3.org/1999/xlink" width="600" height="400" viewBox="0 0 2400 1600">
<defs>
  <clipPath id="clip530">
    <rect x="0" y="0" width="2400" height="1600"/>
  </clipPath>
</defs>
<path clip-path="url(#clip530)" d="M0 1600 L2400 1600 L2400 0 L0 0  Z" fill="#ffffff" fill-rule="evenodd" fill-opacity="1"/>
<defs>
  <clipPath id="clip531">
    <rect x="480" y="0" width="1681" height="1600"/>
  </clipPath>
</defs>
<path clip-path="url(#clip530)" d="M86.9921 1505.26 L2352.76 1505.26 L2352.76 47.2441 L86.9921 47.2441  Z" fill="#ffffff" fill-rule="evenodd" fill-opacity="1"/>
<defs>
  <clipPath id="clip532">
    <rect x="86" y="47" width="2267" height="1459"/>
  </clipPath>
</defs>
<polyline clip-path="url(#clip532)" style="stroke:#000000; stroke-linecap:round; stroke-linejoin:round; stroke-width:2; stroke-opacity:0.1; fill:none" points="86.9921,1505.26 86.9921,47.2441 "/>
<polyline clip-path="url(#clip532)" style="stroke:#000000; stroke-linecap:round; stroke-linejoin:round; stroke-width:2; stroke-opacity:0.1; fill:none" points="653.433,1505.26 653.433,47.2441 "/>
<polyline clip-path="url(#clip532)" style="stroke:#000000; stroke-linecap:round; stroke-linejoin:round; stroke-width:2; stroke-opacity:0.1; fill:none" points="1219.87,1505.26 1219.87,47.2441 "/>
<polyline clip-path="url(#clip532)" style="stroke:#000000; stroke-linecap:round; stroke-linejoin:round; stroke-width:2; stroke-opacity:0.1; fill:none" points="1786.31,1505.26 1786.31,47.2441 "/>
<polyline clip-path="url(#clip532)" style="stroke:#000000; stroke-linecap:round; stroke-linejoin:round; stroke-width:2; stroke-opacity:0.1; fill:none" points="2352.76,1505.26 2352.76,47.2441 "/>
<polyline clip-path="url(#clip530)" style="stroke:#000000; stroke-linecap:round; stroke-linejoin:round; stroke-width:4; stroke-opacity:1; fill:none" points="86.9921,1505.26 2352.76,1505.26 "/>
<polyline clip-path="url(#clip530)" style="stroke:#000000; stroke-linecap:round; stroke-linejoin:round; stroke-width:4; stroke-opacity:1; fill:none" points="86.9921,1505.26 86.9921,1486.36 "/>
<polyline clip-path="url(#clip530)" style="stroke:#000000; stroke-linecap:round; stroke-linejoin:round; stroke-width:4; stroke-opacity:1; fill:none" points="653.433,1505.26 653.433,1486.36 "/>
<polyline clip-path="url(#clip530)" style="stroke:#000000; stroke-linecap:round; stroke-linejoin:round; stroke-width:4; stroke-opacity:1; fill:none" points="1219.87,1505.26 1219.87,1486.36 "/>
<polyline clip-path="url(#clip530)" style="stroke:#000000; stroke-linecap:round; stroke-linejoin:round; stroke-width:4; stroke-opacity:1; fill:none" points="1786.31,1505.26 1786.31,1486.36 "/>
<polyline clip-path="url(#clip530)" style="stroke:#000000; stroke-linecap:round; stroke-linejoin:round; stroke-width:4; stroke-opacity:1; fill:none" points="2352.76,1505.26 2352.76,1486.36 "/>
<path clip-path="url(#clip530)" d="M64.3765 1536.18 Q60.7654 1536.18 58.9367 1539.74 Q57.1312 1543.28 57.1312 1550.41 Q57.1312 1557.52 58.9367 1561.09 Q60.7654 1564.63 64.3765 1564.63 Q68.0107 1564.63 69.8163 1561.09 Q71.645 1557.52 71.645 1550.41 Q71.645 1543.28 69.8163 1539.74 Q68.0107 1536.18 64.3765 1536.18 M64.3765 1532.47 Q70.1867 1532.47 73.2422 1537.08 Q76.3209 1541.66 76.3209 1550.41 Q76.3209 1559.14 73.2422 1563.75 Q70.1867 1568.33 64.3765 1568.33 Q58.5664 1568.33 55.4877 1563.75 Q52.4321 1559.14 52.4321 1550.41 Q52.4321 1541.66 55.4877 1537.08 Q58.5664 1532.47 64.3765 1532.47 Z" fill="#000000" fill-rule="nonzero" fill-opacity="1" /><path clip-path="url(#clip530)" d="M84.5384 1561.78 L89.4227 1561.78 L89.4227 1567.66 L84.5384 1567.66 L84.5384 1561.78 Z" fill="#000000" fill-rule="nonzero" fill-opacity="1" /><path clip-path="url(#clip530)" d="M109.608 1536.18 Q105.997 1536.18 104.168 1539.74 Q102.362 1543.28 102.362 1550.41 Q102.362 1557.52 104.168 1561.09 Q105.997 1564.63 109.608 1564.63 Q113.242 1564.63 115.048 1561.09 Q116.876 1557.52 116.876 1550.41 Q116.876 1543.28 115.048 1539.74 Q113.242 1536.18 109.608 1536.18 M109.608 1532.47 Q115.418 1532.47 118.473 1537.08 Q121.552 1541.66 121.552 1550.41 Q121.552 1559.14 118.473 1563.75 Q115.418 1568.33 109.608 1568.33 Q103.798 1568.33 100.719 1563.75 Q97.6634 1559.14 97.6634 1550.41 Q97.6634 1541.66 100.719 1537.08 Q103.798 1532.47 109.608 1532.47 Z" fill="#000000" fill-rule="nonzero" fill-opacity="1" /><path clip-path="url(#clip530)" d="M631.315 1536.18 Q627.704 1536.18 625.875 1539.74 Q624.07 1543.28 624.07 1550.41 Q624.07 1557.52 625.875 1561.09 Q627.704 1564.63 631.315 1564.63 Q634.949 1564.63 636.755 1561.09 Q638.584 1557.52 638.584 1550.41 Q638.584 1543.28 636.755 1539.74 Q634.949 1536.18 631.315 1536.18 M631.315 1532.47 Q637.125 1532.47 640.181 1537.08 Q643.26 1541.66 643.26 1550.41 Q643.26 1559.14 640.181 1563.75 Q637.125 1568.33 631.315 1568.33 Q625.505 1568.33 622.426 1563.75 Q619.371 1559.14 619.371 1550.41 Q619.371 1541.66 622.426 1537.08 Q625.505 1532.47 631.315 1532.47 Z" fill="#000000" fill-rule="nonzero" fill-opacity="1" /><path clip-path="url(#clip530)" d="M651.477 1561.78 L656.361 1561.78 L656.361 1567.66 L651.477 1567.66 L651.477 1561.78 Z" fill="#000000" fill-rule="nonzero" fill-opacity="1" /><path clip-path="url(#clip530)" d="M666.593 1533.1 L684.949 1533.1 L684.949 1537.04 L670.875 1537.04 L670.875 1545.51 Q671.894 1545.16 672.912 1545 Q673.931 1544.81 674.949 1544.81 Q680.736 1544.81 684.116 1547.98 Q687.495 1551.16 687.495 1556.57 Q687.495 1562.15 684.023 1565.25 Q680.551 1568.33 674.232 1568.33 Q672.056 1568.33 669.787 1567.96 Q667.542 1567.59 665.134 1566.85 L665.134 1562.15 Q667.218 1563.28 669.44 1563.84 Q671.662 1564.4 674.139 1564.4 Q678.144 1564.4 680.482 1562.29 Q682.819 1560.18 682.819 1556.57 Q682.819 1552.96 680.482 1550.85 Q678.144 1548.75 674.139 1548.75 Q672.264 1548.75 670.389 1549.16 Q668.537 1549.58 666.593 1550.46 L666.593 1533.1 Z" fill="#000000" fill-rule="nonzero" fill-opacity="1" /><path clip-path="url(#clip530)" d="M1187.03 1563.72 L1194.67 1563.72 L1194.67 1537.36 L1186.36 1539.03 L1186.36 1534.77 L1194.62 1533.1 L1199.3 1533.1 L1199.3 1563.72 L1206.93 1563.72 L1206.93 1567.66 L1187.03 1567.66 L1187.03 1563.72 Z" fill="#000000" fill-rule="nonzero" fill-opacity="1" /><path clip-path="url(#clip530)" d="M1216.38 1561.78 L1221.26 1561.78 L1221.26 1567.66 L1216.38 1567.66 L1216.38 1561.78 Z" fill="#000000" fill-rule="nonzero" fill-opacity="1" /><path clip-path="url(#clip530)" d="M1241.45 1536.18 Q1237.84 1536.18 1236.01 1539.74 Q1234.2 1543.28 1234.2 1550.41 Q1234.2 1557.52 1236.01 1561.09 Q1237.84 1564.63 1241.45 1564.63 Q1245.08 1564.63 1246.89 1561.09 Q1248.72 1557.52 1248.72 1550.41 Q1248.72 1543.28 1246.89 1539.74 Q1245.08 1536.18 1241.45 1536.18 M1241.45 1532.47 Q1247.26 1532.47 1250.31 1537.08 Q1253.39 1541.66 1253.39 1550.41 Q1253.39 1559.14 1250.31 1563.75 Q1247.26 1568.33 1241.45 1568.33 Q1235.64 1568.33 1232.56 1563.75 Q1229.5 1559.14 1229.5 1550.41 Q1229.5 1541.66 1232.56 1537.08 Q1235.64 1532.47 1241.45 1532.47 Z" fill="#000000" fill-rule="nonzero" fill-opacity="1" /><path clip-path="url(#clip530)" d="M1753.97 1563.72 L1761.6 1563.72 L1761.6 1537.36 L1753.29 1539.03 L1753.29 1534.77 L1761.56 1533.1 L1766.23 1533.1 L1766.23 1563.72 L1773.87 1563.72 L1773.87 1567.66 L1753.97 1567.66 L1753.97 1563.72 Z" fill="#000000" fill-rule="nonzero" fill-opacity="1" /><path clip-path="url(#clip530)" d="M1783.32 1561.78 L1788.2 1561.78 L1788.2 1567.66 L1783.32 1567.66 L1783.32 1561.78 Z" fill="#000000" fill-rule="nonzero" fill-opacity="1" /><path clip-path="url(#clip530)" d="M1798.43 1533.1 L1816.79 1533.1 L1816.79 1537.04 L1802.72 1537.04 L1802.72 1545.51 Q1803.73 1545.16 1804.75 1545 Q1805.77 1544.81 1806.79 1544.81 Q1812.58 1544.81 1815.96 1547.98 Q1819.34 1551.16 1819.34 1556.57 Q1819.34 1562.15 1815.86 1565.25 Q1812.39 1568.33 1806.07 1568.33 Q1803.9 1568.33 1801.63 1567.96 Q1799.38 1567.59 1796.97 1566.85 L1796.97 1562.15 Q1799.06 1563.28 1801.28 1563.84 Q1803.5 1564.4 1805.98 1564.4 Q1809.98 1564.4 1812.32 1562.29 Q1814.66 1560.18 1814.66 1556.57 Q1814.66 1552.96 1812.32 1550.85 Q1809.98 1548.75 1805.98 1548.75 Q1804.1 1548.75 1802.23 1549.16 Q1800.38 1549.58 1798.43 1550.46 L1798.43 1533.1 Z" fill="#000000" fill-rule="nonzero" fill-opacity="1" /><path clip-path="url(#clip530)" d="M2323.99 1563.72 L2340.31 1563.72 L2340.31 1567.66 L2318.37 1567.66 L2318.37 1563.72 Q2321.03 1560.97 2325.61 1556.34 Q2330.22 1551.69 2331.4 1550.35 Q2333.65 1547.82 2334.53 1546.09 Q2335.43 1544.33 2335.43 1542.64 Q2335.43 1539.88 2333.49 1538.15 Q2331.56 1536.41 2328.46 1536.41 Q2326.26 1536.41 2323.81 1537.17 Q2321.38 1537.94 2318.6 1539.49 L2318.6 1534.77 Q2321.43 1533.63 2323.88 1533.05 Q2326.33 1532.47 2328.37 1532.47 Q2333.74 1532.47 2336.93 1535.16 Q2340.13 1537.85 2340.13 1542.34 Q2340.13 1544.47 2339.32 1546.39 Q2338.53 1548.28 2336.42 1550.88 Q2335.85 1551.55 2332.74 1554.77 Q2329.64 1557.96 2323.99 1563.72 Z" fill="#000000" fill-rule="nonzero" fill-opacity="1" /><path clip-path="url(#clip530)" d="M2350.13 1561.78 L2355.01 1561.78 L2355.01 1567.66 L2350.13 1567.66 L2350.13 1561.78 Z" fill="#000000" fill-rule="nonzero" fill-opacity="1" /><path clip-path="url(#clip530)" d="M2375.2 1536.18 Q2371.59 1536.18 2369.76 1539.74 Q2367.95 1543.28 2367.95 1550.41 Q2367.95 1557.52 2369.76 1561.09 Q2371.59 1564.63 2375.2 1564.63 Q2378.83 1564.63 2380.64 1561.09 Q2382.47 1557.52 2382.47 1550.41 Q2382.47 1543.28 2380.64 1539.74 Q2378.83 1536.18 2375.2 1536.18 M2375.2 1532.47 Q2381.01 1532.47 2384.06 1537.08 Q2387.14 1541.66 2387.14 1550.41 Q2387.14 1559.14 2384.06 1563.75 Q2381.01 1568.33 2375.2 1568.33 Q2369.39 1568.33 2366.31 1563.75 Q2363.25 1559.14 2363.25 1550.41 Q2363.25 1541.66 2366.31 1537.08 Q2369.39 1532.47 2375.2 1532.47 Z" fill="#000000" fill-rule="nonzero" fill-opacity="1" /><path clip-path="url(#clip530)" d="M1218.94 1604.35 L1218.94 1614.48 L1231 1614.48 L1231 1619.03 L1218.94 1619.03 L1218.94 1638.38 Q1218.94 1642.74 1220.11 1643.98 Q1221.32 1645.22 1224.98 1645.22 L1231 1645.22 L1231 1650.12 L1224.98 1650.12 Q1218.2 1650.12 1215.62 1647.61 Q1213.05 1645.06 1213.05 1638.38 L1213.05 1619.03 L1208.75 1619.03 L1208.75 1614.48 L1213.05 1614.48 L1213.05 1604.35 L1218.94 1604.35 Z" fill="#000000" fill-rule="nonzero" fill-opacity="1" /><polyline clip-path="url(#clip532)" style="stroke:#000000; stroke-linecap:round; stroke-linejoin:round; stroke-width:2; stroke-opacity:0.1; fill:none" points="86.9921,1310.03 2352.76,1310.03 "/>
<polyline clip-path="url(#clip532)" style="stroke:#000000; stroke-linecap:round; stroke-linejoin:round; stroke-width:2; stroke-opacity:0.1; fill:none" points="86.9921,1102.68 2352.76,1102.68 "/>
<polyline clip-path="url(#clip532)" style="stroke:#000000; stroke-linecap:round; stroke-linejoin:round; stroke-width:2; stroke-opacity:0.1; fill:none" points="86.9921,895.328 2352.76,895.328 "/>
<polyline clip-path="url(#clip532)" style="stroke:#000000; stroke-linecap:round; stroke-linejoin:round; stroke-width:2; stroke-opacity:0.1; fill:none" points="86.9921,687.974 2352.76,687.974 "/>
<polyline clip-path="url(#clip532)" style="stroke:#000000; stroke-linecap:round; stroke-linejoin:round; stroke-width:2; stroke-opacity:0.1; fill:none" points="86.9921,480.621 2352.76,480.621 "/>
<polyline clip-path="url(#clip532)" style="stroke:#000000; stroke-linecap:round; stroke-linejoin:round; stroke-width:2; stroke-opacity:0.1; fill:none" points="86.9921,273.267 2352.76,273.267 "/>
<polyline clip-path="url(#clip532)" style="stroke:#000000; stroke-linecap:round; stroke-linejoin:round; stroke-width:2; stroke-opacity:0.1; fill:none" points="86.9921,65.9138 2352.76,65.9138 "/>
<polyline clip-path="url(#clip530)" style="stroke:#000000; stroke-linecap:round; stroke-linejoin:round; stroke-width:4; stroke-opacity:1; fill:none" points="86.9921,1505.26 86.9921,47.2441 "/>
<polyline clip-path="url(#clip530)" style="stroke:#000000; stroke-linecap:round; stroke-linejoin:round; stroke-width:4; stroke-opacity:1; fill:none" points="86.9921,1310.03 105.89,1310.03 "/>
<polyline clip-path="url(#clip530)" style="stroke:#000000; stroke-linecap:round; stroke-linejoin:round; stroke-width:4; stroke-opacity:1; fill:none" points="86.9921,1102.68 105.89,1102.68 "/>
<polyline clip-path="url(#clip530)" style="stroke:#000000; stroke-linecap:round; stroke-linejoin:round; stroke-width:4; stroke-opacity:1; fill:none" points="86.9921,895.328 105.89,895.328 "/>
<polyline clip-path="url(#clip530)" style="stroke:#000000; stroke-linecap:round; stroke-linejoin:round; stroke-width:4; stroke-opacity:1; fill:none" points="86.9921,687.974 105.89,687.974 "/>
<polyline clip-path="url(#clip530)" style="stroke:#000000; stroke-linecap:round; stroke-linejoin:round; stroke-width:4; stroke-opacity:1; fill:none" points="86.9921,480.621 105.89,480.621 "/>
<polyline clip-path="url(#clip530)" style="stroke:#000000; stroke-linecap:round; stroke-linejoin:round; stroke-width:4; stroke-opacity:1; fill:none" points="86.9921,273.267 105.89,273.267 "/>
<polyline clip-path="url(#clip530)" style="stroke:#000000; stroke-linecap:round; stroke-linejoin:round; stroke-width:4; stroke-opacity:1; fill:none" points="86.9921,65.9138 105.89,65.9138 "/>
<path clip-path="url(#clip530)" d="M31.0848 1323.38 L38.7237 1323.38 L38.7237 1297.01 L30.4135 1298.68 L30.4135 1294.42 L38.6774 1292.75 L43.3533 1292.75 L43.3533 1323.38 L50.9921 1323.38 L50.9921 1327.31 L31.0848 1327.31 L31.0848 1323.38 Z" fill="#000000" fill-rule="nonzero" fill-opacity="1" /><path clip-path="url(#clip530)" d="M34.6728 1116.03 L50.9921 1116.03 L50.9921 1119.96 L29.0478 1119.96 L29.0478 1116.03 Q31.7098 1113.27 36.2931 1108.64 Q40.8996 1103.99 42.0801 1102.65 Q44.3255 1100.12 45.2051 1098.39 Q46.1079 1096.63 46.1079 1094.94 Q46.1079 1092.18 44.1635 1090.45 Q42.2422 1088.71 39.1403 1088.71 Q36.9413 1088.71 34.4876 1089.48 Q32.057 1090.24 29.2793 1091.79 L29.2793 1087.07 Q32.1033 1085.93 34.557 1085.35 Q37.0107 1084.78 39.0477 1084.78 Q44.4181 1084.78 47.6125 1087.46 Q50.8069 1090.15 50.8069 1094.64 Q50.8069 1096.77 49.9968 1098.69 Q49.2097 1100.59 47.1033 1103.18 Q46.5246 1103.85 43.4227 1107.07 Q40.3209 1110.26 34.6728 1116.03 Z" fill="#000000" fill-rule="nonzero" fill-opacity="1" /><path clip-path="url(#clip530)" d="M43.8625 893.974 Q47.219 894.691 49.094 896.96 Q50.9921 899.228 50.9921 902.561 Q50.9921 907.677 47.4736 910.478 Q43.9551 913.279 37.4737 913.279 Q35.2978 913.279 32.983 912.839 Q30.6913 912.422 28.2376 911.566 L28.2376 907.052 Q30.1821 908.186 32.4969 908.765 Q34.8117 909.344 37.3348 909.344 Q41.7329 909.344 44.0246 907.608 Q46.3394 905.872 46.3394 902.561 Q46.3394 899.506 44.1866 897.793 Q42.057 896.057 38.2376 896.057 L34.2098 896.057 L34.2098 892.214 L38.4227 892.214 Q41.8718 892.214 43.7005 890.849 Q45.5292 889.46 45.5292 886.867 Q45.5292 884.205 43.6311 882.793 Q41.7561 881.358 38.2376 881.358 Q36.3163 881.358 34.1172 881.775 Q31.9182 882.191 29.2793 883.071 L29.2793 878.904 Q31.9413 878.163 34.2561 877.793 Q36.5941 877.423 38.6542 877.423 Q43.9783 877.423 47.0801 879.853 Q50.1819 882.261 50.1819 886.381 Q50.1819 889.251 48.5384 891.242 Q46.8949 893.21 43.8625 893.974 Z" fill="#000000" fill-rule="nonzero" fill-opacity="1" /><path clip-path="url(#clip530)" d="M41.4088 674.768 L29.6034 693.217 L41.4088 693.217 L41.4088 674.768 M40.182 670.694 L46.0616 670.694 L46.0616 693.217 L50.9921 693.217 L50.9921 697.106 L46.0616 697.106 L46.0616 705.254 L41.4088 705.254 L41.4088 697.106 L25.8071 697.106 L25.8071 692.592 L40.182 670.694 Z" fill="#000000" fill-rule="nonzero" fill-opacity="1" /><path clip-path="url(#clip530)" d="M30.0895 463.341 L48.4458 463.341 L48.4458 467.276 L34.3718 467.276 L34.3718 475.748 Q35.3904 475.401 36.4089 475.239 Q37.4274 475.054 38.4459 475.054 Q44.2329 475.054 47.6125 478.225 Q50.9921 481.396 50.9921 486.813 Q50.9921 492.392 47.5199 495.493 Q44.0477 498.572 37.7283 498.572 Q35.5524 498.572 33.2839 498.202 Q31.0385 497.831 28.6311 497.091 L28.6311 492.392 Q30.7145 493.526 32.9367 494.081 Q35.1589 494.637 37.6357 494.637 Q41.6403 494.637 43.9783 492.53 Q46.3162 490.424 46.3162 486.813 Q46.3162 483.202 43.9783 481.095 Q41.6403 478.989 37.6357 478.989 Q35.7607 478.989 33.8857 479.405 Q32.0339 479.822 30.0895 480.702 L30.0895 463.341 Z" fill="#000000" fill-rule="nonzero" fill-opacity="1" /><path clip-path="url(#clip530)" d="M39.4644 271.404 Q36.3163 271.404 34.4644 273.557 Q32.6357 275.709 32.6357 279.459 Q32.6357 283.186 34.4644 285.362 Q36.3163 287.515 39.4644 287.515 Q42.6125 287.515 44.4412 285.362 Q46.2931 283.186 46.2931 279.459 Q46.2931 275.709 44.4412 273.557 Q42.6125 271.404 39.4644 271.404 M48.7468 256.751 L48.7468 261.01 Q46.9875 260.177 45.182 259.737 Q43.3996 259.297 41.6403 259.297 Q37.0107 259.297 34.557 262.422 Q32.1265 265.547 31.7793 271.867 Q33.145 269.853 35.2052 268.788 Q37.2653 267.7 39.7422 267.7 Q44.9505 267.7 47.9597 270.871 Q50.9921 274.02 50.9921 279.459 Q50.9921 284.783 47.844 288.001 Q44.6959 291.219 39.4644 291.219 Q33.4691 291.219 30.2978 286.635 Q27.1265 282.029 27.1265 273.302 Q27.1265 265.108 31.0154 260.246 Q34.9042 255.362 41.4551 255.362 Q43.2144 255.362 44.9968 255.709 Q46.8023 256.057 48.7468 256.751 Z" fill="#000000" fill-rule="nonzero" fill-opacity="1" /><path clip-path="url(#clip530)" d="M28.77 48.6338 L50.9921 48.6338 L50.9921 50.6245 L38.4459 83.1938 L33.5617 83.1938 L45.3672 52.569 L28.77 52.569 L28.77 48.6338 Z" fill="#000000" fill-rule="nonzero" fill-opacity="1" /><polyline clip-path="url(#clip532)" style="stroke:#009af9; stroke-linecap:round; stroke-linejoin:round; stroke-width:12; stroke-opacity:1; fill:none" points="86.9921,1310.03 200.28,1297.37 313.569,1280.17 426.857,1258.37 540.145,1231.73 653.433,1199.88 766.721,1162.34 880.009,1118.53 993.298,1067.76 1106.59,1009.32 1219.87,942.434 1333.16,866.354 1446.45,780.474 1559.74,684.558 1673.03,578.976 1786.31,465.194 1899.6,347.517 2012.89,233.357 2126.18,138.712 2239.47,88.5087 2352.76,112.83 "/>
<polyline clip-path="url(#clip532)" style="stroke:#e26f46; stroke-linecap:round; stroke-linejoin:round; stroke-width:12; stroke-opacity:1; fill:none" points="86.9921,1310.03 200.28,1347.13 313.569,1376.58 426.857,1399.84 540.145,1418.1 653.433,1432.34 766.721,1443.31 880.009,1451.59 993.298,1457.59 1106.59,1461.6 1219.87,1463.74 1333.16,1464 1446.45,1462.14 1559.74,1457.63 1673.03,1449.52 1786.31,1436.22 1899.6,1414.64 2012.89,1380.09 2126.18,1323.42 2239.47,1233.24 2352.76,1099.58 "/>
<path clip-path="url(#clip530)" d="M162.518 251.365 L478.191 251.365 L478.191 95.8446 L162.518 95.8446  Z" fill="#ffffff" fill-rule="evenodd" fill-opacity="1"/>
<polyline clip-path="url(#clip530)" style="stroke:#000000; stroke-linecap:round; stroke-linejoin:round; stroke-width:4; stroke-opacity:1; fill:none" points="162.518,251.365 478.191,251.365 478.191,95.8446 162.518,95.8446 162.518,251.365 "/>
<polyline clip-path="url(#clip530)" style="stroke:#009af9; stroke-linecap:round; stroke-linejoin:round; stroke-width:12; stroke-opacity:1; fill:none" points="187.693,147.685 338.744,147.685 "/>
<path clip-path="url(#clip530)" d="M363.919 154.733 L363.919 139.039 L368.178 139.039 L368.178 154.571 Q368.178 158.252 369.613 160.104 Q371.048 161.932 373.919 161.932 Q377.368 161.932 379.359 159.733 Q381.372 157.534 381.372 153.738 L381.372 139.039 L385.632 139.039 L385.632 164.965 L381.372 164.965 L381.372 160.983 Q379.822 163.344 377.761 164.502 Q375.724 165.636 373.016 165.636 Q368.548 165.636 366.234 162.858 Q363.919 160.08 363.919 154.733 M374.636 138.414 L374.636 138.414 Z" fill="#000000" fill-rule="nonzero" fill-opacity="1" /><path clip-path="url(#clip530)" d="M394.011 128.946 L403.826 128.946 L403.826 132.256 L398.27 132.256 L398.27 167.904 L403.826 167.904 L403.826 171.215 L394.011 171.215 L394.011 128.946 Z" fill="#000000" fill-rule="nonzero" fill-opacity="1" /><path clip-path="url(#clip530)" d="M414.312 161.029 L421.951 161.029 L421.951 134.664 L413.641 136.331 L413.641 132.071 L421.905 130.405 L426.581 130.405 L426.581 161.029 L434.219 161.029 L434.219 164.965 L414.312 164.965 L414.312 161.029 Z" fill="#000000" fill-rule="nonzero" fill-opacity="1" /><path clip-path="url(#clip530)" d="M453.016 128.946 L453.016 171.215 L443.201 171.215 L443.201 167.904 L448.733 167.904 L448.733 132.256 L443.201 132.256 L443.201 128.946 L453.016 128.946 Z" fill="#000000" fill-rule="nonzero" fill-opacity="1" /><polyline clip-path="url(#clip530)" style="stroke:#e26f46; stroke-linecap:round; stroke-linejoin:round; stroke-width:12; stroke-opacity:1; fill:none" points="187.693,199.525 338.744,199.525 "/>
<path clip-path="url(#clip530)" d="M363.919 206.573 L363.919 190.879 L368.178 190.879 L368.178 206.411 Q368.178 210.092 369.613 211.944 Q371.048 213.772 373.919 213.772 Q377.368 213.772 379.359 211.573 Q381.372 209.374 381.372 205.578 L381.372 190.879 L385.632 190.879 L385.632 216.805 L381.372 216.805 L381.372 212.823 Q379.822 215.184 377.761 216.342 Q375.724 217.476 373.016 217.476 Q368.548 217.476 366.234 214.698 Q363.919 211.92 363.919 206.573 M374.636 190.254 L374.636 190.254 Z" fill="#000000" fill-rule="nonzero" fill-opacity="1" /><path clip-path="url(#clip530)" d="M394.011 180.786 L403.826 180.786 L403.826 184.096 L398.27 184.096 L398.27 219.744 L403.826 219.744 L403.826 223.055 L394.011 223.055 L394.011 180.786 Z" fill="#000000" fill-rule="nonzero" fill-opacity="1" /><path clip-path="url(#clip530)" d="M417.53 212.869 L433.849 212.869 L433.849 216.805 L411.905 216.805 L411.905 212.869 Q414.567 210.115 419.15 205.485 Q423.756 200.832 424.937 199.49 Q427.182 196.967 428.062 195.231 Q428.965 193.471 428.965 191.782 Q428.965 189.027 427.02 187.291 Q425.099 185.555 421.997 185.555 Q419.798 185.555 417.344 186.319 Q414.914 187.083 412.136 188.633 L412.136 183.911 Q414.96 182.777 417.414 182.198 Q419.868 181.62 421.905 181.62 Q427.275 181.62 430.469 184.305 Q433.664 186.99 433.664 191.481 Q433.664 193.61 432.854 195.532 Q432.067 197.43 429.96 200.022 Q429.381 200.694 426.28 203.911 Q423.178 207.106 417.53 212.869 Z" fill="#000000" fill-rule="nonzero" fill-opacity="1" /><path clip-path="url(#clip530)" d="M453.016 180.786 L453.016 223.055 L443.201 223.055 L443.201 219.744 L448.733 219.744 L448.733 184.096 L443.201 184.096 L443.201 180.786 L453.016 180.786 Z" fill="#000000" fill-rule="nonzero" fill-opacity="1" /></svg>
